<svg width="250" height="250" viewBox="0 0 250 250" fill="none" xmlns="http://www.w3.org/2000/svg">
<path d="M219.59 68.13C208.235 50.895 186.65 40.66 165.79 42.63C144.93 44.6 125.73 58.63 117.925 77.685C113.925 87.41 112.675 98.32 106.715 107.02C100.605 115.94 90.42 121.26 80.43 125.705C70.44 130.15 59.93 134.245 52.065 141.705C44.2 149.165 39.565 161.165 44.2 170.885C48.94 180.765 60.91 184.715 69.555 191.615C78.2 198.515 83.695 208.665 92.52 215.335C100.675 221.5 111.19 224.21 121.5 224.19C131.81 224.17 141.95 221.57 151.58 217.975C181.445 206.83 209.58 186.09 221.495 157.06C243.55 103.3 219.59 68.13 219.59 68.13Z" fill="#005AEE"/>
<g opacity="0.7">
<path d="M219.59 68.13C208.235 50.895 186.65 40.66 165.79 42.63C144.93 44.6 125.73 58.63 117.925 77.685C113.925 87.41 112.675 98.32 106.715 107.02C100.605 115.94 90.42 121.26 80.43 125.705C70.44 130.15 59.93 134.245 52.065 141.705C44.2 149.165 39.565 161.165 44.2 170.885C48.94 180.765 60.91 184.715 69.555 191.615C78.2 198.515 83.695 208.665 92.52 215.335C100.675 221.5 111.19 224.21 121.5 224.19C131.81 224.17 141.95 221.57 151.58 217.975C181.445 206.83 209.58 186.09 221.495 157.06C243.55 103.3 219.59 68.13 219.59 68.13Z" fill="white"/>
</g>
<path d="M179.465 203.395C179.465 203.395 186.715 203.355 194.755 192.155C201.78 182.36 188.445 152.035 180.97 145.06C173.495 138.085 158.945 176.18 160.635 185.83C163.04 199.58 173.405 203.045 179.465 203.395Z" fill="#005AEE"/>
<path d="M191.23 184.555L180.07 195.65L181.195 223.92H177.5C177.455 223.725 177.595 204.25 177.715 181.535L169.16 173.33C169.81 173.33 168.66 172.22 168.53 172.11L177.755 178.5C177.83 164.305 177.9 152.875 177.9 152.875L178.735 151.83L179.2 167.01L187.09 161.33C186.975 161.44 185.81 162.55 186.46 162.55L179.28 169.69L179.95 191.56L192.13 182.795C191.965 182.965 190.295 184.555 191.23 184.555Z" stroke="#263238" stroke-miterlimit="10"/>
<path d="M212.635 212.6C212.635 212.6 221.455 211.965 225.855 203.6C230.605 194.555 219.02 173.1 213.1 171.51C206.6 169.755 196.34 186.9 198.44 200.22C199.88 209.31 208.56 212.37 212.635 212.6Z" fill="#005AEE"/>
<path d="M219.255 196.2L213.105 201.085C212.915 189.615 212.755 180.455 212.755 180.455L212 179.595L211.72 191.31V191.565L206.5 187.47C206.5 187.47 207.335 188.32 206.905 188.325L211.655 193.49L211.335 206.96L203.45 200.755C203.45 200.755 204.63 201.96 204.025 201.965L211.26 209.835L211.22 211.39L211.175 213.065L210.93 223.69L213.48 223.66C213.42 220.245 213.365 216.66 213.31 213.08C213.26 210.03 213.2 206.975 213.16 204.04C213.16 203.82 213.16 203.615 213.16 203.4L218.81 197.215C218.29 197.22 219.255 196.2 219.255 196.2Z" stroke="#263238" stroke-miterlimit="10"/>
<path d="M201.65 219.175C200.83 218.515 199.355 218.53 198.06 218.585C198.155 217.76 198.5 216.945 198.6 216.115C198.679 215.687 198.636 215.245 198.476 214.84C198.316 214.435 198.046 214.083 197.695 213.825C196.275 212.825 193.775 213.215 191.815 213.785C192.085 211.845 190.02 209.955 187.255 209.655C184.49 209.355 181.415 210.705 180.605 212.6C179.485 211.53 177.25 211.1 175.385 211.6C173.52 212.1 172.195 213.495 172.29 214.84C170.86 214.745 169.265 214.68 168.08 215.295C166.34 216.205 166.46 218.045 165.12 219.235C164.687 219.152 164.24 219.189 163.826 219.34C163.412 219.492 163.047 219.752 162.77 220.095C162.315 220.69 162.235 221.37 161.96 222.01C161.4 223.29 159.54 223.45 157.765 224.01L202.185 224.38C203.15 224.07 203.975 223.41 203.935 222.695C203.895 221.98 202.7 221.4 201.775 221.755C202.095 221.77 202.605 219.935 201.65 219.175Z" fill="#005AEE"/>
<path d="M221.62 221.12C221.12 220.72 220.21 220.725 219.42 220.76C219.475 220.26 219.685 219.76 219.75 219.26C219.799 218.998 219.773 218.726 219.675 218.478C219.577 218.229 219.41 218.013 219.195 217.855C218.325 217.245 216.79 217.48 215.59 217.83C215.755 216.64 214.49 215.48 212.795 215.3C211.1 215.12 209.215 215.94 208.72 217.1C208.035 216.445 206.66 216.185 205.52 216.495C204.38 216.805 203.565 217.655 203.625 218.495C202.745 218.435 201.77 218.39 201.045 218.77C199.975 219.33 200.045 220.455 199.23 221.185C198.964 221.135 198.689 221.157 198.434 221.251C198.18 221.344 197.956 221.505 197.785 221.715C197.57 222.083 197.402 222.476 197.285 222.885C196.945 223.67 195.785 223.765 194.715 224.11L221.94 224.335C222.53 224.145 223.035 223.74 223.015 223.305C222.995 222.87 222.255 222.51 221.69 222.73C221.89 222.715 222.205 221.59 221.62 221.12Z" fill="#005AEE"/>
<path d="M111.655 134.745C110.428 133.903 108.994 133.413 107.508 133.328C106.022 133.243 104.541 133.565 103.226 134.261C101.91 134.956 100.81 135.999 100.044 137.275C99.2778 138.551 98.8754 140.012 98.88 141.5V141.55C98.6316 141.232 98.3187 140.97 97.9618 140.781C97.6049 140.592 97.2121 140.481 96.8092 140.455C96.4063 140.429 96.0025 140.489 95.6243 140.63C95.2462 140.771 94.9022 140.991 94.615 141.275C94.4437 139.641 93.6525 138.135 92.4042 137.066C91.1558 135.998 89.5454 135.449 87.9045 135.532C86.2636 135.616 84.7171 136.325 83.5833 137.514C82.4496 138.703 81.8149 140.282 81.81 141.925C81.5423 141.736 81.2309 141.618 80.9052 141.582C80.5794 141.546 80.2499 141.594 79.9475 141.72C79.6452 141.847 79.3799 142.048 79.1766 142.305C78.9732 142.562 78.8385 142.867 78.785 143.19H124.22C124.22 142.093 123.905 141.02 123.314 140.097C122.722 139.174 121.878 138.44 120.882 137.981C119.886 137.523 118.78 137.36 117.694 137.511C116.608 137.662 115.588 138.122 114.755 138.835C114.48 138.047 114.087 137.305 113.59 136.635" stroke="#263238" stroke-linecap="round" stroke-linejoin="round"/>
<path d="M189.735 74.9449C191.229 74.4229 192.826 74.2662 194.393 74.4878C195.96 74.7095 197.452 75.303 198.742 76.2188C200.033 77.1346 201.086 78.3461 201.813 79.7519C202.539 81.1578 202.919 82.7173 202.92 84.2999V84.3599C203.222 83.9742 203.601 83.6567 204.034 83.4281C204.467 83.1995 204.944 83.065 205.432 83.0333C205.921 83.0017 206.411 83.0737 206.87 83.2446C207.329 83.4154 207.746 83.6814 208.095 84.0249C208.318 82.0537 209.285 80.2418 210.797 78.9583C212.31 77.6749 214.255 77.0164 216.236 77.1171C218.217 77.2178 220.086 78.0702 221.46 79.5004C222.835 80.9307 223.613 82.8312 223.635 84.8149C224.028 84.5321 224.501 84.3816 224.985 84.3849C225.542 84.3835 226.082 84.5804 226.507 84.9405C226.932 85.3005 227.215 85.8002 227.305 86.3499H172.17C172.166 85.0159 172.546 83.709 173.264 82.5848C173.982 81.4607 175.009 80.5668 176.221 80.0098C177.433 79.4527 178.78 79.256 180.1 79.4431C181.421 79.6302 182.66 80.1931 183.67 81.0649C184.17 79.6236 184.994 78.3165 186.08 77.2449" stroke="#263238" stroke-linecap="round" stroke-linejoin="round"/>
<path d="M20.525 63.4351H75.66C75.6639 62.1011 75.2842 60.7942 74.5659 59.67C73.8477 58.5459 72.8214 57.652 71.6093 57.095C70.3972 56.5379 69.0505 56.3412 67.7297 56.5283C66.4089 56.7154 65.1697 57.2784 64.16 58.1501C63.394 55.9373 61.8687 54.0674 59.8549 52.8723C57.8411 51.6773 55.4691 51.2343 53.1597 51.6221C50.8504 52.0099 48.7531 53.2034 47.2401 54.9906C45.7271 56.7779 44.8962 59.0434 44.895 61.3851V61.4451C44.5933 61.0595 44.2135 60.7419 43.7805 60.5133C43.3475 60.2847 42.8711 60.1502 42.3825 60.1185C41.8939 60.0869 41.4041 60.1589 40.9453 60.3298C40.4865 60.5007 40.0689 60.7666 39.72 61.1101C39.4968 59.1389 38.5304 57.327 37.0177 56.0435C35.5051 54.7601 33.56 54.1016 31.5788 54.2023C29.5975 54.3031 27.7292 55.1554 26.3545 56.5856C24.9799 58.0159 24.2022 59.9164 24.18 61.9001C23.7869 61.6173 23.3142 61.4668 22.83 61.4701C22.2755 61.4722 21.7397 61.6708 21.3177 62.0305C20.8957 62.3903 20.6149 62.8879 20.525 63.4351Z" fill="white" stroke="#263238" stroke-miterlimit="10"/>
<path d="M94.005 82.9248L95.715 93.6148" stroke="#005AEE" stroke-miterlimit="10"/>
<path d="M87.54 86.71L94.655 95.325" stroke="#005AEE" stroke-miterlimit="10"/>
<path d="M86.415 94.0249L93.075 96.6299" stroke="#005AEE" stroke-miterlimit="10"/>
<path d="M52.625 112.63V104.395" stroke="#263238" stroke-linecap="round" stroke-linejoin="round"/>
<path d="M33.235 112.63H52.625V106.555H33.235V112.63Z" fill="white" stroke="#263238" stroke-linecap="round" stroke-linejoin="round"/>
<path d="M33.235 112.63V104.395" stroke="#263238" stroke-linecap="round" stroke-linejoin="round"/>
<path d="M101.465 224.04H140.655V155.8H101.465V224.04Z" fill="white" stroke="#263238" stroke-linecap="round" stroke-linejoin="round"/>
<path d="M62.4 224.04H101.59L101.59 130.5H62.4L62.4 224.04Z" fill="white" stroke="#263238" stroke-linecap="round" stroke-linejoin="round"/>
<path d="M23.03 224.045H62.22L62.22 112.465H23.03L23.03 224.045Z" fill="white" stroke="#263238" stroke-linecap="round" stroke-linejoin="round"/>
<path d="M54.925 119.5V219.815" stroke="#005AEE" stroke-linecap="round" stroke-linejoin="round"/>
<path d="M46.355 119.5V219.815" stroke="#005AEE" stroke-linecap="round" stroke-linejoin="round"/>
<path d="M37.785 119.5V219.815" stroke="#005AEE" stroke-linecap="round" stroke-linejoin="round"/>
<path d="M29.22 119.5V219.815" stroke="#005AEE" stroke-linecap="round" stroke-linejoin="round"/>
<path d="M95.085 135.33V144.665V153.995V163.33V172.66V182V191.335V200.665V210V219.335V219.515" stroke="#005AEE" stroke-linecap="round" stroke-linejoin="round"/>
<path d="M86.515 135.33V144.665V153.995V163.33V172.66V182V191.335V200.665V210V219.335V219.515" stroke="#005AEE" stroke-linecap="round" stroke-linejoin="round"/>
<path d="M77.94 135.33V144.665V153.995V163.33V172.66V182V191.335V200.665V210V219.335V219.515" stroke="#005AEE" stroke-linecap="round" stroke-linejoin="round"/>
<path d="M69.375 135.33V144.665V153.995V163.33V172.66V182V191.335V200.665V210V219.335V219.515" stroke="#005AEE" stroke-linecap="round" stroke-linejoin="round"/>
<path d="M95.085 135.33H93.405H85.395H77.38H69.375" stroke="#005AEE" stroke-linecap="round" stroke-linejoin="round"/>
<path d="M95.085 144.665H93.405H85.395H77.38H69.375" stroke="#005AEE" stroke-linecap="round" stroke-linejoin="round"/>
<path d="M95.085 153.995H93.405H85.395H77.38H69.375" stroke="#005AEE" stroke-linecap="round" stroke-linejoin="round"/>
<path d="M95.085 163.33H93.405H85.395H77.38H69.375" stroke="#005AEE" stroke-linecap="round" stroke-linejoin="round"/>
<path d="M95.085 172.66H93.405H85.395H77.38H69.375" stroke="#005AEE" stroke-linecap="round" stroke-linejoin="round"/>
<path d="M95.085 182H93.405H85.395H77.38H69.375" stroke="#005AEE" stroke-linecap="round" stroke-linejoin="round"/>
<path d="M95.085 191.335H93.405H85.395H77.38H69.375" stroke="#005AEE" stroke-linecap="round" stroke-linejoin="round"/>
<path d="M95.085 200.665H93.405H85.395H77.38H69.375" stroke="#005AEE" stroke-linecap="round" stroke-linejoin="round"/>
<path d="M95.085 210H93.405H85.395H77.38H69.375" stroke="#005AEE" stroke-linecap="round" stroke-linejoin="round"/>
<path d="M95.085 219.335H93.405H85.395H77.38H69.375" stroke="#005AEE" stroke-linecap="round" stroke-linejoin="round"/>
<path d="M136.82 161.43H107.195" stroke="#005AEE" stroke-linecap="round" stroke-linejoin="round"/>
<path d="M136.82 170.765H107.195" stroke="#005AEE" stroke-linecap="round" stroke-linejoin="round"/>
<path d="M136.82 180.095H107.195" stroke="#005AEE" stroke-linecap="round" stroke-linejoin="round"/>
<path d="M136.82 189.43H107.195" stroke="#005AEE" stroke-linecap="round" stroke-linejoin="round"/>
<path d="M136.82 198.765H107.195" stroke="#005AEE" stroke-linecap="round" stroke-linejoin="round"/>
<path d="M136.82 208.1H107.195" stroke="#005AEE" stroke-linecap="round" stroke-linejoin="round"/>
<path d="M136.82 217.43H107.195" stroke="#005AEE" stroke-linecap="round" stroke-linejoin="round"/>
<path d="M227.305 224.335H209.385H207.3H20.525" stroke="#263238" stroke-linecap="round" stroke-linejoin="round"/>
<path d="M88.61 223.755C88.345 223.88 86.42 223.95 83.965 223.99C78.965 224.075 71.77 224.035 71.77 224.035C71.77 224.035 71.38 224.035 71.23 222.085C71.08 220.135 72.04 218.585 72.15 217.77C72.65 214.03 71.375 212.47 71.355 212.195C71.335 211.92 78.355 211.765 78.355 211.765L80.655 211.61L80.155 214.9C80.1237 215.087 80.107 215.276 80.105 215.465C80.0575 216.628 80.4221 217.771 81.1346 218.692C81.8471 219.614 82.8619 220.254 84 220.5H84.105C84.27 220.345 87.105 219.035 88.265 220.845C88.9 221.83 88.61 223.755 88.61 223.755Z" fill="#263238"/>
<mask id="mask0_142_5754" style="mask-type:luminance" maskUnits="userSpaceOnUse" x="71" y="211" width="18" height="14">
<path d="M88.61 223.755C88.345 223.88 86.42 223.95 83.965 223.99C78.965 224.075 71.77 224.035 71.77 224.035C71.77 224.035 71.38 224.035 71.23 222.085C71.08 220.135 72.04 218.585 72.15 217.77C72.65 214.03 71.375 212.47 71.355 212.195C71.335 211.92 78.355 211.765 78.355 211.765L80.655 211.61L80.155 214.9C80.1237 215.087 80.107 215.276 80.105 215.465C80.0575 216.628 80.4221 217.771 81.1346 218.692C81.8471 219.614 82.8619 220.254 84 220.5H84.105C84.27 220.345 87.105 219.035 88.265 220.845C88.9 221.83 88.61 223.755 88.61 223.755Z" fill="white"/>
</mask>
<g mask="url(#mask0_142_5754)">
<path opacity="0.2" d="M88.61 223.755C88.345 223.88 86.42 223.95 83.965 223.99C78.965 224.075 71.77 224.035 71.77 224.035C71.77 224.035 71.38 224.035 71.23 222.085C71.08 220.135 72.04 218.585 72.15 217.77C72.65 214.03 71.375 212.47 71.355 212.195C71.335 211.92 78.355 211.765 78.355 211.765L80.655 211.61L80.155 214.9C80.1237 215.087 80.107 215.276 80.105 215.465C80.0575 216.628 80.4221 217.771 81.1346 218.692C81.8471 219.614 82.8619 220.254 84 220.5H84.105C84.27 220.345 87.105 219.035 88.265 220.845C88.9 221.83 88.61 223.755 88.61 223.755Z" fill="white"/>
<path opacity="0.3" d="M83.965 224C78.965 224.085 71.77 224.045 71.77 224.045C71.77 224.045 71.38 224.045 71.23 222.095C71.08 220.145 72.04 218.595 72.15 217.78C72.65 214.04 71.375 212.48 71.355 212.205C71.335 211.93 78.355 211.775 78.355 211.775L80.655 211.62L80.155 214.91C80.1237 215.096 80.107 215.285 80.105 215.475C78.52 216.785 77.26 217.84 77.26 217.84C77.26 217.84 83.685 219.96 83.965 224Z" fill="black"/>
</g>
<path d="M88.61 223.755C88.345 223.88 86.42 223.95 83.965 223.99C78.965 224.075 71.77 224.035 71.77 224.035C71.77 224.035 71.38 224.035 71.23 222.085C71.08 220.135 72.04 218.585 72.15 217.77C72.65 214.03 71.375 212.47 71.355 212.195C71.335 211.92 78.355 211.765 78.355 211.765L80.655 211.61L80.155 214.9C80.1237 215.087 80.107 215.276 80.105 215.465C80.0575 216.628 80.4221 217.771 81.1346 218.692C81.8471 219.614 82.8619 220.254 84 220.5H84.105C84.27 220.345 87.105 219.035 88.265 220.845C88.9 221.83 88.61 223.755 88.61 223.755Z" stroke="#263238" stroke-linecap="round" stroke-linejoin="round"/>
<path d="M82.175 207.31C82.41 208.565 82.995 208.92 82.615 209.51C82.56 209.6 82.505 209.705 82.45 209.815C82.155 210.425 81.84 211.285 80.68 211.61C79.315 211.995 72.78 212.35 71.37 212.175C69.96 212 69.16 210.675 69.08 209.555C69 208.435 69.61 207.735 69.515 206.48C69.42 205.225 68.44 204.86 68.375 204.025C68.31 203.19 69.12 201.975 69.11 201.14C69.11 199.38 69.14 201.3 69.49 191.295C69.685 185.59 71.065 184.35 69.49 177.88C68.92 175.545 62.8 133.27 62.8 133.27L81.675 134.4C81.675 134.4 81.975 141.6 82.315 150.105C82.745 160.925 83.24 173.855 83.255 176.765C83.285 182.675 82.755 190.955 82.31 198.305C82.125 201.44 81.81 203.6 82.31 204.805C82.3693 204.931 82.4049 205.066 82.415 205.205C82.5 206 81.935 206.055 82.175 207.31Z" fill="#005AEE"/>
<mask id="mask1_142_5754" style="mask-type:luminance" maskUnits="userSpaceOnUse" x="62" y="133" width="22" height="80">
<path d="M82.175 207.31C82.41 208.565 82.995 208.92 82.615 209.51C82.56 209.6 82.505 209.705 82.45 209.815C82.155 210.425 81.84 211.285 80.68 211.61C79.315 211.995 72.78 212.35 71.37 212.175C69.96 212 69.16 210.675 69.08 209.555C69 208.435 69.61 207.735 69.515 206.48C69.42 205.225 68.44 204.86 68.375 204.025C68.31 203.19 69.12 201.975 69.11 201.14C69.11 199.38 69.14 201.3 69.49 191.295C69.685 185.59 71.065 184.35 69.49 177.88C68.92 175.545 62.8 133.27 62.8 133.27L81.675 134.4C81.675 134.4 81.975 141.6 82.315 150.105C82.745 160.925 83.24 173.855 83.255 176.765C83.285 182.675 82.755 190.955 82.31 198.305C82.125 201.44 81.81 203.6 82.31 204.805C82.3693 204.931 82.4049 205.066 82.415 205.205C82.5 206 81.935 206.055 82.175 207.31Z" fill="white"/>
</mask>
<g mask="url(#mask1_142_5754)">
<path opacity="0.3" d="M82.45 209.815C82.155 210.425 81.84 211.285 80.68 211.61C79.315 211.995 72.78 212.35 71.37 212.175C69.96 212 69.16 210.675 69.08 209.555C69 208.435 69.61 207.735 69.515 206.48C69.42 205.225 68.44 204.86 68.375 204.025C68.31 203.19 69.12 201.975 69.11 201.14C69.11 199.38 69.14 201.3 69.49 191.295C69.685 185.59 71.065 184.35 69.49 177.88C68.92 175.545 62.8 133.27 62.8 133.27L81.675 134.4C81.675 134.4 81.975 141.6 82.315 150.105C80.04 159.565 77.4 169.975 76.41 171.725L77.97 174.45C77.97 174.45 74.24 183.105 74.24 184.15C74.24 185.195 75.5 194.97 75.935 197C76.37 199.03 74.24 197.585 74.24 199.295C74.24 200.87 74.07 208.535 82.45 209.815Z" fill="black"/>
</g>
<path d="M82.175 207.31C82.41 208.565 82.995 208.92 82.615 209.51C82.56 209.6 82.505 209.705 82.45 209.815C82.155 210.425 81.84 211.285 80.68 211.61C79.315 211.995 72.78 212.35 71.37 212.175C69.96 212 69.16 210.675 69.08 209.555C69 208.435 69.61 207.735 69.515 206.48C69.42 205.225 68.44 204.86 68.375 204.025C68.31 203.19 69.12 201.975 69.11 201.14C69.11 199.38 69.14 201.3 69.49 191.295C69.685 185.59 71.065 184.35 69.49 177.88C68.92 175.545 62.8 133.27 62.8 133.27L81.675 134.4C81.675 134.4 81.975 141.6 82.315 150.105C82.745 160.925 83.24 173.855 83.255 176.765C83.285 182.675 82.755 190.955 82.31 198.305C82.125 201.44 81.81 203.6 82.31 204.805C82.3693 204.931 82.4049 205.066 82.415 205.205C82.5 206 81.935 206.055 82.175 207.31Z" stroke="#263238" stroke-linecap="round" stroke-linejoin="round"/>
<path d="M80.73 148.065C80.73 148.065 78.415 150.065 76.44 149.705" stroke="#263238" stroke-linecap="round" stroke-linejoin="round"/>
<path d="M80.5 151.845C80.5 151.845 76.6 150.905 76.155 150.115" stroke="#263238" stroke-linecap="round" stroke-linejoin="round"/>
<path d="M75.5 169.66C75.5 169.66 77.605 175.16 79.945 176.49" stroke="#263238" stroke-linecap="round" stroke-linejoin="round"/>
<path d="M80.05 206.165C80.05 206.165 75.375 207.61 73.05 206.555C70.725 205.5 74.885 208.97 79.255 208.665" stroke="#263238" stroke-linecap="round" stroke-linejoin="round"/>
<path d="M73.43 181.23C73.43 181.23 73.47 195.855 77.285 198.765" stroke="#263238" stroke-linecap="round" stroke-linejoin="round"/>
<path d="M77.35 214.025C78.2521 213.666 79.2095 213.464 80.18 213.43" stroke="#263238" stroke-linecap="round" stroke-linejoin="round"/>
<path d="M77.435 215.92C77.435 215.92 78.79 215.42 79.77 215.22" stroke="#263238" stroke-linecap="round" stroke-linejoin="round"/>
<path d="M77.69 217.735L79.875 217.08" stroke="#263238" stroke-linecap="round" stroke-linejoin="round"/>
<path d="M78.755 219.22L80.55 218.515" stroke="#263238" stroke-linecap="round" stroke-linejoin="round"/>
<path d="M80.79 220.495L81.835 219.69" stroke="#263238" stroke-linecap="round" stroke-linejoin="round"/>
<path d="M77.8 212.22C77.8 212.22 77.625 217.22 79.205 218.865C80.785 220.51 82.46 220.545 82.315 221.175" stroke="#263238" stroke-linecap="round" stroke-linejoin="round"/>
<path d="M63.385 211.635C63.385 211.635 56.315 211.78 56.29 212.06C56.265 212.34 57.29 213.895 56.125 217.63C55.875 218.445 54.625 219.99 54.465 221.935C54.305 223.88 54.67 223.88 54.67 223.88C54.67 223.88 70.67 223.97 71.555 223.605C71.555 223.605 72.175 221.685 71.72 220.73C70.82 218.835 67.515 220.365 67.62 220.385H67.515C65.05 219.84 63.81 217.385 64.65 214.785L65.715 211.5L63.385 211.635Z" fill="#263238"/>
<mask id="mask2_142_5754" style="mask-type:luminance" maskUnits="userSpaceOnUse" x="54" y="211" width="18" height="13">
<path d="M63.385 211.635C63.385 211.635 56.315 211.78 56.29 212.06C56.265 212.34 57.29 213.895 56.125 217.63C55.875 218.445 54.625 219.99 54.465 221.935C54.305 223.88 54.67 223.88 54.67 223.88C54.67 223.88 70.67 223.97 71.555 223.605C71.555 223.605 72.175 221.685 71.72 220.73C70.82 218.835 67.515 220.365 67.62 220.385H67.515C65.05 219.84 63.81 217.385 64.65 214.785L65.715 211.5L63.385 211.635Z" fill="white"/>
</mask>
<g mask="url(#mask2_142_5754)">
<path opacity="0.25" d="M63.385 211.635C63.385 211.635 56.315 211.78 56.29 212.06C56.265 212.34 57.29 213.895 56.125 217.63C55.875 218.445 54.625 219.99 54.465 221.935C54.305 223.88 54.67 223.88 54.67 223.88C54.67 223.88 70.67 223.97 71.555 223.605C71.555 223.605 72.175 221.685 71.72 220.73C70.82 218.835 67.515 220.365 67.62 220.385H67.515C65.05 219.84 63.81 217.385 64.65 214.785L65.715 211.5L63.385 211.635Z" fill="white"/>
</g>
<path d="M63.385 211.635C63.385 211.635 56.315 211.78 56.29 212.06C56.265 212.34 57.29 213.895 56.125 217.63C55.875 218.445 54.625 219.99 54.465 221.935C54.305 223.88 54.67 223.88 54.67 223.88C54.67 223.88 70.67 223.97 71.555 223.605C71.555 223.605 72.175 221.685 71.72 220.73C70.82 218.835 67.515 220.365 67.62 220.385H67.515C65.05 219.84 63.81 217.385 64.65 214.785L65.715 211.5L63.385 211.635Z" stroke="#263238" stroke-linecap="round" stroke-linejoin="round"/>
<path d="M80 134.4L61.32 133.27C61.32 133.27 60.175 175.475 60.32 177.805C60.785 184.265 59.195 185.5 58.015 191.2C55.945 201.2 56.225 199.27 55.945 201.025C55.81 201.86 54.79 203.075 54.71 203.91C54.63 204.745 55.55 205.11 55.43 206.36C55.31 207.61 54.57 208.32 54.465 209.43C54.36 210.54 54.925 211.87 56.305 212.045C57.685 212.22 64.305 211.865 65.715 211.48C67.125 211.095 67.53 209.98 68.01 209.385C68.49 208.79 67.97 208.44 67.945 207.185C67.92 205.93 68.485 205.895 68.56 205.075C68.5737 204.941 68.5618 204.805 68.525 204.675C68.22 203.48 68.91 201.325 69.63 198.175C71.33 190.84 73.295 182.57 74.275 176.675C74.775 173.735 76.53 160.565 77.97 149.675C77.97 149.675 79.35 147.45 80.05 143.14" fill="#005AEE"/>
<mask id="mask3_142_5754" style="mask-type:luminance" maskUnits="userSpaceOnUse" x="54" y="133" width="27" height="80">
<path d="M80 134.4L61.32 133.27C61.32 133.27 60.175 175.475 60.32 177.805C60.785 184.265 59.195 185.5 58.015 191.2C55.945 201.2 56.225 199.27 55.945 201.025C55.81 201.86 54.79 203.075 54.71 203.91C54.63 204.745 55.55 205.11 55.43 206.36C55.31 207.61 54.57 208.32 54.465 209.43C54.36 210.54 54.925 211.87 56.305 212.045C57.685 212.22 64.305 211.865 65.715 211.48C67.125 211.095 67.53 209.98 68.01 209.385C68.49 208.79 67.97 208.44 67.945 207.185C67.92 205.93 68.485 205.895 68.56 205.075C68.5737 204.941 68.5618 204.805 68.525 204.675C68.22 203.48 68.91 201.325 69.63 198.175C71.33 190.84 73.295 182.57 74.275 176.675C74.775 173.735 76.53 160.565 77.97 149.675C77.97 149.675 79.35 147.45 80.05 143.14" fill="white"/>
</mask>
<g mask="url(#mask3_142_5754)">
<path opacity="0.3" d="M61.26 134.735L61.095 141.04C64.2565 141.296 67.4335 141.296 70.595 141.04C76.765 140.49 80.52 137.755 80.52 137.755L80.02 134.4C80.02 134.4 73.02 136.285 69.575 136.02C66.13 135.755 62.83 135.34 61.26 134.735Z" fill="black"/>
</g>
<path d="M80 134.4L61.32 133.27C61.32 133.27 60.175 175.475 60.32 177.805C60.785 184.265 59.195 185.5 58.015 191.2C55.945 201.2 56.225 199.27 55.945 201.025C55.81 201.86 54.79 203.075 54.71 203.91C54.63 204.745 55.55 205.11 55.43 206.36C55.31 207.61 54.57 208.32 54.465 209.43C54.36 210.54 54.925 211.87 56.305 212.045C57.685 212.22 64.305 211.865 65.715 211.48C67.125 211.095 67.53 209.98 68.01 209.385C68.49 208.79 67.97 208.44 67.945 207.185C67.92 205.93 68.485 205.895 68.56 205.075C68.5737 204.941 68.5618 204.805 68.525 204.675C68.22 203.48 68.91 201.325 69.63 198.175C71.33 190.84 73.295 182.57 74.275 176.675C74.775 173.735 76.53 160.565 77.97 149.675C77.97 149.675 79.35 147.45 80.05 143.14" stroke="#263238" stroke-linecap="round" stroke-linejoin="round"/>
<path d="M70.77 185.445C70.77 185.445 64.31 196.445 57.935 200.04" stroke="#263238" stroke-linecap="round" stroke-linejoin="round"/>
<path d="M57.825 206.165L64.76 207.04C65.26 207.105 65.905 207.305 65.855 207.835C65.805 208.365 65.27 208.605 64.81 208.77C63.2659 209.346 61.5873 209.459 59.98 209.095" stroke="#263238" stroke-linecap="round" stroke-linejoin="round"/>
<path d="M58.03 202.83C60.5212 204.259 63.3337 205.033 66.205 205.08" stroke="#263238" stroke-linecap="round" stroke-linejoin="round"/>
<path d="M62.38 182.81C62.38 182.81 65.88 182.945 67.68 182.785C66.345 184.615 64.18 185.41 62.09 185.515" stroke="#263238" stroke-linecap="round" stroke-linejoin="round"/>
<path d="M65 138.5C65 138.5 64.5 156.47 64.32 163.945C64.14 171.42 63.82 180.135 63.82 180.135C63.6503 180.402 63.5351 180.699 63.481 181.011C63.4269 181.323 63.4351 181.642 63.505 181.95L63.785 182.87L63.635 185.465C63.4341 185.701 63.2882 185.978 63.2077 186.278C63.1273 186.577 63.1144 186.89 63.17 187.195C63.41 188.14 61.47 194.725 61.47 194.725L61.135 195.16C60.7923 195.57 60.5631 196.063 60.4701 196.589C60.3771 197.116 60.4236 197.657 60.605 198.16L59.91 203.8C59.5364 204.106 59.286 204.537 59.2051 205.013C59.1242 205.489 59.2183 205.978 59.47 206.39L58.82 209.33C58.4902 209.61 58.2697 209.997 58.1975 210.423C58.1252 210.849 58.2058 211.287 58.425 211.66L58.535 211.825" stroke="#263238" stroke-linecap="round" stroke-linejoin="round"/>
<path d="M97.355 105.36C96.855 106.455 92.595 109.36 92.595 109.36C92.5912 108.88 92.6936 108.405 92.895 107.97C93.2 107.5 93.395 107.05 93.59 106.77C93.6403 106.011 93.3908 105.262 92.895 104.685C92.315 104.04 91.86 105.65 91.605 106.72C91.35 107.79 89.68 109.42 89.755 110.22C89.9 111.14 90.085 112.045 90.32 112.945C90.32 112.945 83.195 115.445 82.41 113.945C80.7478 110.723 78.9118 107.593 76.91 104.57C75.235 106.91 76.555 110.14 77.5 114.11C78.445 118.08 81.355 123.64 81.355 123.64C86.565 121.14 92.485 114.64 92.485 114.64C92.485 114.64 93.875 114.02 95.595 113.43C97.315 112.84 97.065 112.335 97.34 110.645C97.615 108.955 99.06 106.645 98.975 105.775C98.89 104.905 97.865 104.27 97.355 105.36Z" fill="white" stroke="#263238" stroke-linecap="round" stroke-linejoin="round"/>
<path d="M80.5 113.805C80.435 117.425 81.15 129.7 81.925 134.57L60.72 134.035V133.68C62.275 127.92 61.265 121.68 58.81 116.265C57.51 113.39 56.93 109.715 56.26 106.235C54.555 97.3752 58.835 94.6302 62.41 94.2902C63.79 94.2252 63.91 93.2902 64.91 93.3652C65.6002 93.449 66.3004 93.3632 66.95 93.1152C67.395 94.9302 69.86 100.26 70.705 100.87C71.1154 101.194 71.6137 101.387 72.1352 101.425C72.6567 101.462 73.1775 101.342 73.63 101.08C74.48 100.485 74.715 99.3502 74.91 98.3302C74.9978 97.7774 75.1558 97.2381 75.38 96.7252C76.63 97.3502 78.81 98.0902 80.43 101.005C82.43 107.44 81.33 103.315 82.87 112.755C83.135 114.2 80.5 113.805 80.5 113.805Z" fill="white" stroke="#263238" stroke-linecap="round" stroke-linejoin="round"/>
<path d="M77.165 97.0553L75.115 96.3403C76.505 101.115 75.3 106.54 71.785 104.395C68.27 102.25 66.875 96.0853 65.825 93.3953C65.275 93.2253 63.04 93.1453 61.88 94.0353C63.09 96.2503 66.38 100.65 65.995 104.225C65.555 108.225 62.41 111.775 56.535 107.755C57.335 113.815 59.875 118.185 60.365 120.255C62.155 127.755 60.96 128.78 60.125 136.18C68.625 140.515 78.91 138.36 83.415 137.04C82.04 129.5 82.645 110.5 77.165 97.0553Z" fill="#005AEE"/>
<mask id="mask4_142_5754" style="mask-type:luminance" maskUnits="userSpaceOnUse" x="56" y="93" width="28" height="46">
<path d="M77.165 97.0553L75.115 96.3403C76.505 101.115 75.3 106.54 71.785 104.395C68.27 102.25 66.875 96.0853 65.825 93.3953C65.275 93.2253 63.04 93.1453 61.88 94.0353C63.09 96.2503 66.38 100.65 65.995 104.225C65.555 108.225 62.41 111.775 56.535 107.755C57.335 113.815 59.875 118.185 60.365 120.255C62.155 127.755 60.96 128.78 60.125 136.18C68.625 140.515 78.91 138.36 83.415 137.04C82.04 129.5 82.645 110.5 77.165 97.0553Z" fill="white"/>
</mask>
<g mask="url(#mask4_142_5754)">
<path opacity="0.3" d="M64.21 128.885C64.21 128.885 78.075 134.935 80.05 129.06C76.4107 129.851 72.6619 130.005 68.97 129.515L64.21 128.885Z" fill="black"/>
<path opacity="0.3" d="M59.295 115.795L69.37 107.795C69.37 107.795 71.37 113.295 66.01 116.45C62.385 118.585 59.295 115.795 59.295 115.795Z" fill="black"/>
</g>
<path d="M77.165 97.0553L75.115 96.3403C76.505 101.115 75.3 106.54 71.785 104.395C68.27 102.25 66.875 96.0853 65.825 93.3953C65.275 93.2253 63.04 93.1453 61.88 94.0353C63.09 96.2503 66.38 100.65 65.995 104.225C65.555 108.225 62.41 111.775 56.535 107.755C57.335 113.815 59.875 118.185 60.365 120.255C62.155 127.755 60.96 128.78 60.125 136.18C68.625 140.515 78.91 138.36 83.415 137.04C82.04 129.5 82.645 110.5 77.165 97.0553Z" stroke="#263238" stroke-linecap="round" stroke-linejoin="round"/>
<path d="M80.05 128.865C79.9634 129.242 79.7918 129.593 79.5482 129.893C79.3047 130.193 78.9957 130.433 78.645 130.595" stroke="#263238" stroke-linecap="round" stroke-linejoin="round"/>
<path d="M76.41 131.135C72.1929 131.519 67.955 130.672 64.21 128.695" stroke="#263238" stroke-linecap="round" stroke-linejoin="round"/>
<path d="M95.84 97.2501L91.5 108.825C91.423 109.031 91.3943 109.253 91.4159 109.472C91.4376 109.691 91.5091 109.903 91.625 110.09L92.43 111.38C92.825 112.015 94.22 112.205 94.82 111.795C95.0393 111.648 95.2126 111.441 95.32 111.2L99.6 99.6351C99.7109 99.3707 99.7407 99.0792 99.6855 98.7979C99.6303 98.5165 99.4926 98.258 99.29 98.0551L97.94 96.7501C97.8178 96.6278 97.6716 96.5321 97.5107 96.469C97.3497 96.4058 97.1775 96.3767 97.0047 96.3832C96.832 96.3898 96.6624 96.432 96.5067 96.5072C96.3511 96.5823 96.2126 96.6889 96.1 96.8201C95.9878 96.9463 95.8996 97.092 95.84 97.2501Z" fill="#263238"/>
<path d="M56.525 100.365C56.6285 102.093 57.0453 103.787 57.755 105.365C59.84 110.325 67.8 122.67 69.545 123.505C71.29 124.34 89.125 114.74 90.415 113.425C90.7817 113.016 91.0289 112.513 91.1294 111.973C91.2299 111.432 91.18 110.874 90.985 110.36C90.985 110.36 90.96 111.59 92.01 111.36C92.67 111.215 92.125 109.175 92.125 109.175C92.125 109.175 93.335 108.32 92.18 106.74C92.18 106.74 93.81 106.74 93.68 105.51C93.635 105.01 88.835 104.945 88.1 106.33C87.205 108.01 86.315 112.39 86.315 112.39C86.315 112.39 74.695 115.39 72.285 115.835L66 102.05" fill="white"/>
<path d="M56.525 100.365C56.6285 102.093 57.0453 103.787 57.755 105.365C59.84 110.325 67.8 122.67 69.545 123.505C71.29 124.34 89.125 114.74 90.415 113.425C90.7817 113.016 91.0289 112.513 91.1294 111.973C91.2299 111.432 91.18 110.874 90.985 110.36C90.985 110.36 90.96 111.59 92.01 111.36C92.67 111.215 92.125 109.175 92.125 109.175C92.125 109.175 93.335 108.32 92.18 106.74C92.18 106.74 93.81 106.74 93.68 105.51C93.635 105.01 88.835 104.945 88.1 106.33C87.205 108.01 86.315 112.39 86.315 112.39C86.315 112.39 74.695 115.39 72.285 115.835L66 102.05" stroke="#263238" stroke-linecap="round" stroke-linejoin="round"/>
<path d="M90.6 114.17C90.9622 113.257 91.5869 112.472 92.395 111.915C93.335 111.47 94.63 111.33 95.655 111.135C95.655 111.135 96.455 107.745 96.89 107.84C98.215 108.115 97.18 111.23 97.18 111.23" fill="white"/>
<path d="M90.6 114.17C90.9622 113.257 91.5869 112.472 92.395 111.915C93.335 111.47 94.63 111.33 95.655 111.135C95.655 111.135 96.455 107.745 96.89 107.84C98.215 108.115 97.18 111.23 97.18 111.23" stroke="#263238" stroke-linecap="round" stroke-linejoin="round"/>
<path d="M98.775 106.62C98.604 106.449 98.3749 106.348 98.1332 106.338C97.8915 106.328 97.6548 106.409 97.47 106.565C96.825 107.15 95.845 108.805 94.8 109.69" stroke="#263238" stroke-linecap="round" stroke-linejoin="round"/>
<path d="M89.5 110.18C89.785 109.55 91.81 108.485 92.21 109.85" stroke="#263238" stroke-linecap="round" stroke-linejoin="round"/>
<path d="M89.5 108.5C89.5 108.5 91.845 107.22 92.315 108.805" stroke="#263238" stroke-linecap="round" stroke-linejoin="round"/>
<path d="M89.795 107C89.795 107 90.77 106.81 90.985 106.79C91.76 106.715 92.605 106.615 93.025 106.615" stroke="#263238" stroke-linecap="round" stroke-linejoin="round"/>
<path d="M77.97 149.705C77.97 149.705 74.845 146.95 73.03 146.425L77.97 149.705Z" fill="#005AEE"/>
<path d="M77.97 149.705C77.97 149.705 74.845 146.95 73.03 146.425" stroke="#263238" stroke-linecap="round" stroke-linejoin="round"/>
<path d="M62.19 214.055C63.1112 213.694 64.0863 213.49 65.075 213.45" stroke="#263238" stroke-linecap="round" stroke-linejoin="round"/>
<path d="M62.12 216C62.12 216 63.515 215.5 64.51 215.285" stroke="#263238" stroke-linecap="round" stroke-linejoin="round"/>
<path d="M62.215 217.825L64.455 217.165" stroke="#263238" stroke-linecap="round" stroke-linejoin="round"/>
<path d="M63.15 219.335L65.01 218.62" stroke="#263238" stroke-linecap="round" stroke-linejoin="round"/>
<path d="M65.075 220.63L66.19 219.815" stroke="#263238" stroke-linecap="round" stroke-linejoin="round"/>
<path d="M62.8 212.22C62.8 212.22 62.19 217.32 63.635 218.975C65.08 220.63 66.74 220.68 66.545 221.325" stroke="#263238" stroke-linecap="round" stroke-linejoin="round"/>
<path d="M74.92 96.1349C74.92 96.1349 77.03 104.36 73.645 104.985C69.03 105.835 65.825 93.3799 65.825 93.3799C66.53 93.3349 66.615 93.0399 67.23 92.6899C67.23 92.6899 72.385 103 74.92 96.1349Z" fill="#263238"/>
<path d="M60.885 94.575C60.885 94.575 56.06 95.53 56.045 102.705C56.03 109.88 59.21 115.855 59.21 115.855C59.21 115.855 62.975 115.55 65.355 113.805C70.355 110.155 69.545 108.105 69.545 108.105L66.925 102.915C66.925 102.915 66.065 99.59 62.325 94.29L60.885 94.575Z" fill="#263238"/>
<path d="M77.46 97.3398C80.09 104.805 80.21 107.6 80.685 111.045C80.685 111.045 83.26 110.545 83.655 109.975C83.655 109.975 82.405 103.865 81.055 100.705C80.195 98.6998 79.065 97.9998 77.46 97.3398Z" fill="#263238"/>
<path d="M74.915 88.865C74.915 88.865 74.54 95.705 74.565 96.255C74.61 97.29 75.36 98.665 74.67 99.44C74.2895 99.7985 73.8101 100.035 73.294 100.117C72.7778 100.2 72.2486 100.126 71.775 99.905C70.837 99.4386 70.0257 98.7525 69.41 97.905C68.2241 96.4525 67.1951 94.8788 66.34 93.21C66.9121 92.6595 67.3323 91.9706 67.56 91.21C67.56 91.21 67.695 90.63 67.7 90.6C67.8742 89.1907 67.8557 87.7643 67.645 86.36C67.4058 84.6224 67.0023 82.9114 66.44 81.25L74.915 88.865Z" fill="white" stroke="#263238" stroke-linecap="round" stroke-linejoin="round"/>
<path d="M67.805 95.395C68.9884 95.7815 70.1361 96.27 71.235 96.855L67.805 95.395Z" fill="#263238"/>
<path d="M67.805 95.395C68.9884 95.7815 70.1361 96.27 71.235 96.855" stroke="#263238" stroke-linecap="round" stroke-linejoin="round"/>
<path d="M66.76 72.32C66.76 72.32 62.5 74.755 64.705 81.11C66.91 87.465 71.825 94.565 76.28 93.61C80.735 92.655 81.89 83.805 79.535 77.905C77.18 72.005 71.18 68.74 66.76 72.32Z" fill="white" stroke="#263238" stroke-linecap="round" stroke-linejoin="round"/>
<path d="M79.465 84.05C79.495 84.55 79.29 85.01 79.01 85.05C78.73 85.09 78.475 84.65 78.445 84.13C78.415 83.61 78.61 83.175 78.9 83.155C79.19 83.135 79.435 83.525 79.465 84.05Z" fill="#263238"/>
<path d="M75.12 83.8453C75.15 84.3453 74.95 84.8003 74.675 84.8203C74.4 84.8403 74.135 84.4203 74.105 83.9053C74.075 83.3903 74.275 82.9453 74.56 82.9053C74.845 82.8653 75.085 83.3153 75.12 83.8453Z" fill="#263238"/>
<path d="M76.755 73.4151C73.9 70.6351 70.015 69.7751 66.905 72.2901C66.905 72.2901 62.65 74.7251 64.855 81.0851C65.3894 82.6012 66.0362 84.0753 66.79 85.4951L66.87 85.5651C66.87 85.5651 65.47 84.1701 71.025 81.1001C72.85 80.0701 75.545 73.6451 76.755 73.4151Z" fill="#263238" stroke="#263238" stroke-linecap="round" stroke-linejoin="round"/>
<path d="M72.295 75.5C72.295 75.5 72.685 71.075 75.765 70.925C77.37 70.845 79.49 73 79.765 74.135C79.9375 74.9035 80.3293 75.6055 80.8929 76.1558C81.4564 76.706 82.1676 77.0809 82.94 77.235C82.94 77.235 82.05 80.235 80.315 80.455C77.45 80.805 75.965 80.135 74.115 77.61C73.5984 76.8769 73.016 76.1924 72.375 75.565L72.295 75.5Z" fill="#263238" stroke="#263238" stroke-linecap="round" stroke-linejoin="round"/>
<path d="M67.71 84.0002C67.71 84.0002 66.025 80.5302 64.525 84.3502C63.59 86.7302 67.33 88.6352 68.61 88.0052" fill="white"/>
<path d="M67.71 84.0002C67.71 84.0002 66.025 80.5302 64.525 84.3502C63.59 86.7302 67.33 88.6352 68.61 88.0052" stroke="#263238" stroke-linecap="round" stroke-linejoin="round"/>
<path d="M77.74 81.895C77.4563 82.2088 77.2513 82.5855 77.1418 82.9941C77.0322 83.4027 77.0214 83.8314 77.11 84.245C77.2394 85.153 77.547 86.0263 78.015 86.815L75.875 87.5" stroke="#263238" stroke-linecap="round" stroke-linejoin="round"/>
<path d="M74 89.0649C74.3364 89.4007 74.7616 89.6335 75.2256 89.7363C75.6896 89.839 76.1733 89.8073 76.62 89.6449" stroke="#263238" stroke-linecap="round" stroke-linejoin="round"/>
<path d="M71.605 81.8353C71.605 81.8353 73.105 80.1753 74.915 80.9753" stroke="#263238" stroke-linecap="round" stroke-linejoin="round"/>
<path d="M78.565 81.3949C78.565 81.3949 80.53 80.7799 80.28 82.5149" stroke="#263238" stroke-linecap="round" stroke-linejoin="round"/>
<path d="M67.675 85.9C67.5011 85.9058 67.3298 85.8561 67.186 85.7581C67.0422 85.6601 66.9333 85.5189 66.875 85.355C66.73 85.04 66.69 84.68 66.545 84.355C66.4851 84.191 66.3751 84.0501 66.2306 83.9523C66.0861 83.8544 65.9144 83.8046 65.74 83.81" fill="#263238"/>
<path d="M67.675 85.9C67.5011 85.9058 67.3298 85.8561 67.186 85.7581C67.0422 85.6601 66.9333 85.5189 66.875 85.355C66.73 85.04 66.69 84.68 66.545 84.355C66.4851 84.191 66.3751 84.0501 66.2306 83.9523C66.0861 83.8544 65.9144 83.8046 65.74 83.81" stroke="#263238" stroke-linecap="round" stroke-linejoin="round"/>
<path d="M73.91 72.1851C73.6977 71.2909 73.3611 70.4308 72.91 69.6301C72.91 69.6301 73.725 69.4251 74.175 69.3301C74.075 70.2051 74 71.3051 73.91 72.1851Z" fill="#263238" stroke="#263238" stroke-linecap="round" stroke-linejoin="round"/>
<path d="M74.765 93.4199L74.8 94.9199C74.4704 95.0655 74.1062 95.114 73.75 95.0599C71.83 94.8349 69.895 90.5599 69.775 90.3149L69.815 90.3599C72.085 92.8649 73.77 93.4049 74.765 93.4199Z" fill="#263238"/>
<path d="M139.63 107.81H152.265" stroke="#263238" stroke-linecap="round" stroke-linejoin="round"/>
<path d="M125.135 107.81H137.965" stroke="#263238" stroke-linecap="round" stroke-linejoin="round"/>
<path d="M118.3 107.81H122.245" stroke="#263238" stroke-linecap="round" stroke-linejoin="round"/>
<path d="M128.675 114.67H152.215" stroke="#263238" stroke-linecap="round" stroke-linejoin="round"/>
<path d="M122.245 114.67H125.135" stroke="#263238" stroke-linecap="round" stroke-linejoin="round"/>
<path d="M139.21 121.535H152.165" stroke="#263238" stroke-linecap="round" stroke-linejoin="round"/>
<path d="M126.19 121.535H137.295" stroke="#263238" stroke-linecap="round" stroke-linejoin="round"/>
<path d="M137.435 128.395H152.115" stroke="#263238" stroke-linecap="round" stroke-linejoin="round"/>
<path d="M130.135 128.395H135.35" stroke="#263238" stroke-linecap="round" stroke-linejoin="round"/>
<path d="M180.605 128.645H143.815L145.66 107.55H182.45L180.605 128.645Z" fill="white" stroke="#263238" stroke-linecap="round" stroke-linejoin="round"/>
<path d="M182.45 107.555H145.66" stroke="#263238" stroke-linecap="round" stroke-linejoin="round"/>
<path d="M180.605 128.645H143.815L156.39 116.705L162.78 122.15L170.26 116.6L180.605 128.645Z" fill="white" stroke="#263238" stroke-linecap="round" stroke-linejoin="round"/>
<path d="M182.45 107.55L170.26 116.6L162.78 122.15L156.39 116.705L145.66 107.55H182.45Z" fill="white" stroke="#263238" stroke-linecap="round" stroke-linejoin="round"/>
<path d="M114.78 107.81H105.545" stroke="#263238" stroke-linecap="round" stroke-linejoin="round"/>
<path d="M150.165 83.6453C142.795 89.6453 129.19 93.3103 129.19 93.3103L136.045 85.9653C132.701 84.8887 129.816 82.7202 127.851 79.8078C125.887 76.8953 124.957 73.4076 125.212 69.9038C125.466 66.4001 126.89 63.0833 129.255 60.4853C131.619 57.8873 134.788 56.1587 138.253 55.5766C141.717 54.9945 145.277 55.5927 148.36 57.2753C151.444 58.9578 153.874 61.6272 155.259 64.8554C156.645 68.0836 156.906 71.6836 156.002 75.0781C155.097 78.4726 153.078 81.465 150.27 83.5753" fill="white"/>
<path d="M150.165 83.6453C142.795 89.6453 129.19 93.3103 129.19 93.3103L136.045 85.9653C132.701 84.8887 129.816 82.7202 127.851 79.8078C125.887 76.8953 124.957 73.4076 125.212 69.9038C125.466 66.4001 126.89 63.0833 129.255 60.4853C131.619 57.8873 134.788 56.1587 138.253 55.5766C141.717 54.9945 145.277 55.5927 148.36 57.2753C151.444 58.9578 153.874 61.6272 155.259 64.8554C156.645 68.0836 156.906 71.6836 156.002 75.0781C155.097 78.4726 153.078 81.465 150.27 83.5753" stroke="#263238" stroke-linecap="round" stroke-linejoin="round"/>
<path d="M150.54 64.2852C153.089 64.2852 155.155 62.219 155.155 59.6702C155.155 57.1214 153.089 55.0552 150.54 55.0552C147.991 55.0552 145.925 57.1214 145.925 59.6702C145.925 62.219 147.991 64.2852 150.54 64.2852Z" fill="#005AEE" stroke="#263238" stroke-linecap="round" stroke-linejoin="round"/>
<path d="M147.865 58.6401L150.54 61.6501L156.625 54.4501L156.41 54.2251L150.54 59.2751L148.985 57.5801L147.865 58.6401Z" fill="#263238" stroke="#263238" stroke-linecap="round" stroke-linejoin="round"/>
<path d="M132.74 67.2451H149.975" stroke="#263238" stroke-linecap="round" stroke-linejoin="round"/>
<path d="M132.35 71.6953H149.585" stroke="#263238" stroke-linecap="round" stroke-linejoin="round"/>
<path d="M131.965 76.145H149.195" stroke="#263238" stroke-linecap="round" stroke-linejoin="round"/>
<path d="M186.24 27.9751V35.8651L207.825 19.2251L186.24 27.9751Z" fill="#005AEE" stroke="#263238" stroke-linecap="round" stroke-linejoin="round"/>
<path d="M186.24 27.9751L208.32 18.9551L178.17 22.0801L186.24 27.9751Z" fill="#005AEE" stroke="#263238" stroke-linecap="round" stroke-linejoin="round"/>
<path d="M188.835 29.6101L199.23 37.3001L208.32 18.9551L188.835 29.6101Z" fill="#005AEE" stroke="#263238" stroke-linecap="round" stroke-linejoin="round"/>
<path d="M188.835 29.6099L186.24 35.8649L191.77 31.7799L188.835 29.6099Z" fill="#005AEE" stroke="#263238" stroke-linecap="round" stroke-linejoin="round"/>
<path d="M103.525 95.7351C103.58 95.5751 103.64 95.4201 103.695 95.2651" stroke="#263238" stroke-linecap="round" stroke-linejoin="round"/>
<path d="M104.35 93.375C109 79.49 108.165 71.145 115.715 57.695C117.215 54.975 124.81 42.105 135.6 37.515C141.21 35.13 144.78 38.69 143.335 41.21C140.11 46.82 128.265 40.095 140.11 33.455C151.07 27.315 174.4 39.32 185.335 35.875" stroke="#263238" stroke-linecap="round" stroke-linejoin="round" stroke-dasharray="2 4"/>
<path d="M186.27 35.5303C186.425 35.4653 186.575 35.3953 186.725 35.3203" stroke="#263238" stroke-linecap="round" stroke-linejoin="round"/>
</svg>
