<svg width="201" height="200" viewBox="0 0 201 200" fill="none" xmlns="http://www.w3.org/2000/svg">
<path d="M75.055 31.3487C75.055 31.3487 49.763 41.1607 41.935 67.5487C34.107 93.9367 45.719 122.605 54.499 146.033C63.279 169.461 84.8471 182.233 106.603 177.633C128.359 173.033 126.451 153.461 145.539 135.753C164.627 118.045 172.699 116.185 177.971 91.0727C183.243 65.9607 160.135 37.7167 128.007 29.9447C95.879 22.1727 75.055 31.3487 75.055 31.3487Z" fill="#005AEE"/>
<path opacity="0.75" d="M75.055 31.3487C75.055 31.3487 49.763 41.1607 41.935 67.5487C34.107 93.9367 45.719 122.605 54.499 146.033C63.279 169.461 84.8471 182.233 106.603 177.633C128.359 173.033 126.451 153.461 145.539 135.753C164.627 118.045 172.699 116.185 177.971 91.0727C183.243 65.9607 160.135 37.7167 128.007 29.9447C95.879 22.1727 75.055 31.3487 75.055 31.3487Z" fill="white"/>
<path d="M131.927 128.225H111.175C109.61 128.223 108.11 127.6 107.003 126.493C105.896 125.387 105.274 123.886 105.271 122.321V51.0289C105.274 49.4641 105.896 47.964 107.003 46.8579C108.11 45.7518 109.611 45.13 111.175 45.1289H131.927V45.5289H111.175C109.717 45.53 108.318 46.1096 107.286 47.1407C106.254 48.1718 105.674 49.5702 105.671 51.0289V122.321C105.673 123.78 106.253 125.18 107.285 126.212C108.317 127.244 109.716 127.824 111.175 127.825H131.927V128.225Z" fill="#263238"/>
<path d="M153.527 128.225H118.595C116.898 128.225 115.27 127.551 114.07 126.35C112.87 125.15 112.195 123.522 112.195 121.825V51.5289C112.195 49.8315 112.87 48.2037 114.07 47.0034C115.27 45.8032 116.898 45.1289 118.595 45.1289H153.527C155.225 45.1289 156.853 45.8032 158.053 47.0034C159.253 48.2037 159.927 49.8315 159.927 51.5289V121.825C159.927 123.522 159.253 125.15 158.053 126.35C156.853 127.551 155.225 128.225 153.527 128.225ZM118.595 45.5289C117.004 45.5289 115.478 46.161 114.353 47.2863C113.227 48.4115 112.595 49.9376 112.595 51.5289V121.825C112.595 123.416 113.227 124.942 114.353 126.068C115.478 127.193 117.004 127.825 118.595 127.825H153.527C155.119 127.825 156.645 127.193 157.77 126.068C158.895 124.942 159.527 123.416 159.527 121.825V51.5289C159.527 49.9376 158.895 48.4115 157.77 47.2863C156.645 46.161 155.119 45.5289 153.527 45.5289H118.595Z" fill="#263238"/>
<path d="M152.899 60.9236H118.951C118.692 60.9354 118.435 60.8947 118.192 60.8041C117.95 60.7134 117.729 60.5746 117.542 60.3961C117.356 60.2176 117.207 60.003 117.105 59.7654C117.004 59.5278 116.951 59.272 116.951 59.0136C116.951 58.7551 117.004 58.4994 117.105 58.2617C117.207 58.0241 117.356 57.8095 117.542 57.631C117.729 57.4525 117.95 57.3137 118.192 57.2231C118.435 57.1324 118.692 57.0917 118.951 57.1036H152.899C153.157 57.0917 153.415 57.1324 153.657 57.2231C153.899 57.3137 154.12 57.4525 154.307 57.631C154.494 57.8095 154.642 58.0241 154.744 58.2617C154.846 58.4994 154.898 58.7551 154.898 59.0136C154.898 59.272 154.846 59.5278 154.744 59.7654C154.642 60.003 154.494 60.2176 154.307 60.3961C154.12 60.5746 153.899 60.7134 153.657 60.8041C153.415 60.8947 153.157 60.9354 152.899 60.9236ZM118.967 57.5036C118.762 57.493 118.557 57.5243 118.365 57.5954C118.172 57.6665 117.996 57.776 117.848 57.9173C117.699 58.0585 117.58 58.2286 117.499 58.417C117.419 58.6055 117.377 58.8085 117.377 59.0136C117.377 59.2187 117.419 59.4216 117.499 59.6101C117.58 59.7986 117.699 59.9686 117.848 60.1098C117.996 60.2511 118.172 60.3606 118.365 60.4317C118.557 60.5029 118.762 60.5341 118.967 60.5236H152.899C153.103 60.5341 153.308 60.5029 153.501 60.4317C153.693 60.3606 153.869 60.2511 154.018 60.1098C154.166 59.9686 154.285 59.7986 154.366 59.6101C154.447 59.4216 154.488 59.2187 154.488 59.0136C154.488 58.8085 154.447 58.6055 154.366 58.417C154.285 58.2286 154.166 58.0585 154.018 57.9173C153.869 57.776 153.693 57.6665 153.501 57.5954C153.308 57.5243 153.103 57.493 152.899 57.5036H118.967Z" fill="#263238"/>
<path d="M152.899 117.32H118.951C118.444 117.32 117.958 117.119 117.599 116.76C117.241 116.402 117.039 115.915 117.039 115.408C117.039 114.901 117.241 114.415 117.599 114.056C117.958 113.698 118.444 113.496 118.951 113.496H152.899C153.406 113.496 153.892 113.698 154.251 114.056C154.61 114.415 154.811 114.901 154.811 115.408C154.811 115.915 154.61 116.402 154.251 116.76C153.892 117.119 153.406 117.32 152.899 117.32ZM118.967 113.896C118.566 113.896 118.181 114.055 117.898 114.339C117.614 114.623 117.455 115.007 117.455 115.408C117.455 115.809 117.614 116.194 117.898 116.477C118.181 116.761 118.566 116.92 118.967 116.92H152.899C153.3 116.92 153.685 116.761 153.968 116.477C154.252 116.194 154.411 115.809 154.411 115.408C154.411 115.007 154.252 114.623 153.968 114.339C153.685 114.055 153.3 113.896 152.899 113.896H118.967Z" fill="#263238"/>
<path d="M142.619 67.7673H118.951C118.692 67.7791 118.435 67.7385 118.192 67.6478C117.95 67.5572 117.729 67.4184 117.542 67.2399C117.356 67.0613 117.207 66.8468 117.105 66.6092C117.004 66.3715 116.951 66.1158 116.951 65.8573C116.951 65.5989 117.004 65.3431 117.105 65.1055C117.207 64.8678 117.356 64.6533 117.542 64.4748C117.729 64.2962 117.95 64.1575 118.192 64.0668C118.435 63.9761 118.692 63.9355 118.951 63.9473H142.619C142.877 63.9355 143.135 63.9761 143.377 64.0668C143.619 64.1575 143.84 64.2962 144.027 64.4748C144.214 64.6533 144.362 64.8678 144.464 65.1055C144.566 65.3431 144.618 65.5989 144.618 65.8573C144.618 66.1158 144.566 66.3715 144.464 66.6092C144.362 66.8468 144.214 67.0613 144.027 67.2399C143.84 67.4184 143.619 67.5572 143.377 67.6478C143.135 67.7385 142.877 67.7791 142.619 67.7673ZM118.951 64.3473C118.746 64.3368 118.541 64.368 118.349 64.4391C118.156 64.5103 117.98 64.6198 117.832 64.761C117.683 64.9023 117.564 65.0723 117.484 65.2608C117.403 65.4493 117.361 65.6522 117.361 65.8573C117.361 66.0624 117.403 66.2654 117.484 66.4538C117.564 66.6423 117.683 66.8123 117.832 66.9536C117.98 67.0949 118.156 67.2044 118.349 67.2755C118.541 67.3466 118.746 67.3779 118.951 67.3673H142.619C142.823 67.3779 143.028 67.3466 143.221 67.2755C143.413 67.2044 143.589 67.0949 143.738 66.9536C143.886 66.8123 144.005 66.6423 144.086 66.4538C144.167 66.2654 144.208 66.0624 144.208 65.8573C144.208 65.6522 144.167 65.4493 144.086 65.2608C144.005 65.0723 143.886 64.9023 143.738 64.761C143.589 64.6198 143.413 64.5103 143.221 64.4391C143.028 64.368 142.823 64.3368 142.619 64.3473H118.951Z" fill="#263238"/>
<path d="M149.747 68.7118C151.322 68.7118 152.599 67.4349 152.599 65.8598C152.599 64.2847 151.322 63.0078 149.747 63.0078C148.171 63.0078 146.895 64.2847 146.895 65.8598C146.895 67.4349 148.171 68.7118 149.747 68.7118Z" fill="#005AEE"/>
<path d="M149.747 68.9126C149.144 68.9126 148.554 68.7336 148.052 68.3982C147.55 68.0629 147.159 67.5862 146.928 67.0285C146.697 66.4709 146.636 65.8572 146.754 65.2652C146.872 64.6731 147.162 64.1293 147.589 63.7025C148.016 63.2757 148.56 62.985 149.152 62.8672C149.744 62.7495 150.358 62.8099 150.915 63.0409C151.473 63.2719 151.95 63.6631 152.285 64.165C152.62 64.6669 152.799 65.257 152.799 65.8606C152.797 66.6694 152.475 67.4444 151.903 68.0164C151.331 68.5883 150.556 68.9105 149.747 68.9126ZM149.747 63.2086C149.223 63.2086 148.71 63.3641 148.274 63.6555C147.838 63.9469 147.498 64.3611 147.297 64.8457C147.096 65.3303 147.044 65.8635 147.146 66.378C147.249 66.8924 147.501 67.365 147.872 67.7358C148.243 68.1067 148.715 68.3593 149.23 68.4616C149.744 68.564 150.278 68.5114 150.762 68.3107C151.247 68.11 151.661 67.7701 151.952 67.334C152.244 66.8978 152.399 66.3851 152.399 65.8606C152.4 65.5118 152.332 65.1663 152.199 64.8439C152.066 64.5214 151.87 64.2283 151.624 63.9813C151.378 63.7343 151.085 63.5383 150.763 63.4043C150.441 63.2703 150.096 63.2011 149.747 63.2006V63.2086Z" fill="#263238"/>
<path d="M121.943 83.4533C121.086 83.4533 120.247 83.1988 119.534 82.7222C118.821 82.2456 118.265 81.5682 117.937 80.7756C117.609 79.9831 117.523 79.1111 117.691 78.2699C117.859 77.4287 118.272 76.6561 118.879 76.0498C119.486 75.4436 120.259 75.0309 121.1 74.8641C121.941 74.6972 122.813 74.7837 123.606 75.1125C124.398 75.4413 125.075 75.9976 125.551 76.7112C126.027 77.4248 126.28 78.2635 126.279 79.1213C126.278 80.2705 125.821 81.3724 125.008 82.1847C124.195 82.997 123.093 83.4533 121.943 83.4533ZM121.943 75.1853C121.165 75.1853 120.404 75.4161 119.757 75.8486C119.109 76.2811 118.605 76.8958 118.307 77.615C118.009 78.3342 117.931 79.1256 118.083 79.8891C118.235 80.6526 118.61 81.354 119.16 81.9044C119.711 82.4549 120.412 82.8298 121.176 82.9816C121.939 83.1335 122.73 83.0555 123.45 82.7576C124.169 82.4597 124.784 81.9552 125.216 81.308C125.649 80.6607 125.879 79.8997 125.879 79.1213C125.875 78.0801 125.459 77.0831 124.721 76.3484C123.983 75.6137 122.985 75.2012 121.943 75.2013V75.1853Z" fill="#263238"/>
<path d="M136.059 83.4533C135.201 83.4533 134.362 83.1988 133.649 82.7222C132.936 82.2456 132.38 81.5682 132.052 80.7756C131.724 79.9831 131.639 79.1111 131.806 78.2699C131.974 77.4287 132.387 76.6561 132.994 76.0498C133.601 75.4436 134.374 75.0309 135.215 74.8641C136.057 74.6972 136.929 74.7837 137.721 75.1125C138.513 75.4413 139.19 75.9976 139.666 76.7112C140.142 77.4248 140.395 78.2635 140.395 79.1213C140.393 80.2702 139.935 81.3714 139.122 82.1835C138.309 82.9956 137.208 83.4522 136.059 83.4533ZM136.059 75.1853C135.28 75.1853 134.519 75.4161 133.872 75.8486C133.225 76.2811 132.72 76.8958 132.422 77.615C132.124 78.3342 132.046 79.1256 132.198 79.8891C132.35 80.6526 132.725 81.354 133.275 81.9044C133.826 82.4549 134.527 82.8298 135.291 82.9816C136.054 83.1335 136.846 83.0555 137.565 82.7576C138.284 82.4597 138.899 81.9552 139.331 81.308C139.764 80.6607 139.995 79.8997 139.995 79.1213C139.989 78.0805 139.572 77.084 138.835 76.3496C138.098 75.6151 137.099 75.2023 136.059 75.2013V75.1853Z" fill="#263238"/>
<path d="M150.176 83.4532C149.318 83.4556 148.478 83.2032 147.763 82.728C147.049 82.2529 146.491 81.5763 146.161 80.784C145.831 79.9916 145.744 79.1192 145.91 78.2772C146.077 77.4352 146.489 76.6615 147.095 76.0541C147.702 75.4466 148.475 75.0328 149.316 74.865C150.158 74.6971 151.031 74.7829 151.823 75.1113C152.616 75.4397 153.294 75.9961 153.77 76.7099C154.247 77.4238 154.501 78.263 154.5 79.1212C154.498 80.2681 154.042 81.3675 153.232 82.1793C152.422 82.991 151.323 83.449 150.176 83.4532ZM150.176 75.1852C149.397 75.1829 148.635 75.4117 147.986 75.8427C147.337 76.2738 146.831 76.8877 146.531 77.6067C146.231 78.3257 146.152 79.1174 146.302 79.8817C146.453 80.646 146.827 81.3485 147.377 81.9001C147.927 82.4518 148.628 82.8279 149.392 82.9807C150.156 83.1335 150.948 83.0563 151.668 82.7588C152.387 82.4612 153.003 81.9567 153.436 81.3092C153.869 80.6617 154.1 79.9002 154.1 79.1212C154.095 78.0825 153.68 77.0879 152.945 76.3538C152.21 75.6197 151.215 75.2054 150.176 75.2012V75.1852Z" fill="#263238"/>
<path d="M121.943 94.2931C121.086 94.2931 120.248 94.0388 119.534 93.5624C118.821 93.0859 118.266 92.4087 117.937 91.6164C117.609 90.8241 117.523 89.9523 117.691 89.1112C117.858 88.2701 118.271 87.4975 118.877 86.8911C119.484 86.2847 120.256 85.8717 121.098 85.7044C121.939 85.5371 122.81 85.623 123.603 85.9512C124.395 86.2793 125.072 86.8351 125.549 87.5481C126.025 88.2612 126.279 89.0995 126.279 89.9571C126.278 91.1067 125.821 92.209 125.008 93.0219C124.195 93.8349 123.093 94.292 121.943 94.2931ZM121.943 86.0211C121.165 86.0211 120.404 86.2519 119.757 86.6844C119.109 87.1169 118.605 87.7316 118.307 88.4509C118.009 89.1701 117.931 89.9615 118.083 90.725C118.235 91.4885 118.61 92.1898 119.16 92.7403C119.711 93.2907 120.412 93.6656 121.176 93.8175C121.939 93.9693 122.73 93.8914 123.45 93.5935C124.169 93.2956 124.784 92.7911 125.216 92.1438C125.649 91.4965 125.879 90.7356 125.879 89.9571C125.879 88.9132 125.465 87.9121 124.727 87.1739C123.988 86.4358 122.987 86.0211 121.943 86.0211Z" fill="#263238"/>
<path d="M136.059 94.2931C135.201 94.2931 134.363 94.0388 133.65 93.5624C132.937 93.0859 132.381 92.4087 132.053 91.6164C131.725 90.8241 131.639 89.9523 131.806 89.1112C131.973 88.2701 132.386 87.4975 132.993 86.8911C133.599 86.2847 134.372 85.8717 135.213 85.7044C136.054 85.5371 136.926 85.623 137.718 85.9512C138.51 86.2793 139.187 86.8351 139.664 87.5481C140.14 88.2612 140.395 89.0995 140.395 89.9571C140.393 91.1064 139.935 92.2081 139.122 93.0208C138.31 93.8335 137.208 94.291 136.059 94.2931ZM136.059 86.0211C135.28 86.0211 134.519 86.2519 133.872 86.6844C133.225 87.1169 132.72 87.7316 132.422 88.4509C132.124 89.1701 132.046 89.9615 132.198 90.725C132.35 91.4885 132.725 92.1898 133.275 92.7403C133.826 93.2907 134.527 93.6656 135.291 93.8175C136.054 93.9693 136.846 93.8914 137.565 93.5935C138.284 93.2956 138.899 92.7911 139.331 92.1438C139.764 91.4965 139.995 90.7356 139.995 89.9571C139.994 88.9135 139.579 87.913 138.841 87.1751C138.103 86.4372 137.102 86.0222 136.059 86.0211Z" fill="#263238"/>
<path d="M150.176 94.2931C149.318 94.2955 148.479 94.0432 147.764 93.5682C147.049 93.0932 146.492 92.4168 146.162 91.6247C145.832 90.8326 145.744 89.9604 145.91 89.1185C146.076 88.2767 146.488 87.5029 147.094 86.8953C147.7 86.2877 148.472 85.8736 149.314 85.7053C150.155 85.537 151.028 85.6222 151.821 85.95C152.614 86.2778 153.292 86.8336 153.769 87.5469C154.246 88.2602 154.5 89.099 154.5 89.9571C154.498 91.1043 154.042 92.2042 153.232 93.0165C152.422 93.8289 151.323 94.2878 150.176 94.2931ZM150.176 86.0211C149.398 86.0211 148.637 86.2519 147.989 86.6844C147.342 87.1169 146.838 87.7316 146.54 88.4508C146.242 89.17 146.164 89.9614 146.316 90.725C146.468 91.4885 146.842 92.1898 147.393 92.7403C147.943 93.2907 148.645 93.6656 149.408 93.8175C150.172 93.9693 150.963 93.8914 151.682 93.5935C152.402 93.2956 153.016 92.7911 153.449 92.1438C153.881 91.4965 154.112 90.7355 154.112 89.9571C154.111 88.9135 153.696 87.913 152.958 87.1751C152.22 86.4372 151.22 86.0221 150.176 86.0211Z" fill="#263238"/>
<path d="M121.943 105.129C121.085 105.129 120.247 104.875 119.534 104.398C118.82 103.921 118.265 103.243 117.937 102.45C117.609 101.658 117.523 100.785 117.691 99.9442C117.859 99.1029 118.273 98.3303 118.88 97.7242C119.487 97.1181 120.261 96.7058 121.102 96.5394C121.944 96.373 122.816 96.46 123.608 96.7894C124.4 97.1188 125.077 97.6758 125.553 98.3899C126.028 99.104 126.281 99.9431 126.279 100.801C126.276 101.949 125.818 103.05 125.005 103.861C124.193 104.672 123.092 105.128 121.943 105.129ZM121.943 96.857C121.165 96.857 120.404 97.0879 119.757 97.5204C119.109 97.9529 118.605 98.5676 118.307 99.2868C118.009 100.006 117.931 100.797 118.083 101.561C118.235 102.324 118.61 103.026 119.16 103.576C119.711 104.127 120.412 104.502 121.176 104.653C121.939 104.805 122.73 104.727 123.45 104.429C124.169 104.132 124.784 103.627 125.216 102.98C125.649 102.332 125.879 101.571 125.879 100.793C125.879 99.7491 125.465 98.748 124.727 98.0099C123.988 97.2717 122.987 96.857 121.943 96.857Z" fill="#263238"/>
<path d="M136.059 105.129C135.201 105.129 134.362 104.875 133.649 104.398C132.936 103.921 132.38 103.243 132.052 102.45C131.724 101.658 131.639 100.785 131.807 99.9442C131.975 99.1029 132.388 98.3303 132.995 97.7242C133.603 97.1181 134.376 96.7058 135.218 96.5394C136.059 96.373 136.931 96.46 137.724 96.7894C138.516 97.1188 139.192 97.6758 139.668 98.3899C140.143 99.104 140.396 99.9431 140.395 100.801C140.39 101.949 139.932 103.049 139.12 103.86C138.307 104.671 137.207 105.127 136.059 105.129ZM136.059 96.857C135.28 96.857 134.519 97.0879 133.872 97.5204C133.225 97.9529 132.72 98.5676 132.422 99.2868C132.124 100.006 132.046 100.797 132.198 101.561C132.35 102.324 132.725 103.026 133.275 103.576C133.826 104.127 134.527 104.502 135.291 104.653C136.054 104.805 136.846 104.727 137.565 104.429C138.284 104.132 138.899 103.627 139.331 102.98C139.764 102.332 139.995 101.571 139.995 100.793C139.994 99.7495 139.579 98.7489 138.841 98.011C138.103 97.2731 137.102 96.8581 136.059 96.857Z" fill="#263238"/>
<path d="M150.176 105.129C149.318 105.131 148.478 104.879 147.763 104.404C147.048 103.928 146.491 103.251 146.161 102.459C145.831 101.666 145.744 100.794 145.911 99.9515C146.077 99.1094 146.49 98.3357 147.097 97.7284C147.703 97.1212 148.477 96.7076 149.319 96.5403C150.161 96.3729 151.033 96.4592 151.826 96.7882C152.619 97.1173 153.296 97.6743 153.772 98.3886C154.248 99.103 154.502 99.9426 154.5 100.801C154.496 101.947 154.039 103.045 153.229 103.855C152.419 104.666 151.322 105.124 150.176 105.129ZM150.176 96.857C149.397 96.8546 148.636 97.0833 147.987 97.514C147.338 97.9447 146.832 98.5581 146.532 99.2766C146.232 99.9951 146.152 100.786 146.302 101.551C146.452 102.315 146.825 103.017 147.374 103.569C147.923 104.121 148.624 104.498 149.387 104.652C150.15 104.805 150.942 104.729 151.662 104.433C152.382 104.137 152.998 103.633 153.432 102.987C153.866 102.34 154.099 101.58 154.1 100.801C154.101 99.7581 153.689 98.7574 152.953 98.0181C152.218 97.2788 151.219 96.8613 150.176 96.857Z" fill="#263238"/>
<path d="M78.9723 25.832H78.5723V176.632H78.9723V25.832Z" fill="#263238"/>
<path d="M83.5426 25.832H83.1426V176.632H83.5426V25.832Z" fill="#263238"/>
<path d="M99.3727 25.832H98.9727V176.632H99.3727V25.832Z" fill="#263238"/>
<path d="M78.1169 45.3469L38.8086 81.3789L39.0789 81.6738L78.3872 45.6417L78.1169 45.3469Z" fill="#263238"/>
<path d="M63.2497 63.4808L60.1094 66.3594L60.3797 66.6542L63.52 63.7757L63.2497 63.4808Z" fill="#263238"/>
<path d="M78.1164 49.852L66.8496 60.1797L67.1199 60.4746L78.3866 50.1469L78.1164 49.852Z" fill="#263238"/>
<path d="M78.1287 80.4812L53.5449 102.984L53.815 103.279L78.3988 80.7762L78.1287 80.4812Z" fill="#263238"/>
<path d="M68.831 91.8015L66.8672 93.6016L67.1375 93.8964L69.1013 92.0963L68.831 91.8015Z" fill="#263238"/>
<path d="M78.1214 83.2838L71.0801 89.7383L71.3504 90.0331L78.3917 83.5787L78.1214 83.2838Z" fill="#263238"/>
<path d="M56.4636 121.279C55.0596 124.735 53.6236 121.955 53.8516 107.467C53.9596 100.667 54.4356 86.7994 61.9476 89.8674C69.1476 92.7994 59.6556 113.315 59.6556 113.315L56.4636 121.279ZM66.7756 123.335C66.7756 123.335 82.4356 107.019 76.5636 101.899C70.4516 96.5714 65.4916 109.539 63.1836 115.927C58.2636 129.559 58.7196 132.655 61.1836 129.839L66.7756 123.335ZM70.0996 137.999C70.0996 137.999 84.4356 127.791 80.6876 123.027C76.7836 118.067 71.1156 127.263 68.4236 131.827C62.6876 141.535 62.5876 143.967 64.8676 142.171L70.0996 137.999ZM73.9796 152.595C73.9796 152.595 88.3156 142.391 84.5676 137.627C80.6636 132.667 74.9956 141.863 72.3076 146.427C66.5676 156.135 66.4676 158.567 68.7476 156.771L73.9796 152.595ZM48.9436 123.243C48.9436 123.243 28.8876 112.803 25.6236 119.879C22.2276 127.239 36.0676 128.355 42.8476 128.771C57.3116 129.663 60.1556 128.371 56.7636 126.799L48.9436 123.243ZM51.7676 134.739C51.7676 134.739 30.0356 128.491 28.2436 136.075C26.3796 143.963 40.1636 142.307 46.8916 141.367C61.2436 139.367 63.7716 137.519 60.1396 136.667L51.7676 134.739ZM56.7436 147.267C56.7436 147.267 38.2196 142.491 36.8796 148.943C35.4876 155.659 47.1076 153.935 52.7716 152.987C64.8636 150.963 66.9596 149.343 63.8676 148.707L56.7436 147.267ZM59.6236 157.599C59.6236 157.599 41.6996 150.875 39.6996 157.151C37.5996 163.679 49.3356 163.199 55.0716 162.859C67.3116 162.127 69.5636 160.739 66.5596 159.779L59.6236 157.599ZM47.6236 105.199C47.6236 105.199 39.4436 79.7874 30.1636 84.3994C20.4996 89.1994 31.6716 100.655 37.2556 106.143C49.1716 117.847 52.8556 118.671 51.2876 114.583L47.6236 105.199Z" fill="#005AEE"/>
<path opacity="0.4" d="M56.4636 121.279C55.0596 124.735 53.6236 121.955 53.8516 107.467C53.9596 100.667 54.4356 86.7994 61.9476 89.8674C69.1476 92.7994 59.6556 113.315 59.6556 113.315L56.4636 121.279ZM66.7756 123.335C66.7756 123.335 82.4356 107.019 76.5636 101.899C70.4516 96.5714 65.4916 109.539 63.1836 115.927C58.2636 129.559 58.7196 132.655 61.1836 129.839L66.7756 123.335ZM70.0996 137.999C70.0996 137.999 84.4356 127.791 80.6876 123.027C76.7836 118.067 71.1156 127.263 68.4236 131.827C62.6876 141.535 62.5876 143.967 64.8676 142.171L70.0996 137.999ZM73.9796 152.595C73.9796 152.595 88.3156 142.391 84.5676 137.627C80.6636 132.667 74.9956 141.863 72.3076 146.427C66.5676 156.135 66.4676 158.567 68.7476 156.771L73.9796 152.595ZM48.9436 123.243C48.9436 123.243 28.8876 112.803 25.6236 119.879C22.2276 127.239 36.0676 128.355 42.8476 128.771C57.3116 129.663 60.1556 128.371 56.7636 126.799L48.9436 123.243ZM51.7676 134.739C51.7676 134.739 30.0356 128.491 28.2436 136.075C26.3796 143.963 40.1636 142.307 46.8916 141.367C61.2436 139.367 63.7716 137.519 60.1396 136.667L51.7676 134.739ZM56.7436 147.267C56.7436 147.267 38.2196 142.491 36.8796 148.943C35.4876 155.659 47.1076 153.935 52.7716 152.987C64.8636 150.963 66.9596 149.343 63.8676 148.707L56.7436 147.267ZM59.6236 157.599C59.6236 157.599 41.6996 150.875 39.6996 157.151C37.5996 163.679 49.3356 163.199 55.0716 162.859C67.3116 162.127 69.5636 160.739 66.5596 159.779L59.6236 157.599ZM47.6236 105.199C47.6236 105.199 39.4436 79.7874 30.1636 84.3994C20.4996 89.1994 31.6716 100.655 37.2556 106.143C49.1716 117.847 52.8556 118.671 51.2876 114.583L47.6236 105.199Z" fill="white"/>
<path d="M69.6682 175.749C69.6044 175.749 69.5431 175.725 69.4969 175.681C69.4507 175.637 69.4233 175.577 69.4202 175.513C68.6522 161.989 64.8602 145.397 59.2722 131.113C54.4282 118.749 34.0722 93.833 33.8602 93.581C33.8187 93.5294 33.7993 93.4635 33.806 93.3976C33.8127 93.3317 33.8451 93.2712 33.8962 93.229C33.9215 93.208 33.9508 93.1922 33.9823 93.1826C34.0138 93.173 34.0469 93.1698 34.0797 93.1732C34.1125 93.1765 34.1443 93.1864 34.1732 93.2021C34.2021 93.2179 34.2276 93.2393 34.2482 93.265C34.4562 93.517 54.8682 118.497 59.7402 130.933C65.3402 145.241 69.1522 161.889 69.9202 175.465C69.9235 175.531 69.9005 175.596 69.8563 175.645C69.8122 175.695 69.7503 175.725 69.6842 175.729L69.6682 175.749Z" fill="#263238"/>
<path d="M55.4158 123.115H55.3878C55.3215 123.107 55.2611 123.073 55.2199 123.021C55.1786 122.968 55.1599 122.901 55.1678 122.835L58.0238 98.9431C58.0265 98.9092 58.036 98.8763 58.0517 98.8462C58.0674 98.8161 58.0891 98.7895 58.1153 98.768C58.1416 98.7465 58.1719 98.7305 58.2045 98.721C58.2371 98.7115 58.2713 98.7087 58.305 98.7127C58.3387 98.7168 58.3713 98.7276 58.4007 98.7445C58.4301 98.7615 58.4558 98.7842 58.4763 98.8113C58.4967 98.8384 58.5114 98.8694 58.5196 98.9023C58.5278 98.9353 58.5292 98.9695 58.5238 99.0031L55.6678 122.895C55.6592 122.956 55.629 123.012 55.5827 123.052C55.5364 123.092 55.4772 123.115 55.4158 123.115Z" fill="#263238"/>
<path d="M59.508 131.294C59.4675 131.295 59.4276 131.286 59.392 131.267C59.3627 131.252 59.3366 131.231 59.3153 131.206C59.294 131.181 59.2778 131.152 59.2678 131.121C59.2577 131.09 59.254 131.057 59.2568 131.024C59.2595 130.991 59.2688 130.96 59.284 130.93L69.616 110.846C69.6309 110.817 69.6515 110.791 69.6765 110.77C69.7015 110.749 69.7304 110.733 69.7616 110.723C69.7928 110.713 69.8257 110.709 69.8583 110.712C69.891 110.714 69.9228 110.724 69.952 110.739C69.9811 110.753 70.007 110.774 70.0282 110.799C70.0494 110.824 70.0655 110.853 70.0756 110.884C70.0856 110.915 70.0894 110.948 70.0867 110.981C70.084 111.014 70.0749 111.045 70.06 111.075L59.728 131.158C59.7077 131.2 59.6764 131.234 59.6375 131.258C59.5986 131.282 59.5537 131.295 59.508 131.294Z" fill="#263238"/>
<path d="M57.9952 128.319H57.9472L36.3112 123.919C36.2508 123.901 36.1993 123.862 36.1668 123.808C36.1344 123.754 36.1234 123.689 36.1359 123.628C36.1485 123.566 36.1837 123.511 36.2346 123.474C36.2856 123.437 36.3486 123.42 36.4112 123.427L58.0472 127.827C58.1059 127.842 58.1572 127.878 58.1918 127.928C58.2264 127.977 58.242 128.038 58.2357 128.098C58.2293 128.158 58.2016 128.214 58.1574 128.255C58.1133 128.297 58.0557 128.321 57.9952 128.323V128.319Z" fill="#263238"/>
<path d="M63.5707 142.69C63.5105 142.691 63.4521 142.669 63.4067 142.63C63.3818 142.608 63.3613 142.581 63.3466 142.552C63.3318 142.522 63.3231 142.49 63.3209 142.457C63.3187 142.424 63.323 142.39 63.3336 142.359C63.3442 142.328 63.3609 142.299 63.3827 142.274L76.0987 127.782C76.1205 127.757 76.147 127.736 76.1767 127.722C76.2064 127.707 76.2387 127.698 76.2718 127.696C76.3048 127.694 76.338 127.698 76.3694 127.709C76.4008 127.719 76.4298 127.736 76.4547 127.758C76.478 127.781 76.4964 127.808 76.509 127.838C76.5215 127.869 76.528 127.901 76.528 127.934C76.528 127.966 76.5215 127.999 76.509 128.029C76.4964 128.059 76.478 128.087 76.4547 128.11L63.7347 142.606C63.6924 142.653 63.6339 142.683 63.5707 142.69Z" fill="#263238"/>
<path d="M61.791 137.913L45.455 137.773C45.3889 137.772 45.3258 137.745 45.2794 137.698C45.233 137.651 45.207 137.588 45.207 137.521C45.207 137.489 45.2136 137.456 45.2263 137.426C45.239 137.395 45.2576 137.368 45.2811 137.345C45.3045 137.322 45.3323 137.303 45.3629 137.291C45.3934 137.279 45.4261 137.273 45.459 137.273L61.795 137.413C61.8608 137.416 61.9233 137.443 61.9695 137.49C62.0157 137.537 62.042 137.6 62.043 137.665C62.043 137.698 62.0365 137.731 62.0238 137.761C62.0111 137.792 61.9924 137.819 61.969 137.842C61.9455 137.865 61.9177 137.884 61.8872 137.896C61.8566 137.908 61.8239 137.914 61.791 137.913Z" fill="#263238"/>
<path d="M52.4117 150.273C52.3509 150.265 52.2949 150.235 52.2543 150.189C52.2138 150.143 52.1914 150.084 52.1914 150.023C52.1914 149.961 52.2138 149.902 52.2543 149.856C52.2949 149.81 52.3509 149.78 52.4117 149.773L64.9397 149.277C64.9749 149.271 65.0109 149.273 65.0453 149.282C65.0797 149.291 65.1117 149.308 65.1393 149.33C65.1669 149.353 65.1894 149.381 65.2053 149.413C65.2212 149.445 65.2301 149.48 65.2316 149.515C65.233 149.551 65.2268 149.586 65.2135 149.62C65.2002 149.653 65.1801 149.682 65.1544 149.707C65.1287 149.732 65.0981 149.751 65.0645 149.763C65.031 149.775 64.9952 149.779 64.9597 149.777L52.4317 150.273H52.4117Z" fill="#263238"/>
<path d="M67.5107 157.344C67.4563 157.343 67.4034 157.327 67.3587 157.296C67.3058 157.255 67.2711 157.196 67.2621 157.13C67.2531 157.064 67.2705 156.997 67.3107 156.944L74.0187 148C74.0585 147.946 74.1179 147.911 74.1839 147.901C74.2499 147.891 74.317 147.908 74.3707 147.948C74.4235 147.988 74.4582 148.048 74.4672 148.114C74.4762 148.18 74.4588 148.247 74.4187 148.3L67.6987 157.244C67.6771 157.274 67.649 157.299 67.6164 157.316C67.5837 157.333 67.5476 157.343 67.5107 157.344Z" fill="#263238"/>
<path d="M68.0035 160.67L53.3515 159.942C53.319 159.941 53.287 159.933 53.2575 159.919C53.228 159.905 53.2015 159.885 53.1796 159.861C53.1577 159.837 53.1407 159.809 53.1297 159.778C53.1188 159.747 53.1139 159.715 53.1155 159.682C53.116 159.649 53.1233 159.616 53.137 159.585C53.1508 159.555 53.1706 159.527 53.1954 159.505C53.2202 159.482 53.2493 159.465 53.281 159.454C53.3126 159.444 53.3462 159.439 53.3795 159.442L68.0315 160.17C68.0977 160.174 68.1596 160.204 68.2037 160.254C68.2479 160.303 68.2708 160.368 68.2675 160.434C68.2634 160.5 68.2334 160.562 68.184 160.606C68.1346 160.651 68.0697 160.674 68.0035 160.67Z" fill="#263238"/>
<path d="M54.6239 156.742C53.1215 156.746 51.6219 156.612 50.1439 156.342C45.4399 155.466 41.5839 152.978 39.5599 149.514C36.2439 143.826 38.3599 136.598 41.8959 131.954C46.3999 126.066 53.1879 122.65 59.2359 120.082C70.8359 115.162 83.1239 112.002 95.0199 108.946C98.4199 108.074 101.936 107.17 105.384 106.238C107.104 105.774 108.86 105.318 110.636 104.858C123.224 101.59 137.492 97.8862 146.928 88.5862C153.76 81.8542 158.828 74.0262 161.572 65.9542C162.767 62.5919 163.433 59.0647 163.548 55.4982C163.681 51.6664 163.404 47.8314 162.724 44.0582L162.464 43.8622C156.688 39.4982 150.252 36.8382 144.808 36.5622C136.136 36.1302 118.9 39.1982 109.664 49.3462L109.264 49.7862C105.32 54.6955 101.865 59.9779 98.9479 65.5582C98.9037 65.6557 98.8403 65.7434 98.7616 65.8159C98.6828 65.8885 98.5904 65.9445 98.4896 65.9807C98.3888 66.0168 98.2818 66.0324 98.1749 66.0265C98.068 66.0205 97.9634 65.9931 97.8672 65.946C97.7711 65.8989 97.6854 65.8329 97.6152 65.7521C97.545 65.6712 97.4918 65.5771 97.4586 65.4753C97.4255 65.3735 97.4132 65.266 97.4223 65.1593C97.4314 65.0527 97.4619 64.9489 97.5119 64.8542C99.0834 61.7938 100.832 58.8275 102.748 55.9702C102.69 55.8413 102.667 55.6994 102.682 55.5589C102.697 55.4184 102.749 55.2843 102.832 55.1702C104.343 53.0888 105.96 51.0862 107.676 49.1702C108.079 48.6609 108.491 48.1516 108.912 47.6422C115.588 39.5742 126.32 29.6422 139.524 28.0422C147.992 27.0262 154.172 28.3982 158.412 32.2342C161.212 34.7702 163.116 38.3462 164.168 43.1742C170.568 48.3382 173.072 54.8662 171.596 62.5902C169.376 74.1902 163.28 82.8302 156.128 92.1142C137.108 116.798 116.4 134.798 94.5919 145.51C84.4964 150.477 73.7442 153.979 62.6599 155.91C60.0102 156.418 57.3215 156.697 54.6239 156.742ZM164.624 45.6862C165.066 48.9505 165.241 52.2454 165.148 55.5382C165.029 59.2693 164.335 62.9596 163.088 66.4782C160.26 74.7862 155.06 82.8262 148.052 89.7342C138.308 99.3342 123.82 103.094 111.04 106.414C109.268 106.874 107.516 107.33 105.804 107.79C102.344 108.726 98.8239 109.63 95.4039 110.506C83.5679 113.546 71.3279 116.69 59.8479 121.562C53.9959 124.05 47.4479 127.342 43.1559 132.934C39.9279 137.154 37.9879 143.67 40.9319 148.714C42.7199 151.778 46.1799 153.986 50.4239 154.778C54.4239 155.518 58.5239 154.998 62.3719 154.33C73.3064 152.428 83.9133 148.974 93.8719 144.074C115.168 133.598 136.256 115.298 154.86 91.1302C161.884 82.0102 167.872 73.5302 170.024 62.2822C171.264 55.8022 169.448 50.2342 164.624 45.6862ZM144.604 29.3102C142.97 29.3189 141.338 29.4231 139.716 29.6222C130.648 30.7102 122.7 35.9302 116.288 42.0702C125.888 36.4302 137.996 34.6222 144.888 34.9742C151.908 35.3302 158.32 38.9742 162.14 41.6542C161.116 38.0982 159.528 35.3902 157.34 33.4102C154.304 30.6662 150.1 29.3102 144.604 29.3102Z" fill="#263238"/>
<path d="M74.6912 83.5392L85.6712 160.799C85.7495 161.339 86.0383 161.826 86.4745 162.154C86.9108 162.481 87.4589 162.623 87.9992 162.547L134.751 155.899C135.292 155.822 135.779 155.533 136.107 155.097C136.435 154.66 136.576 154.112 136.499 153.571L125.515 76.3152C125.477 76.0478 125.387 75.7905 125.25 75.5579C125.113 75.3253 124.931 75.1221 124.715 74.9598C124.499 74.7975 124.254 74.6792 123.992 74.6119C123.731 74.5445 123.459 74.5293 123.191 74.5672L76.4352 81.1992C76.1664 81.2368 75.9077 81.3275 75.6742 81.4658C75.4406 81.6041 75.2369 81.7874 75.0747 82.0051C74.9125 82.2227 74.795 82.4704 74.7292 82.7337C74.6634 82.997 74.6505 83.2708 74.6912 83.5392ZM105.271 82.2032L95.7712 83.5512C95.5687 83.5798 95.3625 83.5683 95.1645 83.5172C94.9665 83.4662 94.7804 83.3766 94.617 83.2537C94.4536 83.1307 94.3159 82.9768 94.212 82.8007C94.1081 82.6246 94.0398 82.4297 94.0112 82.2272C93.9826 82.0247 93.9941 81.8185 94.0451 81.6205C94.0962 81.4224 94.1857 81.2364 94.3087 81.073C94.4316 80.9095 94.5856 80.7719 94.7617 80.668C94.9378 80.564 95.1327 80.4958 95.3352 80.4672L104.831 79.1152C105.036 79.0812 105.246 79.0885 105.448 79.1367C105.65 79.1849 105.841 79.273 106.009 79.3959C106.176 79.5188 106.318 79.6739 106.424 79.8522C106.531 80.0305 106.601 80.2283 106.631 80.4341C106.66 80.6399 106.648 80.8494 106.595 81.0505C106.542 81.2515 106.45 81.44 106.323 81.6048C106.197 81.7696 106.038 81.9074 105.858 82.0102C105.677 82.1129 105.478 82.1786 105.271 82.2032Z" fill="white"/>
<path d="M87.7001 162.762C87.157 162.76 86.6326 162.564 86.2227 162.207C85.8129 161.851 85.545 161.359 85.4681 160.822L74.5001 83.5657C74.4178 82.9736 74.573 82.3729 74.932 81.8948C75.291 81.4167 75.8245 81.0999 76.4161 81.0137L123.172 74.3697C123.764 74.2863 124.366 74.4412 124.844 74.8003C125.322 75.1595 125.639 75.6937 125.724 76.2857L136.704 153.538C136.747 153.831 136.731 154.13 136.658 154.418C136.585 154.705 136.456 154.975 136.277 155.213C136.099 155.45 135.876 155.65 135.62 155.8C135.365 155.951 135.082 156.049 134.788 156.09L88.0281 162.738C87.9195 162.754 87.8099 162.762 87.7001 162.762ZM123.472 74.7617C123.386 74.7559 123.299 74.7559 123.212 74.7617L76.4641 81.4097C76.2227 81.4441 75.9904 81.5256 75.7805 81.6498C75.5707 81.7739 75.3873 81.9382 75.241 82.1332C75.0946 82.3282 74.9881 82.5502 74.9276 82.7864C74.867 83.0225 74.8536 83.2684 74.8881 83.5097L85.8721 160.766C85.9424 161.253 86.2029 161.692 86.5965 161.988C86.9901 162.283 87.4848 162.41 87.9721 162.342L134.724 155.694C134.966 155.66 135.198 155.58 135.408 155.456C135.618 155.332 135.802 155.169 135.948 154.974C136.095 154.779 136.201 154.557 136.262 154.321C136.322 154.085 136.335 153.839 136.3 153.598L125.32 76.3417C125.256 75.8992 125.035 75.4946 124.697 75.2016C124.359 74.9086 123.927 74.7468 123.48 74.7457L123.472 74.7617ZM95.5441 83.7817C95.1019 83.7768 94.6779 83.6055 94.3562 83.3021C94.0346 82.9987 93.8389 82.5853 93.8082 82.1442C93.7774 81.7032 93.9138 81.2666 94.1903 80.9215C94.4667 80.5764 94.8629 80.348 95.3001 80.2817L104.796 78.9337C105.025 78.9 105.258 78.9119 105.481 78.9689C105.705 79.0259 105.916 79.1268 106.1 79.2657C106.285 79.4041 106.442 79.5777 106.56 79.7765C106.678 79.9754 106.755 80.1956 106.788 80.4246C106.821 80.6535 106.808 80.8867 106.75 81.1107C106.693 81.3347 106.591 81.545 106.452 81.7297C106.172 82.096 105.757 82.3362 105.3 82.3977L95.8001 83.7497C95.7179 83.761 95.635 83.7664 95.5521 83.7657L95.5441 83.7817ZM105.048 79.3137C104.983 79.3079 104.917 79.3079 104.852 79.3137L95.3561 80.6617C95.1793 80.688 95.0095 80.7488 94.8562 80.8407C94.703 80.9326 94.5693 81.0538 94.4629 81.1974C94.3565 81.341 94.2794 81.5041 94.236 81.6774C94.1926 81.8508 94.1838 82.031 94.2101 82.2077C94.2363 82.3845 94.2972 82.5544 94.3891 82.7076C94.481 82.8609 94.6022 82.9945 94.7457 83.1009C94.8893 83.2073 95.0524 83.2844 95.2258 83.3278C95.3991 83.3712 95.5793 83.38 95.7561 83.3537L105.244 81.9977C105.421 81.9741 105.592 81.9152 105.746 81.8245C105.899 81.7338 106.034 81.6132 106.14 81.4697C106.355 81.1807 106.449 80.8188 106.4 80.4617C106.353 80.1383 106.192 79.8425 105.945 79.6282C105.698 79.4138 105.383 79.2951 105.056 79.2937L105.048 79.3137Z" fill="#263238"/>
<path d="M123.956 83.4235L78.1562 89.9336L88.0624 159.625L133.862 153.115L123.956 83.4235Z" fill="#005AEE"/>
<path d="M88.0688 159.82C88.021 159.82 87.9749 159.802 87.9389 159.771C87.903 159.739 87.8795 159.696 87.8728 159.648L77.9648 89.9604C77.9611 89.9337 77.9627 89.9065 77.9696 89.8804C77.9765 89.8543 77.9884 89.8299 78.0048 89.8084C78.02 89.7879 78.0392 89.7706 78.0612 89.7575C78.0831 89.7445 78.1075 89.7359 78.1328 89.7324L123.937 83.2204C123.963 83.217 123.989 83.2188 124.015 83.2257C124.04 83.2325 124.064 83.2444 124.085 83.2604C124.107 83.2753 124.125 83.2949 124.138 83.3178C124.151 83.3406 124.159 83.3661 124.161 83.3924L134.069 153.08C134.073 153.106 134.072 153.133 134.065 153.159C134.059 153.184 134.048 153.208 134.032 153.229C134.017 153.25 133.997 153.268 133.974 153.282C133.952 153.296 133.927 153.305 133.901 153.308L88.1008 159.82H88.0688ZM78.3888 90.1004L88.2408 159.396L133.645 152.94L123.793 83.6444L78.3888 90.1004Z" fill="#263238"/>
<path d="M93.3008 62.8566L95.8968 81.1206C95.9095 81.2127 95.9404 81.3014 95.9876 81.3815C96.0348 81.4616 96.0974 81.5316 96.1717 81.5873C96.2461 81.6431 96.3308 81.6836 96.4209 81.7065C96.511 81.7294 96.6048 81.7342 96.6968 81.7206L103.845 80.7046C103.937 80.6919 104.026 80.661 104.106 80.6138C104.186 80.5666 104.256 80.504 104.311 80.4297C104.367 80.3553 104.408 80.2706 104.431 80.1805C104.454 80.0904 104.458 79.9966 104.445 79.9046L101.849 61.6406L93.3008 62.8566ZM98.2448 66.9606C97.9472 67.0027 97.6438 66.9556 97.373 66.8253C97.1022 66.695 96.8761 66.4873 96.7233 66.2286C96.5704 65.9698 96.4978 65.6715 96.5144 65.3714C96.531 65.0714 96.6362 64.783 96.8167 64.5427C96.9972 64.3024 97.2449 64.121 97.5285 64.0214C97.812 63.9219 98.1187 63.9086 98.4098 63.9833C98.7009 64.058 98.9634 64.2173 99.164 64.4411C99.3645 64.6649 99.4943 64.9431 99.5368 65.2406C99.593 65.6375 99.4907 66.0406 99.2518 66.3625C99.013 66.6845 98.6569 66.8994 98.2608 66.9606H98.2448Z" fill="white"/>
<path d="M96.6106 81.9307C96.3894 81.9293 96.1763 81.8473 96.0114 81.7C95.8464 81.5527 95.7408 81.3503 95.7145 81.1307L93.1145 62.8667C93.1087 62.8139 93.1233 62.7609 93.1552 62.7185C93.1872 62.6761 93.2342 62.6476 93.2866 62.6387L101.835 61.4387C101.887 61.4331 101.94 61.4474 101.983 61.4787C102.004 61.4943 102.022 61.514 102.036 61.5367C102.05 61.5593 102.059 61.5845 102.063 61.6107L104.659 79.8747C104.676 79.9929 104.669 80.1133 104.639 80.229C104.61 80.3446 104.558 80.4534 104.486 80.5488C104.414 80.6443 104.324 80.7247 104.221 80.7855C104.119 80.8462 104.005 80.886 103.887 80.9027L96.7386 81.9187L96.6106 81.9307ZM93.5386 63.0267L96.0986 81.0947C96.1174 81.2277 96.1882 81.3478 96.2954 81.4288C96.4026 81.5097 96.5375 81.5449 96.6705 81.5267L103.819 80.5107C103.952 80.4907 104.073 80.4189 104.155 80.3107C104.195 80.2575 104.224 80.1968 104.24 80.1323C104.257 80.0678 104.26 80.0006 104.251 79.9347L101.699 61.8707L93.5386 63.0267ZM98.0426 67.1747C97.6002 67.1431 97.1874 66.9411 96.891 66.6112C96.5946 66.2812 96.4378 65.8492 96.4536 65.406C96.4695 64.9628 96.6566 64.543 96.9758 64.2351C97.2949 63.9271 97.7211 63.755 98.1645 63.755C98.608 63.755 99.0342 63.9271 99.3533 64.2351C99.6725 64.543 99.8597 64.9628 99.8755 65.406C99.8913 65.8492 99.7345 66.2812 99.4381 66.6112C99.1417 66.9411 98.7289 67.1431 98.2866 67.1747C98.2053 67.1806 98.1238 67.1806 98.0426 67.1747ZM98.0465 64.1387H97.8585C97.6872 64.1624 97.5223 64.2199 97.3733 64.3077C97.2243 64.3956 97.0942 64.5122 96.9905 64.6507C96.7801 64.9311 96.6895 65.2835 96.7386 65.6307C96.7623 65.802 96.8197 65.967 96.9076 66.116C96.9955 66.265 97.1121 66.3951 97.2506 66.4987C97.531 66.7091 97.8834 66.7998 98.2306 66.7507C98.4885 66.7137 98.7298 66.6011 98.9239 66.4272C99.118 66.2533 99.2563 66.0258 99.3213 65.7734C99.3864 65.521 99.3752 65.255 99.2893 65.0089C99.2034 64.7629 99.0465 64.5478 98.8386 64.3907C98.6092 64.2223 98.331 64.1338 98.0465 64.1387Z" fill="#263238"/>
<path d="M94.4238 70.6641L102.974 69.4487L104.452 79.8482C104.481 80.0499 104.428 80.2546 104.306 80.4175C104.183 80.5804 104.001 80.688 103.8 80.7166L96.7705 81.7158C96.5688 81.7445 96.364 81.6919 96.2012 81.5695C96.0383 81.4472 95.9307 81.2652 95.902 81.0635L94.4238 70.6641Z" fill="white"/>
<path d="M96.6653 81.9229C96.4323 81.9217 96.2075 81.8371 96.0314 81.6845C95.8553 81.5319 95.7397 81.3214 95.7053 81.0909L94.2293 70.6909C94.2249 70.6651 94.2258 70.6387 94.232 70.6132C94.2382 70.5878 94.2495 70.5639 94.2653 70.5429C94.2809 70.5215 94.3006 70.5034 94.3233 70.4897C94.3459 70.476 94.3711 70.4669 94.3973 70.4629L102.949 69.2629C103.002 69.2572 103.054 69.2719 103.096 69.3039C103.138 69.336 103.165 69.3829 103.173 69.4349L104.653 79.8349C104.689 80.0894 104.622 80.3476 104.468 80.553C104.313 80.7584 104.084 80.8943 103.829 80.9309L96.8013 81.9309L96.6653 81.9229ZM94.6653 70.8309L96.1013 81.0349C96.1231 81.184 96.2031 81.3183 96.3239 81.4083C96.4447 81.4983 96.5963 81.5367 96.7453 81.5149L103.773 80.5189C103.847 80.5086 103.919 80.4838 103.983 80.4458C104.048 80.4078 104.104 80.3574 104.149 80.2976C104.194 80.2377 104.227 80.1696 104.245 80.0971C104.264 80.0245 104.268 79.949 104.257 79.8749L102.805 69.6709L94.6653 70.8309Z" fill="#263238"/>
<path d="M100.7 73.0357C100.657 72.7302 100.524 72.4444 100.318 72.2145C100.112 71.9847 99.8425 71.821 99.5436 71.7443C99.2447 71.6676 98.9298 71.6812 98.6387 71.7835C98.3475 71.8858 98.0933 72.0721 97.908 72.3189C97.7228 72.5657 97.6149 72.8618 97.598 73.1699C97.5812 73.4781 97.656 73.7843 97.8132 74.0498C97.9703 74.3154 98.2027 74.5284 98.4809 74.6618C98.7591 74.7953 99.0707 74.8433 99.3762 74.7997C99.7851 74.7402 100.154 74.5213 100.402 74.1908C100.65 73.8602 100.757 73.445 100.7 73.0357Z" fill="white"/>
<path d="M99.1513 75.0201C98.7716 75.021 98.4021 74.8973 98.0993 74.6681C97.8199 74.4605 97.6086 74.1746 97.492 73.8466C97.3754 73.5186 97.359 73.1634 97.4447 72.8261C97.5305 72.4887 97.7145 72.1845 97.9735 71.9519C98.2325 71.7194 98.5547 71.5691 98.8993 71.5201C99.1288 71.485 99.363 71.4959 99.5883 71.5522C99.8135 71.6084 100.025 71.7089 100.211 71.8477C100.398 71.9865 100.554 72.161 100.672 72.3608C100.79 72.5607 100.868 72.7821 100.899 73.0121C100.933 73.2414 100.922 73.4753 100.865 73.7001C100.808 73.9249 100.708 74.1363 100.569 74.3222C100.43 74.508 100.256 74.6646 100.057 74.783C99.8576 74.9014 99.6369 74.9793 99.4073 75.0121C99.3223 75.0209 99.2367 75.0236 99.1513 75.0201ZM99.1513 71.9001C99.0861 71.894 99.0205 71.894 98.9553 71.9001C98.6885 71.9367 98.4386 72.052 98.2375 72.2313C98.0364 72.4105 97.8933 72.6456 97.8264 72.9065C97.7594 73.1674 97.7717 73.4423 97.8616 73.6962C97.9516 73.9501 98.1151 74.1715 98.3313 74.3321C98.5465 74.4927 98.8044 74.5859 99.0725 74.6002C99.3407 74.6144 99.607 74.549 99.838 74.4121C100.069 74.2752 100.254 74.073 100.371 73.831C100.487 73.589 100.529 73.3179 100.491 73.0521C100.446 72.7287 100.286 72.4325 100.039 72.2179C99.7932 72.0033 99.4779 71.8848 99.1513 71.8841V71.9001Z" fill="#263238"/>
<path d="M99.727 73.1961C99.7005 73.0486 99.6179 72.9171 99.4966 72.8291C99.3752 72.7412 99.2245 72.7036 99.0761 72.7243C98.9277 72.745 98.793 72.8223 98.7004 72.9401C98.6077 73.0579 98.5642 73.207 98.579 73.3561C98.5867 73.4338 98.6101 73.5091 98.6476 73.5776C98.6852 73.6461 98.7362 73.7063 98.7975 73.7546C98.8589 73.8029 98.9294 73.8383 99.0048 73.8586C99.0802 73.879 99.1589 73.884 99.2362 73.8732C99.3136 73.8624 99.388 73.8361 99.4549 73.7959C99.5218 73.7557 99.58 73.7024 99.6258 73.6391C99.6716 73.5759 99.7042 73.5041 99.7216 73.4279C99.739 73.3518 99.7408 73.2729 99.727 73.1961Z" fill="white"/>
<path d="M99.1551 74.0372C98.9998 74.0417 98.8464 74.0008 98.7139 73.9195C98.5814 73.8383 98.4754 73.7202 98.4089 73.5797C98.3424 73.4392 98.3183 73.2824 98.3395 73.1284C98.3607 72.9744 98.4263 72.8299 98.5283 72.7126C98.6303 72.5953 98.7642 72.5103 98.9138 72.4679C99.0633 72.4254 99.222 72.4275 99.3704 72.4738C99.5187 72.5201 99.6504 72.6087 99.7493 72.7286C99.8482 72.8485 99.91 72.9947 99.9271 73.1492C99.9537 73.3531 99.9007 73.5593 99.7791 73.7252C99.7177 73.8077 99.6404 73.877 99.5518 73.9292C99.4632 73.9814 99.3651 74.0154 99.2631 74.0292L99.1551 74.0372ZM99.1551 72.8772H99.0991C99.0024 72.8965 98.9162 72.9509 98.8572 73.0299C98.7981 73.1089 98.7703 73.2069 98.7791 73.3052C98.7976 73.4026 98.8516 73.4898 98.9307 73.5496C99.0098 73.6095 99.1083 73.6378 99.2071 73.6292C99.3068 73.6134 99.3968 73.5605 99.4591 73.4812C99.5172 73.4001 99.5429 73.3002 99.5311 73.2012C99.5141 73.1127 99.4677 73.0326 99.3995 72.9738C99.3312 72.915 99.2451 72.8809 99.1551 72.8772Z" fill="#263238"/>
<path d="M97.7556 63.4193C97.3521 63.4764 96.9746 63.652 96.6708 63.9237C96.3671 64.1955 96.1508 64.5512 96.0493 64.9459C95.9478 65.3406 95.9656 65.7566 96.1006 66.1411C96.2356 66.5257 96.4816 66.8616 96.8075 67.1063C97.1334 67.351 97.5246 67.4935 97.9315 67.5159C98.3384 67.5382 98.7429 67.4393 99.0936 67.2317C99.4443 67.0242 99.7256 66.7172 99.9018 66.3497C100.078 65.9823 100.141 65.5707 100.084 65.1673C100.046 64.8995 99.9556 64.6418 99.8181 64.409C99.6806 64.1761 99.4985 63.9727 99.2823 63.8103C99.066 63.6479 98.8199 63.5298 98.5579 63.4627C98.2959 63.3956 98.0233 63.3809 97.7556 63.4193ZM98.2596 66.9633C97.962 67.0054 97.6587 66.9583 97.3879 66.828C97.1171 66.6977 96.891 66.49 96.7381 66.2312C96.5853 65.9725 96.5126 65.6742 96.5292 65.3741C96.5459 65.0741 96.6511 64.7856 96.8316 64.5454C97.0121 64.3051 97.2598 64.1237 97.5433 64.0241C97.8269 63.9245 98.1336 63.9113 98.4247 63.986C98.7158 64.0607 98.9782 64.22 99.1788 64.4438C99.3794 64.6676 99.5091 64.9458 99.5516 65.2433C99.6076 65.6426 99.5031 66.0478 99.2609 66.3702C99.0187 66.6925 98.6587 66.9058 98.2596 66.9633Z" fill="white"/>
<path d="M98.0442 67.7182C97.6241 67.718 97.2124 67.6008 96.8553 67.3796C96.4982 67.1585 96.2098 66.8422 96.0224 66.4662C95.8351 66.0903 95.7562 65.6696 95.7947 65.2513C95.8331 64.833 95.9874 64.4337 96.2402 64.0982C96.4172 63.86 96.64 63.6594 96.8955 63.5083C97.151 63.3572 97.4341 63.2586 97.7282 63.2182C98.0222 63.1759 98.3217 63.1923 98.6094 63.2665C98.8971 63.3406 99.1672 63.471 99.4042 63.6502C99.6427 63.827 99.8435 64.0497 99.9947 64.3052C100.146 64.5608 100.244 64.844 100.284 65.1382C100.368 65.7316 100.212 66.3339 99.8524 66.813C99.4925 67.2921 98.9573 67.609 98.3642 67.6942C98.2582 67.7102 98.1513 67.7182 98.0442 67.7182ZM97.7842 63.5982C97.3571 63.6583 96.964 63.8647 96.672 64.1821C96.38 64.4996 96.2072 64.9085 96.1829 65.3391C96.1586 65.7697 96.2844 66.1954 96.5389 66.5437C96.7933 66.892 97.1607 67.1412 97.5783 67.2489C97.9959 67.3567 98.438 67.3163 98.8292 67.1346C99.2204 66.9528 99.5364 66.6411 99.7235 66.2525C99.9105 65.8638 99.957 65.4223 99.8551 65.0033C99.7531 64.5842 99.5089 64.2134 99.1642 63.9542C98.9694 63.8061 98.747 63.6983 98.51 63.6372C98.2731 63.5761 98.0263 63.5628 97.7842 63.5982ZM98.0442 67.1582C97.6124 67.153 97.1985 66.9857 96.8844 66.6893C96.5704 66.393 96.3793 65.9894 96.3491 65.5588C96.3189 65.1281 96.4517 64.7018 96.7213 64.3645C96.9909 64.0272 97.3774 63.8037 97.8042 63.7382C98.2481 63.6895 98.6936 63.8155 99.0464 64.0894C99.3992 64.3633 99.6317 64.7637 99.6945 65.2059C99.7574 65.648 99.6458 66.0973 99.3833 66.4587C99.1209 66.8201 98.7281 67.0652 98.2882 67.1422C98.2077 67.1589 98.1262 67.1696 98.0442 67.1742V67.1582ZM98.0482 64.1222C97.9856 64.1183 97.9228 64.1183 97.8602 64.1222C97.6888 64.1459 97.5239 64.2034 97.3749 64.2913C97.2259 64.3792 97.0958 64.4957 96.9922 64.6342C96.7817 64.9146 96.6911 65.2671 96.7402 65.6142C96.7639 65.7856 96.8213 65.9505 96.9092 66.0995C96.9971 66.2485 97.1137 66.3786 97.2522 66.4822C97.419 66.6087 97.6135 66.6936 97.8196 66.7301C98.0257 66.7665 98.2376 66.7534 98.4376 66.6919C98.6377 66.6303 98.8203 66.522 98.9703 66.376C99.1202 66.23 99.2333 66.0504 99.3002 65.8521C99.3671 65.6537 99.3859 65.4423 99.355 65.2353C99.3241 65.0283 99.2444 64.8315 99.1225 64.6614C99.0005 64.4912 98.8399 64.3525 98.6538 64.2567C98.4677 64.1609 98.2615 64.1107 98.0522 64.1102L98.0482 64.1222Z" fill="#263238"/>
<path d="M116.953 87.4016L86.0039 91.8008L92.4498 137.149L123.399 132.75L116.953 87.4016Z" fill="white"/>
<path d="M92.4505 137.345C92.4058 137.346 92.3622 137.332 92.3265 137.305C92.2857 137.272 92.2586 137.225 92.2505 137.173L85.8025 91.825C85.7956 91.7721 85.8098 91.7185 85.8419 91.6759C85.8741 91.6333 85.9217 91.6049 85.9745 91.597L116.922 87.197C116.975 87.1901 117.029 87.2043 117.072 87.2365C117.114 87.2686 117.143 87.3162 117.15 87.369L123.598 132.717C123.604 132.77 123.59 132.822 123.558 132.865C123.543 132.886 123.523 132.905 123.501 132.918C123.478 132.932 123.453 132.941 123.426 132.945L92.4785 137.345H92.4505ZM86.2265 91.965L92.6265 136.921L123.182 132.577L116.782 87.625L86.2265 91.965Z" fill="#263238"/>
<path d="M92.4505 137.149C98.3545 136.349 116.991 133.549 123.399 132.749C122.871 129.045 122.175 124.229 122.091 121.921C121.255 121.321 119.795 120.805 117.691 119.693C114.391 117.953 109.035 114.297 109.035 114.297L106.859 114.529L106.839 114.401L105.099 114.713L103.335 114.897V115.025L101.179 115.425C101.179 115.425 97.0545 120.429 94.3785 123.025C92.6105 124.733 91.5065 125.513 90.8945 126.345C90.9425 126.485 91.8505 132.869 92.4505 137.149Z" fill="white"/>
<path d="M92.4493 137.297C92.4129 137.296 92.378 137.282 92.3508 137.258C92.3236 137.234 92.3061 137.201 92.3013 137.165C91.6973 132.849 90.8013 126.525 90.7653 126.365C90.7605 126.344 90.7605 126.322 90.7654 126.301C90.7702 126.281 90.7798 126.261 90.7933 126.245C91.2877 125.642 91.8426 125.091 92.4493 124.601C92.9493 124.157 93.5733 123.605 94.2933 122.905C96.9413 120.353 101.049 115.377 101.093 115.325C101.116 115.296 101.149 115.278 101.185 115.273L103.185 114.913C103.183 114.895 103.185 114.877 103.191 114.859C103.196 114.842 103.205 114.826 103.217 114.813C103.229 114.797 103.244 114.784 103.261 114.774C103.279 114.764 103.298 114.758 103.317 114.757L105.081 114.573L106.813 114.261C106.833 114.257 106.853 114.257 106.872 114.261C106.891 114.265 106.909 114.273 106.925 114.285C106.956 114.306 106.977 114.337 106.985 114.373L109.017 114.157C109.052 114.154 109.087 114.162 109.117 114.181C109.173 114.221 114.505 117.853 117.757 119.569C118.673 120.053 119.453 120.417 120.157 120.737C120.865 121.034 121.544 121.393 122.189 121.809C122.208 121.822 122.224 121.839 122.235 121.859C122.247 121.879 122.253 121.902 122.253 121.925C122.329 124.113 122.969 128.593 123.481 132.193L123.557 132.737C123.561 132.756 123.56 132.776 123.555 132.796C123.551 132.815 123.542 132.833 123.529 132.849C123.504 132.88 123.469 132.902 123.429 132.909C119.389 133.401 110.677 134.673 102.989 135.793C98.5213 136.445 94.6653 136.993 92.4813 137.305L92.4493 137.297ZM91.0693 126.361C91.1853 127.093 92.0493 133.197 92.5773 136.977C94.7853 136.673 98.5773 136.121 102.937 135.485C110.537 134.377 119.125 133.125 123.233 132.617L123.177 132.217C122.669 128.649 122.037 124.217 121.949 121.989C121.333 121.608 120.688 121.273 120.021 120.989C119.333 120.669 118.549 120.301 117.621 119.813C114.517 118.177 109.529 114.801 108.997 114.441L106.877 114.665C106.843 114.667 106.809 114.658 106.78 114.639C106.751 114.62 106.729 114.593 106.717 114.561L105.117 114.849L103.497 115.021C103.497 115.055 103.484 115.088 103.461 115.114C103.438 115.139 103.407 115.156 103.373 115.161L101.273 115.537C100.873 116.033 97.0173 120.661 94.4733 123.101C93.7493 123.805 93.1213 124.361 92.6173 124.805C92.0562 125.277 91.5382 125.797 91.0693 126.361Z" fill="#263238"/>
<path d="M122.1 121.921C121.283 121.418 120.429 120.979 119.544 120.609L119.324 120.505L119.032 120.365L118.632 120.169L118.396 120.049C118.172 119.937 117.944 119.821 117.704 119.693C114.404 117.953 109.048 114.297 109.048 114.297L106.872 114.529L106.852 114.401L105.112 114.713L103.348 114.897V115.025L101.192 115.425C101.192 115.425 97.0682 120.429 94.3922 123.025C94.2122 123.201 94.0402 123.365 93.8682 123.525C92.4042 124.889 91.4682 125.597 90.9082 126.345C90.9082 126.401 91.0282 127.165 91.1962 128.317L122.236 123.917C122.164 123.129 122.1 122.457 122.1 121.921Z" fill="#263238"/>
<path d="M122.632 127.199L91.668 131.599C91.828 132.739 92 133.947 92.164 135.103L123.108 130.703C122.944 129.543 122.78 128.343 122.632 127.199Z" fill="#263238"/>
<path d="M106.133 122.703L107.293 130.111L109.149 129.847L107.357 122.423C107.357 122.423 106.281 122.263 106.133 122.703Z" fill="white"/>
<path d="M107.301 130.258C107.266 130.258 107.231 130.245 107.205 130.223C107.178 130.2 107.159 130.169 107.153 130.134L105.993 122.726C105.987 122.703 105.987 122.678 105.993 122.654C106.173 122.11 107.257 122.254 107.381 122.274C107.41 122.278 107.437 122.291 107.458 122.311C107.48 122.331 107.495 122.358 107.501 122.386L109.301 129.81C109.306 129.83 109.307 129.852 109.304 129.872C109.301 129.893 109.293 129.913 109.281 129.93C109.269 129.947 109.253 129.962 109.235 129.973C109.218 129.984 109.198 129.991 109.177 129.994L107.321 130.258H107.301ZM106.297 122.722L107.425 129.922L108.973 129.702L107.245 122.542C106.873 122.522 106.393 122.546 106.289 122.722H106.297Z" fill="#263238"/>
<path d="M107.384 124.724C107.379 124.685 107.366 124.648 107.346 124.614C107.326 124.581 107.3 124.551 107.269 124.528C107.237 124.505 107.202 124.488 107.164 124.478C107.126 124.468 107.087 124.466 107.048 124.472C106.99 124.48 106.936 124.506 106.893 124.545C106.849 124.584 106.818 124.635 106.804 124.692C106.79 124.748 106.792 124.808 106.812 124.863C106.831 124.918 106.867 124.966 106.913 125.002C106.96 125.037 107.016 125.057 107.075 125.06C107.133 125.064 107.191 125.049 107.241 125.02C107.292 124.99 107.332 124.946 107.357 124.893C107.383 124.841 107.392 124.782 107.384 124.724Z" fill="white"/>
<path d="M107.093 125.196C106.995 125.196 106.901 125.164 106.825 125.104C106.73 125.034 106.667 124.929 106.649 124.812C106.641 124.754 106.644 124.695 106.659 124.638C106.675 124.581 106.701 124.527 106.737 124.48C106.789 124.408 106.861 124.354 106.945 124.323C107.029 124.293 107.12 124.289 107.206 124.311C107.292 124.333 107.37 124.38 107.429 124.447C107.488 124.513 107.525 124.596 107.537 124.684C107.546 124.743 107.544 124.802 107.529 124.859C107.515 124.916 107.489 124.97 107.453 125.016C107.418 125.063 107.374 125.102 107.324 125.132C107.274 125.162 107.218 125.181 107.161 125.188L107.093 125.196ZM107.093 124.6H107.073C107.053 124.602 107.035 124.608 107.018 124.618C107.002 124.628 106.988 124.641 106.977 124.656C106.964 124.671 106.955 124.689 106.951 124.707C106.946 124.726 106.945 124.745 106.949 124.764C106.95 124.784 106.956 124.802 106.966 124.819C106.976 124.835 106.989 124.849 107.005 124.86C107.036 124.883 107.074 124.893 107.113 124.888C107.132 124.887 107.15 124.881 107.167 124.871C107.183 124.861 107.198 124.848 107.209 124.832C107.232 124.801 107.242 124.763 107.237 124.724C107.229 124.692 107.21 124.664 107.184 124.644C107.158 124.623 107.126 124.612 107.093 124.612V124.6Z" fill="#263238"/>
<path d="M108.185 128.247C108.183 128.206 108.172 128.166 108.153 128.13C108.134 128.093 108.108 128.061 108.077 128.035C108.045 128.009 108.008 127.99 107.969 127.98C107.929 127.969 107.888 127.966 107.848 127.972C107.807 127.978 107.768 127.992 107.734 128.013C107.699 128.035 107.669 128.064 107.646 128.097C107.623 128.131 107.607 128.169 107.599 128.209C107.591 128.25 107.592 128.291 107.601 128.331C107.606 128.369 107.619 128.406 107.638 128.44C107.657 128.474 107.683 128.503 107.714 128.526C107.745 128.55 107.781 128.567 107.818 128.577C107.856 128.586 107.895 128.588 107.933 128.583C107.972 128.577 108.009 128.564 108.043 128.545C108.076 128.525 108.106 128.498 108.129 128.467C108.153 128.436 108.17 128.4 108.179 128.363C108.189 128.325 108.191 128.285 108.185 128.247Z" fill="white"/>
<path d="M107.892 128.732C107.782 128.732 107.676 128.692 107.594 128.617C107.513 128.543 107.462 128.442 107.452 128.332C107.441 128.274 107.443 128.215 107.458 128.159C107.472 128.102 107.499 128.049 107.536 128.004C107.588 127.932 107.661 127.877 107.745 127.847C107.828 127.817 107.919 127.812 108.006 127.834C108.092 127.856 108.169 127.903 108.228 127.97C108.287 128.037 108.325 128.12 108.336 128.208C108.346 128.266 108.343 128.326 108.329 128.383C108.314 128.44 108.288 128.493 108.252 128.54C108.181 128.633 108.076 128.695 107.96 128.712L107.892 128.732ZM107.892 128.14H107.872C107.848 128.143 107.825 128.152 107.805 128.166C107.785 128.18 107.769 128.199 107.758 128.221C107.747 128.242 107.741 128.267 107.742 128.291C107.743 128.316 107.75 128.34 107.762 128.361C107.774 128.382 107.791 128.4 107.812 128.413C107.833 128.425 107.857 128.433 107.881 128.435C107.905 128.436 107.93 128.431 107.952 128.421C107.974 128.411 107.994 128.395 108.008 128.376C108.02 128.361 108.029 128.344 108.034 128.325C108.039 128.306 108.039 128.287 108.036 128.268C108.032 128.233 108.015 128.2 107.989 128.176C107.962 128.153 107.928 128.14 107.892 128.14Z" fill="#263238"/>
<path d="M101.515 113.158C101.515 113.158 100.315 113.642 99.9835 115.69C99.6515 117.738 99.9475 122.846 99.7995 124.022C99.6515 125.198 99.9915 125.362 100.771 124.938C101.551 124.514 102.275 122.938 103.511 122.758C104.6 122.67 105.695 122.69 106.779 122.818C106.779 122.818 108.579 121.406 109.815 121.218C111.051 121.03 112.919 123.09 113.415 123.018C113.911 122.946 112.683 118.618 111.551 115.818C110.419 113.018 108.475 111.942 106.311 112.25C104.147 112.558 101.515 113.158 101.515 113.158Z" fill="white"/>
<path d="M100.156 125.303C100.056 125.306 99.9586 125.278 99.8756 125.223C99.6356 125.059 99.5676 124.683 99.6516 124.003C99.7076 123.543 99.6956 122.443 99.6796 121.171C99.6556 119.271 99.6276 116.907 99.8356 115.663C100.184 113.559 101.408 113.039 101.46 113.019H101.484C101.512 113.019 104.164 112.427 106.312 112.123C108.712 111.783 110.612 113.083 111.712 115.783C112.604 117.975 114.016 122.407 113.64 123.059C113.622 123.093 113.596 123.123 113.565 123.145C113.534 123.167 113.498 123.182 113.46 123.187C113.208 123.223 112.868 122.987 112.236 122.531C111.516 122.007 110.524 121.291 109.836 121.391C108.656 121.559 106.892 122.931 106.872 122.947C106.841 122.972 106.802 122.983 106.764 122.979C105.691 122.853 104.608 122.831 103.532 122.915C102.82 123.019 102.268 123.647 101.78 124.203C101.518 124.544 101.202 124.838 100.844 125.075C100.636 125.206 100.4 125.284 100.156 125.303ZM101.564 113.303C101.452 113.359 100.436 113.887 100.132 115.703C99.9276 116.903 99.9596 119.267 99.9796 121.155C99.9796 122.439 100.012 123.555 99.9476 124.031C99.8636 124.727 99.9716 124.911 100.044 124.963C100.116 125.015 100.288 125.019 100.7 124.795C101.023 124.573 101.312 124.303 101.556 123.995C102.076 123.403 102.668 122.727 103.492 122.611C104.572 122.52 105.659 122.539 106.736 122.667C107.04 122.431 108.632 121.251 109.796 121.067C110.596 120.955 111.608 121.679 112.412 122.267C112.706 122.515 113.035 122.719 113.388 122.871C113.584 122.427 112.628 118.811 111.432 115.875C110.392 113.315 108.592 112.079 106.352 112.399C104.3 112.703 101.78 113.251 101.564 113.299V113.303Z" fill="#263238"/>
<path d="M93.0564 127.598C92.2044 126.102 91.4564 126.302 90.9844 126.798C91.2124 128.374 91.9404 133.506 92.4484 137.134H92.5644C93.5164 137.006 94.7764 136.826 96.2484 136.614L96.3164 136.578C95.3764 133.51 93.9964 129.27 93.0564 127.598Z" fill="white"/>
<path d="M92.4481 137.289C92.4117 137.288 92.3767 137.275 92.3496 137.25C92.3224 137.226 92.3048 137.193 92.3001 137.157C91.8201 133.729 91.0761 128.465 90.8361 126.821C90.8322 126.798 90.8338 126.774 90.8407 126.752C90.8477 126.73 90.8598 126.71 90.8761 126.693C90.9941 126.554 91.1435 126.446 91.3118 126.376C91.4801 126.307 91.6625 126.278 91.8441 126.293C92.3041 126.357 92.7561 126.773 93.1841 127.529C94.1201 129.177 95.4841 133.329 96.4601 136.521C96.4717 136.558 96.4687 136.598 96.4516 136.633C96.4344 136.668 96.4046 136.695 96.3681 136.709L96.3081 136.737H96.272C94.796 136.949 93.5361 137.137 92.5841 137.257H92.4601L92.4481 137.289ZM91.1441 126.853C91.3881 128.557 92.1041 133.597 92.5761 136.977L96.1281 136.473C95.1601 133.317 93.8321 129.273 92.9281 127.673C92.5481 127.001 92.1721 126.637 91.8081 126.585C91.6843 126.576 91.5603 126.596 91.4453 126.643C91.3302 126.689 91.2273 126.761 91.1441 126.853Z" fill="#263238"/>
<path d="M119.893 133.199C121.048 132.964 122.215 132.79 123.389 132.679C122.929 129.435 122.341 125.375 122.149 122.883C119.593 123.939 119.581 129.427 119.893 133.199Z" fill="white"/>
<path d="M119.891 133.331C119.859 133.331 119.828 133.319 119.803 133.299C119.786 133.288 119.772 133.272 119.762 133.254C119.751 133.236 119.745 133.216 119.743 133.195C119.395 129.015 119.519 123.807 122.091 122.727C122.112 122.717 122.136 122.711 122.159 122.711C122.183 122.711 122.206 122.717 122.227 122.727C122.247 122.741 122.264 122.759 122.276 122.78C122.289 122.8 122.297 122.823 122.299 122.847C122.479 125.211 123.027 129.059 123.467 132.147L123.535 132.627C123.538 132.648 123.537 132.669 123.532 132.689C123.526 132.709 123.516 132.727 123.503 132.743C123.492 132.759 123.477 132.773 123.459 132.782C123.442 132.792 123.423 132.798 123.403 132.799C122.235 132.911 121.073 133.084 119.923 133.319L119.891 133.331ZM122.015 123.095C119.719 124.343 119.767 129.727 120.015 132.999C121.011 132.799 122.059 132.643 123.215 132.523L123.171 132.199C122.743 129.199 122.215 125.483 122.015 123.095Z" fill="#263238"/>
<path d="M109.609 102.704C109.609 102.704 109.769 99.3682 111.357 101.668C112.945 103.968 110.137 107.524 109.757 106.948C109.377 106.372 109.609 102.704 109.609 102.704Z" fill="white"/>
<path d="M109.864 107.163C109.815 107.164 109.767 107.153 109.724 107.131C109.68 107.108 109.643 107.075 109.616 107.035C109.216 106.435 109.432 103.087 109.46 102.699C109.46 102.507 109.564 100.927 110.26 100.731C110.62 100.631 111.024 100.907 111.492 101.583C112.412 102.915 111.892 104.507 111.492 105.335C111.032 106.307 110.32 107.127 109.892 107.163H109.864ZM110.396 101.011H110.332C109.956 101.119 109.784 102.211 109.76 102.707C109.656 104.103 109.596 106.467 109.864 106.855C109.932 106.855 110.3 106.651 110.752 105.995C111.552 104.855 112.14 103.055 111.232 101.743C110.9 101.271 110.604 101.011 110.396 101.011Z" fill="#263238"/>
<path d="M109.8 104.633H109.772C109.752 104.629 109.733 104.622 109.716 104.611C109.7 104.601 109.685 104.587 109.674 104.57C109.663 104.554 109.655 104.535 109.651 104.516C109.647 104.496 109.647 104.476 109.652 104.457C109.716 104.113 110.072 102.381 110.536 102.101C110.598 102.057 110.669 102.029 110.745 102.02C110.82 102.01 110.896 102.018 110.968 102.045C111.067 102.101 111.154 102.177 111.223 102.269C111.292 102.36 111.341 102.465 111.368 102.577C111.376 102.616 111.369 102.656 111.348 102.69C111.327 102.723 111.294 102.747 111.256 102.757C111.237 102.762 111.217 102.764 111.197 102.761C111.178 102.758 111.159 102.752 111.142 102.742C111.125 102.732 111.111 102.718 111.099 102.702C111.088 102.686 111.08 102.668 111.076 102.649C111.052 102.561 110.976 102.365 110.868 102.325C110.868 102.325 110.804 102.297 110.708 102.357C110.452 102.513 110.116 103.713 109.964 104.513C109.955 104.549 109.934 104.581 109.904 104.603C109.874 104.625 109.837 104.636 109.8 104.633Z" fill="#263238"/>
<path d="M110.801 104.618C110.777 104.618 110.753 104.613 110.731 104.601C110.71 104.59 110.691 104.574 110.677 104.554C110.656 104.521 110.648 104.481 110.655 104.442C110.663 104.403 110.685 104.369 110.717 104.346C110.798 104.285 110.857 104.201 110.889 104.105C110.92 104.01 110.922 103.907 110.893 103.81C110.889 103.792 110.881 103.774 110.869 103.76C110.857 103.745 110.842 103.734 110.825 103.726C110.572 103.687 110.313 103.729 110.085 103.846C110.067 103.854 110.048 103.858 110.029 103.859C110.009 103.859 109.99 103.856 109.971 103.849C109.953 103.842 109.937 103.831 109.922 103.818C109.908 103.804 109.897 103.788 109.889 103.77C109.881 103.752 109.876 103.733 109.875 103.713C109.874 103.693 109.878 103.674 109.885 103.655C109.892 103.637 109.903 103.62 109.917 103.606C109.93 103.592 109.947 103.581 109.965 103.574C110.27 103.422 110.617 103.379 110.949 103.454C111.006 103.478 111.057 103.515 111.097 103.563C111.138 103.61 111.166 103.666 111.181 103.726C111.227 103.883 111.224 104.051 111.172 104.206C111.12 104.361 111.021 104.496 110.889 104.594C110.863 104.61 110.832 104.618 110.801 104.618Z" fill="#263238"/>
<path d="M97.3 104.458C97.3 104.458 96.216 101.294 95.332 103.946C94.448 106.598 98.132 109.23 98.356 108.57C98.58 107.91 97.3 104.458 97.3 104.458Z" fill="white"/>
<path d="M98.1825 108.822C98.091 108.819 98.0005 108.802 97.9145 108.77C96.9385 108.446 94.4225 106.198 95.1905 103.898C95.4505 103.118 95.7625 102.738 96.1345 102.738C96.8465 102.738 97.3785 104.226 97.4385 104.406C97.5745 104.774 98.7265 107.922 98.4985 108.614C98.4765 108.679 98.4334 108.735 98.3762 108.773C98.319 108.81 98.2508 108.828 98.1825 108.822ZM96.1385 103.038C95.9145 103.038 95.6825 103.378 95.4745 103.994C94.9705 105.51 96.0465 107.07 97.1225 107.946C97.7385 108.45 98.1545 108.558 98.2225 108.514C98.3665 108.074 97.6465 105.822 97.1585 104.514C96.9505 103.894 96.4985 103.038 96.1385 103.038Z" fill="#263238"/>
<path d="M97.6163 106.365C97.5881 106.364 97.5607 106.356 97.5367 106.341C97.5128 106.327 97.4933 106.306 97.4803 106.281C97.1083 105.553 96.4523 104.497 96.1603 104.417C96.0523 104.389 96.0123 104.417 96.0003 104.417C95.9083 104.485 95.8883 104.693 95.8923 104.785C95.8934 104.824 95.8789 104.863 95.852 104.892C95.8251 104.921 95.7879 104.939 95.7483 104.941C95.7285 104.942 95.7087 104.939 95.6901 104.932C95.6715 104.925 95.6544 104.915 95.6399 104.902C95.6253 104.888 95.6136 104.872 95.6054 104.854C95.5973 104.836 95.5928 104.816 95.5923 104.797C95.5835 104.684 95.5985 104.571 95.6364 104.465C95.6744 104.359 95.7343 104.262 95.8123 104.181C95.872 104.134 95.9427 104.103 96.0175 104.091C96.0924 104.08 96.169 104.087 96.2403 104.113C96.7643 104.253 97.5883 105.817 97.7483 106.113C97.7654 106.148 97.7683 106.188 97.7564 106.226C97.7445 106.263 97.7186 106.294 97.6843 106.313C97.6666 106.336 97.6432 106.354 97.6163 106.365Z" fill="#263238"/>
<path d="M96.6482 106.63C96.6324 106.634 96.616 106.634 96.6002 106.63C96.4463 106.574 96.3135 106.471 96.2198 106.337C96.1261 106.202 96.076 106.042 96.0762 105.878C96.0756 105.817 96.0886 105.756 96.1141 105.7C96.1397 105.644 96.1773 105.594 96.2242 105.554C96.5231 105.391 96.8688 105.335 97.2042 105.394C97.2237 105.397 97.2425 105.403 97.2596 105.413C97.2766 105.423 97.2915 105.436 97.3034 105.451C97.3154 105.467 97.324 105.485 97.329 105.504C97.3339 105.523 97.335 105.543 97.3322 105.562C97.3303 105.582 97.3243 105.601 97.3147 105.619C97.305 105.636 97.2919 105.651 97.2761 105.663C97.2604 105.675 97.2423 105.684 97.223 105.688C97.2037 105.693 97.1837 105.694 97.1642 105.69C96.9127 105.642 96.6525 105.675 96.4202 105.782C96.4064 105.794 96.3954 105.809 96.3878 105.826C96.3802 105.842 96.3763 105.86 96.3762 105.878C96.3753 105.98 96.4055 106.079 96.4627 106.163C96.5199 106.246 96.6014 106.31 96.6962 106.346C96.7343 106.359 96.7659 106.386 96.7839 106.422C96.8019 106.458 96.8049 106.5 96.7922 106.538C96.7797 106.566 96.7595 106.589 96.7339 106.606C96.7083 106.622 96.6785 106.631 96.6482 106.63Z" fill="#263238"/>
<path d="M100.592 111.079C100.592 111.079 102.324 117.135 102.66 118.255C103.06 119.563 105.396 122.703 106.592 122.219C107.788 121.735 108.008 118.123 108.168 117.051C108.328 115.979 108.012 110.027 108.012 110.027L100.592 111.079Z" fill="white"/>
<path d="M106.319 122.417C106.108 122.412 105.902 122.357 105.715 122.257C104.447 121.653 102.851 119.393 102.515 118.293C102.179 117.193 100.463 111.181 100.443 111.121C100.434 111.102 100.43 111.081 100.43 111.059C100.43 111.038 100.434 111.017 100.443 110.997C100.455 110.98 100.47 110.964 100.488 110.953C100.506 110.941 100.526 110.933 100.547 110.929L107.971 109.877C107.992 109.874 108.013 109.874 108.033 109.88C108.053 109.885 108.072 109.896 108.087 109.909C108.104 109.922 108.117 109.939 108.126 109.957C108.135 109.976 108.139 109.997 108.139 110.017C108.139 110.261 108.459 115.993 108.295 117.069C108.271 117.233 108.247 117.449 108.215 117.709C107.975 119.741 107.635 121.945 106.615 122.353C106.521 122.393 106.421 122.414 106.319 122.417ZM100.779 111.197C101.063 112.177 102.503 117.197 102.803 118.201C103.103 119.205 104.663 121.401 105.843 121.981C105.946 122.043 106.06 122.082 106.178 122.097C106.296 122.113 106.417 122.103 106.531 122.069C107.463 121.689 107.783 118.973 107.939 117.669C107.971 117.409 107.995 117.185 108.019 117.021C108.163 116.073 107.919 111.153 107.871 110.193L100.779 111.197Z" fill="#263238"/>
<path d="M96.4042 97.1673C96.4042 97.1673 96.7522 102.955 97.9642 107.047C99.1762 111.139 102.8 114.411 104.68 114.303C106.56 114.195 110.12 109.267 109.904 106.611C109.688 103.955 110.152 97.2633 108.848 94.7633C107.544 92.2633 105.736 91.7353 102 92.1073C98.2642 92.4793 95.7202 94.5793 96.4042 97.1673Z" fill="white"/>
<path d="M104.588 114.453C102.54 114.453 98.9877 111.057 97.8237 107.089C96.6597 103.121 96.2757 97.5174 96.2557 97.1894C96.1286 96.7284 96.1065 96.2447 96.1909 95.774C96.2754 95.3033 96.4642 94.8575 96.7437 94.4694C97.6877 93.1094 99.5957 92.1934 101.984 91.9574C105.944 91.5574 107.708 92.2534 108.984 94.6934C109.932 96.5134 109.956 100.417 109.976 103.557C109.976 104.789 109.976 105.849 110.052 106.597C110.196 108.325 108.796 110.929 107.34 112.597C106.764 113.261 105.652 114.385 104.688 114.441L104.588 114.453ZM103.884 92.1494C103.324 92.1494 102.704 92.1854 102.012 92.2534C99.7477 92.4814 97.8677 93.3734 96.9917 94.6534C96.7361 95.0076 96.5635 95.4148 96.4866 95.8448C96.4098 96.2748 96.4306 96.7166 96.5477 97.1374C96.5496 97.1466 96.5496 97.1562 96.5477 97.1654C96.5477 97.2254 96.9117 102.989 98.1037 107.013C99.3037 111.101 102.956 114.269 104.668 114.161C105.288 114.125 106.18 113.489 107.108 112.421C108.524 110.793 109.884 108.281 109.748 106.637C109.684 105.877 109.68 104.809 109.672 103.573C109.652 100.465 109.628 96.6014 108.712 94.8454C107.7 92.9134 106.44 92.1494 103.884 92.1494Z" fill="#263238"/>
<path d="M96.9516 104.03C96.9516 104.03 97.5876 103.806 97.4396 102.754C97.2916 101.702 97.0676 101.066 97.4396 100.814C97.8116 100.562 98.3756 100.346 98.3516 99.2138C98.3276 98.0818 96.8876 97.4138 97.1916 96.2338C97.3921 95.6127 97.7989 95.0788 98.3446 94.7208C98.8903 94.3628 99.5421 94.2023 100.192 94.2658C101.548 94.4098 101.912 96.4978 104.076 97.5978C106.24 98.6978 108.788 98.2658 108.788 98.2658C108.671 98.4495 108.618 98.6665 108.637 98.8834C108.655 99.1002 108.745 99.3049 108.892 99.4658C109.166 99.787 109.338 100.182 109.388 100.602C109.388 100.602 109.572 102.85 109.968 102.794C110.364 102.738 110.168 97.6138 110.056 96.8258C109.944 96.0378 110.088 92.8258 107.656 91.7458C105.224 90.6658 101.724 90.9818 99.6156 91.6818C97.5076 92.3818 96.4156 93.5458 95.9396 95.4858C95.4636 97.4258 96.9516 104.03 96.9516 104.03Z" fill="#263238"/>
<path d="M96.9524 104.176C96.9288 104.182 96.9041 104.182 96.8804 104.176C96.8444 104.153 96.8176 104.118 96.8044 104.076C96.7444 103.804 95.3284 97.4045 95.7924 95.4525C96.2564 93.5005 97.4284 92.2525 99.5644 91.5445C101.82 90.7925 105.344 90.5765 107.712 91.6085C109.892 92.5645 110.072 95.1365 110.16 96.3765C110.16 96.5565 110.18 96.7045 110.196 96.8085C110.256 97.2085 110.328 98.7085 110.344 100.084C110.368 102.884 110.144 102.92 109.98 102.944C109.944 102.95 109.907 102.948 109.872 102.937C109.836 102.927 109.804 102.909 109.776 102.884C109.42 102.6 109.268 101.076 109.232 100.616C109.179 100.228 109.016 99.8616 108.764 99.5605C108.641 99.4096 108.555 99.2316 108.514 99.041C108.473 98.8504 108.478 98.6528 108.528 98.4645C106.982 98.6421 105.416 98.3931 104 97.7445C103.079 97.2362 102.288 96.5215 101.688 95.6565C101.18 95.0085 100.776 94.4925 100.168 94.4325C99.5551 94.3725 98.9396 94.5233 98.4233 94.8599C97.9071 95.1966 97.521 95.699 97.3284 96.2845C97.1804 96.8605 97.5084 97.3165 97.8524 97.7965C98.2062 98.1861 98.4323 98.6746 98.5004 99.1965C98.5284 100.284 98.0244 100.604 97.6564 100.84L97.5244 100.924C97.3284 101.06 97.3804 101.416 97.4964 102.088C97.5284 102.28 97.5644 102.488 97.5964 102.72C97.7604 103.876 97.0404 104.144 97.0124 104.156C96.9944 104.168 96.9738 104.175 96.9524 104.176ZM103.784 91.1965C102.386 91.1901 100.995 91.4006 99.6604 91.8205C97.6044 92.5045 96.5364 93.6085 96.0844 95.5125C95.6844 97.2045 96.8084 102.648 97.0524 103.792C97.1728 103.66 97.2585 103.499 97.3018 103.326C97.3451 103.152 97.3446 102.97 97.3004 102.796C97.2684 102.568 97.2324 102.36 97.2004 102.168C97.0724 101.444 96.9924 100.968 97.3564 100.708L97.4924 100.62C97.8364 100.4 98.2244 100.156 98.2004 99.2365C98.1387 98.7668 97.935 98.3271 97.6164 97.9765C97.2484 97.4605 96.8644 96.9285 97.0444 96.2125C97.3684 94.9445 98.8164 93.9925 100.204 94.1365C100.94 94.2125 101.404 94.8005 101.932 95.4765C102.504 96.3058 103.262 96.9906 104.144 97.4765C106.24 98.5405 108.74 98.1365 108.764 98.1325C108.794 98.126 108.824 98.1292 108.852 98.1414C108.879 98.1536 108.902 98.1743 108.916 98.2005C108.934 98.2249 108.943 98.2543 108.943 98.2845C108.943 98.3146 108.934 98.344 108.916 98.3685C108.822 98.5257 108.781 98.7093 108.8 98.8918C108.819 99.0742 108.896 99.2457 109.02 99.3805C109.315 99.7258 109.498 100.153 109.544 100.604C109.573 101.288 109.708 101.963 109.944 102.604C110.168 101.92 110.04 97.6845 109.924 96.8485C109.924 96.7405 109.896 96.5845 109.884 96.3965C109.8 95.1965 109.632 92.7645 107.616 91.8845C106.399 91.3988 105.095 91.1648 103.784 91.1965Z" fill="#263238"/>
<path d="M100.368 106.431C99.607 106.432 98.875 106.137 98.3267 105.609C97.7784 105.081 97.4568 104.36 97.4296 103.599C97.4024 102.839 97.6718 102.097 98.181 101.531C98.6902 100.965 99.3993 100.619 100.159 100.566C100.918 100.513 101.669 100.757 102.252 101.246C102.835 101.736 103.205 102.432 103.284 103.19C103.363 103.947 103.145 104.705 102.675 105.305C102.206 105.904 101.522 106.298 100.768 106.403C100.636 106.421 100.502 106.43 100.368 106.431ZM100.368 100.831C100.241 100.831 100.114 100.839 99.9883 100.855C99.3815 100.94 98.8233 101.234 98.4088 101.685C97.9942 102.136 97.749 102.717 97.715 103.329C97.6809 103.941 97.86 104.546 98.2219 105.04C98.5838 105.535 99.1059 105.888 99.6994 106.041C100.293 106.194 100.921 106.136 101.476 105.877C102.032 105.619 102.481 105.175 102.746 104.623C103.011 104.071 103.077 103.443 102.931 102.848C102.786 102.253 102.438 101.726 101.948 101.359C101.494 101.021 100.942 100.839 100.376 100.843L100.368 100.831Z" fill="#263238"/>
<path d="M106.732 105.526C105.987 105.525 105.27 105.241 104.726 104.732C104.181 104.223 103.851 103.526 103.8 102.783C103.749 102.039 103.982 101.304 104.452 100.726C104.922 100.148 105.594 99.769 106.332 99.6664C106.715 99.6116 107.105 99.6328 107.48 99.7288C107.854 99.8248 108.207 99.9937 108.516 100.226C108.826 100.458 109.086 100.749 109.283 101.082C109.48 101.415 109.61 101.783 109.664 102.166C109.725 102.584 109.695 103.01 109.576 103.416C109.458 103.821 109.253 104.196 108.976 104.515C108.699 104.834 108.357 105.089 107.972 105.264C107.588 105.438 107.17 105.528 106.748 105.526H106.732ZM106.732 99.9264C106.608 99.9266 106.483 99.9346 106.36 99.9504C105.676 100.043 105.054 100.398 104.626 100.939C104.198 101.481 103.998 102.168 104.066 102.855C104.135 103.542 104.467 104.175 104.994 104.622C105.52 105.069 106.2 105.293 106.889 105.249C107.578 105.204 108.222 104.894 108.687 104.384C109.152 103.873 109.4 103.202 109.38 102.512C109.36 101.822 109.072 101.167 108.578 100.684C108.084 100.202 107.422 99.9303 106.732 99.9264Z" fill="#263238"/>
<path d="M101.032 103.551C101.096 104.003 100.96 104.399 100.724 104.431C100.488 104.463 100.244 104.123 100.18 103.671C100.116 103.219 100.256 102.823 100.492 102.791C100.728 102.759 100.968 103.099 101.032 103.551Z" fill="#263238"/>
<path d="M106.413 102.797C106.477 103.249 106.341 103.641 106.105 103.677C105.869 103.713 105.625 103.369 105.561 102.917C105.497 102.465 105.633 102.069 105.869 102.037C106.105 102.005 106.349 102.329 106.413 102.797Z" fill="#263238"/>
<path d="M103.718 101.258C103.717 102.655 103.804 104.051 103.978 105.438C104.218 106.678 104.462 107.438 103.674 107.558C102.886 107.678 102.898 106.33 102.898 106.33" fill="white"/>
<path d="M103.588 107.713C103.428 107.715 103.274 107.657 103.156 107.549C102.756 107.197 102.756 106.349 102.756 106.325C102.757 106.287 102.773 106.249 102.8 106.222C102.828 106.194 102.865 106.178 102.904 106.177C102.944 106.177 102.983 106.193 103.011 106.222C103.04 106.25 103.056 106.289 103.056 106.329C103.037 106.686 103.143 107.038 103.356 107.325C103.397 107.361 103.446 107.387 103.498 107.402C103.551 107.416 103.606 107.419 103.66 107.409C103.723 107.406 103.784 107.39 103.841 107.362C103.897 107.333 103.947 107.294 103.988 107.245C104.152 107.013 104.04 106.485 103.904 105.813L103.836 105.465C103.66 104.071 103.572 102.667 103.572 101.261C103.572 101.221 103.588 101.182 103.616 101.154C103.645 101.125 103.684 101.109 103.724 101.109C103.743 101.109 103.763 101.112 103.781 101.12C103.799 101.127 103.816 101.138 103.83 101.152C103.844 101.165 103.854 101.182 103.862 101.2C103.869 101.218 103.872 101.238 103.872 101.257C103.872 102.646 103.958 104.032 104.132 105.409L104.2 105.753C104.356 106.525 104.472 107.081 104.232 107.421C104.169 107.503 104.089 107.57 103.998 107.619C103.907 107.668 103.807 107.698 103.704 107.705L103.588 107.713Z" fill="#263238"/>
<path d="M101.4 108.482C101.4 108.482 103.684 109.966 106.516 107.754L101.4 108.482Z" fill="white"/>
<path d="M103.327 109.113C102.628 109.123 101.938 108.949 101.327 108.609C101.31 108.599 101.296 108.585 101.284 108.568C101.273 108.552 101.265 108.534 101.261 108.514C101.257 108.495 101.257 108.475 101.261 108.456C101.264 108.436 101.272 108.418 101.283 108.401C101.293 108.384 101.307 108.37 101.323 108.359C101.339 108.347 101.357 108.339 101.376 108.335C101.395 108.331 101.414 108.331 101.434 108.335C101.453 108.339 101.471 108.346 101.487 108.357C101.579 108.413 103.723 109.749 106.431 107.637C106.447 107.625 106.464 107.616 106.483 107.611C106.502 107.606 106.522 107.604 106.541 107.607C106.561 107.609 106.58 107.615 106.597 107.625C106.614 107.635 106.629 107.648 106.641 107.663C106.653 107.679 106.662 107.696 106.667 107.715C106.673 107.734 106.674 107.754 106.672 107.773C106.669 107.793 106.663 107.812 106.653 107.829C106.644 107.846 106.631 107.861 106.615 107.873C105.693 108.649 104.532 109.087 103.327 109.113Z" fill="#263238"/>
<path d="M103.204 102.954C103.168 102.955 103.133 102.943 103.105 102.919C103.078 102.895 103.06 102.862 103.056 102.826C103.053 102.806 103.054 102.787 103.059 102.768C103.064 102.748 103.073 102.731 103.085 102.715C103.097 102.699 103.112 102.686 103.129 102.676C103.146 102.667 103.165 102.66 103.184 102.658L103.984 102.546C104.004 102.542 104.024 102.542 104.044 102.546C104.064 102.551 104.083 102.559 104.099 102.571C104.115 102.584 104.129 102.599 104.138 102.617C104.148 102.634 104.154 102.654 104.156 102.674C104.161 102.713 104.15 102.752 104.126 102.784C104.102 102.815 104.067 102.836 104.028 102.842L103.228 102.954H103.204Z" fill="#263238"/>
<path d="M96.8466 103.927C96.8103 103.924 96.7763 103.908 96.7507 103.882C96.7252 103.856 96.7098 103.822 96.7074 103.786C96.7049 103.749 96.7157 103.713 96.7375 103.684C96.7594 103.655 96.7911 103.635 96.8266 103.627L97.4186 103.543C97.4564 103.542 97.4934 103.554 97.5224 103.579C97.5513 103.603 97.5701 103.637 97.5751 103.675C97.5801 103.712 97.571 103.75 97.5494 103.782C97.5279 103.813 97.4955 103.835 97.4586 103.843L96.8706 103.927H96.8466Z" fill="#263238"/>
<path d="M109.507 102.126C109.471 102.126 109.437 102.113 109.41 102.089C109.383 102.066 109.365 102.034 109.359 101.998C109.353 101.959 109.364 101.918 109.387 101.886C109.411 101.854 109.447 101.832 109.487 101.826L110.079 101.742C110.117 101.741 110.154 101.754 110.183 101.778C110.212 101.802 110.23 101.837 110.235 101.874C110.24 101.912 110.231 101.95 110.21 101.981C110.188 102.012 110.156 102.034 110.119 102.042L109.531 102.126H109.507Z" fill="#263238"/>
<path d="M98.451 101.339C98.3841 101.339 98.3183 101.322 98.259 101.291C98.213 101.266 98.1725 101.232 98.1397 101.191C98.107 101.149 98.0827 101.102 98.0682 101.052C98.0537 101.001 98.0494 100.948 98.0553 100.896C98.0613 100.844 98.0775 100.793 98.103 100.747C98.503 100.027 99.735 98.9114 101.599 99.8234C101.694 99.8701 101.767 99.9528 101.802 100.053C101.836 100.154 101.83 100.264 101.783 100.359C101.736 100.455 101.654 100.528 101.553 100.562C101.453 100.597 101.342 100.59 101.247 100.543C99.595 99.7434 98.847 101.075 98.803 101.131C98.7684 101.195 98.7175 101.247 98.6556 101.284C98.5936 101.32 98.5229 101.34 98.451 101.339Z" fill="#263238"/>
<path d="M104.753 100.445C104.683 100.445 104.615 100.427 104.554 100.393C104.494 100.359 104.443 100.309 104.408 100.249C104.372 100.19 104.353 100.122 104.352 100.052C104.35 99.9825 104.367 99.9139 104.401 99.8529C104.801 99.1329 106.037 98.0169 107.897 98.9289C107.989 98.9768 108.059 99.0589 108.092 99.1577C108.125 99.2565 108.118 99.3643 108.073 99.4581C108.027 99.5519 107.947 99.6243 107.849 99.6599C107.752 99.6955 107.644 99.6916 107.549 99.6489C105.897 98.8489 105.149 100.181 105.101 100.237C105.066 100.299 105.016 100.352 104.955 100.388C104.894 100.425 104.824 100.444 104.753 100.445Z" fill="#263238"/>
<path d="M100.157 105.064C100.121 105.058 100.089 105.04 100.065 105.013C100.042 104.985 100.029 104.95 100.029 104.914C100.029 104.878 100.042 104.843 100.065 104.816C100.089 104.788 100.121 104.77 100.157 104.764L101.469 104.58C101.488 104.577 101.508 104.578 101.528 104.582C101.547 104.587 101.565 104.596 101.581 104.608C101.596 104.62 101.61 104.635 101.619 104.652C101.629 104.669 101.635 104.689 101.637 104.708C101.64 104.728 101.638 104.748 101.633 104.767C101.629 104.786 101.62 104.803 101.608 104.819C101.596 104.835 101.581 104.848 101.564 104.858C101.547 104.867 101.528 104.874 101.509 104.876L100.197 105.064H100.157Z" fill="#263238"/>
<path d="M105.536 104.298C105.5 104.298 105.465 104.286 105.438 104.262C105.411 104.238 105.393 104.206 105.388 104.17C105.383 104.13 105.393 104.09 105.417 104.058C105.441 104.025 105.477 104.004 105.516 103.998L106.828 103.814C106.867 103.808 106.906 103.818 106.938 103.841C106.969 103.865 106.99 103.899 106.996 103.938C107.002 103.978 106.992 104.018 106.968 104.051C106.944 104.083 106.908 104.104 106.868 104.11L105.556 104.294L105.536 104.298Z" fill="#263238"/>
<path d="M131.636 137.42L85.8359 143.93L88.0673 159.628L133.867 153.118L131.636 137.42Z" fill="#263238"/>
<path d="M115.8 142.082L102.016 144.031L102.128 144.823L115.912 142.874L115.8 142.082Z" fill="white"/>
<path d="M127.427 149.185L92.8242 154.078L92.9362 154.87L127.539 149.977L127.427 149.185Z" fill="white"/>
<path d="M118.073 143.908L100.348 146.414L100.46 147.206L118.185 144.7L118.073 143.908Z" fill="white"/>
<path d="M97.7408 148.154L97.5586 148.18L98.0027 151.32L98.1848 151.294L97.7408 148.154Z" fill="#263238"/>
<path d="M99.6079 147.892L99.4258 147.918L99.8699 151.058L100.052 151.032L99.6079 147.892Z" fill="#263238"/>
<path d="M100.102 147.771L99.9199 147.797L100.366 150.937L100.548 150.911L100.102 147.771Z" fill="#263238"/>
<path d="M100.549 147.708L100.367 147.734L100.814 150.875L100.996 150.849L100.549 147.708Z" fill="#263238"/>
<path d="M101.526 147.568L101.344 147.594L101.79 150.734L101.972 150.708L101.526 147.568Z" fill="#263238"/>
<path d="M101.905 147.517L101.723 147.543L102.169 150.683L102.351 150.658L101.905 147.517Z" fill="#263238"/>
<path d="M98.4346 148.058L98.0703 148.109L98.5144 151.25L98.8787 151.198L98.4346 148.058Z" fill="#263238"/>
<path d="M103.69 147.259L103.508 147.285L103.954 150.426L104.136 150.4L103.69 147.259Z" fill="#263238"/>
<path d="M104.38 147.163L104.016 147.215L104.462 150.355L104.826 150.303L104.38 147.163Z" fill="#263238"/>
<path d="M99.4425 147.862L99.0781 147.914L99.5245 151.054L99.8889 151.003L99.4425 147.862Z" fill="#263238"/>
<path d="M101.134 147.675L100.77 147.727L101.214 150.867L101.578 150.815L101.134 147.675Z" fill="#263238"/>
<path d="M102.719 147.404L102.537 147.43L102.984 150.57L103.166 150.544L102.719 147.404Z" fill="#263238"/>
<path d="M103.1 147.345L102.918 147.371L103.364 150.512L103.547 150.486L103.1 147.345Z" fill="#263238"/>
<path d="M102.442 147.44L102.078 147.492L102.525 150.633L102.889 150.581L102.442 147.44Z" fill="#263238"/>
<path d="M105.104 147.064L104.922 147.09L105.368 150.23L105.55 150.204L105.104 147.064Z" fill="#263238"/>
<path d="M106.975 146.798L106.793 146.824L107.239 149.965L107.422 149.939L106.975 146.798Z" fill="#263238"/>
<path d="M107.354 146.74L107.172 146.766L107.618 149.906L107.8 149.88L107.354 146.74Z" fill="#263238"/>
<path d="M107.795 146.677L107.613 146.703L108.06 149.844L108.242 149.818L107.795 146.677Z" fill="#263238"/>
<path d="M108.786 146.533L108.604 146.559L109.05 149.699L109.232 149.673L108.786 146.533Z" fill="#263238"/>
<path d="M109.145 146.49L108.963 146.516L109.41 149.656L109.592 149.63L109.145 146.49Z" fill="#263238"/>
<path d="M105.808 146.952L105.443 147.004L105.89 150.144L106.255 150.092L105.808 146.952Z" fill="#263238"/>
<path d="M110.936 146.236L110.754 146.262L111.201 149.402L111.383 149.376L110.936 146.236Z" fill="#263238"/>
<path d="M111.63 146.132L111.266 146.184L111.712 149.324L112.076 149.272L111.63 146.132Z" fill="#263238"/>
<path d="M106.581 146.902L106.217 146.953L106.661 150.093L107.025 150.042L106.581 146.902Z" fill="#263238"/>
<path d="M108.384 146.648L108.02 146.699L108.464 149.839L108.828 149.788L108.384 146.648Z" fill="#263238"/>
<path d="M109.979 146.373L109.797 146.398L110.243 149.539L110.425 149.513L109.979 146.373Z" fill="#263238"/>
<path d="M110.35 146.31L110.168 146.336L110.614 149.476L110.797 149.45L110.35 146.31Z" fill="#263238"/>
<path d="M109.692 146.409L109.328 146.461L109.775 149.601L110.139 149.55L109.692 146.409Z" fill="#263238"/>
<path d="M112.145 146.06L111.963 146.086L112.409 149.226L112.591 149.2L112.145 146.06Z" fill="#263238"/>
<path d="M112.522 146.005L112.34 146.031L112.786 149.172L112.968 149.146L112.522 146.005Z" fill="#263238"/>
<path d="M114.307 145.751L114.125 145.777L114.571 148.918L114.754 148.892L114.307 145.751Z" fill="#263238"/>
<path d="M114.993 145.655L114.629 145.707L115.075 148.847L115.44 148.796L114.993 145.655Z" fill="#263238"/>
<path d="M113.346 145.888L113.164 145.914L113.61 149.054L113.793 149.029L113.346 145.888Z" fill="#263238"/>
<path d="M113.713 145.841L113.531 145.867L113.978 149.008L114.16 148.982L113.713 145.841Z" fill="#263238"/>
<path d="M112.95 146.003L112.586 146.055L113.03 149.195L113.394 149.143L112.95 146.003Z" fill="#263238"/>
<path d="M115.614 145.627L115.432 145.652L115.876 148.793L116.058 148.767L115.614 145.627Z" fill="#263238"/>
<path d="M117.483 145.369L117.301 145.395L117.745 148.535L117.927 148.509L117.483 145.369Z" fill="#263238"/>
<path d="M117.967 145.24L117.785 145.266L118.232 148.406L118.414 148.38L117.967 145.24Z" fill="#263238"/>
<path d="M118.417 145.169L118.234 145.195L118.681 148.336L118.863 148.31L118.417 145.169Z" fill="#263238"/>
<path d="M119.395 145.029L119.213 145.055L119.659 148.195L119.841 148.169L119.395 145.029Z" fill="#263238"/>
<path d="M119.661 145.052L119.479 145.078L119.923 148.218L120.105 148.193L119.661 145.052Z" fill="#263238"/>
<path d="M116.421 145.44L116.057 145.492L116.504 148.633L116.868 148.581L116.421 145.44Z" fill="#263238"/>
<path d="M121.559 144.716L121.377 144.742L121.823 147.883L122.006 147.857L121.559 144.716Z" fill="#263238"/>
<path d="M122.243 144.628L121.879 144.68L122.325 147.82L122.69 147.768L122.243 144.628Z" fill="#263238"/>
<path d="M117.312 145.323L116.947 145.375L117.394 148.515L117.758 148.464L117.312 145.323Z" fill="#263238"/>
<path d="M119.007 145.152L118.643 145.203L119.087 148.343L119.451 148.292L119.007 145.152Z" fill="#263238"/>
<path d="M120.592 144.861L120.41 144.887L120.857 148.027L121.039 148.001L120.592 144.861Z" fill="#263238"/>
<path d="M120.963 144.818L120.781 144.844L121.228 147.984L121.41 147.958L120.963 144.818Z" fill="#263238"/>
<path d="M120.314 144.901L119.949 144.953L120.396 148.094L120.76 148.042L120.314 144.901Z" fill="#263238"/>
<path d="M98.0484 66.2527C97.9742 66.2532 97.9002 66.2438 97.8284 66.2247C97.7273 66.1961 97.6328 66.1479 97.5503 66.0827C97.4678 66.0176 97.399 65.9368 97.3477 65.8451C97.2964 65.7533 97.2638 65.6524 97.2515 65.548C97.2393 65.4436 97.2478 65.3378 97.2764 65.2367C97.3204 65.0807 98.4084 61.3167 102.832 55.1767C102.957 55.0043 103.144 54.8883 103.354 54.8542C103.563 54.82 103.778 54.8706 103.95 54.9947C104.123 55.1188 104.239 55.3063 104.273 55.516C104.307 55.7257 104.257 55.9403 104.132 56.1127C99.8964 61.9927 98.8284 65.6367 98.8164 65.6727C98.7687 65.8396 98.6679 65.9865 98.5294 66.0911C98.3908 66.1957 98.222 66.2525 98.0484 66.2527Z" fill="#263238"/>
</svg>
