<svg width="250" height="250" viewBox="0 0 250 250" fill="none" xmlns="http://www.w3.org/2000/svg">
<path d="M200.429 99.7498C199.207 93.2984 197.645 86.9162 195.749 80.6298C190.049 62.4348 178.704 44.0248 159.219 37.8348C144.834 33.2698 129.309 36.4198 117.154 45.7248C98.0891 60.3148 84.2141 80.2248 63.3541 92.8598C45.9391 103.415 36.8241 120.465 42.6791 144.565C48.5341 168.665 68.0941 182.705 89.4991 181C107.289 179.565 125.889 181.1 141.269 189.735C155.014 197.45 179.299 190.735 199.389 169.66C211.094 157.375 209.959 141.755 206.144 127.16C203.784 118.12 202.254 108.9 200.429 99.7498Z" fill="#005AEE"/>
<path opacity="0.7" d="M200.429 99.7498C199.207 93.2984 197.645 86.9162 195.749 80.6298C190.049 62.4348 178.704 44.0248 159.219 37.8348C144.834 33.2698 129.309 36.4198 117.154 45.7248C98.0891 60.3148 84.2141 80.2248 63.3541 92.8598C45.9391 103.415 36.8241 120.465 42.6791 144.565C48.5341 168.665 68.0941 182.705 89.4991 181C107.289 179.565 125.889 181.1 141.269 189.735C155.014 197.45 179.299 190.735 199.389 169.66C211.094 157.375 209.959 141.755 206.144 127.16C203.784 118.12 202.254 108.9 200.429 99.7498Z" fill="white"/>
<path d="M220.706 211.74C220.706 213.3 178.206 214.57 125.796 214.57C73.3859 214.57 30.8809 213.3 30.8809 211.74C30.8809 210.18 73.3809 208.91 125.796 208.91C178.211 208.91 220.706 210.18 220.706 211.74Z" fill="#005AEE"/>
<path opacity="0.3" d="M220.706 211.74C220.706 213.3 178.206 214.57 125.796 214.57C73.3859 214.57 30.8809 213.3 30.8809 211.74C30.8809 210.18 73.3809 208.91 125.796 208.91C178.211 208.91 220.706 210.18 220.706 211.74Z" fill="white"/>
<path d="M202.535 157.255C202.535 157.28 203.82 155.93 203.89 155.835C204.705 154.745 205.64 152.155 204.755 150.91C204.603 150.708 204.409 150.54 204.188 150.418C203.966 150.295 203.721 150.22 203.469 150.199C203.217 150.177 202.963 150.209 202.723 150.292C202.484 150.375 202.265 150.507 202.08 150.68C201.27 151.39 201.08 152.705 201.15 153.72C201.235 154.91 202.535 157.25 202.535 157.255Z" fill="#005AEE"/>
<path d="M214.216 152.605C212.966 151.73 210.386 152.685 209.301 153.505C209.206 153.58 207.866 154.86 207.891 154.87H207.921C207.511 155.02 207.076 155.18 206.601 155.37C205.731 155.72 204.751 156.13 203.711 156.64C202.588 157.186 201.497 157.793 200.441 158.46C199.258 159.203 198.144 160.049 197.111 160.99C197.098 161 197.086 161.012 197.076 161.025C197.296 160.64 197.881 159.525 197.916 159.445C198.416 158.175 198.631 155.445 197.451 154.47C197.249 154.316 197.017 154.206 196.77 154.148C196.523 154.089 196.266 154.083 196.017 154.131C195.768 154.178 195.531 154.277 195.322 154.421C195.114 154.566 194.938 154.753 194.806 154.97C194.216 155.87 194.376 157.185 194.716 158.145C195.096 159.23 196.821 161.02 196.961 161.145C195.931 162.127 194.969 163.178 194.081 164.29C193.581 164.935 193.056 165.6 192.581 166.29C192.761 165.95 192.921 165.64 192.936 165.595C193.436 164.33 193.651 161.595 192.471 160.62C192.27 160.466 192.038 160.356 191.791 160.298C191.545 160.24 191.288 160.234 191.039 160.281C190.79 160.328 190.554 160.427 190.346 160.572C190.138 160.716 189.962 160.903 189.831 161.12C189.236 162.015 189.401 163.335 189.736 164.29C190.071 165.245 191.521 166.825 191.906 167.23L191.321 168C190.421 169.255 189.531 170.5 188.616 171.71C188.296 172.135 187.966 172.545 187.616 172.95C187.776 172.645 187.911 172.39 187.926 172.35C188.426 171.08 188.641 168.35 187.461 167.35C187.259 167.195 187.027 167.085 186.78 167.026C186.533 166.967 186.276 166.961 186.027 167.008C185.777 167.055 185.54 167.155 185.331 167.3C185.123 167.445 184.947 167.632 184.816 167.85C184.221 168.75 184.386 170.065 184.726 171.025C185.066 171.985 186.366 173.405 186.821 173.89C186.471 174.3 186.121 174.705 185.761 175.085C185.511 175.34 185.291 175.585 185.021 175.84L184.256 176.56C183.756 177 183.256 177.46 182.731 177.88C182.381 178.175 182.046 178.445 181.731 178.72C182.051 178.305 182.671 177.47 182.731 177.395C183.294 176.337 183.577 175.153 183.551 173.955C183.618 173.84 183.675 173.719 183.721 173.595C183.814 173.359 183.857 173.106 183.847 172.853C183.836 172.6 183.773 172.351 183.66 172.124C183.547 171.897 183.388 171.696 183.193 171.534C182.997 171.372 182.77 171.253 182.526 171.185C181.026 170.82 178.976 172.635 178.261 173.795C178.221 173.865 177.841 174.655 177.616 175.16C177.701 174.845 177.796 174.535 177.881 174.21C178.061 173.565 178.221 172.915 178.381 172.21C178.451 171.87 178.526 171.525 178.601 171.18C178.676 170.835 178.721 170.465 178.786 170.105C178.911 169.265 179.001 168.41 179.076 167.545C179.641 167.7 181.656 168.225 182.666 168.045C183.676 167.865 184.911 167.415 185.421 166.47C185.55 166.252 185.632 166.008 185.66 165.756C185.689 165.504 185.664 165.249 185.587 165.007C185.51 164.766 185.383 164.543 185.214 164.354C185.045 164.165 184.838 164.013 184.606 163.91C183.196 163.32 180.881 164.805 179.996 165.84C179.941 165.905 179.391 166.72 179.096 167.175C179.136 166.675 179.176 166.135 179.201 165.605C179.261 164.105 179.281 162.54 179.306 161C179.306 160.53 179.306 160.06 179.336 159.59C179.536 159.645 181.921 160.32 183.051 160.145C184.051 159.995 185.296 159.52 185.811 158.57C185.938 158.351 186.018 158.108 186.046 157.856C186.073 157.604 186.048 157.349 185.97 157.108C185.893 156.866 185.766 156.644 185.597 156.455C185.428 156.266 185.222 156.114 184.991 156.01C183.586 155.425 181.266 156.91 180.381 157.945C180.316 158.02 179.526 159.195 179.336 159.505C179.361 158.47 179.396 157.435 179.471 156.42C179.567 155.048 179.751 153.684 180.021 152.335C180.116 152.335 182.601 153.075 183.761 152.895C184.761 152.745 186.001 152.27 186.516 151.32C186.644 151.101 186.724 150.858 186.752 150.607C186.779 150.355 186.754 150.1 186.677 149.859C186.6 149.618 186.474 149.395 186.306 149.206C186.138 149.017 185.932 148.865 185.701 148.76C184.291 148.175 181.971 149.655 181.091 150.695C181.031 150.76 180.426 151.655 180.151 152.085L180.071 152.055C180.38 150.704 180.81 149.384 181.356 148.11C181.646 147.405 181.961 146.75 182.286 146.11C182.736 146.29 184.786 147.11 185.856 147.05C186.926 146.99 188.156 146.67 188.771 145.785C188.922 145.581 189.028 145.349 189.084 145.101C189.139 144.854 189.142 144.598 189.092 144.35C189.042 144.101 188.94 143.866 188.794 143.659C188.647 143.453 188.459 143.279 188.241 143.15C186.906 142.415 184.436 143.65 183.446 144.565C183.391 144.615 182.901 145.19 182.546 145.615C182.696 145.335 182.846 145.04 182.996 144.77C183.556 143.77 184.126 142.87 184.641 142.085C184.936 141.645 185.211 141.25 185.476 140.88C186.006 140.83 188.156 140.585 189.061 140.07C189.966 139.555 190.926 138.675 191.061 137.605C191.102 137.355 191.09 137.099 191.025 136.854C190.961 136.609 190.845 136.38 190.686 136.183C190.527 135.986 190.328 135.824 190.102 135.709C189.877 135.594 189.629 135.528 189.376 135.515C187.851 135.475 186.226 137.69 185.776 138.975C185.736 139.09 185.326 140.895 185.351 140.89H185.386C185.126 141.223 184.851 141.603 184.561 142.03C184.026 142.805 183.431 143.685 182.851 144.685C182.213 145.758 181.637 146.866 181.126 148.005C180.55 149.279 180.087 150.6 179.741 151.955C179.744 151.971 179.744 151.988 179.741 152.005C179.741 151.56 179.591 150.315 179.571 150.22C179.291 148.89 177.956 146.48 176.441 146.33C176.188 146.311 175.934 146.345 175.695 146.431C175.457 146.516 175.239 146.651 175.056 146.827C174.873 147.002 174.729 147.214 174.633 147.449C174.538 147.684 174.493 147.937 174.501 148.19C174.501 149.265 175.366 150.275 176.176 150.885C177.091 151.58 179.516 152.125 179.711 152.165C179.397 153.554 179.175 154.962 179.046 156.38C178.971 157.205 178.916 158.035 178.871 158.88C178.836 158.495 178.801 158.15 178.791 158.105C178.506 156.77 177.171 154.365 175.656 154.21C175.403 154.191 175.149 154.225 174.91 154.311C174.672 154.396 174.454 154.531 174.271 154.707C174.088 154.882 173.944 155.094 173.848 155.329C173.753 155.564 173.708 155.817 173.716 156.07C173.716 157.145 174.581 158.155 175.391 158.77C176.201 159.385 178.276 159.895 178.821 160.025C178.821 160.345 178.791 160.665 178.781 160.985C178.721 162.525 178.671 164.065 178.576 165.57C178.541 166.1 178.486 166.625 178.436 167.145C178.406 166.805 178.371 166.515 178.366 166.475C178.081 165.14 176.746 162.735 175.231 162.58C174.978 162.561 174.724 162.595 174.485 162.681C174.247 162.766 174.029 162.901 173.846 163.077C173.663 163.252 173.519 163.464 173.423 163.699C173.328 163.934 173.283 164.187 173.291 164.44C173.291 165.52 174.156 166.525 174.966 167.14C175.776 167.755 177.651 168.22 178.296 168.37C178.231 168.905 178.161 169.44 178.071 169.95C178.001 170.3 177.961 170.645 177.871 170.99L177.631 171.99C177.451 172.635 177.276 173.305 177.086 173.93C176.956 174.365 176.826 174.78 176.696 175.2C176.736 174.67 176.791 173.635 176.786 173.545C176.711 172.19 175.756 169.605 174.286 169.225C174.039 169.168 173.783 169.164 173.535 169.213C173.287 169.262 173.051 169.363 172.844 169.508C172.637 169.654 172.463 169.842 172.333 170.059C172.204 170.276 172.121 170.519 172.091 170.77C171.926 171.835 172.626 172.96 173.336 173.69C174.046 174.42 176.336 175.375 176.616 175.485C176.396 176.175 176.181 176.84 175.966 177.485C175.221 179.66 174.521 181.445 174.016 182.685C174.016 182.73 173.981 182.77 173.961 182.81L174.871 183.31C174.901 183.23 174.936 183.15 174.966 183.065C175.466 181.8 176.121 179.98 176.821 177.765C177.046 177.065 177.271 176.315 177.496 175.54C178.259 175.635 179.027 175.686 179.796 175.69C180.071 176.805 181.346 178.635 181.511 178.87C180.951 179.325 180.401 179.765 179.876 180.17C178.056 181.575 176.486 182.67 175.376 183.43L175.246 183.52L176.246 184.07C177.326 183.295 178.746 182.22 180.431 180.88C181.001 180.42 181.606 179.915 182.216 179.38C182.441 179.57 184.266 181.12 185.346 181.43C186.321 181.71 187.646 181.8 188.506 181.155C188.714 181.01 188.889 180.823 189.02 180.606C189.15 180.389 189.234 180.147 189.265 179.896C189.296 179.645 189.274 179.39 189.2 179.147C189.126 178.905 189.002 178.681 188.836 178.49C187.806 177.365 185.081 177.74 183.836 178.31C183.766 178.345 183.016 178.81 182.546 179.09C182.796 178.875 183.046 178.67 183.291 178.445C183.791 178.01 184.291 177.555 184.821 177.065L185.571 176.33C185.826 176.085 186.071 175.8 186.321 175.535C186.891 174.905 187.436 174.24 187.971 173.56C188.361 174 189.756 175.56 190.681 175.98C191.606 176.4 192.901 176.69 193.851 176.185C194.078 176.073 194.279 175.914 194.44 175.719C194.602 175.525 194.721 175.298 194.79 175.055C194.859 174.811 194.876 174.556 194.84 174.305C194.804 174.055 194.716 173.814 194.581 173.6C193.731 172.335 190.981 172.29 189.671 172.665C189.586 172.69 188.671 173.065 188.171 173.28C188.486 172.87 188.811 172.46 189.116 172.03C190.011 170.795 190.876 169.53 191.746 168.25L192.551 167.09C192.686 167.245 194.306 169.125 195.346 169.59C196.266 170.015 197.561 170.305 198.511 169.795C198.739 169.684 198.941 169.526 199.104 169.331C199.266 169.137 199.386 168.91 199.455 168.666C199.524 168.422 199.54 168.166 199.504 167.915C199.467 167.664 199.377 167.424 199.241 167.21C198.391 165.945 195.641 165.9 194.331 166.28C194.236 166.305 192.926 166.85 192.601 167.005C193.191 166.155 193.791 165.31 194.416 164.505C195.249 163.411 196.155 162.373 197.126 161.4C197.191 161.475 198.871 163.44 199.931 163.93C200.856 164.36 202.151 164.645 203.101 164.14C203.328 164.028 203.53 163.87 203.692 163.675C203.854 163.481 203.974 163.254 204.043 163.01C204.111 162.766 204.128 162.511 204.092 162.26C204.055 162.009 203.966 161.769 203.831 161.555C202.981 160.285 200.231 160.245 198.921 160.62C198.836 160.645 197.841 161.06 197.371 161.265L197.321 161.19C198.324 160.237 199.41 159.376 200.566 158.615C201.201 158.185 201.826 157.81 202.446 157.465C202.721 157.86 203.996 159.665 204.906 160.215C205.816 160.765 207.031 161.17 208.031 160.77C208.27 160.683 208.488 160.547 208.67 160.37C208.853 160.193 208.996 159.98 209.091 159.744C209.185 159.508 209.228 159.254 209.218 159C209.208 158.747 209.144 158.498 209.031 158.27C208.326 156.915 205.596 156.575 204.256 156.805C204.181 156.805 203.451 157.025 202.926 157.185L203.766 156.725C204.791 156.195 205.766 155.765 206.621 155.395C207.121 155.19 207.561 155.01 207.981 154.85C208.456 155.1 210.376 156.085 211.416 156.15C212.456 156.215 213.746 156.015 214.446 155.2C214.606 155.017 214.727 154.803 214.803 154.571C214.878 154.34 214.906 154.096 214.884 153.853C214.863 153.611 214.793 153.375 214.678 153.161C214.563 152.946 214.406 152.757 214.216 152.605Z" fill="#005AEE"/>
<path d="M179.095 143.68C179.82 144.63 182.195 145.865 182.2 145.865C182.205 145.865 182.54 144.055 182.545 143.935C182.625 142.575 181.975 139.905 180.545 139.355C180.306 139.27 180.052 139.237 179.799 139.257C179.546 139.277 179.301 139.35 179.078 139.471C178.855 139.592 178.661 139.759 178.507 139.96C178.353 140.162 178.243 140.393 178.185 140.64C177.905 141.675 178.5 142.875 179.095 143.68Z" fill="#005AEE"/>
<g opacity="0.5">
<path d="M202.535 157.255C202.535 157.28 203.82 155.93 203.89 155.835C204.705 154.745 205.64 152.155 204.755 150.91C204.603 150.708 204.409 150.54 204.188 150.418C203.966 150.295 203.721 150.22 203.469 150.199C203.217 150.177 202.963 150.209 202.723 150.292C202.484 150.375 202.265 150.507 202.08 150.68C201.27 151.39 201.08 152.705 201.15 153.72C201.235 154.91 202.535 157.25 202.535 157.255Z" fill="white"/>
<path d="M214.216 152.605C212.966 151.73 210.386 152.685 209.301 153.505C209.206 153.58 207.866 154.86 207.891 154.87H207.921C207.511 155.02 207.076 155.18 206.601 155.37C205.731 155.72 204.751 156.13 203.711 156.64C202.588 157.186 201.497 157.793 200.441 158.46C199.258 159.203 198.144 160.049 197.111 160.99C197.098 161 197.086 161.012 197.076 161.025C197.296 160.64 197.881 159.525 197.916 159.445C198.416 158.175 198.631 155.445 197.451 154.47C197.249 154.316 197.017 154.206 196.77 154.148C196.523 154.089 196.266 154.083 196.017 154.131C195.768 154.178 195.531 154.277 195.322 154.421C195.114 154.566 194.938 154.753 194.806 154.97C194.216 155.87 194.376 157.185 194.716 158.145C195.096 159.23 196.821 161.02 196.961 161.145C195.931 162.127 194.969 163.178 194.081 164.29C193.581 164.935 193.056 165.6 192.581 166.29C192.761 165.95 192.921 165.64 192.936 165.595C193.436 164.33 193.651 161.595 192.471 160.62C192.27 160.466 192.038 160.356 191.791 160.298C191.545 160.24 191.288 160.234 191.039 160.281C190.79 160.328 190.554 160.427 190.346 160.572C190.138 160.716 189.962 160.903 189.831 161.12C189.236 162.015 189.401 163.335 189.736 164.29C190.071 165.245 191.521 166.825 191.906 167.23L191.321 168C190.421 169.255 189.531 170.5 188.616 171.71C188.296 172.135 187.966 172.545 187.616 172.95C187.776 172.645 187.911 172.39 187.926 172.35C188.426 171.08 188.641 168.35 187.461 167.35C187.259 167.195 187.027 167.085 186.78 167.026C186.533 166.967 186.276 166.961 186.027 167.008C185.777 167.055 185.54 167.155 185.331 167.3C185.123 167.445 184.947 167.632 184.816 167.85C184.221 168.75 184.386 170.065 184.726 171.025C185.066 171.985 186.366 173.405 186.821 173.89C186.471 174.3 186.121 174.705 185.761 175.085C185.511 175.34 185.291 175.585 185.021 175.84L184.256 176.56C183.756 177 183.256 177.46 182.731 177.88C182.381 178.175 182.046 178.445 181.731 178.72C182.051 178.305 182.671 177.47 182.731 177.395C183.294 176.337 183.577 175.153 183.551 173.955C183.618 173.84 183.675 173.719 183.721 173.595C183.814 173.359 183.857 173.106 183.847 172.853C183.836 172.6 183.773 172.351 183.66 172.124C183.547 171.897 183.388 171.696 183.193 171.534C182.997 171.372 182.77 171.253 182.526 171.185C181.026 170.82 178.976 172.635 178.261 173.795C178.221 173.865 177.841 174.655 177.616 175.16C177.701 174.845 177.796 174.535 177.881 174.21C178.061 173.565 178.221 172.915 178.381 172.21C178.451 171.87 178.526 171.525 178.601 171.18C178.676 170.835 178.721 170.465 178.786 170.105C178.911 169.265 179.001 168.41 179.076 167.545C179.641 167.7 181.656 168.225 182.666 168.045C183.676 167.865 184.911 167.415 185.421 166.47C185.55 166.252 185.632 166.008 185.66 165.756C185.689 165.504 185.664 165.249 185.587 165.007C185.51 164.766 185.383 164.543 185.214 164.354C185.045 164.165 184.838 164.013 184.606 163.91C183.196 163.32 180.881 164.805 179.996 165.84C179.941 165.905 179.391 166.72 179.096 167.175C179.136 166.675 179.176 166.135 179.201 165.605C179.261 164.105 179.281 162.54 179.306 161C179.306 160.53 179.306 160.06 179.336 159.59C179.536 159.645 181.921 160.32 183.051 160.145C184.051 159.995 185.296 159.52 185.811 158.57C185.938 158.351 186.018 158.108 186.046 157.856C186.073 157.604 186.048 157.349 185.97 157.108C185.893 156.866 185.766 156.644 185.597 156.455C185.428 156.266 185.222 156.114 184.991 156.01C183.586 155.425 181.266 156.91 180.381 157.945C180.316 158.02 179.526 159.195 179.336 159.505C179.361 158.47 179.396 157.435 179.471 156.42C179.567 155.048 179.751 153.684 180.021 152.335C180.116 152.335 182.601 153.075 183.761 152.895C184.761 152.745 186.001 152.27 186.516 151.32C186.644 151.101 186.724 150.858 186.752 150.607C186.779 150.355 186.754 150.1 186.677 149.859C186.6 149.618 186.474 149.395 186.306 149.206C186.138 149.017 185.932 148.865 185.701 148.76C184.291 148.175 181.971 149.655 181.091 150.695C181.031 150.76 180.426 151.655 180.151 152.085L180.071 152.055C180.38 150.704 180.81 149.384 181.356 148.11C181.646 147.405 181.961 146.75 182.286 146.11C182.736 146.29 184.786 147.11 185.856 147.05C186.926 146.99 188.156 146.67 188.771 145.785C188.922 145.581 189.028 145.349 189.084 145.101C189.139 144.854 189.142 144.598 189.092 144.35C189.042 144.101 188.94 143.866 188.794 143.659C188.647 143.453 188.459 143.279 188.241 143.15C186.906 142.415 184.436 143.65 183.446 144.565C183.391 144.615 182.901 145.19 182.546 145.615C182.696 145.335 182.846 145.04 182.996 144.77C183.556 143.77 184.126 142.87 184.641 142.085C184.936 141.645 185.211 141.25 185.476 140.88C186.006 140.83 188.156 140.585 189.061 140.07C189.966 139.555 190.926 138.675 191.061 137.605C191.102 137.355 191.09 137.099 191.025 136.854C190.961 136.609 190.845 136.38 190.686 136.183C190.527 135.986 190.328 135.824 190.102 135.709C189.877 135.594 189.629 135.528 189.376 135.515C187.851 135.475 186.226 137.69 185.776 138.975C185.736 139.09 185.326 140.895 185.351 140.89H185.386C185.126 141.223 184.851 141.603 184.561 142.03C184.026 142.805 183.431 143.685 182.851 144.685C182.213 145.758 181.637 146.866 181.126 148.005C180.55 149.279 180.087 150.6 179.741 151.955C179.744 151.971 179.744 151.988 179.741 152.005C179.741 151.56 179.591 150.315 179.571 150.22C179.291 148.89 177.956 146.48 176.441 146.33C176.188 146.311 175.934 146.345 175.695 146.431C175.457 146.516 175.239 146.651 175.056 146.827C174.873 147.002 174.729 147.214 174.633 147.449C174.538 147.684 174.493 147.937 174.501 148.19C174.501 149.265 175.366 150.275 176.176 150.885C177.091 151.58 179.516 152.125 179.711 152.165C179.397 153.554 179.175 154.962 179.046 156.38C178.971 157.205 178.916 158.035 178.871 158.88C178.836 158.495 178.801 158.15 178.791 158.105C178.506 156.77 177.171 154.365 175.656 154.21C175.403 154.191 175.149 154.225 174.91 154.311C174.672 154.396 174.454 154.531 174.271 154.707C174.088 154.882 173.944 155.094 173.848 155.329C173.753 155.564 173.708 155.817 173.716 156.07C173.716 157.145 174.581 158.155 175.391 158.77C176.201 159.385 178.276 159.895 178.821 160.025C178.821 160.345 178.791 160.665 178.781 160.985C178.721 162.525 178.671 164.065 178.576 165.57C178.541 166.1 178.486 166.625 178.436 167.145C178.406 166.805 178.371 166.515 178.366 166.475C178.081 165.14 176.746 162.735 175.231 162.58C174.978 162.561 174.724 162.595 174.485 162.681C174.247 162.766 174.029 162.901 173.846 163.077C173.663 163.252 173.519 163.464 173.423 163.699C173.328 163.934 173.283 164.187 173.291 164.44C173.291 165.52 174.156 166.525 174.966 167.14C175.776 167.755 177.651 168.22 178.296 168.37C178.231 168.905 178.161 169.44 178.071 169.95C178.001 170.3 177.961 170.645 177.871 170.99L177.631 171.99C177.451 172.635 177.276 173.305 177.086 173.93C176.956 174.365 176.826 174.78 176.696 175.2C176.736 174.67 176.791 173.635 176.786 173.545C176.711 172.19 175.756 169.605 174.286 169.225C174.039 169.168 173.783 169.164 173.535 169.213C173.287 169.262 173.051 169.363 172.844 169.508C172.637 169.654 172.463 169.842 172.333 170.059C172.204 170.276 172.121 170.519 172.091 170.77C171.926 171.835 172.626 172.96 173.336 173.69C174.046 174.42 176.336 175.375 176.616 175.485C176.396 176.175 176.181 176.84 175.966 177.485C175.221 179.66 174.521 181.445 174.016 182.685C174.016 182.73 173.981 182.77 173.961 182.81L174.871 183.31C174.901 183.23 174.936 183.15 174.966 183.065C175.466 181.8 176.121 179.98 176.821 177.765C177.046 177.065 177.271 176.315 177.496 175.54C178.259 175.635 179.027 175.686 179.796 175.69C180.071 176.805 181.346 178.635 181.511 178.87C180.951 179.325 180.401 179.765 179.876 180.17C178.056 181.575 176.486 182.67 175.376 183.43L175.246 183.52L176.246 184.07C177.326 183.295 178.746 182.22 180.431 180.88C181.001 180.42 181.606 179.915 182.216 179.38C182.441 179.57 184.266 181.12 185.346 181.43C186.321 181.71 187.646 181.8 188.506 181.155C188.714 181.01 188.889 180.823 189.02 180.606C189.15 180.389 189.234 180.147 189.265 179.896C189.296 179.645 189.274 179.39 189.2 179.147C189.126 178.905 189.002 178.681 188.836 178.49C187.806 177.365 185.081 177.74 183.836 178.31C183.766 178.345 183.016 178.81 182.546 179.09C182.796 178.875 183.046 178.67 183.291 178.445C183.791 178.01 184.291 177.555 184.821 177.065L185.571 176.33C185.826 176.085 186.071 175.8 186.321 175.535C186.891 174.905 187.436 174.24 187.971 173.56C188.361 174 189.756 175.56 190.681 175.98C191.606 176.4 192.901 176.69 193.851 176.185C194.078 176.073 194.279 175.914 194.44 175.719C194.602 175.525 194.721 175.298 194.79 175.055C194.859 174.811 194.876 174.556 194.84 174.305C194.804 174.055 194.716 173.814 194.581 173.6C193.731 172.335 190.981 172.29 189.671 172.665C189.586 172.69 188.671 173.065 188.171 173.28C188.486 172.87 188.811 172.46 189.116 172.03C190.011 170.795 190.876 169.53 191.746 168.25L192.551 167.09C192.686 167.245 194.306 169.125 195.346 169.59C196.266 170.015 197.561 170.305 198.511 169.795C198.739 169.684 198.941 169.526 199.104 169.331C199.266 169.137 199.386 168.91 199.455 168.666C199.524 168.422 199.54 168.166 199.504 167.915C199.467 167.664 199.377 167.424 199.241 167.21C198.391 165.945 195.641 165.9 194.331 166.28C194.236 166.305 192.926 166.85 192.601 167.005C193.191 166.155 193.791 165.31 194.416 164.505C195.249 163.411 196.155 162.373 197.126 161.4C197.191 161.475 198.871 163.44 199.931 163.93C200.856 164.36 202.151 164.645 203.101 164.14C203.328 164.028 203.53 163.87 203.692 163.675C203.854 163.481 203.974 163.254 204.043 163.01C204.111 162.766 204.128 162.511 204.092 162.26C204.055 162.009 203.966 161.769 203.831 161.555C202.981 160.285 200.231 160.245 198.921 160.62C198.836 160.645 197.841 161.06 197.371 161.265L197.321 161.19C198.324 160.237 199.41 159.376 200.566 158.615C201.201 158.185 201.826 157.81 202.446 157.465C202.721 157.86 203.996 159.665 204.906 160.215C205.816 160.765 207.031 161.17 208.031 160.77C208.27 160.683 208.488 160.547 208.67 160.37C208.853 160.193 208.996 159.98 209.091 159.744C209.185 159.508 209.228 159.254 209.218 159C209.208 158.747 209.144 158.498 209.031 158.27C208.326 156.915 205.596 156.575 204.256 156.805C204.181 156.805 203.451 157.025 202.926 157.185L203.766 156.725C204.791 156.195 205.766 155.765 206.621 155.395C207.121 155.19 207.561 155.01 207.981 154.85C208.456 155.1 210.376 156.085 211.416 156.15C212.456 156.215 213.746 156.015 214.446 155.2C214.606 155.017 214.727 154.803 214.803 154.571C214.878 154.34 214.906 154.096 214.884 153.853C214.863 153.611 214.793 153.375 214.678 153.161C214.563 152.946 214.406 152.757 214.216 152.605Z" fill="white"/>
<path d="M179.097 143.68C179.822 144.63 182.197 145.865 182.202 145.865C182.207 145.865 182.542 144.055 182.547 143.935C182.627 142.575 181.977 139.905 180.547 139.355C180.308 139.27 180.054 139.237 179.801 139.257C179.548 139.277 179.303 139.35 179.08 139.471C178.857 139.592 178.663 139.759 178.509 139.96C178.355 140.162 178.245 140.393 178.187 140.64C177.907 141.675 178.502 142.875 179.097 143.68Z" fill="white"/>
</g>
<path d="M81.4992 118.4C81.5292 118.4 81.1092 116.305 81.0642 116.18C80.5642 114.68 78.7642 112.075 77.0042 112.08C76.7119 112.089 76.4248 112.16 76.1615 112.287C75.8982 112.414 75.6647 112.596 75.4761 112.819C75.2875 113.043 75.148 113.303 75.0667 113.584C74.9854 113.865 74.9641 114.16 75.0042 114.45C75.1342 115.685 76.2442 116.74 77.2492 117.345C78.4192 118.06 81.4992 118.4 81.4992 118.4Z" fill="#005AEE"/>
<path d="M84.9058 104.295C83.2458 104.89 82.4058 107.96 82.4758 109.53C82.4758 109.665 82.7908 111.78 82.8208 111.765H82.8558C82.7208 112.265 82.5858 112.765 82.4458 113.34C82.1958 114.395 81.9458 115.59 81.7158 116.91C81.4784 118.332 81.3215 119.766 81.2458 121.205C81.1581 122.815 81.2133 124.43 81.4108 126.03C81.4132 126.05 81.4132 126.07 81.4108 126.09C81.1958 125.62 80.5458 124.335 80.4808 124.24C79.6208 122.925 77.1808 120.89 75.4808 121.36C75.2015 121.446 74.9434 121.591 74.7232 121.783C74.5031 121.976 74.3257 122.212 74.2027 122.477C74.0797 122.743 74.0138 123.031 74.0092 123.323C74.0045 123.616 74.0613 123.906 74.1758 124.175C74.6258 125.33 75.9758 126.055 77.1058 126.375C78.3808 126.74 81.2208 126.31 81.4458 126.275C81.686 127.9 82.0351 129.507 82.4908 131.085C82.7508 132.005 83.0408 132.925 83.3458 133.845C83.1458 133.445 82.9608 133.09 82.9308 133.045C82.0658 131.73 79.6308 129.695 77.9308 130.165C77.6512 130.25 77.3927 130.393 77.1721 130.585C76.9515 130.777 76.7739 131.013 76.6507 131.279C76.5276 131.544 76.4617 131.832 76.4575 132.124C76.4532 132.416 76.5105 132.706 76.6258 132.975C77.0758 134.135 78.4258 134.86 79.5558 135.18C80.6858 135.5 83.1258 135.18 83.7708 135.095C83.8908 135.445 84.0058 135.8 84.1258 136.15C84.7058 137.83 85.2958 139.51 85.8208 141.15C86.0058 141.735 86.1658 142.32 86.3208 142.9C86.1408 142.545 85.9908 142.25 85.9608 142.21C85.1008 140.895 82.6608 138.86 80.9608 139.33C80.6812 139.415 80.4227 139.558 80.2021 139.75C79.9815 139.942 79.8039 140.178 79.6807 140.444C79.5576 140.709 79.4917 140.997 79.4874 141.289C79.4832 141.581 79.5405 141.871 79.6558 142.14C80.1058 143.3 81.4558 144.025 82.5858 144.345C83.7158 144.665 85.9208 144.385 86.6858 144.275C86.8358 144.88 86.9858 145.48 87.1008 146.07C87.1758 146.475 87.2708 146.86 87.3208 147.275C87.3708 147.69 87.4308 148.08 87.4908 148.475C87.5708 149.245 87.6558 150.04 87.7158 150.795C87.7608 151.295 87.7908 151.795 87.8258 152.295C87.6508 151.71 87.2758 150.57 87.2358 150.48C86.6132 149.244 85.6857 148.187 84.5408 147.41C84.477 147.27 84.4 147.136 84.3108 147.01C84.1524 146.764 83.9441 146.554 83.6992 146.393C83.4544 146.232 83.1786 146.125 82.8896 146.078C82.6006 146.031 82.305 146.045 82.0218 146.119C81.7386 146.194 81.4743 146.327 81.2458 146.51C79.9158 147.665 80.2458 150.82 80.8608 152.27C80.8958 152.355 81.3958 153.235 81.7158 153.77C81.4758 153.475 81.2508 153.185 81.0008 152.88C80.5008 152.285 80.0008 151.7 79.4608 151.07L78.6358 150.175C78.3658 149.87 78.0458 149.585 77.7458 149.285C77.0458 148.605 76.2958 147.95 75.5308 147.285C76.0308 146.855 77.8908 145.285 78.4208 144.25C78.9508 143.215 79.3208 141.715 78.7708 140.6C78.6506 140.333 78.4754 140.095 78.2568 139.901C78.0382 139.706 77.7811 139.56 77.5023 139.472C77.2234 139.384 76.9291 139.355 76.6385 139.389C76.3479 139.422 76.0676 139.516 75.8158 139.665C74.3158 140.6 74.1758 143.77 74.5608 145.295C74.5858 145.39 74.9858 146.45 75.2158 147.03C74.7508 146.65 74.2908 146.265 73.8108 145.89C72.4158 144.815 70.9758 143.77 69.5408 142.72C69.1008 142.4 68.6658 142.07 68.2308 141.75C68.4208 141.595 70.6458 139.8 71.2308 138.62C71.7558 137.57 72.1358 136.085 71.5858 134.97C71.4656 134.703 71.2904 134.465 71.0718 134.271C70.8533 134.076 70.5961 133.93 70.3173 133.842C70.0384 133.754 69.7441 133.725 69.4535 133.759C69.1629 133.792 68.8826 133.886 68.6308 134.035C67.1308 134.97 66.9858 138.14 67.3758 139.665C67.3758 139.78 67.9808 141.31 68.1458 141.69C67.1858 140.975 66.2408 140.255 65.3308 139.505C64.0962 138.501 62.9272 137.419 61.8308 136.265C61.9208 136.195 64.2508 134.33 64.8308 133.12C65.3558 132.07 65.7358 130.585 65.1858 129.47C65.0656 129.203 64.8904 128.965 64.6718 128.771C64.4533 128.576 64.1961 128.43 63.9173 128.342C63.6384 128.254 63.3441 128.225 63.0535 128.259C62.7629 128.292 62.4826 128.386 62.2308 128.535C60.7308 129.47 60.5858 132.64 60.9758 134.165C60.9758 134.265 61.4408 135.43 61.6608 135.98L61.5758 136.03C60.5091 134.838 59.5519 133.553 58.7158 132.19C58.2458 131.45 57.8408 130.69 57.4608 129.985C57.9258 129.68 60.0608 128.275 60.7258 127.245C61.3908 126.215 61.9008 124.825 61.4758 123.66C61.3856 123.382 61.2377 123.125 61.0419 122.908C60.8461 122.69 60.6067 122.517 60.3393 122.398C60.0719 122.279 59.7825 122.218 59.4898 122.218C59.1972 122.218 58.9079 122.28 58.6408 122.4C57.0558 123.17 56.5608 126.305 56.7758 127.86C56.7758 127.945 57.0008 128.795 57.1658 129.41C57.0008 129.08 56.8258 128.74 56.6658 128.41C56.0858 127.21 55.6308 126.08 55.2308 125.07C55.0108 124.495 54.8258 123.975 54.6558 123.48C54.9608 122.945 56.1558 120.76 56.2758 119.565C56.3958 118.37 56.2108 116.875 55.2758 116.035C55.0674 115.83 54.8181 115.671 54.5442 115.569C54.2703 115.466 53.9779 115.422 53.686 115.44C53.3941 115.458 53.1093 115.537 52.85 115.673C52.5906 115.808 52.3627 115.996 52.1808 116.225C51.1308 117.635 52.1358 120.65 53.0458 121.93C53.1208 122.04 54.5458 123.635 54.5458 123.605V123.57C54.7008 124.07 54.8708 124.57 55.0458 125.11C55.4208 126.11 55.8558 127.275 56.4108 128.49C56.9929 129.808 57.6524 131.09 58.3858 132.33C59.2025 133.722 60.1394 135.041 61.1858 136.27L61.2258 136.31C60.7858 136.04 59.5358 135.31 59.4308 135.28C57.9858 134.66 54.8308 134.31 53.6708 135.635C53.4852 135.861 53.3492 136.124 53.2716 136.406C53.194 136.689 53.1765 136.984 53.2203 137.273C53.2642 137.563 53.3683 137.84 53.526 138.086C53.6837 138.333 53.8915 138.544 54.1358 138.705C55.1358 139.42 56.6758 139.28 57.7908 138.925C59.0558 138.525 61.1858 136.6 61.3558 136.425C62.4453 137.646 63.6145 138.794 64.8558 139.86C65.5808 140.485 66.3308 141.095 67.0908 141.69L66.3058 141.25C64.8608 140.63 61.7058 140.28 60.5458 141.61C60.36 141.836 60.2238 142.098 60.1458 142.379C60.0679 142.661 60.05 142.956 60.0934 143.245C60.1368 143.534 60.2404 143.811 60.3976 144.057C60.5548 144.303 60.762 144.514 61.0058 144.675C62.0058 145.395 63.5458 145.25 64.6658 144.895C65.7858 144.54 67.6658 142.935 68.1358 142.5L69.0158 143.185C70.4308 144.265 71.8458 145.34 73.2008 146.435C73.6758 146.82 74.1308 147.22 74.5908 147.615C74.2458 147.42 73.9558 147.255 73.9058 147.235C72.4658 146.615 69.3058 146.265 68.1508 147.59C67.965 147.816 67.8286 148.079 67.7506 148.361C67.6726 148.643 67.6547 148.938 67.6981 149.227C67.7415 149.517 67.8451 149.794 68.0023 150.041C68.1596 150.287 68.3669 150.498 68.6108 150.66C69.6108 151.375 71.1508 151.235 72.2708 150.88C73.3908 150.525 75.0758 149.07 75.6508 148.56C76.1108 148.98 76.5658 149.4 76.9908 149.83C77.2758 150.125 77.5658 150.395 77.8358 150.71L78.6408 151.62C79.1408 152.22 79.6408 152.835 80.1058 153.43C80.4308 153.84 80.7358 154.24 81.0408 154.64C80.5708 154.25 79.6308 153.505 79.5408 153.455C78.2058 152.62 75.1408 151.795 73.7958 152.955C73.5778 153.15 73.4034 153.389 73.284 153.656C73.1646 153.923 73.1029 154.212 73.1029 154.505C73.1029 154.798 73.1646 155.087 73.284 155.354C73.4034 155.621 73.5778 155.86 73.7958 156.055C74.6908 156.92 76.2208 157.01 77.3808 156.83C78.6558 156.63 80.9708 155.12 81.2558 154.93C81.7558 155.595 82.2558 156.245 82.6908 156.87C84.2508 159.02 85.4658 160.87 86.2958 162.175L86.3808 162.31L87.4558 161.785L87.2858 161.53C86.4158 160.23 85.1508 158.385 83.5308 156.25C83.0308 155.57 82.4658 154.86 81.8858 154.135C82.4811 153.477 83.0386 152.786 83.5558 152.065C84.7908 152.565 87.3708 152.565 87.7008 152.565C87.7558 153.4 87.8008 154.21 87.8308 154.975C87.9408 157.625 87.9358 159.84 87.9058 161.39V161.57L89.0858 160.995C89.0858 159.455 89.0308 157.38 88.8708 154.92C88.8208 154.075 88.7508 153.17 88.6658 152.245C88.9958 152.165 91.6658 151.475 92.6658 150.67C93.5808 149.935 94.5458 148.745 94.5158 147.505C94.518 147.212 94.4585 146.922 94.3412 146.654C94.2238 146.386 94.0513 146.145 93.8347 145.948C93.6182 145.751 93.3626 145.601 93.0845 145.51C92.8065 145.418 92.5122 145.385 92.2208 145.415C90.4758 145.64 89.0108 148.455 88.7208 150.005C88.7208 150.095 88.6308 151.105 88.5908 151.74C88.5558 151.365 88.5258 150.995 88.4858 150.605C88.4058 149.84 88.3058 149.07 88.2008 148.25L88.0058 147.045C87.9508 146.645 87.8408 146.23 87.7558 145.815C87.5458 144.855 87.2858 143.9 87.0008 142.935C87.6708 142.87 90.0608 142.585 91.0858 142C92.1108 141.415 93.2358 140.385 93.3908 139.15C93.4376 138.861 93.4229 138.566 93.3478 138.283C93.2726 138 93.1386 137.737 92.9546 137.509C92.7705 137.282 92.5406 137.096 92.2797 136.963C92.0189 136.831 91.733 136.755 91.4408 136.74C89.6808 136.695 87.8058 139.24 87.2908 140.74C87.2558 140.83 87.0058 141.94 86.8758 142.55C86.7008 141.975 86.5308 141.4 86.3358 140.82C85.7658 139.155 85.1408 137.49 84.5208 135.82L83.9658 134.29C84.2058 134.265 87.0558 133.995 88.2008 133.335C89.2008 132.75 90.3508 131.72 90.5058 130.49C90.5526 130.201 90.5379 129.905 90.4628 129.622C90.3876 129.339 90.2537 129.075 90.0698 128.847C89.8858 128.62 89.6559 128.433 89.3951 128.3C89.1342 128.167 88.8483 128.09 88.5558 128.075C86.7958 128.035 84.9208 130.575 84.4058 132.075C84.3658 132.19 84.0058 133.78 83.9308 134.19C83.5258 133.065 83.1308 131.94 82.7908 130.815C82.3163 129.3 81.9421 127.755 81.6708 126.19C81.7808 126.19 84.7558 125.91 85.9308 125.235C86.9308 124.65 88.0808 123.62 88.2358 122.385C88.2818 122.096 88.2665 121.801 88.1911 121.519C88.1156 121.236 87.9815 120.973 87.7976 120.746C87.6138 120.518 87.3841 120.332 87.1237 120.2C86.8632 120.067 86.5778 119.99 86.2858 119.975C84.5258 119.93 82.6508 122.475 82.1358 123.975C82.1008 124.075 81.8258 125.285 81.7058 125.865H81.6058C81.3764 124.283 81.2877 122.683 81.3408 121.085C81.3408 120.205 81.4258 119.365 81.5058 118.55C82.0658 118.55 84.6208 118.55 85.7408 118.05C86.8608 117.55 88.0608 116.685 88.3508 115.475C88.4291 115.193 88.447 114.898 88.4032 114.608C88.3595 114.319 88.2552 114.042 88.0971 113.795C87.939 113.549 87.7307 113.339 87.4858 113.178C87.2409 113.018 86.9649 112.911 86.6758 112.865C84.9308 112.625 82.7858 114.97 82.1108 116.365C82.0708 116.445 81.7858 117.27 81.5808 117.865C81.6258 117.495 81.6658 117.115 81.7108 116.765C81.8908 115.445 82.1358 114.265 82.3608 113.19C82.4958 112.59 82.6258 112.05 82.7558 111.545C83.3058 111.265 85.5158 110.11 86.2558 109.17C86.9958 108.23 87.6808 106.89 87.3808 105.67C87.2171 105.171 86.8713 104.753 86.4125 104.498C85.9537 104.243 85.4157 104.171 84.9058 104.295Z" fill="#005AEE"/>
<path d="M53.075 131.435C54.45 131.38 57.2 129.97 57.205 129.97C57.21 129.97 55.705 128.44 55.615 128.355C54.385 127.355 51.435 126.205 49.97 127.175C49.7303 127.343 49.5287 127.56 49.3786 127.811C49.2284 128.062 49.133 128.343 49.0985 128.633C49.064 128.924 49.0914 129.219 49.1786 129.498C49.2659 129.778 49.4112 130.035 49.605 130.255C50.395 131.22 51.9 131.5 53.075 131.435Z" fill="#005AEE"/>
<g opacity="0.5">
<path d="M81.4992 118.4C81.5292 118.4 81.1092 116.305 81.0642 116.18C80.5642 114.68 78.7641 112.075 77.0041 112.08C76.7118 112.089 76.4247 112.16 76.1614 112.287C75.8982 112.414 75.6646 112.596 75.476 112.819C75.2874 113.043 75.1479 113.303 75.0666 113.584C74.9853 113.865 74.964 114.16 75.0041 114.45C75.1341 115.685 76.2442 116.74 77.2492 117.345C78.4192 118.06 81.4992 118.4 81.4992 118.4Z" fill="white"/>
<path d="M84.9057 104.295C83.2457 104.89 82.4057 107.96 82.4757 109.53C82.4757 109.665 82.7907 111.78 82.8207 111.765H82.8557C82.7207 112.265 82.5857 112.765 82.4457 113.34C82.1957 114.395 81.9457 115.59 81.7157 116.91C81.4783 118.332 81.3214 119.766 81.2457 121.205C81.158 122.815 81.2132 124.43 81.4107 126.03C81.4132 126.05 81.4132 126.07 81.4107 126.09C81.1957 125.62 80.5457 124.335 80.4807 124.24C79.6207 122.925 77.1807 120.89 75.4807 121.36C75.2014 121.446 74.9433 121.591 74.7231 121.783C74.503 121.976 74.3257 122.212 74.2027 122.477C74.0797 122.743 74.0137 123.031 74.0091 123.323C74.0044 123.616 74.0612 123.906 74.1757 124.175C74.6257 125.33 75.9757 126.055 77.1057 126.375C78.3807 126.74 81.2207 126.31 81.4457 126.275C81.6859 127.9 82.035 129.507 82.4907 131.085C82.7507 132.005 83.0407 132.925 83.3457 133.845C83.1457 133.445 82.9607 133.09 82.9307 133.045C82.0657 131.73 79.6307 129.695 77.9307 130.165C77.6511 130.25 77.3926 130.393 77.172 130.585C76.9514 130.777 76.7738 131.013 76.6506 131.279C76.5275 131.544 76.4617 131.832 76.4574 132.124C76.4531 132.416 76.5104 132.706 76.6257 132.975C77.0757 134.135 78.4257 134.86 79.5557 135.18C80.6857 135.5 83.1257 135.18 83.7707 135.095C83.8907 135.445 84.0057 135.8 84.1257 136.15C84.7057 137.83 85.2957 139.51 85.8207 141.15C86.0057 141.735 86.1657 142.32 86.3207 142.9C86.1407 142.545 85.9907 142.25 85.9607 142.21C85.1007 140.895 82.6607 138.86 80.9607 139.33C80.6811 139.415 80.4226 139.558 80.202 139.75C79.9814 139.942 79.8038 140.178 79.6806 140.444C79.5575 140.709 79.4916 140.997 79.4874 141.289C79.4831 141.581 79.5404 141.871 79.6557 142.14C80.1057 143.3 81.4557 144.025 82.5857 144.345C83.7157 144.665 85.9207 144.385 86.6857 144.275C86.8357 144.88 86.9857 145.48 87.1007 146.07C87.1757 146.475 87.2707 146.86 87.3207 147.275C87.3707 147.69 87.4307 148.08 87.4907 148.475C87.5707 149.245 87.6557 150.04 87.7157 150.795C87.7607 151.295 87.7907 151.795 87.8257 152.295C87.6507 151.71 87.2757 150.57 87.2357 150.48C86.6132 149.244 85.6856 148.187 84.5407 147.41C84.4769 147.27 84.3999 147.136 84.3107 147.01C84.1523 146.764 83.944 146.554 83.6991 146.393C83.4543 146.232 83.1785 146.125 82.8895 146.078C82.6005 146.031 82.3049 146.045 82.0217 146.119C81.7386 146.194 81.4742 146.327 81.2457 146.51C79.9157 147.665 80.2457 150.82 80.8607 152.27C80.8957 152.355 81.3957 153.235 81.7157 153.77C81.4757 153.475 81.2507 153.185 81.0007 152.88C80.5007 152.285 80.0007 151.7 79.4607 151.07L78.6357 150.175C78.3657 149.87 78.0457 149.585 77.7457 149.285C77.0457 148.605 76.2957 147.95 75.5307 147.285C76.0307 146.855 77.8907 145.285 78.4207 144.25C78.9507 143.215 79.3207 141.715 78.7707 140.6C78.6505 140.333 78.4753 140.095 78.2567 139.901C78.0382 139.706 77.781 139.56 77.5022 139.472C77.2233 139.384 76.929 139.355 76.6384 139.389C76.3478 139.422 76.0675 139.516 75.8157 139.665C74.3157 140.6 74.1757 143.77 74.5607 145.295C74.5857 145.39 74.9857 146.45 75.2157 147.03C74.7507 146.65 74.2907 146.265 73.8107 145.89C72.4157 144.815 70.9757 143.77 69.5407 142.72C69.1007 142.4 68.6657 142.07 68.2307 141.75C68.4207 141.595 70.6457 139.8 71.2307 138.62C71.7557 137.57 72.1357 136.085 71.5857 134.97C71.4655 134.703 71.2903 134.465 71.0717 134.271C70.8532 134.076 70.596 133.93 70.3172 133.842C70.0383 133.754 69.744 133.725 69.4534 133.759C69.1628 133.792 68.8825 133.886 68.6307 134.035C67.1307 134.97 66.9857 138.14 67.3757 139.665C67.3757 139.78 67.9807 141.31 68.1457 141.69C67.1857 140.975 66.2407 140.255 65.3307 139.505C64.0961 138.501 62.9271 137.419 61.8307 136.265C61.9207 136.195 64.2507 134.33 64.8307 133.12C65.3557 132.07 65.7357 130.585 65.1857 129.47C65.0655 129.203 64.8903 128.965 64.6717 128.771C64.4532 128.576 64.196 128.43 63.9172 128.342C63.6383 128.254 63.344 128.225 63.0534 128.259C62.7628 128.292 62.4825 128.386 62.2307 128.535C60.7307 129.47 60.5857 132.64 60.9757 134.165C60.9757 134.265 61.4407 135.43 61.6607 135.98L61.5757 136.03C60.509 134.838 59.5518 133.553 58.7157 132.19C58.2457 131.45 57.8407 130.69 57.4607 129.985C57.9257 129.68 60.0607 128.275 60.7257 127.245C61.3907 126.215 61.9007 124.825 61.4757 123.66C61.3855 123.382 61.2376 123.125 61.0418 122.908C60.846 122.69 60.6066 122.517 60.3392 122.398C60.0718 122.279 59.7824 122.218 59.4897 122.218C59.1971 122.218 58.9078 122.28 58.6407 122.4C57.0557 123.17 56.5607 126.305 56.7757 127.86C56.7757 127.945 57.0007 128.795 57.1657 129.41C57.0007 129.08 56.8257 128.74 56.6657 128.41C56.0857 127.21 55.6307 126.08 55.2307 125.07C55.0107 124.495 54.8257 123.975 54.6557 123.48C54.9607 122.945 56.1557 120.76 56.2757 119.565C56.3957 118.37 56.2107 116.875 55.2757 116.035C55.0673 115.83 54.818 115.671 54.5441 115.569C54.2702 115.466 53.9778 115.422 53.6859 115.44C53.394 115.458 53.1092 115.537 52.8499 115.673C52.5906 115.808 52.3626 115.996 52.1807 116.225C51.1307 117.635 52.1357 120.65 53.0457 121.93C53.1207 122.04 54.5457 123.635 54.5457 123.605V123.57C54.7007 124.07 54.8707 124.57 55.0457 125.11C55.4207 126.11 55.8557 127.275 56.4107 128.49C56.9928 129.808 57.6523 131.09 58.3857 132.33C59.2024 133.722 60.1393 135.041 61.1857 136.27L61.2257 136.31C60.7857 136.04 59.5357 135.31 59.4307 135.28C57.9857 134.66 54.8307 134.31 53.6707 135.635C53.4851 135.861 53.3491 136.124 53.2715 136.406C53.1939 136.689 53.1764 136.984 53.2203 137.273C53.2641 137.563 53.3682 137.84 53.5259 138.086C53.6836 138.333 53.8914 138.544 54.1357 138.705C55.1357 139.42 56.6757 139.28 57.7907 138.925C59.0557 138.525 61.1857 136.6 61.3557 136.425C62.4452 137.646 63.6144 138.794 64.8557 139.86C65.5807 140.485 66.3307 141.095 67.0907 141.69L66.3057 141.25C64.8607 140.63 61.7057 140.28 60.5457 141.61C60.36 141.836 60.2237 142.098 60.1457 142.379C60.0678 142.661 60.0499 142.956 60.0933 143.245C60.1367 143.534 60.2403 143.811 60.3975 144.057C60.5547 144.303 60.7619 144.514 61.0057 144.675C62.0057 145.395 63.5457 145.25 64.6657 144.895C65.7857 144.54 67.6657 142.935 68.1357 142.5L69.0157 143.185C70.4307 144.265 71.8457 145.34 73.2007 146.435C73.6757 146.82 74.1307 147.22 74.5907 147.615C74.2457 147.42 73.9557 147.255 73.9057 147.235C72.4657 146.615 69.3057 146.265 68.1507 147.59C67.9649 147.816 67.8285 148.079 67.7505 148.361C67.6725 148.643 67.6546 148.938 67.698 149.227C67.7414 149.517 67.845 149.794 68.0022 150.041C68.1595 150.287 68.3668 150.498 68.6107 150.66C69.6107 151.375 71.1507 151.235 72.2707 150.88C73.3907 150.525 75.0757 149.07 75.6507 148.56C76.1107 148.98 76.5657 149.4 76.9907 149.83C77.2757 150.125 77.5657 150.395 77.8357 150.71L78.6407 151.62C79.1407 152.22 79.6407 152.835 80.1057 153.43C80.4307 153.84 80.7357 154.24 81.0407 154.64C80.5707 154.25 79.6307 153.505 79.5407 153.455C78.2057 152.62 75.1407 151.795 73.7957 152.955C73.5777 153.15 73.4033 153.389 73.2839 153.656C73.1645 153.923 73.1028 154.212 73.1028 154.505C73.1028 154.798 73.1645 155.087 73.2839 155.354C73.4033 155.621 73.5777 155.86 73.7957 156.055C74.6907 156.92 76.2207 157.01 77.3807 156.83C78.6557 156.63 80.9707 155.12 81.2557 154.93C81.7557 155.595 82.2557 156.245 82.6907 156.87C84.2507 159.02 85.4657 160.87 86.2957 162.175L86.3807 162.31L87.4557 161.785L87.2857 161.53C86.4157 160.23 85.1507 158.385 83.5307 156.25C83.0307 155.57 82.4657 154.86 81.8857 154.135C82.481 153.477 83.0385 152.786 83.5557 152.065C84.7907 152.565 87.3707 152.565 87.7007 152.565C87.7557 153.4 87.8007 154.21 87.8307 154.975C87.9407 157.625 87.9357 159.84 87.9057 161.39V161.57L89.0857 160.995C89.0857 159.455 89.0307 157.38 88.8707 154.92C88.8207 154.075 88.7507 153.17 88.6657 152.245C88.9957 152.165 91.6657 151.475 92.6657 150.67C93.5807 149.935 94.5457 148.745 94.5157 147.505C94.5179 147.212 94.4584 146.922 94.3411 146.654C94.2237 146.386 94.0512 146.145 93.8347 145.948C93.6181 145.751 93.3625 145.601 93.0845 145.51C92.8064 145.418 92.5121 145.385 92.2207 145.415C90.4757 145.64 89.0107 148.455 88.7207 150.005C88.7207 150.095 88.6307 151.105 88.5907 151.74C88.5557 151.365 88.5257 150.995 88.4857 150.605C88.4057 149.84 88.3057 149.07 88.2007 148.25L88.0057 147.045C87.9507 146.645 87.8407 146.23 87.7557 145.815C87.5457 144.855 87.2857 143.9 87.0007 142.935C87.6707 142.87 90.0607 142.585 91.0857 142C92.1107 141.415 93.2357 140.385 93.3907 139.15C93.4375 138.861 93.4228 138.566 93.3477 138.283C93.2725 138 93.1385 137.737 92.9545 137.509C92.7704 137.282 92.5405 137.096 92.2797 136.963C92.0188 136.831 91.733 136.755 91.4407 136.74C89.6807 136.695 87.8057 139.24 87.2907 140.74C87.2557 140.83 87.0057 141.94 86.8757 142.55C86.7007 141.975 86.5307 141.4 86.3357 140.82C85.7657 139.155 85.1407 137.49 84.5207 135.82L83.9657 134.29C84.2057 134.265 87.0557 133.995 88.2007 133.335C89.2007 132.75 90.3507 131.72 90.5057 130.49C90.5525 130.201 90.5378 129.905 90.4627 129.622C90.3875 129.339 90.2536 129.075 90.0697 128.847C89.8857 128.62 89.6558 128.433 89.395 128.3C89.1341 128.167 88.8482 128.09 88.5557 128.075C86.7957 128.035 84.9207 130.575 84.4057 132.075C84.3657 132.19 84.0057 133.78 83.9307 134.19C83.5257 133.065 83.1307 131.94 82.7907 130.815C82.3162 129.3 81.942 127.755 81.6707 126.19C81.7807 126.19 84.7557 125.91 85.9307 125.235C86.9307 124.65 88.0807 123.62 88.2357 122.385C88.2817 122.096 88.2665 121.801 88.191 121.519C88.1155 121.236 87.9814 120.973 87.7975 120.746C87.6137 120.518 87.384 120.332 87.1236 120.2C86.8631 120.067 86.5777 119.99 86.2857 119.975C84.5257 119.93 82.6507 122.475 82.1357 123.975C82.1007 124.075 81.8257 125.285 81.7057 125.865H81.6057C81.3763 124.283 81.2876 122.683 81.3407 121.085C81.3407 120.205 81.4257 119.365 81.5057 118.55C82.0657 118.55 84.6207 118.55 85.7407 118.05C86.8607 117.55 88.0607 116.685 88.3507 115.475C88.429 115.193 88.4469 114.898 88.4032 114.608C88.3594 114.319 88.2551 114.042 88.097 113.795C87.9389 113.549 87.7306 113.339 87.4857 113.178C87.2408 113.018 86.9648 112.911 86.6757 112.865C84.9307 112.625 82.7857 114.97 82.1107 116.365C82.0707 116.445 81.7857 117.27 81.5807 117.865C81.6257 117.495 81.6657 117.115 81.7107 116.765C81.8907 115.445 82.1357 114.265 82.3607 113.19C82.4957 112.59 82.6257 112.05 82.7557 111.545C83.3057 111.265 85.5157 110.11 86.2557 109.17C86.9957 108.23 87.6807 106.89 87.3807 105.67C87.217 105.171 86.8712 104.753 86.4124 104.498C85.9536 104.243 85.4156 104.171 84.9057 104.295Z" fill="white"/>
<path d="M53.075 131.435C54.45 131.38 57.2 129.97 57.205 129.97C57.21 129.97 55.705 128.44 55.615 128.355C54.385 127.355 51.435 126.205 49.97 127.175C49.7303 127.343 49.5287 127.56 49.3786 127.811C49.2284 128.062 49.133 128.343 49.0985 128.633C49.064 128.924 49.0914 129.219 49.1786 129.498C49.2659 129.778 49.4112 130.035 49.605 130.255C50.395 131.22 51.9 131.5 53.075 131.435Z" fill="white"/>
</g>
<path d="M69.88 169.195C69.88 169.195 78.23 149.07 82.905 149.945C87.58 150.82 74.905 182.03 74.905 182.03C74.905 182.03 89.595 154.32 99.615 154.32C109.635 154.32 95.94 184.945 83.255 195.155C83.255 195.155 103.285 173.57 114.97 178.24C126.655 182.91 91.6 204.78 91.6 204.78C91.6 204.78 111.965 198.365 109.63 203.325C107.295 208.285 100.95 209.155 100.95 209.155L123.985 210.325H43.84L61.87 208.575C61.87 208.575 43.17 199.24 48.18 195.45C53.19 191.66 64.205 199.825 64.205 199.825C64.205 199.825 45.175 178.825 48.845 170.945C52.515 163.065 68.88 185.24 68.88 185.24C68.88 185.24 55.525 156.945 58.195 152C60.865 147.055 69.88 169.195 69.88 169.195Z" fill="#005AEE"/>
<path opacity="0.5" d="M69.88 169.195C69.88 169.195 78.23 149.07 82.905 149.945C87.58 150.82 74.905 182.03 74.905 182.03C74.905 182.03 89.595 154.32 99.615 154.32C109.635 154.32 95.94 184.945 83.255 195.155C83.255 195.155 103.285 173.57 114.97 178.24C126.655 182.91 91.6 204.78 91.6 204.78C91.6 204.78 111.965 198.365 109.63 203.325C107.295 208.285 100.95 209.155 100.95 209.155L123.985 210.325H43.84L61.87 208.575C61.87 208.575 43.17 199.24 48.18 195.45C53.19 191.66 64.205 199.825 64.205 199.825C64.205 199.825 45.175 178.825 48.845 170.945C52.515 163.065 68.88 185.24 68.88 185.24C68.88 185.24 55.525 156.945 58.195 152C60.865 147.055 69.88 169.195 69.88 169.195Z" fill="white"/>
<path d="M67.2095 170.255C74.5545 191.96 74.5545 207.32 74.5545 207.32C74.5545 207.32 65.8745 207.65 56.8595 200.975" stroke="#263238" stroke-linecap="round" stroke-linejoin="round"/>
<path d="M70.885 181.945C72.3949 175.456 74.4008 169.092 76.885 162.91" stroke="#263238" stroke-linecap="round" stroke-linejoin="round"/>
<path d="M92.5845 169.255L73.8895 196.97C73.8895 196.97 61.1995 186.285 56.8595 180.275" stroke="#263238" stroke-linecap="round" stroke-linejoin="round"/>
<path d="M74.225 203.645C74.225 203.645 93.92 194.295 101.935 188.955" stroke="#263238" stroke-linecap="round" stroke-linejoin="round"/>
<path d="M177.595 169.195C177.595 169.195 169.25 149.07 164.595 149.945C159.94 150.82 172.595 182.03 172.595 182.03C172.595 182.03 157.905 154.32 147.89 154.32C137.875 154.32 151.56 184.945 164.25 195.155C164.25 195.155 144.215 173.57 132.53 178.24C120.845 182.91 155.905 204.78 155.905 204.78C155.905 204.78 135.535 198.365 137.875 203.325C140.215 208.285 146.555 209.155 146.555 209.155L123.5 210.325H203.64L185.61 208.575C185.61 208.575 204.305 199.24 199.3 195.45C194.295 191.66 183.27 199.825 183.27 199.825C183.27 199.825 202.305 178.825 198.63 170.945C194.955 163.065 178.595 185.24 178.595 185.24C178.595 185.24 191.955 156.945 189.28 151.985C186.605 147.025 177.595 169.195 177.595 169.195Z" fill="#005AEE"/>
<path opacity="0.5" d="M177.595 169.195C177.595 169.195 169.25 149.07 164.595 149.945C159.94 150.82 172.595 182.03 172.595 182.03C172.595 182.03 157.905 154.32 147.89 154.32C137.875 154.32 151.56 184.945 164.25 195.155C164.25 195.155 144.215 173.57 132.53 178.24C120.845 182.91 155.905 204.78 155.905 204.78C155.905 204.78 135.535 198.365 137.875 203.325C140.215 208.285 146.555 209.155 146.555 209.155L123.5 210.325H203.64L185.61 208.575C185.61 208.575 204.305 199.24 199.3 195.45C194.295 191.66 183.27 199.825 183.27 199.825C183.27 199.825 202.305 178.825 198.63 170.945C194.955 163.065 178.595 185.24 178.595 185.24C178.595 185.24 191.955 156.945 189.28 151.985C186.605 147.025 177.595 169.195 177.595 169.195Z" fill="white"/>
<path d="M180.265 170.255C172.92 191.96 172.92 207.32 172.92 207.32C172.92 207.32 181.6 207.65 190.615 200.975" stroke="#263238" stroke-linecap="round" stroke-linejoin="round"/>
<path d="M176.596 181.945C175.086 175.456 173.08 169.092 170.596 162.91" stroke="#263238" stroke-linecap="round" stroke-linejoin="round"/>
<path d="M154.891 169.255L173.591 196.97C173.591 196.97 186.276 186.285 190.616 180.275" stroke="#263238" stroke-linecap="round" stroke-linejoin="round"/>
<path d="M173.254 203.645C173.254 203.645 153.554 194.295 145.539 188.955" stroke="#263238" stroke-linecap="round" stroke-linejoin="round"/>
<path d="M164.114 60.75H86.9141C85.0501 60.75 83.5391 62.261 83.5391 64.125V208.67C83.5391 210.534 85.0501 212.045 86.9141 212.045H164.114C165.978 212.045 167.489 210.534 167.489 208.67V64.125C167.489 62.261 165.978 60.75 164.114 60.75Z" fill="#263238" stroke="#263238" stroke-miterlimit="10"/>
<path d="M131.32 69.79H120.87C120.729 69.79 120.589 69.7622 120.459 69.7082C120.328 69.6542 120.21 69.575 120.11 69.4752C120.01 69.3754 119.931 69.2568 119.877 69.1264C119.823 68.996 119.795 68.8562 119.795 68.715C119.795 68.5741 119.823 68.4345 119.877 68.3044C119.931 68.1743 120.01 68.0561 120.11 67.9567C120.21 67.8572 120.329 67.7785 120.459 67.725C120.589 67.6716 120.729 67.6444 120.87 67.645H131.32C131.604 67.645 131.876 67.7578 132.077 67.9584C132.277 68.1591 132.39 68.4312 132.39 68.715C132.391 68.856 132.363 68.9956 132.31 69.126C132.256 69.2564 132.178 69.375 132.078 69.4749C131.979 69.5748 131.861 69.654 131.731 69.7081C131.6 69.7622 131.461 69.79 131.32 69.79Z" fill="#005AEE"/>
<path d="M162.184 198.525H88.8438V69.915H106.229L108.184 71.535C108.865 72.1048 109.726 72.4163 110.614 72.415H141.284C142.204 72.41 143.092 72.0726 143.784 71.465L145.549 69.915H162.169L162.184 198.525Z" fill="white" stroke="#263238" stroke-width="0.938618" stroke-linecap="round" stroke-linejoin="round"/>
<path d="M118.134 79.3949L117.134 76.0349H92.1741V79.3949V191.695V195.06H159.079V79.3949H118.134Z" fill="#005AEE"/>
<path d="M156.723 85.4502H94.5234V191.36H156.723V85.4502Z" fill="white"/>
<path d="M127.86 202.5C127.861 202.17 127.763 201.846 127.581 201.571C127.398 201.296 127.137 201.081 126.832 200.954C126.527 200.827 126.191 200.793 125.867 200.857C125.543 200.921 125.244 201.079 125.01 201.313C124.776 201.546 124.617 201.843 124.552 202.168C124.487 202.492 124.52 202.828 124.646 203.133C124.772 203.439 124.986 203.7 125.261 203.883C125.536 204.067 125.859 204.165 126.19 204.165C126.631 204.164 127.054 203.988 127.367 203.676C127.68 203.365 127.857 202.942 127.86 202.5Z" fill="#005AEE"/>
<path d="M120.955 186.735C132.265 186.735 141.435 173.689 141.435 157.595C141.435 141.501 132.265 128.455 120.955 128.455C109.644 128.455 100.475 141.501 100.475 157.595C100.475 173.689 109.644 186.735 120.955 186.735Z" fill="#005AEE"/>
<path opacity="0.5" d="M120.955 186.735C132.265 186.735 141.435 173.689 141.435 157.595C141.435 141.501 132.265 128.455 120.955 128.455C109.644 128.455 100.475 141.501 100.475 157.595C100.475 173.689 109.644 186.735 120.955 186.735Z" fill="white"/>
<path d="M123.86 125.07C123.86 125.07 122.58 122.93 121.405 122.825C120.23 122.72 106.24 131.5 104.1 136.07C101.96 140.64 99.9351 149.81 105.6 158.635C111.125 167.22 119.785 166.935 124.275 166.505C128.765 166.075 131.775 164.615 136.325 160.965C140.875 157.315 145.05 151.94 145.655 148.29C146.26 144.64 144.035 142.61 142.615 142.105C141.195 141.6 132.98 141.7 126.995 135.605C121.01 129.51 123.86 125.07 123.86 125.07Z" fill="#263238" stroke="#263238" stroke-linecap="round" stroke-linejoin="round"/>
<path d="M125.675 122.29C125.675 122.29 122.045 123.68 119.8 126.135C117.555 128.59 116.17 132.44 116.065 138.1C115.96 143.76 117.775 150.165 124.82 152.945C131.865 155.725 138.17 153.585 140.2 151.66C142.23 149.735 144.7 144.295 144.7 144.295C144.7 144.295 133.49 147.295 128.15 140.98C122.81 134.665 125.675 122.29 125.675 122.29Z" fill="white" stroke="#263238" stroke-linecap="round" stroke-linejoin="round"/>
<path d="M188.415 126.235C185.675 122.125 179.135 120.91 173.965 119.235C168.795 117.56 165.75 114.235 167.12 106.005C168.49 97.7752 175.62 84.4052 175.485 81.9702C175.35 79.5352 150.845 79.6902 148.56 80.4702C146.275 81.2502 145.826 81.0752 143.696 83.8152C142.515 85.2949 141.447 86.861 140.5 88.5002L143.14 82.9502H143.336C143.622 82.2208 144.03 81.5447 144.54 80.9502C146.864 78.255 148.18 74.8375 148.265 71.2802C148.365 66.0452 144.64 66.5502 143.935 68.1602C143.23 69.7702 139.105 75.3102 137.896 76.8202C136.686 78.3302 134.17 82.4602 134.17 82.4602L131.375 92.1502C131.375 92.1502 130.765 95.0402 127.265 105.995C123.765 116.95 125.29 122 125.29 122C125.29 122 124.375 121.545 122.245 128.085C120.115 134.625 121.03 142.99 124.83 146.945C128.63 150.9 133.655 150.75 139.285 148.47C142.749 146.986 145.633 144.413 147.5 141.14C147.5 141.14 153.435 139.64 157.845 136.275C162.255 132.91 165.6 129.43 172 129.735C178.4 130.04 185.69 133.69 188.125 133.535C190.56 133.38 191.155 130.34 188.415 126.235Z" fill="white"/>
<mask id="mask0_142_5105" style="mask-type:luminance" maskUnits="userSpaceOnUse" x="121" y="67" width="70" height="84">
<path d="M188.415 126.235C185.675 122.125 179.135 120.91 173.965 119.235C168.795 117.56 165.75 114.235 167.12 106.005C168.49 97.7752 175.62 84.4052 175.485 81.9702C175.35 79.5352 150.845 79.6902 148.56 80.4702C146.275 81.2502 145.826 81.0752 143.696 83.8152C142.515 85.2949 141.447 86.861 140.5 88.5002L143.14 82.9502H143.336C143.622 82.2208 144.03 81.5447 144.54 80.9502C146.864 78.255 148.18 74.8375 148.265 71.2802C148.365 66.0452 144.64 66.5502 143.935 68.1602C143.23 69.7702 139.105 75.3102 137.896 76.8202C136.686 78.3302 134.17 82.4602 134.17 82.4602L131.375 92.1502C131.375 92.1502 130.765 95.0402 127.265 105.995C123.765 116.95 125.29 122 125.29 122C125.29 122 124.375 121.545 122.245 128.085C120.115 134.625 121.03 142.99 124.83 146.945C128.63 150.9 133.655 150.75 139.285 148.47C142.749 146.986 145.633 144.413 147.5 141.14C147.5 141.14 153.435 139.64 157.845 136.275C162.255 132.91 165.6 129.43 172 129.735C178.4 130.04 185.69 133.69 188.125 133.535C190.56 133.38 191.155 130.34 188.415 126.235Z" fill="white"/>
</mask>
<g mask="url(#mask0_142_5105)">
<path d="M149.181 112C132.256 114.525 126.936 118.565 128.626 124.125C128.977 125.228 129.547 126.248 130.301 127.125C130.301 127.23 130.301 127.345 130.331 127.465C130.331 127.465 130.631 127.645 131.081 127.965C131.674 128.538 132.314 129.058 132.996 129.52C134.106 130.575 135.101 131.895 134.896 133.12C134.461 135.73 128.396 140.29 125.331 140.51C122.266 140.73 121.201 137.685 120.766 140.945C120.331 144.205 127.071 152.245 133.591 151.375C140.111 150.505 145.546 141.375 145.546 141.375C145.546 141.375 144.676 139.875 149.046 135.29C151.916 132.29 156.021 130.965 159.166 129.735C162.135 128.862 165.03 127.752 167.821 126.415C175.556 122.625 184.746 125.155 184.746 125.155C184.746 125.155 166.106 109.445 149.181 112Z" fill="#005AEE"/>
<path opacity="0.5" d="M149.181 112C132.256 114.525 126.936 118.565 128.626 124.125C128.977 125.228 129.547 126.248 130.301 127.125C130.301 127.23 130.301 127.345 130.331 127.465C130.331 127.465 130.631 127.645 131.081 127.965C131.674 128.538 132.314 129.058 132.996 129.52C134.106 130.575 135.101 131.895 134.896 133.12C134.461 135.73 128.396 140.29 125.331 140.51C122.266 140.73 121.201 137.685 120.766 140.945C120.331 144.205 127.071 152.245 133.591 151.375C140.111 150.505 145.546 141.375 145.546 141.375C145.546 141.375 144.676 139.875 149.046 135.29C151.916 132.29 156.021 130.965 159.166 129.735C162.135 128.862 165.03 127.752 167.821 126.415C175.556 122.625 184.746 125.155 184.746 125.155C184.746 125.155 166.106 109.445 149.181 112Z" fill="white"/>
</g>
<path d="M188.415 126.235C185.675 122.125 179.135 120.91 173.965 119.235C168.795 117.56 165.75 114.235 167.12 106.005C168.49 97.7752 175.62 84.4052 175.485 81.9702C175.35 79.5352 150.845 79.6902 148.56 80.4702C146.275 81.2502 145.826 81.0752 143.696 83.8152C142.515 85.2949 141.447 86.861 140.5 88.5002L143.14 82.9502H143.336C143.622 82.2208 144.03 81.5447 144.54 80.9502C146.864 78.255 148.18 74.8375 148.265 71.2802C148.365 66.0452 144.64 66.5502 143.935 68.1602C143.23 69.7702 139.106 75.3102 137.896 76.8202C136.686 78.3302 134.17 82.4602 134.17 82.4602L131.375 92.1502C131.375 92.1502 130.765 95.0402 127.265 105.995C123.765 116.95 125.29 122 125.29 122C125.29 122 124.375 121.545 122.245 128.085C120.115 134.625 121.03 142.99 124.83 146.945C128.63 150.9 133.655 150.75 139.285 148.47C142.749 146.986 145.633 144.413 147.5 141.14C147.5 141.14 153.435 139.64 157.845 136.275C162.255 132.91 165.6 129.43 172 129.735C178.4 130.04 185.69 133.69 188.125 133.535C190.56 133.38 191.155 130.34 188.415 126.235Z" stroke="#263238" stroke-linecap="round" stroke-linejoin="round"/>
<path d="M188.5 133.5C188.5 133.5 188.82 132.22 185.19 130.5C181.56 128.78 180.065 129.965 180.065 130.82C180.065 131.675 187.94 133.5 188.5 133.5Z" fill="white" stroke="#263238" stroke-linecap="round" stroke-linejoin="round"/>
<path d="M154.105 74.9154L144.945 81.9654H157.23C157.23 81.9654 157.23 73.3054 154.105 74.9154Z" fill="white" stroke="#263238" stroke-linecap="round" stroke-linejoin="round"/>
<path d="M142.615 125.765C143.916 124.295 145.538 123.144 147.355 122.4" stroke="#263238" stroke-linecap="round" stroke-linejoin="round"/>
<path d="M140.949 128.5C141.09 128.094 141.272 127.703 141.494 127.335" stroke="#263238" stroke-linecap="round" stroke-linejoin="round"/>
<path d="M137.3 138C136.81 137.569 136.352 137.103 135.93 136.605" stroke="#263238" stroke-linecap="round" stroke-linejoin="round"/>
<path d="M147.5 141.14C144.675 141.462 141.821 140.877 139.35 139.47" stroke="#263238" stroke-linecap="round" stroke-linejoin="round"/>
<path d="M181.749 81.3604H135.589C129.214 81.3604 124.049 86.2954 124.049 92.3604V114.11C124.049 119.4 127.954 123.82 133.164 124.885L130.729 132.09L141.999 125.15H181.749C188.119 125.15 193.289 120.215 193.289 114.15V92.4004C193.289 86.2954 188.119 81.3604 181.749 81.3604Z" fill="#005AEE" stroke="#263238" stroke-width="2" stroke-miterlimit="10"/>
<path d="M131.565 96.0051H183.455" stroke="#263238" stroke-width="2.06409" stroke-miterlimit="10" stroke-linecap="round"/>
<path d="M131.565 101.35H183.455" stroke="#263238" stroke-width="2.06409" stroke-miterlimit="10" stroke-linecap="round"/>
<path d="M131.565 106.69H183.455" stroke="#263238" stroke-width="2.06409" stroke-miterlimit="10" stroke-linecap="round"/>
<path d="M131.565 112.03H183.455" stroke="#263238" stroke-width="2.06409" stroke-miterlimit="10" stroke-linecap="round"/>
<path d="M192.871 100.425C196.424 100.425 199.306 97.674 199.306 94.2803C199.306 90.8865 196.424 88.1353 192.871 88.1353C189.317 88.1353 186.436 90.8865 186.436 94.2803C186.436 97.674 189.317 100.425 192.871 100.425Z" fill="#263238"/>
<path d="M192.37 98.6201C192.158 98.1977 192.063 97.7265 192.095 97.2551V92.2551L190.965 92.8851C190.843 92.9555 190.705 92.9933 190.565 92.9951C190.459 92.9962 190.355 92.9749 190.258 92.9327C190.162 92.8905 190.075 92.8282 190.005 92.7501C189.857 92.5972 189.777 92.3923 189.78 92.1801C189.776 92.0359 189.818 91.8942 189.9 91.7751C190.016 91.6355 190.155 91.5157 190.31 91.4201L192.5 90.3001C192.744 90.1247 193.03 90.0161 193.33 89.9851C194.075 89.9851 194.445 90.5451 194.445 91.6651V97.4301C194.445 98.5251 194.055 99.0701 193.27 99.0701C193.093 99.0857 192.915 99.0519 192.756 98.9725C192.597 98.893 192.463 98.771 192.37 98.6201Z" fill="white"/>
<path d="M168.179 78.1401C168.179 78.1401 168.384 82.1651 172.009 84.0801C175.634 85.9951 180.264 85.5801 180.364 83.1751C180.464 80.7701 177.644 78.2401 175.734 75.0151C173.824 71.7901 169.589 73.6101 167.779 75.8251" fill="white"/>
<path d="M168.179 78.1401C168.179 78.1401 168.384 82.1651 172.009 84.0801C175.634 85.9951 180.264 85.5801 180.364 83.1751C180.464 80.7701 177.644 78.2401 175.734 75.0151C173.824 71.7901 169.589 73.6101 167.779 75.8251" stroke="#263238" stroke-linecap="round" stroke-linejoin="round"/>
<path d="M174.425 81.3602C174.12 82.9702 175.23 83.8602 176.235 84.3602C177.24 84.8602 179.235 84.5652 180.365 83.1552C180.415 81.9752 179.77 80.7752 178.865 79.4802C177.605 79.6402 174.66 80.1002 174.425 81.3602Z" fill="white" stroke="#263238" stroke-linecap="round" stroke-linejoin="round"/>
<path d="M160.63 78.1401C160.63 78.1401 160.83 82.1651 164.455 84.0801C168.08 85.9951 172.715 85.5801 172.815 83.1751C172.915 80.7701 170.095 78.2401 168.18 75.0151C166.265 71.7901 162.04 73.6101 160.225 75.8251" fill="white"/>
<path d="M160.63 78.1401C160.63 78.1401 160.83 82.1651 164.455 84.0801C168.08 85.9951 172.715 85.5801 172.815 83.1751C172.915 80.7701 170.095 78.2401 168.18 75.0151C166.265 71.7901 162.04 73.6101 160.225 75.8251" stroke="#263238" stroke-linecap="round" stroke-linejoin="round"/>
<path d="M166.874 81.36C166.569 82.97 167.679 83.86 168.684 84.36C169.689 84.86 171.684 84.565 172.814 83.155C172.859 81.975 172.214 80.775 171.314 79.48C170.054 79.64 167.109 80.1 166.874 81.36Z" fill="white" stroke="#263238" stroke-linecap="round" stroke-linejoin="round"/>
<path d="M153.604 78.1401C153.604 78.1401 153.804 82.1651 157.429 84.0801C161.054 85.9951 165.684 85.5801 165.784 83.1751C165.884 80.7701 163.069 78.2401 161.154 75.0151C159.239 71.7901 155.009 73.6101 153.199 75.8251" fill="white"/>
<path d="M153.604 78.1401C153.604 78.1401 153.804 82.1651 157.429 84.0801C161.054 85.9951 165.684 85.5801 165.784 83.1751C165.884 80.7701 163.069 78.2401 161.154 75.0151C159.239 71.7901 155.009 73.6101 153.199 75.8251" stroke="#263238" stroke-linecap="round" stroke-linejoin="round"/>
<path d="M159.845 81.36C159.545 82.97 160.65 83.86 161.66 84.36C162.67 84.86 164.66 84.565 165.785 83.155C165.835 81.975 165.19 80.775 164.285 79.48C163.025 79.64 160.08 80.1 159.845 81.36Z" fill="white" stroke="#263238" stroke-linecap="round" stroke-linejoin="round"/>
<path d="M125.289 122C125.289 122 125.569 128.19 128.984 132.355" stroke="#263238" stroke-linecap="round" stroke-linejoin="round"/>
<path d="M115.35 147.835C115.35 149.095 114.51 150.115 113.475 150.115C112.44 150.115 111.6 149.115 111.6 147.835C111.6 146.555 112.44 145.555 113.475 145.555C114.51 145.555 115.35 146.575 115.35 147.835Z" fill="white"/>
<path d="M110.686 150.675C110.686 151.935 109.846 152.955 108.811 152.955C107.776 152.955 106.936 151.955 106.936 150.675C106.936 149.395 107.776 148.39 108.811 148.39C109.846 148.39 110.686 149.415 110.686 150.675Z" stroke="#263238" stroke-linecap="round" stroke-linejoin="round"/>
</svg>
