<svg width="251" height="250" viewBox="0 0 251 250" fill="none" xmlns="http://www.w3.org/2000/svg">
<path d="M83.0943 29.9589C83.0943 29.9589 45.2093 49.2589 26.3143 78.9989C7.4193 108.739 8.9143 146.999 31.8743 175.399C54.8343 203.799 98.7193 200.069 135.464 218.059C172.209 236.049 212.749 232.344 230.124 194.229C247.499 156.114 221.299 141.869 216.799 97.7589C212.299 53.6489 172.534 -10.9411 83.0943 29.9589Z" fill="#005AEE"/>
<path opacity="0.7" d="M83.0943 29.9589C83.0943 29.9589 45.2093 49.2589 26.3143 78.9989C7.4193 108.739 8.9143 146.999 31.8743 175.399C54.8343 203.799 98.7193 200.069 135.464 218.059C172.209 236.049 212.749 232.344 230.124 194.229C247.499 156.114 221.299 141.869 216.799 97.7589C212.299 53.6489 172.534 -10.9411 83.0943 29.9589Z" fill="white"/>
<path d="M194.625 202.867C194.625 202.867 173.335 165.502 178.25 155.972C183.165 146.442 195.715 163.577 195.715 163.577C195.715 163.577 184.8 128.727 190.805 113.502C196.81 98.2768 207.18 113.502 207.725 124.277C208.27 135.052 205.54 153.427 205.54 153.427C205.54 153.427 209.91 115.427 220.28 126.812C230.65 138.197 207.18 176.237 207.18 176.237C207.18 176.237 223.01 167.367 222.46 178.772C221.91 190.177 203.36 200.317 203.36 200.317" fill="#005AEE"/>
<path d="M194.805 195.898C194.805 195.898 175.105 177.518 184.705 169.283C194.305 161.048 199.355 178.153 199.355 178.153C199.355 178.153 188.745 125.558 205.92 123.653C223.095 121.748 210.465 169.278 210.465 169.278C210.465 169.278 225.115 149.003 224.105 165.503C223.095 182.003 201.375 195.923 201.375 195.923" stroke="#263238" stroke-miterlimit="10"/>
<path d="M204.48 192.55L191.17 178.125" stroke="#263238" stroke-miterlimit="10"/>
<path d="M201.711 193.661L205.316 151.496" stroke="#263238" stroke-miterlimit="10"/>
<path d="M201.156 190.607L213.081 174.797" stroke="#263238" stroke-miterlimit="10"/>
<path d="M218.405 187.668H181.58L185.265 231.103H214.72L218.405 187.668Z" fill="#263238"/>
<path d="M77.8246 137.296C73.0366 134.947 68.0875 132.941 63.0146 131.296C55.7046 129.046 47.0796 131.106 46.8896 133.541C46.6996 135.976 47.9996 134.861 49.7046 137.501C51.4096 140.141 50.6396 146.311 53.0796 151.936C55.5196 157.561 62.8246 160.371 62.8246 160.371L77.8246 137.296Z" fill="#005AEE" stroke="#263238" stroke-linecap="round" stroke-linejoin="round"/>
<path opacity="0.3" d="M72.9501 142.735C72.9501 142.735 61.7001 135.61 55.1401 133.17C48.5801 130.73 48.2051 134.295 48.2051 134.295C49.2843 134.691 50.2105 135.419 50.8509 136.374C51.4913 137.328 51.813 138.461 51.7701 139.61C51.7701 143.82 53.8751 152.54 58.9901 154.34C64.1051 156.14 72.9501 142.735 72.9501 142.735Z" fill="black"/>
<path d="M153.221 150.696C156.162 149.579 157.573 146.114 156.374 142.957C155.175 139.8 151.819 138.146 148.879 139.263C145.938 140.38 144.527 143.844 145.726 147.002C146.925 150.159 150.281 151.813 153.221 150.696Z" fill="#005AEE" stroke="#263238" stroke-linecap="round" stroke-linejoin="round"/>
<path d="M72.6152 210.41L78.9252 229.34C79.0964 229.853 79.4247 230.299 79.8635 230.615C80.3024 230.931 80.8295 231.101 81.3702 231.1H91.2052C91.7084 231.101 92.2007 230.954 92.6211 230.678C93.0415 230.401 93.3715 230.007 93.5702 229.545L97.9702 219.335" fill="#005AEE"/>
<mask id="mask0_301_47134" style="mask-type:luminance" maskUnits="userSpaceOnUse" x="72" y="210" width="26" height="22">
<path d="M72.6152 210.41L78.9252 229.34C79.0964 229.853 79.4247 230.299 79.8635 230.615C80.3024 230.931 80.8295 231.101 81.3702 231.1H91.2052C91.7084 231.101 92.2007 230.954 92.6211 230.678C93.0415 230.401 93.3715 230.007 93.5702 229.545L97.9702 219.335" fill="white"/>
</mask>
<g mask="url(#mask0_301_47134)">
<path opacity="0.3" d="M75.7793 210.41L80.9993 229.34C81.0981 229.815 81.3502 230.245 81.717 230.563C82.0838 230.881 82.5448 231.07 83.0293 231.1H91.1843C91.6322 231.077 92.0617 230.915 92.4131 230.636C92.7644 230.357 93.02 229.976 93.1443 229.545L96.7943 219.335" fill="black"/>
</g>
<path d="M72.6152 210.41L78.9252 229.34C79.0964 229.853 79.4247 230.299 79.8635 230.615C80.3024 230.931 80.8295 231.101 81.3702 231.1H91.2052C91.7084 231.101 92.2007 230.954 92.6211 230.678C93.0415 230.401 93.3715 230.007 93.5702 229.545L97.9702 219.335" stroke="#263238" stroke-linecap="round" stroke-linejoin="round"/>
<path d="M120.074 210.41L113.769 229.34C113.598 229.853 113.27 230.299 112.831 230.615C112.392 230.931 111.865 231.101 111.324 231.1H101.499C100.996 231.101 100.504 230.954 100.084 230.678C99.6631 230.401 99.3331 230.007 99.1344 229.545L94.7344 219.335" fill="#263238"/>
<path d="M120.074 210.41L113.769 229.34C113.598 229.853 113.27 230.299 112.831 230.615C112.392 230.931 111.865 231.101 111.324 231.1H101.499C100.996 231.101 100.504 230.954 100.084 230.678C99.6631 230.401 99.3331 230.007 99.1344 229.545L94.7344 219.335" stroke="#263238" stroke-linecap="round" stroke-linejoin="round"/>
<path d="M140.97 210.41L134.66 229.34C134.489 229.853 134.161 230.299 133.722 230.615C133.283 230.931 132.756 231.101 132.215 231.1H122.38C121.877 231.101 121.385 230.954 120.964 230.678C120.544 230.401 120.214 230.007 120.015 229.545L115.615 219.335" fill="#005AEE"/>
<mask id="mask1_301_47134" style="mask-type:luminance" maskUnits="userSpaceOnUse" x="115" y="210" width="26" height="22">
<path d="M140.97 210.41L134.66 229.34C134.489 229.853 134.161 230.299 133.722 230.615C133.283 230.931 132.756 231.101 132.215 231.1H122.38C121.877 231.101 121.385 230.954 120.964 230.678C120.544 230.401 120.214 230.007 120.015 229.545L115.615 219.335" fill="white"/>
</mask>
<g mask="url(#mask1_301_47134)">
<path opacity="0.3" d="M136.501 210.41L132.186 229.34C131.946 230.39 131.276 231.1 130.516 231.1H123.791C123.091 231.1 122.456 230.49 122.176 229.545L117.996 219.545" fill="black"/>
</g>
<path d="M140.97 210.41L134.66 229.34C134.489 229.853 134.161 230.299 133.722 230.615C133.283 230.931 132.756 231.101 132.215 231.1H122.38C121.877 231.101 121.385 230.954 120.964 230.678C120.544 230.401 120.214 230.007 120.015 229.545L115.615 219.335" stroke="#263238" stroke-linecap="round" stroke-linejoin="round"/>
<path d="M107.249 222.866C137.119 222.866 161.334 200.905 161.334 173.816C161.334 146.726 137.119 124.766 107.249 124.766C77.3787 124.766 53.1641 146.726 53.1641 173.816C53.1641 200.905 77.3787 222.866 107.249 222.866Z" fill="#005AEE"/>
<mask id="mask2_301_47134" style="mask-type:luminance" maskUnits="userSpaceOnUse" x="53" y="124" width="109" height="99">
<path d="M107.249 222.866C137.119 222.866 161.334 200.905 161.334 173.816C161.334 146.726 137.119 124.766 107.249 124.766C77.3787 124.766 53.1641 146.726 53.1641 173.816C53.1641 200.905 77.3787 222.866 107.249 222.866Z" fill="white"/>
</mask>
<g mask="url(#mask2_301_47134)">
<path opacity="0.3" d="M144.498 140.301C147.67 146.591 149.322 153.537 149.323 160.581C149.323 187.671 125.108 209.631 95.2383 209.631C84.1226 209.687 73.2274 206.53 63.8633 200.541C73.2933 213.196 89.2583 221.541 107.363 221.541C136.363 221.541 159.863 200.236 159.863 173.951C159.833 160.796 153.963 148.911 144.498 140.301Z" fill="black"/>
</g>
<path d="M107.249 222.866C137.119 222.866 161.334 200.905 161.334 173.816C161.334 146.726 137.119 124.766 107.249 124.766C77.3787 124.766 53.1641 146.726 53.1641 173.816C53.1641 200.905 77.3787 222.866 107.249 222.866Z" stroke="#263238" stroke-linecap="round" stroke-linejoin="round"/>
<path d="M156.784 178.215C155.604 188.095 151.049 197.06 144.189 204.14" stroke="#005AEE" stroke-width="2" stroke-linecap="round" stroke-linejoin="round"/>
<path d="M155.889 163C156.687 166.309 157.089 169.701 157.089 173.105" stroke="#005AEE" stroke-width="2" stroke-linecap="round" stroke-linejoin="round"/>
<path d="M93.8398 127.826C98.2963 126.784 102.858 126.26 107.435 126.266C110.365 126.265 113.291 126.479 116.19 126.906" stroke="#263238" stroke-width="4" stroke-linecap="round" stroke-linejoin="round"/>
<path d="M117.859 162.066C117.859 162.066 123.109 158.501 123.299 151.941C123.489 145.381 114.859 135.821 107.924 131.881C100.989 127.941 95.924 128.696 95.739 131.506C95.554 134.316 93.114 137.506 92.179 142.941C91.244 148.376 90.864 156.441 98.179 159.066" fill="#005AEE"/>
<path d="M117.859 162.066C117.859 162.066 123.109 158.501 123.299 151.941C123.489 145.381 114.859 135.821 107.924 131.881C100.989 127.941 95.924 128.696 95.739 131.506C95.554 134.316 93.114 137.506 92.179 142.941C91.244 148.376 90.864 156.441 98.179 159.066" stroke="#263238" stroke-linecap="round" stroke-linejoin="round"/>
<path opacity="0.3" d="M106.565 159.962L107.64 160.122C112.25 160.787 113.87 157.777 113.735 153.257C113.55 146.882 105.115 133.382 101.55 131.507C97.9848 129.632 96.8648 132.257 96.8648 132.257C96.8648 132.257 97.3648 132.592 95.6098 138.417C94.7998 141.107 91.7848 150.487 94.7698 154.647C97.4098 158.322 102.315 159.327 106.565 159.962Z" fill="black"/>
<path opacity="0.3" d="M121.499 153.502H121.429C121.363 153.494 121.3 153.472 121.243 153.439C121.186 153.406 121.136 153.362 121.096 153.309C121.056 153.257 121.027 153.197 121.01 153.133C120.993 153.069 120.99 153.003 120.999 152.937C121.053 152.553 121.085 152.166 121.094 151.777C121.194 148.277 118.339 143.252 113.644 138.617C113.597 138.571 113.559 138.516 113.534 138.455C113.508 138.395 113.495 138.329 113.494 138.263C113.494 138.197 113.506 138.132 113.531 138.071C113.556 138.01 113.592 137.954 113.639 137.907C113.685 137.86 113.74 137.823 113.801 137.797C113.862 137.772 113.927 137.758 113.993 137.758C114.059 137.757 114.124 137.77 114.185 137.795C114.246 137.819 114.302 137.856 114.349 137.902C119.309 142.802 122.204 147.997 122.094 151.802C122.083 152.227 122.05 152.651 121.994 153.072C121.977 153.192 121.917 153.301 121.827 153.38C121.736 153.459 121.619 153.502 121.499 153.502Z" fill="black"/>
<path opacity="0.3" d="M118.81 159.529C118.716 159.529 118.623 159.503 118.543 159.452C118.463 159.402 118.398 159.33 118.358 159.245C118.317 159.159 118.301 159.064 118.312 158.97C118.323 158.876 118.361 158.787 118.42 158.714C119.244 157.704 119.903 156.57 120.37 155.354C120.417 155.23 120.512 155.13 120.633 155.075C120.754 155.021 120.891 155.017 121.015 155.064C121.139 155.111 121.239 155.205 121.294 155.326C121.348 155.447 121.352 155.585 121.305 155.709C120.8 157.025 120.088 158.252 119.195 159.344C119.149 159.401 119.09 159.448 119.024 159.479C118.957 159.511 118.884 159.528 118.81 159.529Z" fill="black"/>
<path opacity="0.3" d="M82.3992 183.307C83.878 177.381 78.7237 170.991 70.8868 169.036C63.0499 167.08 55.4981 170.299 54.0193 176.226C52.5406 182.153 57.6949 188.542 65.5318 190.498C73.3686 192.453 80.9205 189.234 82.3992 183.307Z" fill="black"/>
<path d="M81.6942 182.229C83.1729 176.303 78.0186 169.913 70.1817 167.957C62.3448 166.002 54.793 169.221 53.3142 175.148C51.8355 181.074 56.9898 187.464 64.8267 189.419C72.6636 191.375 80.2154 188.156 81.6942 182.229Z" fill="#005AEE" stroke="#263238" stroke-linecap="round" stroke-linejoin="round"/>
<path d="M63.0902 176.899C63.1802 178.239 62.6652 179.369 61.9452 179.399C61.2252 179.429 60.5602 178.399 60.4452 177.059C60.3302 175.719 60.8702 174.584 61.5952 174.559C62.3202 174.534 63.0002 175.554 63.0902 176.899Z" stroke="#263238" stroke-linecap="round" stroke-linejoin="round"/>
<path d="M73.0003 179.385C73.0903 180.73 72.5753 181.855 71.8553 181.885C71.1353 181.915 70.4703 180.885 70.3553 179.54C70.2403 178.195 70.7803 177.07 71.5053 177.04C72.2303 177.01 72.8953 178.04 73.0003 179.385Z" stroke="#263238" stroke-linecap="round" stroke-linejoin="round"/>
<path d="M89.3552 182.859C89.2496 183.822 89.0246 184.768 88.6852 185.674C85.8152 193.429 75.4252 196.784 65.1602 193.444" stroke="#263238" stroke-width="3" stroke-linecap="round" stroke-linejoin="round"/>
<path d="M87.6797 182.125H90.8647" stroke="#263238" stroke-width="3" stroke-linecap="round" stroke-linejoin="round"/>
<path d="M67.3905 161.364C67.0405 162.819 66.1455 163.864 65.3905 163.674C64.6355 163.484 64.3055 162.174 64.6605 160.704C65.0155 159.234 65.9055 158.204 66.6605 158.389C67.4155 158.574 67.7455 159.904 67.3905 161.364Z" fill="#263238" stroke="#263238" stroke-linecap="round" stroke-linejoin="round"/>
<path d="M76.6113 163.377C76.9632 161.917 76.637 160.586 75.8826 160.404C75.1283 160.222 74.2314 161.259 73.8795 162.719C73.5275 164.179 73.8537 165.511 74.6081 165.692C75.3624 165.874 76.2593 164.838 76.6113 163.377Z" fill="#263238" stroke="#263238" stroke-linecap="round" stroke-linejoin="round"/>
<path d="M90.3789 216.501L95.8789 229.551C96.0763 230.018 96.4069 230.416 96.8292 230.696C97.2516 230.976 97.7471 231.126 98.2539 231.126H108.254C108.756 231.125 109.247 230.978 109.667 230.703C110.087 230.428 110.418 230.036 110.619 229.576L116.619 215.711H116.359" fill="#005AEE"/>
<mask id="mask3_301_47134" style="mask-type:luminance" maskUnits="userSpaceOnUse" x="90" y="215" width="27" height="17">
<path d="M90.3789 216.501L95.8789 229.551C96.0763 230.018 96.4069 230.416 96.8292 230.696C97.2516 230.976 97.7471 231.126 98.2539 231.126H108.254C108.756 231.125 109.247 230.978 109.667 230.703C110.087 230.428 110.418 230.036 110.619 229.576L116.619 215.711H116.359" fill="white"/>
</mask>
<g mask="url(#mask3_301_47134)">
<path opacity="0.3" d="M101.999 214.835C98.8293 214.835 95.1393 215.25 92.1543 214.56L97.2943 229.525C97.4167 229.96 97.6719 230.345 98.0242 230.628C98.3766 230.91 98.8084 231.075 99.2593 231.1H107.499C107.945 231.075 108.372 230.913 108.721 230.635C109.07 230.358 109.325 229.979 109.449 229.55L114.424 214.285L112.424 214.56C106.079 215.25 106.244 214.835 101.999 214.835Z" fill="black"/>
</g>
<path d="M90.3789 216.501L95.8789 229.551C96.0763 230.018 96.4069 230.416 96.8292 230.696C97.2516 230.976 97.7471 231.126 98.2539 231.126H108.254C108.756 231.125 109.247 230.978 109.667 230.703C110.087 230.428 110.418 230.036 110.619 229.576L116.619 215.711H116.359" stroke="#263238" stroke-linecap="round" stroke-linejoin="round"/>
<path d="M189.999 13.2191L162.344 53.0641C162.344 53.0641 159.979 58.7041 157.069 62.8891C154.159 67.0741 145.999 71.2591 145.999 71.2591C145.999 71.2591 145.274 79.0791 142.909 81.8091C140.544 84.5391 135.449 82.9041 135.449 82.9041C135.449 82.9041 133.264 85.2691 130.899 86.3591C128.534 87.4491 121.259 83.4491 121.259 83.4491C121.259 83.4491 127.804 90.5441 128.714 92.9091C129.624 95.2741 131.264 97.2741 128.354 99.4591C125.444 101.644 122.164 98.5491 122.164 98.5491C122.164 98.5491 123.624 103.279 119.439 104.189C115.254 105.099 110.694 95.9991 108.874 92.9091C107.054 89.8191 101.779 78.1691 100.874 77.6241C99.9694 77.0791 98.6944 74.1691 100.514 71.4391C102.334 68.7091 115.244 51.2441 116.699 49.9991C118.154 48.7541 145.999 42.1491 145.999 42.1491L156.554 13.0391" fill="white"/>
<mask id="mask4_301_47134" style="mask-type:luminance" maskUnits="userSpaceOnUse" x="99" y="13" width="91" height="92">
<path d="M189.999 13.2191L162.344 53.0641C162.344 53.0641 159.979 58.7041 157.069 62.8891C154.159 67.0741 145.999 71.2591 145.999 71.2591C145.999 71.2591 145.274 79.0791 142.909 81.8091C140.544 84.5391 135.449 82.9041 135.449 82.9041C135.449 82.9041 133.264 85.2691 130.899 86.3591C128.534 87.4491 121.259 83.4491 121.259 83.4491C121.259 83.4491 127.804 90.5441 128.714 92.9091C129.624 95.2741 131.264 97.2741 128.354 99.4591C125.444 101.644 122.164 98.5491 122.164 98.5491C122.164 98.5491 123.624 103.279 119.439 104.189C115.254 105.099 110.694 95.9991 108.874 92.9091C107.054 89.8191 101.779 78.1691 100.874 77.6241C99.9694 77.0791 98.6944 74.1691 100.514 71.4391C102.334 68.7091 115.244 51.2441 116.699 49.9991C118.154 48.7541 145.999 42.1491 145.999 42.1491L156.554 13.0391" fill="white"/>
</mask>
<g mask="url(#mask4_301_47134)">
<path opacity="0.2" d="M159.5 53.4984C159.5 53.4984 156.5 62.4984 153.25 64.2484C150 65.9984 131.5 70.7484 124.25 69.7484C117 68.7484 113 65.9984 113 65.9984C113 65.9984 109 71.2484 107.25 72.9984C106.031 74.1301 104.581 74.9832 103 75.4984C103 75.4984 111.7 97.3534 117.955 104.118C118.441 104.269 118.957 104.293 119.455 104.188C123.64 103.278 122.18 98.5484 122.18 98.5484C122.18 98.5484 125.455 101.638 128.37 99.4584C131.285 97.2784 129.64 95.2734 128.73 92.9084C127.82 90.5434 121.25 83.4484 121.25 83.4484C121.25 83.4484 128.525 87.4484 130.89 86.3584C133.255 85.2684 135.44 82.8984 135.44 82.8984C135.44 82.8984 140.535 84.5384 142.9 81.8084C145.265 79.0784 145.99 71.2584 145.99 71.2584C145.99 71.2584 154.175 67.0734 157.09 62.8884C160.005 58.7034 162.365 53.0634 162.365 53.0634L173.76 36.6484L159.5 53.4984Z" fill="black"/>
</g>
<path d="M189.999 13.2191L162.344 53.0641C162.344 53.0641 159.979 58.7041 157.069 62.8891C154.159 67.0741 145.999 71.2591 145.999 71.2591C145.999 71.2591 145.274 79.0791 142.909 81.8091C140.544 84.5391 135.449 82.9041 135.449 82.9041C135.449 82.9041 133.264 85.2691 130.899 86.3591C128.534 87.4491 121.259 83.4491 121.259 83.4491C121.259 83.4491 127.804 90.5441 128.714 92.9091C129.624 95.2741 131.264 97.2741 128.354 99.4591C125.444 101.644 122.164 98.5491 122.164 98.5491C122.164 98.5491 123.624 103.279 119.439 104.189C115.254 105.099 110.694 95.9991 108.874 92.9091C107.054 89.8191 101.779 78.1691 100.874 77.6241C99.9694 77.0791 98.6944 74.1691 100.514 71.4391C102.334 68.7091 115.244 51.2441 116.699 49.9991C118.154 48.7541 145.999 42.1491 145.999 42.1491L156.554 13.0391" stroke="#263238" stroke-linecap="round" stroke-linejoin="round"/>
<path d="M95.4141 119.469L96.1391 122.199L107.419 119.469L117.974 91.8142L111.059 89.4492L95.4141 119.469Z" fill="white" stroke="#263238" stroke-linecap="round" stroke-linejoin="round"/>
<path d="M98.87 82.7188L114.515 88.5437L106.875 123.109L88.5 117.469L98.87 82.7188Z" fill="white" stroke="#263238" stroke-linecap="round" stroke-linejoin="round"/>
<path d="M89.1152 115.404L105.42 120.199L112.515 89.4494L98.2302 84.8594L89.1152 115.404Z" fill="#005AEE" stroke="#263238" stroke-linecap="round" stroke-linejoin="round"/>
<path d="M98.1655 92.4645C97.4559 92.2767 96.7143 92.2426 95.9905 92.3645L91.7305 106.64C92.347 107.24 93.1056 107.676 93.9355 107.905C97.2755 108.825 100.935 106.11 102.105 101.845C103.275 97.5796 101.5 93.3795 98.1655 92.4645Z" fill="white" stroke="#263238" stroke-linecap="round" stroke-linejoin="round"/>
<path d="M97.5594 94.8284C97.5379 94.8188 97.5204 94.8022 97.5095 94.7813C97.4986 94.7605 97.4951 94.7366 97.4994 94.7134L97.6894 93.9734C97.701 93.9423 97.7053 93.9089 97.7021 93.8757C97.6989 93.8426 97.6883 93.8107 97.6709 93.7823C97.6536 93.7539 97.6301 93.7298 97.6021 93.7118C97.5741 93.6938 97.5424 93.6824 97.5094 93.6784L96.7144 93.4884C96.6832 93.4758 96.6496 93.4706 96.6161 93.4734C96.5826 93.4761 96.5502 93.4866 96.5215 93.5041C96.4928 93.5216 96.4687 93.5456 96.4509 93.5741C96.4332 93.6027 96.4224 93.635 96.4194 93.6684L96.2644 94.4334C96.2585 94.4563 96.2448 94.4764 96.2256 94.4901C96.2064 94.5039 96.1829 94.5104 96.1594 94.5084C95.8884 94.4807 95.6153 94.4807 95.3444 94.5084L93.8894 99.3934C95.0244 100.573 96.7944 101.163 96.5594 102.153C96.4244 102.713 95.9144 103.153 95.0194 102.953C94.8322 102.928 94.6527 102.863 94.4929 102.763C94.3331 102.662 94.1969 102.528 94.0935 102.37C93.9901 102.212 93.9219 102.034 93.8935 101.847C93.8652 101.661 93.8775 101.47 93.9294 101.288L93.9744 101.088C93.9994 100.978 93.9344 100.888 93.7794 100.853L93.4744 100.778L92.6094 103.668C92.9568 103.984 93.3628 104.229 93.8044 104.388C93.8268 104.398 93.8451 104.416 93.856 104.438C93.867 104.46 93.8699 104.485 93.8644 104.508L93.6844 105.143C93.6706 105.174 93.6645 105.208 93.6667 105.242C93.6689 105.276 93.6793 105.309 93.697 105.338C93.7147 105.367 93.7392 105.391 93.7683 105.409C93.7975 105.426 93.8304 105.437 93.8644 105.438L94.6894 105.638C94.7184 105.654 94.7505 105.662 94.7833 105.663C94.8162 105.665 94.8488 105.658 94.8787 105.645C94.9087 105.631 94.9351 105.611 94.956 105.585C94.9769 105.56 94.9918 105.53 94.9994 105.498L95.1344 104.868C95.1418 104.845 95.1565 104.825 95.1763 104.81C95.1961 104.796 95.2199 104.788 95.2444 104.788C97.0044 104.973 98.1994 104.108 98.5694 102.568C98.8594 101.338 98.4444 100.293 97.1594 99.3084C95.9844 98.4184 94.7444 97.9784 94.9594 97.0684C95.1094 96.4384 95.6844 96.1484 96.4594 96.3334C96.6512 96.3643 96.834 96.4364 96.9953 96.5446C97.1566 96.6529 97.2925 96.7948 97.3937 96.9607C97.495 97.1265 97.559 97.3123 97.5816 97.5052C97.6041 97.6982 97.5846 97.8937 97.5244 98.0784L97.4894 98.2184C97.4894 98.3034 97.5394 98.3784 97.6944 98.4184L99.1594 98.7684C99.1906 98.78 99.224 98.7844 99.2571 98.7812C99.2902 98.778 99.3221 98.7673 99.3505 98.75C99.3789 98.7327 99.403 98.7091 99.421 98.6812C99.439 98.6532 99.4504 98.6215 99.4544 98.5884L99.5644 98.1234C99.8994 96.6584 99.1944 95.4134 97.5594 94.8284Z" fill="#263238"/>
<path d="M111.785 64.5258C111.785 64.5258 113.97 67.8008 114.335 70.7158C114.646 73.2003 114.064 75.7143 112.695 77.8108C111.605 79.4458 110.515 80.9008 109.605 83.4508C108.695 86.0008 108.515 89.6358 107.24 91.4508C105.965 93.2658 105.24 95.0858 107.055 96.7258C108.87 98.3658 113.605 98.1808 116.155 93.4508C118.705 88.7208 120.34 83.6258 121.975 81.8058C123.61 79.9858 128.89 75.8058 128.89 75.8058C128.89 75.8058 143.26 73.8058 145.99 71.2608C148.72 68.7158 151.085 61.8008 151.085 61.8008" fill="white"/>
<mask id="mask5_301_47134" style="mask-type:luminance" maskUnits="userSpaceOnUse" x="105" y="61" width="47" height="37">
<path d="M111.785 64.5258C111.785 64.5258 113.97 67.8008 114.335 70.7158C114.646 73.2003 114.064 75.7143 112.695 77.8108C111.605 79.4458 110.515 80.9008 109.605 83.4508C108.695 86.0008 108.515 89.6358 107.24 91.4508C105.965 93.2658 105.24 95.0858 107.055 96.7258C108.87 98.3658 113.605 98.1808 116.155 93.4508C118.705 88.7208 120.34 83.6258 121.975 81.8058C123.61 79.9858 128.89 75.8058 128.89 75.8058C128.89 75.8058 143.26 73.8058 145.99 71.2608C148.72 68.7158 151.085 61.8008 151.085 61.8008" fill="white"/>
</mask>
<g mask="url(#mask5_301_47134)">
<path opacity="0.2" d="M150 64.25C150 64.25 142.25 69.25 136.25 70.75C130.25 72.25 126.5 72.25 124.25 75.25C122 78.25 119.75 87.75 116.75 89.5C113.75 91.25 113.25 85 109 86.25L108.86 86.3C108.445 88.25 108.08 90.25 107.24 91.455C105.965 93.275 105.24 95.09 107.055 96.73C108.87 98.37 113.605 98.185 116.155 93.455C118.705 88.725 120.34 83.63 121.975 81.81C123.61 79.99 128.89 75.81 128.89 75.81C128.89 75.81 143.26 73.81 145.99 71.265C147.64 69.725 149.155 66.595 150.095 64.355L150 64.25Z" fill="black"/>
</g>
<path d="M111.785 64.5258C111.785 64.5258 113.97 67.8008 114.335 70.7158C114.646 73.2003 114.064 75.7143 112.695 77.8108C111.605 79.4458 110.515 80.9008 109.605 83.4508C108.695 86.0008 108.515 89.6358 107.24 91.4508C105.965 93.2658 105.24 95.0858 107.055 96.7258C108.87 98.3658 113.605 98.1808 116.155 93.4508C118.705 88.7208 120.34 83.6258 121.975 81.8058C123.61 79.9858 128.89 75.8058 128.89 75.8058C128.89 75.8058 143.26 73.8058 145.99 71.2608C148.72 68.7158 151.085 61.8008 151.085 61.8008" stroke="#263238" stroke-linecap="round" stroke-linejoin="round"/>
<path d="M106.145 73.6228C106.145 73.6228 110.88 76.1678 114.335 73.2578" stroke="#263238" stroke-linecap="round" stroke-linejoin="round"/>
<path d="M122.155 98.548L117.975 90.543" stroke="#263238" stroke-linecap="round" stroke-linejoin="round"/>
<path d="M135.439 82.903C135.439 82.903 138.714 80.173 138.529 74.168" stroke="#263238" stroke-linecap="round" stroke-linejoin="round"/>
<path d="M36 231.102H234" stroke="#263238" stroke-linecap="round" stroke-linejoin="round"/>
<path d="M18.5 231.102H27.5" stroke="#263238" stroke-linecap="round" stroke-linejoin="round"/>
</svg>
