<svg width="251" height="250" viewBox="0 0 251 250" fill="none" xmlns="http://www.w3.org/2000/svg">
<path d="M152.04 22.1552C149.213 20.1291 145.9 18.8867 142.438 18.5539C138.975 18.2211 135.486 18.8098 132.325 20.2602C101.11 34.6152 -1.92004 85.2702 19.785 119.135C45.285 158.935 135.785 221.725 168.97 218.73C202.155 215.735 239.78 160.06 231.33 123.415C224.23 92.6252 176.5 39.7452 152.04 22.1552Z" fill="#005AEE"/>
<path opacity="0.7" d="M152.04 22.1552C149.213 20.1291 145.9 18.8867 142.438 18.5539C138.975 18.2211 135.486 18.8098 132.325 20.2602C101.11 34.6152 -1.92004 85.2702 19.785 119.135C45.285 158.935 135.785 221.725 168.97 218.73C202.155 215.735 239.78 160.06 231.33 123.415C224.23 92.6252 176.5 39.7452 152.04 22.1552Z" fill="white"/>
<path d="M180.97 125.97C181.735 127.8 185.015 130.795 185.02 130.795C185.025 130.795 186.335 128.035 186.395 127.85C187.1 125.705 187.2 121.14 185.15 119.655C184.803 119.418 184.41 119.257 183.997 119.182C183.584 119.106 183.16 119.118 182.751 119.217C182.343 119.316 181.96 119.5 181.628 119.756C181.295 120.012 181.02 120.336 180.82 120.705C179.925 122.25 180.32 124.415 180.97 125.97Z" fill="#263238"/>
<path d="M233.47 155.23C231.84 153.295 227.3 153.73 225.21 154.58C225.03 154.655 222.335 156.135 222.37 156.17L222.41 156.205C221.69 156.265 220.91 156.34 220.085 156.44C218.535 156.635 216.79 156.87 214.91 157.25C212.883 157.635 210.88 158.135 208.91 158.75C206.699 159.446 204.554 160.336 202.5 161.41L202.425 161.455C202.95 160.925 204.355 159.405 204.45 159.275C205.79 157.455 207.305 153.15 205.825 151.1C205.569 150.766 205.246 150.49 204.876 150.29C204.507 150.089 204.1 149.968 203.68 149.935C203.261 149.902 202.84 149.958 202.444 150.098C202.047 150.239 201.685 150.461 201.38 150.75C200.045 151.935 199.75 154.115 199.88 155.8C200.03 157.695 202.03 161.3 202.19 161.59C200.125 162.732 198.138 164.008 196.24 165.41C195.13 166.225 194.04 167.075 192.955 167.945C193.39 167.475 193.78 167.05 193.825 166.985C195.165 165.165 196.675 160.86 195.195 158.81C194.939 158.477 194.616 158.202 194.247 158.002C193.878 157.802 193.471 157.681 193.053 157.648C192.634 157.615 192.214 157.67 191.818 157.81C191.422 157.95 191.06 158.171 190.755 158.46C189.42 159.645 189.12 161.825 189.255 163.51C189.39 165.195 191.035 168.325 191.48 169.145L190.24 170.145C188.265 171.775 186.305 173.405 184.33 174.945C183.635 175.49 182.93 176 182.23 176.51C182.615 176.095 182.935 175.74 182.98 175.68C184.32 173.86 185.835 169.555 184.355 167.505C184.099 167.171 183.776 166.895 183.406 166.695C183.037 166.494 182.63 166.373 182.21 166.34C181.791 166.307 181.37 166.363 180.974 166.503C180.577 166.644 180.215 166.866 179.91 167.155C178.575 168.34 178.28 170.52 178.41 172.2C178.54 173.88 180.03 176.7 180.555 177.7C179.82 178.2 179.085 178.7 178.35 179.165C177.85 179.46 177.35 179.785 176.85 180.055L175.315 180.89C174.315 181.39 173.315 181.89 172.315 182.35C171.63 182.675 170.975 182.97 170.315 183.27C171.015 182.735 172.36 181.665 172.46 181.56C173.816 180.106 174.773 178.327 175.24 176.395C175.399 176.242 175.543 176.075 175.67 175.895C175.919 175.557 176.094 175.17 176.184 174.76C176.275 174.349 176.278 173.925 176.193 173.513C176.109 173.102 175.939 172.713 175.695 172.371C175.45 172.029 175.137 171.743 174.775 171.53C172.56 170.315 168.475 172.345 166.83 173.895C166.735 173.99 165.795 175.1 165.21 175.81C165.49 175.34 165.765 174.885 166.045 174.4C166.61 173.44 167.14 172.465 167.72 171.4C167.98 170.9 168.22 170.37 168.505 169.845C168.79 169.32 169.005 168.75 169.26 168.2C169.825 166.91 170.335 165.575 170.815 164.2C171.655 164.7 174.67 166.385 176.355 166.565C178.04 166.745 180.22 166.515 181.445 165.215C181.742 164.918 181.974 164.562 182.125 164.171C182.276 163.779 182.343 163.359 182.322 162.94C182.301 162.52 182.192 162.11 182.002 161.735C181.812 161.361 181.546 161.03 181.22 160.765C179.22 159.225 174.87 160.615 173.01 161.9C172.895 161.98 171.665 163.05 171.01 163.65C171.295 162.835 171.58 162.02 171.84 161.185C172.595 158.77 173.28 156.305 173.97 153.845C174.185 153.095 174.405 152.345 174.625 151.595C174.92 151.775 178.455 153.87 180.345 154.095C182.02 154.275 184.21 154.04 185.435 152.74C185.733 152.444 185.965 152.088 186.116 151.696C186.268 151.305 186.335 150.885 186.314 150.466C186.294 150.047 186.185 149.636 185.996 149.261C185.806 148.886 185.54 148.555 185.215 148.29C183.215 146.75 178.86 148.14 177 149.425C176.86 149.52 175.095 151.065 174.665 151.48C175.165 149.83 175.64 148.19 176.165 146.595C176.902 144.434 177.777 142.323 178.785 140.275C178.925 140.36 182.605 142.56 184.535 142.775C186.215 142.96 188.4 142.725 189.625 141.425C189.923 141.129 190.155 140.773 190.306 140.381C190.458 139.99 190.525 139.57 190.504 139.151C190.484 138.732 190.375 138.321 190.186 137.946C189.996 137.571 189.73 137.24 189.405 136.975C187.405 135.435 183.055 136.825 181.195 138.11C181.05 138.21 179.15 139.87 178.825 140.195C178.885 140.08 178.93 139.95 178.995 139.83C180.065 137.807 181.311 135.883 182.72 134.08C183.485 133.08 184.275 132.155 185.06 131.28C185.705 131.78 188.67 133.92 190.385 134.305C192.1 134.69 194.235 134.675 195.595 133.52C195.924 133.258 196.194 132.93 196.388 132.557C196.582 132.184 196.695 131.775 196.72 131.355C196.746 130.935 196.683 130.515 196.536 130.122C196.388 129.728 196.16 129.37 195.865 129.07C194.04 127.32 189.565 128.225 187.58 129.295C187.47 129.355 186.435 130.07 185.69 130.6C186.05 130.21 186.415 129.8 186.77 129.435C188.095 128.05 189.395 126.87 190.55 125.83C191.215 125.245 191.825 124.73 192.4 124.255C193.28 124.395 196.82 124.925 198.49 124.475C200.16 124.025 202.08 123.035 202.75 121.38C202.92 120.996 203.009 120.581 203.008 120.161C203.008 119.741 202.92 119.326 202.75 118.943C202.579 118.559 202.33 118.215 202.018 117.934C201.706 117.653 201.339 117.44 200.94 117.31C198.515 116.595 194.94 119.46 193.69 121.31C193.58 121.475 192.155 124.195 192.19 124.205H192.24C191.68 124.65 191.08 125.135 190.435 125.68C189.25 126.68 187.935 127.855 186.565 129.21C185.085 130.658 183.689 132.191 182.385 133.8C180.916 135.595 179.611 137.518 178.485 139.545C178.485 139.545 178.485 139.595 178.45 139.62C178.595 138.89 178.95 136.845 178.95 136.685C179.06 134.43 177.95 130 175.58 129.11C175.183 128.974 174.762 128.923 174.343 128.96C173.925 128.996 173.52 129.121 173.152 129.324C172.785 129.528 172.465 129.806 172.212 130.141C171.959 130.477 171.78 130.861 171.685 131.27C171.225 132.995 172.185 134.975 173.22 136.305C174.39 137.805 178.05 139.71 178.34 139.86C177.247 141.951 176.293 144.113 175.485 146.33C174.985 147.62 174.565 148.935 174.14 150.255C174.245 149.625 174.335 149.055 174.34 148.975C174.45 146.72 173.34 142.295 170.97 141.4C170.573 141.264 170.152 141.213 169.733 141.25C169.315 141.286 168.91 141.411 168.542 141.614C168.175 141.818 167.855 142.096 167.602 142.431C167.349 142.767 167.17 143.151 167.075 143.56C166.615 145.285 167.575 147.27 168.61 148.595C169.645 149.92 172.75 151.635 173.575 152.07C173.415 152.57 173.25 153.07 173.075 153.595C172.325 156.04 171.575 158.485 170.795 160.86C170.515 161.695 170.205 162.51 169.905 163.325C169.995 162.76 170.07 162.29 170.07 162.215C170.185 159.96 169.07 155.53 166.705 154.64C166.308 154.504 165.887 154.452 165.469 154.489C165.052 154.526 164.646 154.649 164.279 154.853C163.912 155.056 163.592 155.333 163.339 155.668C163.085 156.003 162.905 156.386 162.81 156.795C162.35 158.525 163.31 160.505 164.345 161.835C165.38 163.165 168.185 164.705 169.16 165.23C168.825 166.055 168.49 166.88 168.125 167.665C167.865 168.195 167.65 168.725 167.36 169.245C167.07 169.765 166.81 170.275 166.535 170.785C165.98 171.745 165.405 172.74 164.84 173.665C164.445 174.31 164.06 174.915 163.675 175.53C163.965 174.7 164.495 173.065 164.525 172.925C164.975 170.71 164.525 166.165 162.345 164.925C161.973 164.73 161.564 164.615 161.145 164.588C160.726 164.561 160.305 164.622 159.911 164.768C159.517 164.913 159.158 165.14 158.857 165.433C158.557 165.727 158.321 166.08 158.165 166.47C157.45 168.105 158.095 170.21 158.92 171.68C159.83 173.3 163.015 175.68 163.42 175.95C162.78 176.95 162.145 177.95 161.53 178.855C161.22 179.32 160.92 179.77 160.625 180.2L161.71 181.345C162.06 180.81 162.42 180.255 162.79 179.675C163.445 178.675 164.125 177.54 164.79 176.395C165.973 176.871 167.184 177.277 168.415 177.61C168.385 179.515 169.65 182.995 169.815 183.445C168.72 183.945 167.655 184.4 166.64 184.825C166.22 184.977 165.791 185.1 165.355 185.195L166.515 186.41C166.761 186.361 167.002 186.291 167.235 186.2C168.345 185.7 169.525 185.16 170.735 184.58C171.01 184.985 173.28 188.245 174.875 189.2C176.32 190.07 178.405 190.775 180.065 190.105C180.459 189.96 180.817 189.734 181.118 189.442C181.419 189.15 181.656 188.798 181.812 188.409C181.968 188.019 182.042 187.602 182.027 187.183C182.012 186.763 181.909 186.352 181.725 185.975C180.55 183.735 176.02 183.175 173.795 183.56C173.665 183.585 172.27 183.99 171.39 184.265C171.89 184.025 172.36 183.8 172.865 183.55C173.865 183.05 174.865 182.55 175.9 181.985L177.4 181.125C177.9 180.845 178.4 180.485 178.935 180.165C180.12 179.4 181.28 178.57 182.435 177.705C182.865 178.575 184.435 181.655 185.745 182.735C187.055 183.815 188.995 184.825 190.745 184.415C191.157 184.332 191.547 184.163 191.889 183.92C192.232 183.676 192.519 183.364 192.733 183.002C192.947 182.641 193.083 182.238 193.131 181.821C193.18 181.404 193.14 180.981 193.015 180.58C192.19 178.19 187.8 176.95 185.54 176.995C185.4 176.995 183.785 177.215 182.9 177.35C183.585 176.825 184.275 176.305 184.95 175.75C186.91 174.15 188.845 172.475 190.78 170.805C191.37 170.305 191.965 169.805 192.56 169.305C192.71 169.615 194.505 173.305 195.965 174.525C197.265 175.6 199.22 176.615 200.965 176.205C201.377 176.122 201.767 175.953 202.109 175.71C202.452 175.466 202.739 175.154 202.953 174.792C203.167 174.431 203.303 174.028 203.351 173.611C203.4 173.194 203.36 172.771 203.235 172.37C202.41 169.98 198.02 168.74 195.735 168.785C195.565 168.785 193.235 169.105 192.65 169.21C193.96 168.1 195.28 167.005 196.62 165.98C198.426 164.584 200.32 163.306 202.29 162.155C202.36 162.3 204.215 166.155 205.71 167.41C207.01 168.485 208.965 169.5 210.71 169.09C211.122 169.007 211.513 168.839 211.856 168.596C212.199 168.353 212.487 168.041 212.701 167.679C212.916 167.317 213.052 166.915 213.101 166.497C213.15 166.08 213.11 165.656 212.985 165.255C212.16 162.865 207.765 161.625 205.51 161.67C205.33 161.67 202.83 162.015 202.38 162.105C202.495 162.04 202.605 161.96 202.72 161.895C204.728 160.799 206.829 159.886 209 159.165C210.195 158.745 211.36 158.415 212.5 158.12C212.77 158.875 214.05 162.315 215.275 163.58C216.5 164.845 218.275 166.015 220.05 165.795C220.468 165.758 220.874 165.633 221.242 165.429C221.609 165.225 221.929 164.947 222.182 164.611C222.434 164.275 222.614 163.89 222.708 163.481C222.803 163.072 222.81 162.647 222.73 162.235C222.175 159.77 217.945 158.055 215.695 157.855C215.57 157.855 214.315 157.855 213.4 157.9C213.9 157.775 214.45 157.635 214.945 157.52C216.81 157.1 218.545 156.83 220.085 156.605C220.96 156.48 221.755 156.385 222.5 156.31C223.15 156.91 225.815 159.31 227.455 159.855C229.095 160.4 231.24 160.63 232.715 159.625C233.071 159.401 233.375 159.104 233.609 158.754C233.842 158.405 234 158.01 234.071 157.596C234.142 157.181 234.126 156.756 234.022 156.349C233.918 155.941 233.73 155.56 233.47 155.23Z" fill="#263238"/>
<path d="M212.77 157.705C212.77 157.75 215.395 156.13 215.55 156.01C217.32 154.605 219.915 150.855 219.05 148.51C218.89 148.122 218.651 147.773 218.347 147.483C218.044 147.194 217.683 146.971 217.288 146.83C216.893 146.689 216.473 146.631 216.055 146.663C215.637 146.694 215.23 146.812 214.86 147.01C213.255 147.805 212.395 149.825 212.08 151.485C211.69 153.395 212.77 157.705 212.77 157.705Z" fill="#263238"/>
<path d="M67.455 125.97C66.69 127.8 63.41 130.795 63.41 130.795C63.41 130.795 62.09 128.035 62.03 127.85C61.325 125.705 61.23 121.14 63.275 119.655C63.6218 119.418 64.0146 119.257 64.4277 119.182C64.8409 119.106 65.2653 119.118 65.6735 119.217C66.0816 119.316 66.4645 119.5 66.7972 119.756C67.1299 120.012 67.4051 120.336 67.605 120.705C68.5 122.25 68.105 124.415 67.455 125.97Z" fill="#263238"/>
<path d="M14.955 155.23C16.585 153.295 21.13 153.73 23.22 154.58C23.4 154.655 26.09 156.135 26.06 156.17L26.02 156.205C26.735 156.265 27.52 156.34 28.345 156.44C29.89 156.635 31.635 156.87 33.52 157.25C35.5469 157.635 37.5502 158.136 39.52 158.75C41.7337 159.439 43.8821 160.322 45.94 161.39L46.01 161.435C45.51 160.905 44.08 159.385 44.01 159.255C42.675 157.435 41.16 153.13 42.64 151.08C42.8959 150.747 43.2188 150.472 43.5878 150.272C43.9568 150.072 44.3637 149.951 44.7822 149.918C45.2007 149.885 45.6214 149.94 46.0172 150.08C46.413 150.22 46.7751 150.441 47.08 150.73C48.415 151.915 48.715 154.095 48.58 155.78C48.43 157.675 46.43 161.28 46.27 161.57C48.3352 162.711 50.3228 163.987 52.22 165.39C53.33 166.205 54.425 167.055 55.51 167.925C55.07 167.455 54.685 167.03 54.64 166.965C53.3 165.145 51.785 160.84 53.265 158.79C53.5209 158.456 53.8441 158.18 54.2135 157.98C54.583 157.779 54.9905 157.658 55.4096 157.625C55.8287 157.592 56.25 157.648 56.6463 157.788C57.0426 157.929 57.405 158.151 57.71 158.44C59.045 159.625 59.34 161.805 59.21 163.49C59.08 165.175 57.43 168.305 56.985 169.125L58.22 170.125C60.22 171.755 62.16 173.385 64.13 174.925C64.825 175.47 65.53 175.98 66.235 176.49C65.85 176.075 65.525 175.72 65.48 175.66C64.145 173.84 62.63 169.535 64.11 167.485C64.3659 167.152 64.6888 166.877 65.0578 166.677C65.4268 166.477 65.8337 166.356 66.2522 166.323C66.6707 166.29 67.0914 166.345 67.4872 166.485C67.883 166.625 68.2451 166.846 68.55 167.135C69.885 168.32 70.185 170.5 70.05 172.18C69.915 173.86 68.43 176.68 67.905 177.68C68.64 178.18 69.405 178.68 70.115 179.145C70.615 179.44 71.115 179.765 71.615 180.035L73.155 180.87C74.155 181.37 75.155 181.87 76.155 182.33C76.835 182.655 77.49 182.95 78.155 183.25C77.46 182.715 76.115 181.645 76.01 181.54C74.6576 180.084 73.7006 178.306 73.23 176.375C73.073 176.222 72.9307 176.055 72.805 175.875C72.5557 175.537 72.3801 175.151 72.2896 174.741C72.1991 174.33 72.1957 173.906 72.2796 173.495C72.3635 173.083 72.5328 172.694 72.7766 172.352C73.0204 172.01 73.3333 171.723 73.695 171.51C75.915 170.295 80 172.325 81.64 173.875C81.74 173.97 82.68 175.08 83.26 175.79C82.98 175.32 82.705 174.865 82.425 174.38C81.865 173.42 81.33 172.445 80.755 171.38L79.965 169.825C79.69 169.325 79.465 168.73 79.21 168.18C78.65 166.89 78.14 165.555 77.655 164.18C76.815 164.68 73.805 166.365 72.12 166.545C70.435 166.725 68.255 166.495 67.03 165.195C66.7324 164.899 66.5003 164.543 66.3488 164.151C66.1973 163.76 66.1298 163.34 66.1505 162.921C66.1712 162.502 66.2798 162.091 66.4692 161.716C66.6586 161.341 66.9246 161.01 67.25 160.745C69.25 159.205 73.605 160.595 75.46 161.88C75.58 161.96 76.81 163.03 77.46 163.63C77.18 162.815 76.89 162 76.63 161.165C75.88 158.75 75.195 156.285 74.5 153.825C74.29 153.075 74.065 152.325 73.85 151.575C73.55 151.755 70.015 153.85 68.13 154.075C66.45 154.255 64.265 154.02 63.04 152.72C62.7424 152.424 62.5103 152.068 62.3588 151.676C62.2073 151.285 62.1398 150.865 62.1605 150.446C62.1812 150.027 62.2898 149.616 62.4792 149.241C62.6686 148.866 62.9346 148.535 63.26 148.27C65.26 146.73 69.615 148.12 71.47 149.405C71.61 149.5 73.38 151.045 73.81 151.46C73.31 149.81 72.835 148.17 72.28 146.575C71.545 144.414 70.6698 142.302 69.66 140.255C69.525 140.34 65.845 142.54 63.91 142.755C62.235 142.94 60.045 142.705 58.82 141.405C58.5224 141.109 58.2903 140.753 58.1388 140.361C57.9873 139.97 57.9198 139.55 57.9405 139.131C57.9612 138.712 58.0698 138.301 58.2592 137.926C58.4486 137.551 58.7146 137.22 59.04 136.955C61.04 135.415 65.395 136.805 67.255 138.09C67.4 138.19 69.3 139.85 69.62 140.175C69.565 140.06 69.515 139.93 69.455 139.81C68.3853 137.787 67.1388 135.863 65.73 134.06C64.965 133.06 64.175 132.135 63.385 131.26C62.745 131.76 59.78 133.9 58.06 134.285C56.415 134.65 54.215 134.655 52.855 133.5C52.5262 133.238 52.2561 132.91 52.0622 132.537C51.8684 132.164 51.755 131.755 51.7296 131.335C51.7041 130.915 51.7671 130.495 51.9145 130.102C52.0618 129.708 52.2903 129.35 52.585 129.05C54.41 127.3 58.88 128.205 60.87 129.275C60.98 129.335 62.01 130.05 62.755 130.58C62.395 130.19 62.03 129.78 61.675 129.415C60.355 128.03 59.055 126.85 57.895 125.81C57.235 125.225 56.625 124.71 56.045 124.235C55.17 124.375 51.625 124.905 49.955 124.455C48.285 124.005 46.37 123.015 45.695 121.36C45.5278 120.978 45.4421 120.565 45.4436 120.147C45.445 119.73 45.5335 119.318 45.7034 118.936C45.8732 118.555 46.1208 118.214 46.4301 117.934C46.7395 117.654 47.1039 117.441 47.5 117.31C49.93 116.595 53.5 119.46 54.75 121.31C54.86 121.475 56.29 124.195 56.25 124.205H56.195C56.76 124.65 57.36 125.135 58.005 125.68C59.185 126.68 60.505 127.855 61.875 129.21C63.3536 130.659 64.7476 132.191 66.05 133.8C67.5186 135.595 68.8238 137.518 69.95 139.545C69.9646 139.568 69.9764 139.594 69.985 139.62C69.84 138.89 69.485 136.845 69.485 136.685C69.375 134.43 70.485 130 72.85 129.11C73.2474 128.973 73.6691 128.921 74.0879 128.958C74.5066 128.994 74.913 129.118 75.2807 129.322C75.6484 129.526 75.9692 129.804 76.2223 130.14C76.4755 130.475 76.6552 130.86 76.75 131.27C77.205 132.995 76.25 134.975 75.215 136.305C74.04 137.805 70.385 139.71 70.09 139.86C71.1845 141.951 72.1399 144.113 72.95 146.33C73.425 147.62 73.865 148.935 74.29 150.255C74.19 149.625 74.1 149.055 74.095 148.975C73.985 146.72 75.095 142.295 77.46 141.4C77.8574 141.263 78.2791 141.211 78.6979 141.248C79.1166 141.284 79.523 141.408 79.8907 141.612C80.2584 141.816 80.5792 142.094 80.8323 142.43C81.0855 142.765 81.2652 143.15 81.36 143.56C81.82 145.285 80.86 147.27 79.825 148.595C78.79 149.92 75.685 151.635 74.86 152.07C75.02 152.57 75.18 153.07 75.36 153.595C76.11 156.04 76.86 158.485 77.645 160.86C77.925 161.695 78.23 162.51 78.535 163.325C78.44 162.76 78.37 162.29 78.365 162.215C78.255 159.96 79.365 155.53 81.73 154.64C82.1271 154.503 82.5485 154.451 82.9669 154.487C83.3854 154.523 83.7916 154.647 84.1592 154.85C84.5269 155.053 84.8477 155.331 85.1011 155.666C85.3545 156.001 85.5346 156.386 85.63 156.795C86.09 158.525 85.13 160.505 84.095 161.835C83.06 163.165 80.255 164.705 79.28 165.23C79.615 166.055 79.95 166.88 80.315 167.665C80.575 168.195 80.785 168.725 81.075 169.245C81.365 169.765 81.63 170.275 81.9 170.785C82.46 171.745 83.03 172.74 83.6 173.665C83.99 174.31 84.375 174.915 84.76 175.53C84.47 174.7 83.94 173.065 83.915 172.925C83.46 170.71 83.915 166.165 86.095 164.925C86.4668 164.731 86.8752 164.616 87.2939 164.59C87.7126 164.563 88.1322 164.625 88.5256 164.77C88.919 164.916 89.2776 165.142 89.578 165.435C89.8785 165.728 90.1142 166.08 90.27 166.47C90.985 168.105 90.345 170.21 89.52 171.68C88.61 173.3 85.425 175.68 85.02 175.95C85.66 176.95 86.295 177.95 86.905 178.855C87.215 179.32 87.52 179.77 87.815 180.2L86.73 181.345C86.375 180.81 86.02 180.255 85.65 179.675C84.995 178.675 84.315 177.54 83.625 176.395C82.442 176.872 81.2315 177.278 80 177.61C80.035 179.515 78.77 182.995 78.6 183.445C79.695 183.945 80.765 184.4 81.78 184.825C82.1978 184.977 82.6255 185.101 83.06 185.195L81.905 186.41C81.6591 186.362 81.4181 186.292 81.185 186.2C80.07 185.7 78.89 185.16 77.685 184.58C77.41 184.985 75.145 188.245 73.55 189.2C72.1 190.07 70.015 190.775 68.36 190.105C67.9659 189.961 67.6066 189.735 67.3051 189.443C67.0037 189.151 66.7668 188.799 66.6099 188.41C66.453 188.021 66.3795 187.603 66.3941 187.183C66.4088 186.764 66.5113 186.352 66.695 185.975C67.875 183.735 72.4 183.175 74.625 183.56C74.76 183.585 76.155 183.99 77.03 184.265C76.53 184.025 76.06 183.8 75.56 183.55C74.56 183.05 73.56 182.55 72.525 181.985L71.025 181.125C70.525 180.845 70.025 180.485 69.485 180.165C68.305 179.4 67.145 178.57 65.985 177.705C65.555 178.575 63.985 181.655 62.675 182.735C61.365 183.815 59.42 184.825 57.675 184.415C57.2632 184.332 56.8734 184.163 56.5309 183.92C56.1885 183.676 55.9009 183.364 55.6869 183.002C55.4729 182.641 55.3373 182.238 55.2887 181.821C55.2401 181.404 55.2797 180.981 55.405 180.58C56.23 178.19 60.62 176.95 62.905 176.995C63.045 176.995 64.665 177.215 65.55 177.35C64.86 176.825 64.175 176.305 63.495 175.75C61.535 174.15 59.605 172.475 57.67 170.805C57.08 170.305 56.48 169.805 55.885 169.305C55.735 169.615 53.94 173.305 52.48 174.525C51.18 175.6 49.23 176.615 47.48 176.205C47.0682 176.122 46.6784 175.953 46.3359 175.71C45.9935 175.466 45.7059 175.154 45.4919 174.792C45.2779 174.431 45.1423 174.028 45.0937 173.611C45.0451 173.194 45.0847 172.771 45.21 172.37C46.035 169.98 50.425 168.74 52.71 168.785C52.88 168.785 55.21 169.105 55.79 169.21C54.48 168.1 53.165 167.005 51.82 165.98C50.016 164.582 48.1219 163.304 46.15 162.155C46.085 162.3 44.23 166.155 42.73 167.41C41.435 168.485 39.48 169.5 37.73 169.09C37.3182 169.007 36.9284 168.838 36.5859 168.595C36.2435 168.351 35.9559 168.039 35.7419 167.677C35.5279 167.316 35.3923 166.913 35.3437 166.496C35.2951 166.079 35.3347 165.656 35.46 165.255C36.285 162.865 40.675 161.625 42.96 161.67C43.135 161.67 45.64 162.015 46.09 162.105L45.745 161.895C43.7381 160.795 41.6363 159.878 39.465 159.155C38.27 158.735 37.105 158.405 35.965 158.11C35.695 158.865 34.415 162.305 33.195 163.57C31.975 164.835 30.195 166.005 28.415 165.785C27.997 165.747 27.5916 165.622 27.225 165.418C26.8583 165.214 26.5386 164.935 26.2865 164.599C26.0344 164.264 25.8555 163.879 25.7614 163.47C25.6672 163.061 25.6599 162.637 25.74 162.225C26.295 159.76 30.525 158.045 32.775 157.845C32.895 157.845 34.15 157.845 35.065 157.89C34.565 157.765 34.02 157.625 33.52 157.51C31.655 157.09 29.92 156.82 28.385 156.595C27.505 156.47 26.715 156.375 25.97 156.3C25.315 156.9 22.65 159.3 21.01 159.845C19.37 160.39 17.225 160.62 15.75 159.615C15.3928 159.394 15.086 159.1 14.8495 158.753C14.613 158.406 14.452 158.013 14.3771 157.599C14.3022 157.186 14.3149 156.761 14.4144 156.353C14.514 155.945 14.6981 155.562 14.955 155.23Z" fill="#263238"/>
<path d="M35.655 157.705C35.655 157.75 33.03 156.13 32.88 156.01C31.11 154.605 28.51 150.855 29.38 148.51C29.54 148.122 29.7794 147.773 30.0829 147.483C30.3864 147.194 30.7472 146.971 31.1421 146.83C31.5369 146.689 31.9569 146.631 32.3751 146.663C32.7933 146.694 33.2004 146.812 33.57 147.01C35.17 147.805 36.035 149.825 36.35 151.485C36.74 153.395 35.655 157.705 35.655 157.705Z" fill="#263238"/>
<path d="M125.28 229.905C146.642 229.905 163.96 227.812 163.96 225.23C163.96 222.648 146.642 220.555 125.28 220.555C103.918 220.555 86.6 222.648 86.6 225.23C86.6 227.812 103.918 229.905 125.28 229.905Z" fill="#263238"/>
<path d="M222.43 199.86H196.96V208.85H222.43V199.86Z" stroke="#263238" stroke-linecap="round" stroke-linejoin="round"/>
<path d="M221.63 208.835H197.76V223.31H221.63V208.835Z" stroke="#263238" stroke-linecap="round" stroke-linejoin="round"/>
<path d="M212.43 199.905H206.96V223.435H212.43V199.905Z" stroke="#263238" stroke-linecap="round" stroke-linejoin="round"/>
<path d="M209.5 199.855C209.5 199.855 206.765 194.105 203.56 194.765C200.355 195.425 201.965 200.14 209.5 199.855Z" stroke="#263238" stroke-linecap="round" stroke-linejoin="round"/>
<path d="M209.74 199.855C209.74 199.855 212.475 194.105 215.68 194.765C218.885 195.425 217.285 200.14 209.74 199.855Z" stroke="#263238" stroke-linecap="round" stroke-linejoin="round"/>
<path d="M216.87 187.69C217.055 189.01 216.395 190.425 214.415 191.275C212.435 192.125 211.415 189.775 209.325 191.935C207.235 194.095 209.74 199.855 209.74 199.855C209.74 199.855 216.585 198.915 216.87 201.555C217.155 204.195 214.98 205.42 215.645 207.025C216.31 208.63 218.38 207.495 218.565 205.705" stroke="#263238" stroke-linecap="round" stroke-linejoin="round"/>
<path d="M214.41 45.7202C221.595 45.7202 227.42 39.8954 227.42 32.7102C227.42 25.525 221.595 19.7002 214.41 19.7002C207.225 19.7002 201.4 25.525 201.4 32.7102C201.4 39.8954 207.225 45.7202 214.41 45.7202Z" stroke="#263238" stroke-linecap="round" stroke-linejoin="round"/>
<path d="M214.5 43.2502V41.5002C213.05 41.4402 211.975 40.9702 211.265 40.0852C210.555 39.2002 210.165 37.9452 210.095 36.3152L212.79 35.8152C212.807 36.3822 212.877 36.9464 213 37.5002C213.088 37.938 213.296 38.3429 213.6 38.6702C213.743 38.8088 213.914 38.9166 214.1 38.9871C214.287 39.0576 214.486 39.0893 214.685 39.0802C214.889 39.0994 215.094 39.0684 215.283 38.99C215.472 38.9115 215.64 38.788 215.77 38.6302C215.999 38.2916 216.113 37.8885 216.095 37.4802C216.128 36.8324 215.953 36.1911 215.595 35.6502C215.205 35.1222 214.755 34.6407 214.255 34.2152L212.085 32.3202C211.708 31.9845 211.363 31.6146 211.055 31.2152C210.756 30.8175 210.522 30.3755 210.36 29.9052C210.18 29.3585 210.094 28.7855 210.105 28.2102C210.073 27.6619 210.154 27.113 210.343 26.5971C210.531 26.0812 210.823 25.6092 211.2 25.2102C212 24.4583 213.052 24.0336 214.15 24.0202V22.3252H215.06V24.0002C215.679 24.017 216.286 24.1798 216.83 24.4752C217.276 24.7353 217.655 25.0967 217.935 25.5302C218.216 25.9839 218.42 26.4804 218.54 27.0002C218.676 27.5456 218.757 28.1035 218.78 28.6652L216.125 29.1302C216.106 28.6451 216.051 28.1621 215.96 27.6852C215.897 27.3143 215.733 26.9681 215.485 26.6852C215.353 26.5596 215.195 26.4652 215.022 26.4089C214.849 26.3527 214.665 26.336 214.485 26.3602C214.281 26.3533 214.078 26.3914 213.891 26.4718C213.703 26.5522 213.536 26.6728 213.4 26.8252C213.145 27.1393 213.013 27.5359 213.03 27.9402C213.008 28.4582 213.148 28.9702 213.43 29.4052C213.725 29.8065 214.06 30.1768 214.43 30.5102L216.58 32.3852C217.03 32.7959 217.449 33.2388 217.835 33.7102C218.223 34.1948 218.535 34.7361 218.76 35.3152C218.997 35.9549 219.114 36.633 219.105 37.3152C219.118 38.0195 218.963 38.7169 218.655 39.3502C218.362 39.9337 217.922 40.4314 217.38 40.7952C216.791 41.1751 216.118 41.4051 215.42 41.4652V43.2502H214.5Z" fill="#263238"/>
<path d="M48.7889 32.4275C51.1044 31.8874 52.5436 29.5725 52.0035 27.2571C51.4634 24.9417 49.1485 23.5025 46.8331 24.0426C44.5177 24.5827 43.0785 26.8975 43.6186 29.213C44.1586 31.5284 46.4735 32.9676 48.7889 32.4275Z" stroke="#263238" stroke-linecap="round" stroke-linejoin="round"/>
<path d="M53.965 40.615C53.85 36.665 51.14 33.5 47.81 33.5C44.48 33.5 41.775 36.665 41.66 40.615" stroke="#263238" stroke-linecap="round" stroke-linejoin="round"/>
<path d="M57.71 31.0848C59.6872 31.0848 61.29 29.482 61.29 27.5048C61.29 25.5276 59.6872 23.9248 57.71 23.9248C55.7328 23.9248 54.13 25.5276 54.13 27.5048C54.13 29.482 55.7328 31.0848 57.71 31.0848Z" stroke="#263238" stroke-linecap="round" stroke-linejoin="round"/>
<path d="M62.82 37.7999C62.725 34.4999 60.5 31.8799 57.71 31.8799C56.8034 31.9123 55.923 32.1922 55.1641 32.6893C54.4052 33.1864 53.7969 33.8817 53.405 34.6999" stroke="#263238" stroke-linecap="round" stroke-linejoin="round"/>
<path d="M38.0301 31.0848C40.0073 31.0848 41.6101 29.482 41.6101 27.5048C41.6101 25.5276 40.0073 23.9248 38.0301 23.9248C36.0529 23.9248 34.4501 25.5276 34.4501 27.5048C34.4501 29.482 36.0529 31.0848 38.0301 31.0848Z" stroke="#263238" stroke-linecap="round" stroke-linejoin="round"/>
<path d="M32.92 37.7999C33 34.4999 35.265 31.8799 38.03 31.8799C38.9367 31.9146 39.8168 32.1954 40.5761 32.6922C41.3353 33.189 41.9451 33.883 42.34 34.6999" stroke="#263238" stroke-linecap="round" stroke-linejoin="round"/>
<path d="M46.6753 219.033C53.7693 217.891 58.5949 211.215 57.4535 204.121C56.3121 197.027 49.6361 192.202 42.5421 193.343C35.4481 194.484 30.6225 201.16 31.7639 208.254C32.9052 215.348 39.5813 220.174 46.6753 219.033Z" stroke="#263238" stroke-linecap="round" stroke-linejoin="round"/>
<path d="M44.595 198.875V213.515" stroke="#263238" stroke-width="4" stroke-linecap="round" stroke-linejoin="round"/>
<path d="M51.915 206.195H37.275" stroke="#263238" stroke-width="4" stroke-linecap="round" stroke-linejoin="round"/>
<path d="M166.3 45.1499V196.88C166.3 198.88 165.506 200.797 164.092 202.211C162.678 203.626 160.76 204.42 158.76 204.42H93.2C91.2003 204.42 89.2825 203.626 87.8684 202.211C86.4544 200.797 85.66 198.88 85.66 196.88V45.1499C85.66 43.151 86.4537 41.234 87.8667 39.8201C89.2796 38.4062 91.1962 37.6112 93.195 37.6099H121.335L121.36 37.6999C122.06 40.1999 123.675 41.8649 125.465 41.8649H126.465C128.26 41.8649 129.875 40.2199 130.575 37.6999L130.6 37.6099H158.735C159.727 37.6066 160.71 37.7992 161.628 38.1767C162.546 38.5541 163.38 39.109 164.083 39.8095C164.786 40.5099 165.343 41.3423 165.724 42.2587C166.104 43.1751 166.3 44.1576 166.3 45.1499Z" fill="white" stroke="#263238" stroke-linecap="round" stroke-linejoin="round"/>
<path d="M171.425 81.39V66.235H170.055V46.835C170.055 43.663 168.795 40.6209 166.552 38.378C164.309 36.1351 161.267 34.875 158.095 34.875H93.86C90.688 34.875 87.646 36.1351 85.403 38.378C83.1601 40.6209 81.9 43.663 81.9 46.835V201C81.9 204.172 83.1601 207.214 85.403 209.457C87.646 211.7 90.688 212.96 93.86 212.96H158.095C161.267 212.96 164.309 211.7 166.552 209.457C168.795 207.214 170.055 204.172 170.055 201V94.305H171.425V85.35H170.055V81.39H171.425ZM166.3 192.46C166.299 195.632 165.038 198.673 162.796 200.916C160.553 203.158 157.512 204.419 154.34 204.42H97.62C94.448 204.42 91.406 203.16 89.163 200.917C86.9201 198.674 85.66 195.632 85.66 192.46V49.57C85.66 46.398 86.9201 43.3559 89.163 41.113C91.406 38.8701 94.448 37.61 97.62 37.61H121.335L121.36 37.7C122.06 40.2 123.675 41.865 125.465 41.865H126.465C128.26 41.865 129.875 40.22 130.575 37.7L130.6 37.61H154.315C155.888 37.6074 157.445 37.9147 158.899 38.5146C160.352 39.1144 161.674 39.9948 162.787 41.1056C163.9 42.2164 164.783 43.5357 165.386 44.9881C165.989 46.4405 166.299 47.9975 166.3 49.57V192.46Z" fill="#005AEE" stroke="#263238" stroke-linecap="round" stroke-linejoin="round"/>
<path d="M157.14 36.5249H94.82C93.3052 36.5249 91.8053 36.8233 90.4058 37.403C89.0063 37.9826 87.7347 38.8323 86.6636 39.9034C85.5924 40.9745 84.7428 42.2462 84.1631 43.6456C83.5834 45.0451 83.285 46.5451 83.285 48.0599V199.78C83.285 202.839 84.5003 205.773 86.6636 207.936C88.8268 210.1 91.7608 211.315 94.82 211.315H157.14C158.655 211.315 160.154 211.017 161.554 210.437C162.953 209.857 164.224 209.007 165.295 207.936C166.365 206.865 167.215 205.593 167.794 204.194C168.373 202.794 168.671 201.294 168.67 199.78V48.0599C168.671 46.5453 168.373 45.0455 167.794 43.646C167.215 42.2466 166.365 40.9749 165.295 39.9037C164.224 38.8325 162.953 37.9828 161.554 37.403C160.154 36.8233 158.655 36.5249 157.14 36.5249ZM166.3 192.885C166.3 195.944 165.085 198.878 162.922 201.041C160.758 203.205 157.824 204.42 154.765 204.42H97.195C94.1358 204.42 91.2018 203.205 89.0386 201.041C86.8753 198.878 85.66 195.944 85.66 192.885V49.1399C85.66 46.082 86.8748 43.1493 89.0371 40.987C91.1994 38.8247 94.1321 37.6099 97.19 37.6099H121.335L121.36 37.6999C122.06 40.1999 123.675 41.8649 125.465 41.8649H126.465C128.26 41.8649 129.875 40.2199 130.575 37.6999L130.6 37.6099H154.74C156.257 37.6066 157.76 37.9026 159.162 38.4808C160.564 39.059 161.839 39.9081 162.913 40.9796C163.986 42.051 164.838 43.3237 165.42 44.7249C166.001 46.126 166.3 47.628 166.3 49.1449V192.885Z" fill="#263238" stroke="#263238" stroke-linecap="round" stroke-linejoin="round"/>
<path d="M126.855 38.1852C126.856 37.9622 126.791 37.744 126.667 37.5583C126.544 37.3725 126.369 37.2275 126.163 37.1418C125.957 37.056 125.73 37.0333 125.512 37.0765C125.293 37.1198 125.092 37.227 124.934 37.3847C124.777 37.5423 124.67 37.7432 124.626 37.9619C124.583 38.1806 124.606 38.4072 124.692 38.613C124.777 38.8188 124.922 38.9944 125.108 39.1177C125.294 39.2409 125.512 39.3062 125.735 39.3052C126.032 39.3052 126.317 39.1872 126.527 38.9771C126.737 38.7671 126.855 38.4822 126.855 38.1852Z" fill="white"/>
<path d="M92.825 42.4999C92.825 43.6349 91.55 44.0449 91.545 44.9099V44.9699H92.785V45.3549H91.13V44.9999C91.13 43.7849 92.405 43.5449 92.405 42.4999C92.405 42.1149 92.28 41.9099 91.965 41.9099C91.65 41.9099 91.525 42.1299 91.525 42.4649V42.7999H91.13V42.4999C91.13 41.9249 91.395 41.5449 91.975 41.5449C92.555 41.5449 92.825 41.9099 92.825 42.4999Z" fill="#263238"/>
<path d="M94.8901 42.5002V42.5952C94.9094 42.757 94.8748 42.9206 94.7916 43.0608C94.7085 43.2009 94.5814 43.3097 94.4301 43.3702C94.5822 43.4325 94.7096 43.5431 94.7927 43.685C94.8758 43.8268 94.91 43.992 94.8901 44.1552V44.4452C94.8901 45.0202 94.6201 45.3952 94.0401 45.3952C93.4601 45.3952 93.1951 45.0202 93.1951 44.4452V44.1852H93.5851V44.4702C93.5851 44.8102 93.7251 45.0152 94.0301 45.0152C94.3351 45.0152 94.4701 44.8152 94.4701 44.4352V44.1402C94.4701 43.7702 94.3151 43.5952 93.9951 43.5802H93.7701V43.2052H94.0001C94.0638 43.2055 94.1269 43.1924 94.1852 43.1668C94.2436 43.1412 94.2959 43.1036 94.3388 43.0564C94.3817 43.0093 94.4142 42.9536 94.4342 42.8931C94.4543 42.8326 94.4614 42.7686 94.4551 42.7052V42.5002C94.4551 42.1152 94.3201 41.9152 94.0151 41.9152C93.7101 41.9152 93.5701 42.1252 93.5701 42.4652V42.6602H93.1801V42.5002C93.1801 41.9252 93.4501 41.5552 94.0251 41.5552C94.6001 41.5552 94.8901 41.9052 94.8901 42.5002Z" fill="#263238"/>
<path d="M95.7 42.7651V43.2651H95.3V42.7651H95.7ZM95.7 44.8151V45.3401H95.3V44.8151H95.7Z" fill="#263238"/>
<path d="M96.555 43.1048C96.6096 43.0056 96.6911 42.9238 96.7902 42.8689C96.8893 42.8141 97.0019 42.7884 97.115 42.7948C97.615 42.7948 97.81 43.1498 97.81 43.6848V44.4248C97.81 44.9998 97.54 45.3748 96.96 45.3748C96.38 45.3748 96.115 44.9998 96.115 44.4248V44.1698H96.5V44.4498C96.5 44.7898 96.64 44.9948 96.94 44.9948C97.24 44.9948 97.385 44.7898 97.385 44.4498V43.7198C97.385 43.3798 97.245 43.1748 96.94 43.1748C96.8853 43.1728 96.8308 43.1818 96.7796 43.2012C96.7285 43.2206 96.6817 43.25 96.6421 43.2877C96.6025 43.3255 96.5709 43.3708 96.549 43.4209C96.5272 43.4711 96.5156 43.5251 96.515 43.5798V43.6648H96.125L96.225 41.5698H97.725V41.9448H96.615L96.555 43.1048Z" fill="#263238"/>
<path d="M99.905 42.5002V42.5702H99.5V42.4502C99.5 42.1102 99.36 41.9102 99.055 41.9102C98.75 41.9102 98.595 42.1152 98.595 42.5202V43.3652C98.6385 43.2403 98.7217 43.133 98.8318 43.0599C98.942 42.9868 99.0731 42.9517 99.205 42.9602C99.705 42.9602 99.905 43.3102 99.905 43.8552V44.4252C99.905 45.0002 99.615 45.3752 99.04 45.3752C98.465 45.3752 98.175 45.0002 98.175 44.4252V42.5002C98.175 41.9052 98.445 41.5352 99.04 41.5352C99.635 41.5352 99.905 41.9002 99.905 42.5002ZM98.61 43.9102V44.4502C98.61 44.7902 98.75 44.9952 99.055 44.9952C99.36 44.9952 99.505 44.7902 99.505 44.4502V43.8852C99.505 43.5452 99.36 43.3402 99.055 43.3402C98.75 43.3402 98.61 43.5452 98.61 43.8852V43.9102Z" fill="#263238"/>
<path d="M141.045 42.6401H139.98V45.3001H141.045V42.6401Z" fill="#263238"/>
<path d="M142.465 42.1099H141.4V45.3049H142.465V42.1099Z" fill="#263238"/>
<path d="M143.88 41.73H142.815V45.3H143.88V41.73Z" fill="#263238"/>
<path d="M145.3 41.0698H144.235V45.2998H145.3V41.0698Z" fill="#263238"/>
<path d="M158.465 45.2252H152.08V41.3252H158.465V45.2252ZM152.435 44.8752H158.11V41.6802H152.435V44.8752Z" fill="#263238"/>
<path d="M156.34 42.0649H152.97V44.4849H156.34V42.0649Z" fill="#263238"/>
<path d="M159.05 42.8149H158.245V43.7349H159.05V42.8149Z" fill="#263238"/>
<path d="M149.74 44.3801C149.697 44.3803 149.656 44.3681 149.62 44.3451C148.32 43.5751 147.46 44.2901 147.425 44.3451C147.403 44.3673 147.377 44.385 147.348 44.397C147.32 44.4091 147.289 44.4153 147.257 44.4153C147.226 44.4153 147.195 44.4091 147.167 44.397C147.138 44.385 147.112 44.3673 147.09 44.3451C147.046 44.3003 147.022 44.2402 147.022 44.1776C147.022 44.115 147.046 44.0549 147.09 44.0101C147.14 43.9701 148.235 43.0101 149.845 44.0101C149.872 44.026 149.895 44.0471 149.914 44.0722C149.932 44.0972 149.946 44.1256 149.953 44.1559C149.96 44.1861 149.962 44.2175 149.957 44.2483C149.952 44.2791 149.941 44.3086 149.925 44.3351C149.899 44.3546 149.869 44.3686 149.837 44.3763C149.805 44.384 149.772 44.3853 149.74 44.3801Z" fill="#263238"/>
<path d="M150.22 43.5748C150.178 43.5744 150.137 43.5641 150.1 43.5448C148.22 42.4248 146.96 43.5098 146.945 43.5448C146.897 43.5806 146.837 43.5968 146.777 43.5903C146.717 43.5839 146.662 43.5551 146.622 43.5098C146.582 43.4645 146.561 43.4059 146.563 43.3457C146.564 43.2855 146.588 43.2281 146.63 43.1848C146.63 43.1848 148.17 41.8648 150.345 43.1848C150.372 43.2007 150.395 43.2218 150.414 43.2469C150.432 43.2719 150.446 43.3003 150.453 43.3306C150.46 43.3608 150.462 43.3922 150.457 43.423C150.452 43.4538 150.441 43.4833 150.425 43.5098C150.399 43.5362 150.366 43.5558 150.33 43.5671C150.295 43.5784 150.257 43.5811 150.22 43.5748Z" fill="#263238"/>
<path d="M150.66 42.6502C150.616 42.651 150.572 42.6389 150.535 42.6152C148.155 41.2002 146.575 42.5352 146.51 42.6152C146.487 42.6358 146.459 42.6516 146.43 42.6616C146.4 42.6715 146.368 42.6754 146.337 42.6731C146.306 42.6708 146.276 42.6622 146.248 42.648C146.22 42.6337 146.195 42.6141 146.175 42.5902C146.153 42.5683 146.135 42.5422 146.123 42.5135C146.111 42.4847 146.105 42.4538 146.105 42.4227C146.105 42.3915 146.111 42.3606 146.123 42.3319C146.135 42.3031 146.153 42.277 146.175 42.2552C146.175 42.2552 148.075 40.6352 150.76 42.2552C150.814 42.2884 150.853 42.3414 150.869 42.403C150.885 42.4645 150.876 42.5299 150.845 42.5852C150.821 42.6084 150.791 42.6262 150.759 42.6374C150.728 42.6486 150.694 42.653 150.66 42.6502Z" fill="#263238"/>
<path d="M149.025 44.7802C149.025 44.8989 148.99 45.0149 148.924 45.1135C148.858 45.2122 148.764 45.2891 148.655 45.3345C148.545 45.3799 148.424 45.3918 148.308 45.3687C148.192 45.3455 148.085 45.2884 148.001 45.2045C147.917 45.1206 147.86 45.0136 147.837 44.8972C147.813 44.7809 147.825 44.6602 147.871 44.5506C147.916 44.4409 147.993 44.3472 148.092 44.2813C148.19 44.2154 148.306 44.1802 148.425 44.1802C148.504 44.1795 148.582 44.1946 148.655 44.2245C148.729 44.2544 148.795 44.2986 148.851 44.3544C148.907 44.4103 148.951 44.4767 148.981 44.5498C149.011 44.6229 149.026 44.7012 149.025 44.7802Z" fill="#263238"/>
<path d="M46.74 65.2549H52.57" stroke="#263238" stroke-linecap="round" stroke-linejoin="round"/>
<path d="M91.9349 65.2549H97.7649" stroke="#263238" stroke-linecap="round" stroke-linejoin="round"/>
<path d="M52.5699 49.9497L55.8499 52.4997" stroke="#263238" stroke-linecap="round" stroke-linejoin="round"/>
<path d="M91.205 49.9497L87.925 52.4997" stroke="#263238" stroke-linecap="round" stroke-linejoin="round"/>
<path d="M65.6899 43.7549L66.0549 49.2199" stroke="#263238" stroke-linecap="round" stroke-linejoin="round"/>
<path d="M78.45 44.48L77.72 49.22" stroke="#263238" stroke-linecap="round" stroke-linejoin="round"/>
<path d="M86.72 58.4297H55.25V85.5847H86.72V58.4297Z" fill="white" stroke="#263238" stroke-linecap="round" stroke-linejoin="round"/>
<path d="M66.935 58.4297H61V85.5847H66.935V58.4297Z" fill="#005AEE" stroke="#263238" stroke-linecap="round" stroke-linejoin="round"/>
<path d="M86.72 58.4297H72.925V85.5847H86.72V58.4297Z" fill="white" stroke="#263238" stroke-linecap="round" stroke-linejoin="round"/>
<path d="M68.765 56.2148L64.15 54.2148C64.0368 54.2052 63.9231 54.2052 63.81 54.2148L63.735 54.1748H59.09L62.71 55.8748C62.7283 56.1291 62.7668 56.3816 62.825 56.6298C62.9462 57.0092 63.1601 57.3523 63.4473 57.6282C63.7345 57.9041 64.086 58.104 64.47 58.2098L64.5 58.3548H65L73.035 58.4648C73.035 58.4648 70.955 57.3198 68.765 56.2148Z" fill="#005AEE" stroke="#263238" stroke-linecap="round" stroke-linejoin="round"/>
<path d="M68.395 58.4297C68.395 58.4297 63.395 55.7347 60.685 54.5497C57.975 53.3647 57.88 55.1947 58.185 56.5947C58.49 57.9947 60.34 58.3197 60.34 58.3197L68.395 58.4297Z" fill="#005AEE" stroke="#263238" stroke-linecap="round" stroke-linejoin="round"/>
<path d="M69.585 56.4649H67.82C67.5684 56.4642 67.3191 56.5133 67.0864 56.6093C66.8538 56.7053 66.6424 56.8463 66.4645 57.0243C66.2865 57.2022 66.1455 57.4136 66.0495 57.6462C65.9535 57.8789 65.9044 58.1282 65.905 58.3799H71.5C71.5 57.872 71.2983 57.3849 70.9391 57.0257C70.58 56.6666 70.0929 56.4649 69.585 56.4649Z" fill="#005AEE" stroke="#263238" stroke-linecap="round" stroke-linejoin="round"/>
<path d="M80.615 54.1947H76.535L76.005 56.1947C73.815 57.2997 71.755 58.4097 71.755 58.4097L79.79 58.2997H80.29L80.315 58.1547C80.6999 58.0496 81.0524 57.85 81.3405 57.5741C81.6287 57.2982 81.8433 56.9546 81.965 56.5747C82.21 55.4347 82.18 53.9997 80.615 54.1947Z" fill="#005AEE" stroke="#263238" stroke-linecap="round" stroke-linejoin="round"/>
<path d="M66.9349 58.4297C66.9349 58.4297 71.9349 55.7347 74.6499 54.5497C77.3649 53.3647 77.4499 55.1947 77.1249 56.5947C76.7999 57.9947 74.9699 58.3197 74.9699 58.3197L66.9349 58.4297Z" fill="#005AEE" stroke="#263238" stroke-linecap="round" stroke-linejoin="round"/>
<path d="M56.275 87.5C56.275 87.5 53.645 85.75 54.22 85.195C54.795 84.64 57.62 85.86 58.265 86.695C58.91 87.53 58.585 88.09 58.05 88.14C57.515 88.19 56.275 87.5 56.275 87.5Z" fill="white" stroke="#263238" stroke-linecap="round" stroke-linejoin="round"/>
<path d="M58.5 85.46C58.5 85.46 54.4249 83.345 55.4049 85.3C56.3849 87.255 58.825 89.05 59.805 89.54C60.785 90.03 66.165 89.865 66.165 89.865C66.165 89.865 65.165 88.07 64.205 87.58C63.245 87.09 58.5 85.46 58.5 85.46Z" fill="white" stroke="#263238" stroke-linecap="round" stroke-linejoin="round"/>
<path d="M62.41 85.4601C62.41 85.4601 57.03 82.5301 56.865 83.6701C56.7 84.8101 61.105 88.5601 62.57 89.2101C63.7195 89.6353 64.9344 89.857 66.16 89.8651L62.41 85.4601Z" fill="white" stroke="#263238" stroke-linecap="round" stroke-linejoin="round"/>
<path d="M83.6 90.5001C83.6 90.5001 81.645 85.9351 80.175 85.2851C78.705 84.6351 65.505 85.9351 65.505 85.9351C65.505 85.9351 59.145 80.7201 59.635 83.3251C60.125 85.9301 64.2 89.0351 65.34 89.8251C66.48 90.6151 74.96 90.3251 74.96 90.3251L77.57 92.7701L83.6 90.5001Z" fill="white" stroke="#263238" stroke-linecap="round" stroke-linejoin="round"/>
<path d="M163.86 97.8299C163.555 98.4214 163.473 99.1031 163.63 99.7499C163.886 100.389 164.278 100.964 164.78 101.435L165.165 103.815L170.385 104.045L168.235 96.0449L163.86 97.8299Z" fill="white" stroke="#263238" stroke-linecap="round" stroke-linejoin="round"/>
<path d="M160.315 82.9998C160.315 82.9998 162.49 97.1498 162.815 97.9998C163.14 98.8498 165.645 99.8498 166.52 99.4148C167.395 98.9798 165.865 96.9148 165.865 96.9148L166.3 83.3098C166.3 83.3098 162.6 81.8998 160.315 82.9998Z" fill="#263238" stroke="#263238" stroke-linecap="round" stroke-linejoin="round"/>
<path d="M166.41 87.45C166.41 87.45 163.36 87.235 163.25 87.78C163.14 88.325 163.145 90.17 163.69 90.39C164.235 90.61 167.935 90.935 168.585 90.715C168.803 90.6045 168.996 90.4513 169.153 90.2645C169.31 90.0777 169.428 89.8611 169.499 89.6277C169.57 89.3943 169.594 89.1489 169.568 88.9062C169.543 88.6634 169.469 88.4284 169.35 88.215C168.695 87.235 166.41 87.45 166.41 87.45Z" fill="white" stroke="#263238" stroke-linecap="round" stroke-linejoin="round"/>
<path d="M166.41 90.9351C166.41 90.9351 163.47 90.9351 163.58 91.5851C163.69 92.2351 163.36 93.6551 164.58 93.8751C166.027 94.055 167.494 94.0179 168.93 93.7651C169.175 93.7197 169.401 93.6044 169.581 93.433C169.761 93.2617 169.888 93.0417 169.945 92.7998C170.003 92.5579 169.989 92.3044 169.906 92.0702C169.822 91.8359 169.673 91.631 169.475 91.4801C168.585 90.7151 166.41 90.9351 166.41 90.9351Z" fill="white" stroke="#263238" stroke-linecap="round" stroke-linejoin="round"/>
<path d="M161.685 91.77C161.685 91.77 161.31 89.03 160.425 89.105C159.765 89.16 158.19 89.66 158.335 90.865C158.584 92.3035 159.049 93.6959 159.715 94.995C159.83 95.2156 160.007 95.3981 160.224 95.5202C160.44 95.6424 160.688 95.6989 160.936 95.683C161.185 95.6672 161.423 95.5795 161.623 95.4307C161.822 95.282 161.974 95.0785 162.06 94.845C162.535 93.79 161.685 91.77 161.685 91.77Z" fill="white" stroke="#263238" stroke-linecap="round" stroke-linejoin="round"/>
<path d="M166.575 93.8698C166.575 93.8698 163.915 93.8698 164.015 94.4998C164.115 95.1298 163.815 96.4998 164.9 96.6998C166.211 96.8713 167.54 96.8358 168.84 96.5948C169.068 96.5395 169.276 96.4217 169.44 96.2547C169.605 96.0877 169.719 95.8782 169.771 95.6496C169.823 95.421 169.81 95.1825 169.734 94.9608C169.658 94.7391 169.521 94.5431 169.34 94.3948C168.545 93.6648 166.575 93.8698 166.575 93.8698Z" fill="white" stroke="#263238" stroke-linecap="round" stroke-linejoin="round"/>
<path d="M166.7 96.2601C166.7 96.2601 164.475 96.2601 164.56 96.7601C164.645 97.2601 164.395 98.4251 165.3 98.6001C166.396 98.7479 167.508 98.7192 168.595 98.5151C168.785 98.4674 168.957 98.3679 169.094 98.2277C169.23 98.0876 169.325 97.9123 169.367 97.7215C169.41 97.5306 169.398 97.3317 169.334 97.147C169.27 96.9622 169.156 96.7988 169.005 96.6751C168.35 96.0851 166.7 96.2601 166.7 96.2601Z" fill="white" stroke="#263238" stroke-linecap="round" stroke-linejoin="round"/>
<path d="M159.71 68.6699C158.3 68.675 156.92 69.0806 155.731 69.8396C154.542 70.5985 153.593 71.6795 152.995 72.9568C152.397 74.234 152.173 75.6549 152.351 77.0541C152.529 78.4532 153.101 79.7731 154 80.8599C155.365 82.5049 157.6 83.6849 159.73 83.5499C166.26 83.1499 183.38 92.3199 183.38 92.3199V59.8999C183.38 59.8999 166.5 68.8049 159.71 68.6699Z" fill="white" stroke="#263238" stroke-linecap="round" stroke-linejoin="round"/>
<path d="M158.38 76.3747C158.38 74.7009 158.831 73.0581 159.687 71.6194C160.542 70.1807 161.769 68.9993 163.24 68.1997C162.086 68.496 160.901 68.6538 159.71 68.6697C158.3 68.6748 156.92 69.0805 155.731 69.8394C154.542 70.5983 153.593 71.6794 152.995 72.9566C152.397 74.2338 152.173 75.6547 152.351 77.0539C152.529 78.453 153.101 79.7729 154 80.8597C155.365 82.5047 157.6 83.6847 159.73 83.5497C160.487 83.5201 161.244 83.5721 161.99 83.7047C160.869 82.8394 159.961 81.7289 159.335 80.4584C158.709 79.1879 158.382 77.791 158.38 76.3747Z" fill="#005AEE" stroke="#263238" stroke-linecap="round" stroke-linejoin="round"/>
<path d="M199.102 79.9357C201.22 71.2371 195.884 62.4692 187.186 60.3519C178.487 58.2346 169.719 63.5698 167.602 72.2684C165.485 80.967 170.82 89.7349 179.518 91.8522C188.217 93.9695 196.985 88.6343 199.102 79.9357Z" fill="white" stroke="#263238" stroke-linecap="round" stroke-linejoin="round"/>
<path d="M197.175 76.1099C197.176 78.8435 196.366 81.5159 194.848 83.7893C193.33 86.0626 191.172 87.8347 188.647 88.8815C186.122 89.9283 183.343 90.2027 180.662 89.67C177.981 89.1373 175.518 87.8215 173.585 85.8889C171.651 83.9563 170.335 81.4939 169.801 78.8129C169.267 76.132 169.541 73.353 170.587 70.8274C171.632 68.3018 173.404 66.1431 175.677 64.6244C177.949 63.1056 180.621 62.2949 183.355 62.2949C187.019 62.2962 190.533 63.752 193.124 66.3424C195.715 68.9328 197.172 72.4459 197.175 76.1099Z" fill="#A6A6A6" stroke="#263238" stroke-linecap="round" stroke-linejoin="round"/>
<path d="M183.355 72.7347V79.4997L172.725 84.9447C171.106 82.9891 170.056 80.6257 169.69 78.1132C169.324 75.6007 169.656 73.036 170.65 70.6997L183.355 72.7347Z" fill="white" stroke="#263238" stroke-linecap="round" stroke-linejoin="round"/>
<path d="M186.73 76.1099C186.73 76.7776 186.532 77.4303 186.161 77.9854C185.79 78.5406 185.262 78.9731 184.645 79.2284C184.028 79.4837 183.35 79.5503 182.695 79.4196C182.04 79.289 181.439 78.9671 180.967 78.4946C180.495 78.0221 180.174 77.4202 180.044 76.7652C179.915 76.1102 179.982 75.4315 180.238 74.8148C180.495 74.1982 180.928 73.6715 181.484 73.3012C182.039 72.931 182.692 72.7339 183.36 72.7349C184.254 72.7362 185.111 73.0924 185.743 73.7251C186.375 74.3579 186.73 75.2156 186.73 76.1099Z" fill="white" stroke="#263238" stroke-linecap="round" stroke-linejoin="round"/>
<path d="M164.07 104.03L163.53 101.765L170.54 100.9L170.385 104.045L164.07 104.03Z" fill="white" stroke="#263238" stroke-linecap="round" stroke-linejoin="round"/>
<path d="M77.15 93.6751L75.535 91.0851L82.975 87.3101L83.6 90.4851L77.15 93.6751Z" fill="white" stroke="#263238" stroke-linecap="round" stroke-linejoin="round"/>
<path d="M122.375 89.93C122.375 89.93 110.415 88.6 109.375 89.13C108.335 89.66 93.165 107.6 93.165 107.6L83.845 89L76 92.45C76 92.45 85.83 125.95 87.425 126.33C89.02 126.71 104.165 116.635 104.165 116.635L103.235 129.92C103.235 129.92 106.025 141.08 118.385 143.205C130.745 145.33 138.045 135.765 139.64 132.575C140.828 130.033 141.848 127.415 142.695 124.74L148.41 107.865C148.41 107.865 164.5 121 168.08 122.61C171.66 124.22 174.985 125.67 175.385 124.87C175.785 124.07 171.8 102.815 171.8 102.815L163.3 103.215L163.7 106.535C163.7 106.535 152.67 92.035 151.74 90.59C150.81 89.145 148.02 89.395 144.7 88.465C141.38 87.535 122.375 89.93 122.375 89.93Z" fill="#005AEE" stroke="#263238" stroke-linecap="round" stroke-linejoin="round"/>
<path d="M104.17 116.635L113.075 109.99" stroke="#263238" stroke-linecap="round" stroke-linejoin="round"/>
<path d="M109.885 112.515L114.4 111.715" stroke="#263238" stroke-linecap="round" stroke-linejoin="round"/>
<path d="M148.415 107.865L151.47 97.1001" stroke="#263238" stroke-linecap="round" stroke-linejoin="round"/>
<path d="M149.61 104.41L152.93 99.7598" stroke="#263238" stroke-linecap="round" stroke-linejoin="round"/>
<path d="M164.09 114.27L164.225 116.9" stroke="#263238" stroke-linecap="round" stroke-linejoin="round"/>
<path d="M163.695 106.535L163.935 111.27" stroke="#263238" stroke-linecap="round" stroke-linejoin="round"/>
<path d="M93.145 107.6L95.935 113.445" stroke="#263238" stroke-linecap="round" stroke-linejoin="round"/>
<path d="M126.89 88.465L121.045 89.53C121.045 89.53 118.92 91.255 117.725 95.24C116.999 97.6744 116.466 100.162 116.13 102.68L121.18 102.95L117.18 106.95C117.18 106.95 118.38 108.675 120.9 112.395C122.891 115.2 125.062 117.872 127.4 120.395L120 129.92C120 129.92 129.035 127.92 134.615 121.815C140.195 115.71 143.5 106.535 143.5 106.535L139.115 103.08L143.765 102.15C143.765 102.15 144.695 94.58 139.765 89.65C134.835 84.72 126.89 88.465 126.89 88.465Z" fill="#005AEE" stroke="#263238" stroke-linecap="round" stroke-linejoin="round"/>
<path d="M140.045 91.6548C140.045 91.6548 138.495 94.7248 138.185 100.425C137.945 104.875 135.61 110.545 133.55 114.555C131.915 117.745 130.45 119.885 130.345 119.555C130.345 119.555 129.485 118.175 128.11 114.155C127.775 113.195 127.415 112.075 127.025 110.78C125.025 104.135 123.305 93.3748 124.1 91.2498C124.473 90.2023 124.917 89.1816 125.43 88.1948C131.81 96.8348 140.045 91.6548 140.045 91.6548Z" fill="white" stroke="#263238" stroke-linecap="round" stroke-linejoin="round"/>
<path d="M131.94 109.86L133.55 114.555C131.915 117.745 130.45 119.885 130.345 119.555C130.345 119.555 129.485 118.175 128.11 114.155L130.345 110.12L128.125 105.965L130.745 103.34L134.33 106.93L131.94 109.86Z" fill="#263238" stroke="#263238" stroke-linecap="round" stroke-linejoin="round"/>
<path d="M126.36 107.865L130.745 103.345L136.085 108.385" stroke="#263238" stroke-linecap="round" stroke-linejoin="round"/>
<path d="M125.43 88.1997C125.579 90.8765 126.117 93.5173 127.025 96.0397C128.031 98.5869 129.277 101.033 130.745 103.345L137 94.4447C137 94.4447 130.215 95.1097 125.43 88.1997Z" stroke="#263238" stroke-linecap="round" stroke-linejoin="round"/>
<path d="M144.435 74.12C144.435 74.12 146.335 73.825 146.335 76.42C146.335 79.015 145.235 82.21 145.235 82.21L144.435 74.12Z" fill="white" stroke="#263238" stroke-linecap="round" stroke-linejoin="round"/>
<path d="M143.765 64.5498C143.765 64.5498 145.095 76.6398 145.225 80.2298C145.355 83.8198 144.96 87.0048 143.765 88.5998C142.57 90.1948 137.765 96.5698 135.265 96.8348C132.765 97.0998 129.95 95.7748 128.89 94.8348C127.83 93.8948 122.775 85.9298 122.775 85.9298C122.775 85.9298 118.925 85.6648 117.995 80.6148C117.065 75.5648 122.245 76.7648 122.245 76.7648C122.245 76.7648 119.455 72.3798 119.19 68.1298C118.925 63.8798 118.125 62.2798 129.555 62.0148C140.985 61.7498 143.765 64.5498 143.765 64.5498Z" fill="white" stroke="#263238" stroke-linecap="round" stroke-linejoin="round"/>
<path d="M137.785 73.0547L140.975 84.0797L136.06 82.6197" stroke="#263238" stroke-linecap="round" stroke-linejoin="round"/>
<path d="M131.145 81.29L127.29 82.09" stroke="#263238" stroke-linecap="round" stroke-linejoin="round"/>
<path d="M129.285 81.9551C129.655 83.0834 130.338 84.0829 131.256 84.8365C132.173 85.5901 133.286 86.0666 134.465 86.2101C138.715 86.8701 140.84 86.0751 140.84 86.0751" stroke="#263238" stroke-linecap="round" stroke-linejoin="round"/>
<path d="M130.345 84.0801C130.345 84.0801 130.215 90.7251 132.605 90.9901C134.995 91.2551 134.465 86.2101 134.465 86.2101C132.956 85.801 131.551 85.0748 130.345 84.0801Z" fill="#263238" stroke="#263238" stroke-linecap="round" stroke-linejoin="round"/>
<path d="M130.835 88.6748C131.16 89.8848 131.705 90.8898 132.605 90.9898C132.831 91.0218 133.062 90.9922 133.273 90.9042C133.485 90.8163 133.668 90.6731 133.805 90.4898C133.34 89.6748 131.735 88.9998 130.835 88.6748Z" fill="white" stroke="#263238" stroke-linecap="round" stroke-linejoin="round"/>
<path d="M132 76.1098C132 76.8448 131.675 77.4398 131.27 77.4398C130.865 77.4398 130.54 76.8448 130.54 76.1098C130.54 75.3748 130.865 74.7798 131.27 74.7798C131.675 74.7798 132 75.3748 132 76.1098Z" fill="#263238"/>
<path d="M140.91 74.915C140.91 75.65 140.58 76.245 140.175 76.245C139.77 76.245 139.445 75.65 139.445 74.915C139.445 74.18 139.775 73.585 140.175 73.585C140.575 73.585 140.91 74.18 140.91 74.915Z" fill="#263238"/>
<path d="M128.885 73.8497C129.506 73.1442 130.293 72.6046 131.174 72.2798C132.056 71.9551 133.005 71.8553 133.935 71.9897" stroke="#263238" stroke-linecap="round" stroke-linejoin="round"/>
<path d="M138.185 71.4601C138.185 71.4601 139.91 68.2701 142.685 69.8651" stroke="#263238" stroke-linecap="round" stroke-linejoin="round"/>
<path d="M129.68 64.8151C129.68 64.8151 125.565 64.1501 126.495 65.3501C127.425 66.5501 129.55 68.0051 128.495 68.9351C127.44 69.8651 124.775 71.4351 124.91 72.2551C125.045 73.0751 125.305 76.3751 124.91 77.1751C124.515 77.9751 123.58 78.1051 122.65 77.9701C121.72 77.8351 120.39 75.4451 119.86 74.7801C119.33 74.1151 114.545 69.3351 115.475 65.4801C116.405 61.6251 126.37 58.5701 126.37 58.5701C126.37 58.5701 132.735 51.4001 137 51.2651C141.265 51.1301 139.655 55.1201 139.5 55.5151C139.345 55.9101 145.61 55.1201 146.805 58.9701C148 62.8201 147.605 63.8851 142.155 65.3501C136.705 66.8151 129.68 64.8151 129.68 64.8151Z" fill="#263238" stroke="#263238" stroke-linecap="round" stroke-linejoin="round"/>
<path d="M213.49 59.5098L202.66 62.3098L204.9 63.4298L198.74 65.2998L211.245 63.6198L208.075 62.1248L213.49 59.5098Z" fill="#263238"/>
<path d="M215.71 85.8749L204.755 83.6099L206.275 85.5999L199.92 84.5599L211.885 88.5699L209.695 85.8299L215.71 85.8749Z" fill="#263238"/>
<path d="M203.93 103.93L194.705 97.6L195.335 100.025L189.88 96.605L199.36 104.94L198.405 101.565L203.93 103.93Z" fill="#263238"/>
<path d="M104.12 168.9V153.595H107.785C108.672 153.572 109.557 153.696 110.405 153.96C111.078 154.175 111.654 154.622 112.03 155.22C112.439 155.957 112.633 156.793 112.59 157.635C112.595 158.194 112.538 158.753 112.42 159.3C112.32 159.757 112.122 160.187 111.84 160.56C111.544 160.923 111.155 161.199 110.715 161.36L112.85 168.9H110.055L108.205 161.9H106.92V168.9H104.12ZM106.92 160.13H107.785C108.229 160.151 108.672 160.071 109.08 159.895C109.4 159.743 109.648 159.472 109.77 159.14C109.923 158.714 109.995 158.263 109.98 157.81C110.024 157.203 109.876 156.597 109.555 156.08C109.27 155.695 108.73 155.5 107.94 155.5H106.94L106.92 160.13Z" fill="#005AEE"/>
<path d="M114.685 168.9V153.595H121.11V155.56H117.5V159.96H120.35V161.91H117.5V167H121.165V168.925L114.685 168.9Z" fill="#005AEE"/>
<path d="M122.775 168.9V153.595H129.07V155.5H125.57V160H128.425V161.95H125.57V168.9H122.775Z" fill="#005AEE"/>
<path d="M130.525 168.9V153.595H136.95V155.56H133.32V159.96H136.175V161.91H133.32V167H137V168.925L130.525 168.9Z" fill="#005AEE"/>
<path d="M138.615 168.9V153.595H142.28C143.166 153.572 144.049 153.696 144.895 153.96C145.57 154.174 146.147 154.621 146.525 155.22C146.932 155.957 147.125 156.794 147.08 157.635C147.087 158.195 147.03 158.753 146.91 159.3C146.811 159.756 146.615 160.186 146.335 160.56C146.039 160.923 145.65 161.199 145.21 161.36L147.345 168.9H144.545L142.695 161.9H141.41V168.9H138.615ZM141.41 160.13H142.28C142.724 160.15 143.167 160.07 143.575 159.895C143.893 159.74 144.14 159.47 144.265 159.14C144.414 158.713 144.484 158.262 144.47 157.81C144.514 157.203 144.366 156.597 144.045 156.08C143.765 155.695 143.225 155.5 142.43 155.5H141.43L141.41 160.13Z" fill="#005AEE"/>
<path d="M92.47 188.58L95.53 173.275H98.53L101.595 188.58H99L98.395 185.05H95.73L95.105 188.58H92.47ZM96 183.27H98.075L97.035 176.845L96 183.27Z" fill="#005AEE"/>
<path d="M107.625 188.58V173.275H113.92V175.2H110.42V179.66H113.27V181.61H110.42V188.58H107.625Z" fill="#005AEE"/>
<path d="M115.375 188.58V173.275H119.04C119.927 173.253 120.812 173.376 121.66 173.64C122.333 173.855 122.909 174.302 123.285 174.9C123.692 175.637 123.885 176.474 123.84 177.315C123.846 177.874 123.791 178.433 123.675 178.98C123.575 179.437 123.377 179.867 123.095 180.24C122.799 180.603 122.41 180.879 121.97 181.04L124.105 188.58H121.31L119.46 181.58H118.175V188.58H115.375ZM118.175 179.815H119.04C119.484 179.835 119.927 179.753 120.335 179.575C120.654 179.422 120.902 179.152 121.025 178.82C121.178 178.394 121.25 177.943 121.235 177.49C121.276 176.883 121.128 176.279 120.81 175.76C120.525 175.375 119.985 175.18 119.195 175.18H118.195L118.175 179.815Z" fill="#005AEE"/>
<path d="M126 188.58V173.275H128.76V188.58H126Z" fill="#005AEE"/>
<path d="M131.14 188.58V173.275H137.565V175.24H133.935V179.64H136.79V181.59H133.935V186.655H137.6V188.58H131.14Z" fill="#005AEE"/>
<path d="M139.225 188.58V173.275H141.175L144.895 182V173.275H147.205V188.58H145.35L141.61 179.435V188.58H139.225Z" fill="#005AEE"/>
<path d="M149.525 188.58V173.275H153.135C154.135 173.225 155.133 173.396 156.06 173.775C156.737 174.092 157.272 174.65 157.56 175.34C157.882 176.197 158.034 177.11 158.005 178.025V183.62C158.032 184.563 157.881 185.503 157.56 186.39C157.282 187.106 156.747 187.692 156.06 188.035C155.173 188.432 154.205 188.616 153.235 188.57L149.525 188.58ZM152.325 186.635H153.175C153.66 186.677 154.145 186.558 154.555 186.295C154.844 186.039 155.023 185.68 155.055 185.295C155.125 184.765 155.157 184.23 155.15 183.695V177.845C155.162 177.342 155.117 176.838 155.015 176.345C154.989 176.177 154.931 176.016 154.842 175.871C154.754 175.726 154.638 175.6 154.5 175.5C154.083 175.294 153.619 175.202 153.155 175.235H152.345L152.325 186.635Z" fill="#005AEE"/>
</svg>
