 <svg width="251" height="250" viewBox="0 0 251 250" fill="none" xmlns="http://www.w3.org/2000/svg">
<path d="M189.535 43.7149C164.785 29.5699 142.865 41.2149 131.9 53.6149C120.935 66.0149 112.765 78.5399 98.9997 80.8399C85.2347 83.1399 64.3497 77.3049 48.7897 88.2649C33.2297 99.2249 33.2897 128.335 45.6097 144.84C57.9297 161.345 89.8047 169.235 126.58 174.54C139.775 176.539 153.241 175.791 166.135 172.345L182.84 166.28C191 162.555 197.84 158.36 203.63 154.955C212.44 149.755 215.545 137.08 217.23 127.795C219.676 113.881 219.464 99.6298 216.605 85.7949C212.915 68.3649 204.5 52.2599 189.535 43.7149Z" fill="#005AEE"/>
<path opacity="0.8" d="M189.535 43.7149C164.785 29.5699 142.865 41.2149 131.9 53.6149C120.935 66.0149 112.765 78.5399 98.9997 80.8399C85.2347 83.1399 64.3497 77.3049 48.7897 88.2649C33.2297 99.2249 33.2897 128.335 45.6097 144.84C57.9297 161.345 89.8047 169.235 126.58 174.54C139.775 176.539 153.241 175.791 166.135 172.345L182.84 166.28C191 162.555 197.84 158.36 203.63 154.955C212.44 149.755 215.545 137.08 217.23 127.795C219.676 113.881 219.464 99.6298 216.605 85.7949C212.915 68.3649 204.5 52.2599 189.535 43.7149Z" fill="white"/>
<path opacity="0.8" d="M227.37 61.0397C226.81 51.7997 220.5 48.7697 216.5 53.1697C215.549 54.2431 214.913 55.5573 214.66 56.9684C214.406 58.3795 214.547 59.833 215.065 61.1697C216.47 64.9647 218.885 71.6997 220.325 76.9697C222.445 84.7497 221.735 90.7597 224.21 87.5797C226.685 84.3997 228.075 72.7097 227.37 61.0397Z" fill="#005AEE"/>
<path opacity="0.8" d="M227.37 61.0397C226.81 51.7997 220.5 48.7697 216.5 53.1697C215.549 54.2431 214.913 55.5573 214.66 56.9684C214.406 58.3795 214.547 59.833 215.065 61.1697C216.47 64.9647 218.885 71.6997 220.325 76.9697C222.445 84.7497 221.735 90.7597 224.21 87.5797C226.685 84.3997 228.075 72.7097 227.37 61.0397Z" fill="white"/>
<path d="M120.59 59.6249C124.475 58.9199 129.425 49.7249 135.79 45.8349C142.155 41.9449 136.5 39.1149 130.5 41.9449C130.5 41.9449 125.9 43.0049 122.365 50.0799C118.83 57.1549 116.7 60.3299 120.59 59.6249Z" fill="#005AEE"/>
<path opacity="0.8" d="M120.59 59.6249C124.475 58.9199 129.425 49.7249 135.79 45.8349C142.155 41.9449 136.5 39.1149 130.5 41.9449C130.5 41.9449 125.9 43.0049 122.365 50.0799C118.83 57.1549 116.7 60.3299 120.59 59.6249Z" fill="white"/>
<path d="M114.224 54.675C117.379 53.41 120.819 44.82 117.224 45.26C116.77 45.3258 116.341 45.5077 115.977 45.7879C115.614 46.0682 115.329 46.4374 115.149 46.86C113.999 49.415 111.384 55.81 114.224 54.675Z" fill="#005AEE"/>
<path opacity="0.8" d="M114.224 54.675C117.379 53.41 120.819 44.82 117.224 45.26C116.77 45.3258 116.341 45.5077 115.977 45.7879C115.614 46.0682 115.329 46.4374 115.149 46.86C113.999 49.415 111.384 55.81 114.224 54.675Z" fill="white"/>
<path d="M133.49 214.595C189.359 214.595 234.65 212.912 234.65 210.835C234.65 208.759 189.359 207.075 133.49 207.075C77.6208 207.075 32.33 208.759 32.33 210.835C32.33 212.912 77.6208 214.595 133.49 214.595Z" fill="#005AEE"/>
<path opacity="0.8" d="M133.49 214.595C189.359 214.595 234.65 212.912 234.65 210.835C234.65 208.759 189.359 207.075 133.49 207.075C77.6208 207.075 32.33 208.759 32.33 210.835C32.33 212.912 77.6208 214.595 133.49 214.595Z" fill="white"/>
<path d="M182.11 69.5C181.911 69.5 181.721 69.579 181.58 69.7197C181.439 69.8603 181.36 70.0511 181.36 70.25V74.095H167.655V70.25C167.655 70.0511 167.576 69.8603 167.436 69.7197C167.295 69.579 167.104 69.5 166.905 69.5C166.706 69.5 166.516 69.579 166.375 69.7197C166.234 69.8603 166.155 70.0511 166.155 70.25V167.1C166.155 167.299 166.234 167.49 166.375 167.63C166.516 167.771 166.706 167.85 166.905 167.85C167.104 167.85 167.295 167.771 167.436 167.63C167.576 167.49 167.655 167.299 167.655 167.1V145.435H181.36V167.1C181.36 167.299 181.439 167.49 181.58 167.63C181.721 167.771 181.911 167.85 182.11 167.85C182.309 167.85 182.5 167.771 182.641 167.63C182.781 167.49 182.86 167.299 182.86 167.1V70.235C182.856 70.0387 182.776 69.8518 182.635 69.7143C182.495 69.5769 182.307 69.5 182.11 69.5ZM181.36 143.95H167.655V139.09H181.36V143.95ZM181.36 137.585H167.655V132.73H181.36V137.585ZM181.36 131.225H167.655V126.385H181.36V131.225ZM181.36 124.87H167.655V120.05H181.36V124.87ZM181.36 118.52H167.655V113.755H181.36V118.52ZM181.36 112.19H167.655V107.395H181.36V112.19ZM181.36 105.89H167.655V101.05H181.36V105.89ZM181.36 99.53H167.655V94.69H181.36V99.53ZM181.36 93.185H167.655V88.33H181.36V93.185ZM181.36 86.825H167.655V81.96H181.36V86.825ZM181.36 80.46H167.655V75.595H181.36V80.46Z" fill="white"/>
<path d="M52.2905 147.58C52.2905 147.58 63.5155 132.215 58.0405 128.58C52.3455 124.825 49.6705 136.2 48.4655 141.785C45.8955 153.705 46.6205 156.235 48.3455 153.615L52.2905 147.58Z" fill="#005AEE"/>
<path opacity="0.5" d="M52.2905 147.58C52.2905 147.58 63.5155 132.215 58.0405 128.58C52.3455 124.825 49.6705 136.2 48.4655 141.785C45.8955 153.705 46.6205 156.235 48.3455 153.615L52.2905 147.58Z" fill="white"/>
<path d="M56.5008 157.03C56.5008 157.03 72.1058 146.14 68.1008 140.95C63.9358 135.545 57.7108 145.45 54.7558 150.33C48.4508 160.77 48.3208 163.4 50.8008 161.48L56.5008 157.03Z" fill="#005AEE"/>
<path opacity="0.5" d="M56.5008 157.03C56.5008 157.03 72.1058 146.14 68.1008 140.95C63.9358 135.545 57.7108 145.45 54.7558 150.33C48.4508 160.77 48.3208 163.4 50.8008 161.48L56.5008 157.03Z" fill="white"/>
<path d="M56.8401 169.66C56.8401 169.66 70.3401 163.595 68.0351 159.045C65.6351 154.31 59.4401 160.97 56.4751 164.28C50.1401 171.35 49.6601 173.34 51.8351 172.235L56.8401 169.66Z" fill="#005AEE"/>
<path opacity="0.5" d="M56.8401 169.66C56.8401 169.66 70.3401 163.595 68.0351 159.045C65.6351 154.31 59.4401 160.97 56.4751 164.28C50.1401 171.35 49.6601 173.34 51.8351 172.235L56.8401 169.66Z" fill="white"/>
<path d="M57.6402 182.345C57.6402 182.345 71.1402 176.28 68.8402 171.73C66.4352 167 60.2452 173.655 57.2752 176.97C50.9452 184.04 50.4602 186.03 52.6402 184.92L57.6402 182.345Z" fill="#005AEE"/>
<path opacity="0.5" d="M57.6402 182.345C57.6402 182.345 71.1402 176.28 68.8402 171.73C66.4352 167 60.2452 173.655 57.2752 176.97C50.9452 184.04 50.4602 186.03 52.6402 184.92L57.6402 182.345Z" fill="white"/>
<path d="M41.8058 154C41.8058 154 26.9658 142.085 23.1108 147.385C19.1108 152.885 30.3408 156.1 35.8658 157.56C47.6558 160.675 50.2158 160.06 47.6758 158.22L41.8058 154Z" fill="#005AEE"/>
<path opacity="0.5" d="M41.8058 154C41.8058 154 26.9658 142.085 23.1108 147.385C19.1108 152.885 30.3408 156.1 35.8658 157.56C47.6558 160.675 50.2158 160.06 47.6758 158.22L41.8058 154Z" fill="white"/>
<path d="M42.2455 163.955C42.2455 163.955 25.3355 155.225 22.6105 161.19C19.7755 167.395 31.4255 168.295 37.1105 168.625C49.2855 169.335 51.6755 168.225 48.8205 166.925L42.2455 163.955Z" fill="#005AEE"/>
<path opacity="0.5" d="M42.2455 163.955C42.2455 163.955 25.3355 155.225 22.6105 161.19C19.7755 167.395 31.4255 168.295 37.1105 168.625C49.2855 169.335 51.6755 168.225 48.8205 166.925L42.2455 163.955Z" fill="white"/>
<path d="M44.2908 175.115C44.2908 175.115 29.7908 168.115 27.6258 173.23C25.3708 178.545 35.2408 179.035 40.0758 179.18C50.3858 179.5 52.3808 178.5 49.9358 177.5L44.2908 175.115Z" fill="#005AEE"/>
<path opacity="0.5" d="M44.2908 175.115C44.2908 175.115 29.7908 168.115 27.6258 173.23C25.3708 178.545 35.2408 179.035 40.0758 179.18C50.3858 179.5 52.3808 178.5 49.9358 177.5L44.2908 175.115Z" fill="white"/>
<path d="M45.0001 184.13C45.0001 184.13 31.3201 175.63 28.6251 180.485C25.8201 185.53 35.5851 187.065 40.3751 187.725C50.5951 189.135 52.6801 188.36 50.3751 187.075L45.0001 184.13Z" fill="#005AEE"/>
<path opacity="0.5" d="M45.0001 184.13C45.0001 184.13 31.3201 175.63 28.6251 180.485C25.8201 185.53 35.5851 187.065 40.3751 187.725C50.5951 189.135 52.6801 188.36 50.3751 187.075L45.0001 184.13Z" fill="white"/>
<path d="M43.7057 138.905C43.7057 138.905 41.1357 116.59 32.7057 118.87C23.9507 121.25 31.2807 132.54 35.0007 138C42.9057 149.62 45.8157 150.9 45.1907 147.27L43.7057 138.905Z" fill="#005AEE"/>
<path opacity="0.5" d="M43.7057 138.905C43.7057 138.905 41.1357 116.59 32.7057 118.87C23.9507 121.25 31.2807 132.54 35.0007 138C42.9057 149.62 45.8157 150.9 45.1907 147.27L43.7057 138.905Z" fill="white"/>
<path d="M34.4304 127C34.4304 127 47.2604 151.04 49.2504 162.2C51.5404 175.02 51.9104 189.34 50.3304 200.56" stroke="#005AEE" stroke-width="1.25197" stroke-linecap="round" stroke-linejoin="round"/>
<path d="M47.2255 154.775L53.5105 135.525" stroke="#005AEE" stroke-width="1.25197" stroke-linecap="round" stroke-linejoin="round"/>
<path d="M49.25 162.2L61.08 147.325" stroke="#005AEE" stroke-width="1.25197" stroke-linecap="round" stroke-linejoin="round"/>
<path d="M48.4952 159.495L31.3652 152.3" stroke="#005AEE" stroke-width="1.25197" stroke-linecap="round" stroke-linejoin="round"/>
<path d="M50.7355 172.275L63.6155 162.405" stroke="#005AEE" stroke-width="1.25197" stroke-linecap="round" stroke-linejoin="round"/>
<path d="M50.0505 168.04L36.5955 165.24" stroke="#005AEE" stroke-width="1.25197" stroke-linecap="round" stroke-linejoin="round"/>
<path d="M50.6955 178.345L40.2755 176.695" stroke="#005AEE" stroke-width="1.25197" stroke-linecap="round" stroke-linejoin="round"/>
<path d="M51.5752 185.015L58.5852 178.735" stroke="#005AEE" stroke-width="1.25197" stroke-linecap="round" stroke-linejoin="round"/>
<path d="M51.4359 187.84L39.4609 184.83" stroke="#005AEE" stroke-width="1.25197" stroke-linecap="round" stroke-linejoin="round"/>
<path d="M42.5654 191.505H56.7204V194.435H55.4854L52.9304 210.42H46.3554L43.8004 194.435H42.5654V191.505Z" fill="#005AEE"/>
<path opacity="0.5" d="M42.5654 191.505H56.7204V194.435H55.4854L52.9304 210.42H46.3554L43.8004 194.435H42.5654V191.505Z" fill="white"/>
<path d="M65.875 40.56C65.2613 40.0116 64.5119 39.6376 63.7048 39.4767C62.8976 39.3157 62.0621 39.3739 61.285 39.645C58.535 40.56 55.9 44.535 56.565 47.9C57.03 50.23 59.19 53.665 59.845 54.975C60.5 56.285 59.58 58.5 57.5 63.1C55.42 67.7 54.615 72.015 60.645 75.815C66.675 79.615 73.5 73.585 77 69.26C80.5 64.935 74.375 54.975 73.85 50.76C73.325 46.545 72.425 38.465 65.875 40.56Z" fill="#263238"/>
<path d="M80.0504 69.5498C78.55 71.051 76.7371 72.203 74.7408 72.9237C72.7444 73.6445 70.6138 73.9163 68.5004 73.7198L67.0554 79.7448L69.8054 93.4998L87.7604 84.1948L83.6954 73.6948L80.0504 69.5498Z" fill="#005AEE" stroke="#263238" stroke-linecap="round" stroke-linejoin="round"/>
<path opacity="0.3" d="M80.0504 69.5498C78.55 71.051 76.7371 72.203 74.7408 72.9237C72.7444 73.6445 70.6138 73.9163 68.5004 73.7198L67.0554 79.7448L69.8054 93.4998L87.7604 84.1948L83.6954 73.6948L80.0504 69.5498Z" fill="#263238"/>
<path d="M80.05 69.5501L77.3 51.3301L69.15 53.0001L65.085 55.6201C65.085 55.6201 60.235 59.4251 60.235 59.8151C60.235 60.2051 68.44 73.9351 68.44 73.9351C70.5747 74.0614 72.712 73.7361 74.7126 72.9806C76.7131 72.225 78.5318 71.0561 80.05 69.5501Z" fill="white"/>
<path d="M80.05 69.5501L77.3 51.3301L69.15 53.0001L65.085 55.6201C65.085 55.6201 60.235 59.4251 60.235 59.8151C60.235 60.2051 68.44 73.9351 68.44 73.9351C70.5747 74.0614 72.712 73.7361 74.7126 72.9806C76.7131 72.225 78.5318 71.0561 80.05 69.5501Z" stroke="#263238" stroke-linecap="round" stroke-linejoin="round"/>
<path opacity="0.5" d="M69.1149 68.7701C69.1149 68.7701 74.8599 64.5101 74.3299 65.7701C73.7999 67.0301 69.8299 70.1751 68.7649 70.2701C67.6999 70.3651 69.1149 68.7701 69.1149 68.7701Z" fill="#005AEE"/>
<path d="M69.2899 60.6799L69.5149 60.9149L70.9149 62.3949L71.2749 68.0799L72.9899 67.8099L71.6349 62.4849L73.8049 66.9949L75.6099 65.1899L71.7299 61.6699L71.6349 58.8749L69.6499 57.8799" fill="#263238"/>
<path d="M66.1354 53.9296C66.1354 53.9296 64.4304 54.7146 64.4304 56.2846C64.4304 57.8546 66.2754 61.5896 67.4304 62.3746C68.5854 63.1596 70.5654 59.5646 70.5654 59.5646C70.5654 59.5646 73.5654 61.0046 74.3654 59.6946C75.1654 58.3846 72.5304 54.0596 70.8304 52.8796C69.1304 51.6996 66.1354 53.9296 66.1354 53.9296Z" fill="white" stroke="#263238" stroke-linecap="round" stroke-linejoin="round"/>
<path d="M64.6949 52.3551C65.1637 53.5529 65.5578 54.7786 65.8749 56.0251C66.1349 57.3351 69.6749 59.5651 70.0649 59.6951C70.4549 59.8251 70.7199 55.5001 70.7199 55.5001L69.6749 50.3901L64.6949 52.3551Z" fill="white"/>
<mask id="mask0_526_26594" style="mask-type:luminance" maskUnits="userSpaceOnUse" x="64" y="50" width="7" height="10">
<path d="M64.6949 52.3551C65.1637 53.5529 65.5578 54.7786 65.8749 56.0251C66.1349 57.3351 69.6749 59.5651 70.0649 59.6951C70.4549 59.8251 70.7199 55.5001 70.7199 55.5001L69.6749 50.3901L64.6949 52.3551Z" fill="white"/>
</mask>
<g mask="url(#mask0_526_26594)">
<g style="mix-blend-mode:multiply" opacity="0.5">
<path d="M69.7849 50.9349C69.565 50.8732 69.3411 50.8265 69.1149 50.7949L65.4999 52.0699L65.0249 53.3099C65.2649 53.9799 65.5699 54.8799 65.7549 55.6099C66.3476 56.0877 67.0636 56.3877 67.8199 56.4749C68.9049 56.5499 69.8599 55.7099 70.5349 54.6799L69.7849 50.9349Z" fill="#005AEE"/>
</g>
</g>
<path d="M64.6949 52.3551C65.1637 53.5529 65.5578 54.7786 65.8749 56.0251C66.1349 57.3351 69.6749 59.5651 70.0649 59.6951C70.4549 59.8251 70.7199 55.5001 70.7199 55.5001L69.6749 50.3901L64.6949 52.3551Z" stroke="#263238" stroke-linecap="round" stroke-linejoin="round"/>
<path d="M62.3354 50.1248C62.3354 50.1248 60.8904 48.9498 60.8904 50.1248C60.8904 51.2998 62.2054 51.9598 63.2504 51.9598" fill="white"/>
<path d="M62.3354 50.1248C62.3354 50.1248 60.8904 48.9498 60.8904 50.1248C60.8904 51.2998 62.2054 51.9598 63.2504 51.9598" stroke="#263238" stroke-linecap="round" stroke-linejoin="round"/>
<path d="M70.0649 46.3249C70.0649 46.3249 70.9849 44.8849 71.2449 46.4599C71.3647 47.4853 71.0834 48.5172 70.4599 49.3399L70.0649 46.3249Z" fill="white" stroke="#263238" stroke-linecap="round" stroke-linejoin="round"/>
<g opacity="0.5">
<path d="M62.3354 50.1248C62.3354 50.1248 60.8904 48.9498 60.8904 50.1248C60.8904 51.2998 62.2054 51.9598 63.2504 51.9598" fill="#005AEE"/>
<path d="M62.3354 50.1248C62.3354 50.1248 60.8904 48.9498 60.8904 50.1248C60.8904 51.2998 62.2054 51.9598 63.2504 51.9598" stroke="#263238" stroke-linecap="round" stroke-linejoin="round"/>
</g>
<path opacity="0.5" d="M70.0649 46.3249C70.0649 46.3249 70.9849 44.8849 71.2449 46.4599C71.3647 47.4853 71.0834 48.5172 70.4599 49.3399L70.0649 46.3249Z" fill="#005AEE" stroke="#263238" stroke-linecap="round" stroke-linejoin="round"/>
<path d="M60.71 46.3352C60.71 46.3352 61.835 51.0202 64.25 53.3352C66.665 55.6502 69.25 55.6702 70.145 51.5452C70.88 48.1452 69.055 43.6102 69.055 43.6102C69.055 43.6102 63.165 38.7602 60.71 46.3352Z" fill="white"/>
<mask id="mask1_526_26594" style="mask-type:luminance" maskUnits="userSpaceOnUse" x="60" y="42" width="11" height="13">
<path d="M60.71 46.3352C60.71 46.3352 61.835 51.0202 64.25 53.3352C66.665 55.6502 69.25 55.6702 70.145 51.5452C70.88 48.1452 69.055 43.6102 69.055 43.6102C69.055 43.6102 63.165 38.7602 60.71 46.3352Z" fill="white"/>
</mask>
<g mask="url(#mask1_526_26594)">
<g style="mix-blend-mode:multiply" opacity="0.5">
<path d="M64.9053 42.0854L65.8203 44.3854C65.8203 44.3854 67.2603 44.0654 68.0703 45.8054C68.8803 47.5454 69.6953 50.0954 69.2303 52.0704C68.7853 53.9504 67.7303 54.5704 66.1053 54.6154C67.8753 55.3704 69.4803 54.6154 70.1453 51.5354C70.8803 48.1354 69.0553 43.6004 69.0553 43.6004C69.0553 43.6004 67.0603 41.9654 64.9053 42.0854Z" fill="#005AEE"/>
</g>
</g>
<path d="M60.71 46.3352C60.71 46.3352 61.835 51.0202 64.25 53.3352C66.665 55.6502 69.25 55.6702 70.145 51.5452C70.88 48.1452 69.055 43.6102 69.055 43.6102C69.055 43.6102 63.165 38.7602 60.71 46.3352Z" stroke="#263238" stroke-linecap="round" stroke-linejoin="round"/>
<path d="M65.1799 48.81C65.3199 49.075 65.2949 49.36 65.1249 49.45C64.9549 49.54 64.7049 49.395 64.5699 49.13C64.4349 48.865 64.4549 48.585 64.6249 48.495C64.7949 48.405 65.0449 48.55 65.1799 48.81Z" fill="#263238"/>
<path d="M67.7899 48.0002C67.8899 48.2802 67.8249 48.5602 67.6449 48.6202C67.4649 48.6802 67.2349 48.5102 67.1449 48.2302C67.0549 47.9502 67.1099 47.6702 67.2899 47.6102C67.4699 47.5502 67.6899 47.7302 67.7899 48.0002Z" fill="#263238"/>
<path d="M67.9704 46.4998C67.7661 46.3626 67.5225 46.2961 67.2769 46.3105C67.0313 46.325 66.7971 46.4196 66.6104 46.5798C65.8904 47.1398 67.2504 49.9448 67.2504 49.9448C67.2504 49.9448 67.2754 50.8298 66.1404 50.4198" stroke="#263238" stroke-width="0.5" stroke-linecap="round" stroke-linejoin="round"/>
<path d="M67.9695 51.3301C67.8916 51.5142 67.772 51.6777 67.6201 51.8077C67.4682 51.9377 67.2882 52.0306 67.0942 52.0791C66.9003 52.1276 66.6977 52.1303 66.5025 52.0871C66.3073 52.0439 66.1248 51.9559 65.9695 51.8301" stroke="#263238" stroke-width="0.5" stroke-linecap="round" stroke-linejoin="round"/>
<path d="M64.925 47.2448C64.925 47.2448 63.645 46.0398 63.085 48.3648" stroke="#263238" stroke-width="0.5" stroke-linecap="round" stroke-linejoin="round"/>
<path d="M69.1296 42.1253C67.7246 40.9053 66.5896 40.9203 66.0946 41.0803C65.6312 40.7912 65.1043 40.6196 64.5596 40.5803C60.6296 40.0553 60.1046 43.0803 60.1046 45.9553C60.1046 48.8303 57.6046 52.2453 59.3196 52.6403C59.7889 52.7529 60.283 52.6963 60.7147 52.4805C61.1464 52.2646 61.4881 51.9034 61.6796 51.4603C61.6796 51.4603 63.5146 48.4603 63.5146 46.3453C63.5146 44.2303 65.7996 44.4303 65.7996 44.4303C65.8982 44.2847 66.0272 44.1621 66.1777 44.071C66.3282 43.9799 66.4965 43.9224 66.6713 43.9024C66.8461 43.8825 67.0231 43.9005 67.1902 43.9554C67.3574 44.0103 67.5107 44.1007 67.6396 44.2203C68.6796 45.1103 68.7996 46.1553 69.6396 46.4253C70.4796 46.6953 71.8846 45.3453 71.8846 45.3453C71.0842 44.1764 70.1606 43.0969 69.1296 42.1253Z" fill="#263238"/>
<path d="M65.9096 42.9098C65.9096 42.9098 64.3296 41.6398 62.9096 43.0648C61.4896 44.4898 61.6446 47.1848 61.1696 48.9298C60.6946 50.6748 59.4246 50.9899 59.4246 50.9899" stroke="white" stroke-width="0.5" stroke-linecap="round" stroke-linejoin="round"/>
<path d="M64.8052 42.4349C64.8052 42.4349 63.1002 40.7449 60.9552 42.8849C59.3202 44.5249 60.0502 45.5999 59.7302 48.2949" stroke="white" stroke-width="0.5" stroke-linecap="round" stroke-linejoin="round"/>
<path d="M66.705 42.1152C66.705 42.1152 69.705 40.6902 70.985 44.3352" stroke="white" stroke-width="0.5" stroke-linecap="round" stroke-linejoin="round"/>
<path d="M60.235 59.8252L55.7 78.0752L69 81.8452L69.6549 79.4852L60.9199 75.4552L63.8849 64.9552C63.8849 64.9552 63.4949 62.9902 61.3849 60.7652" fill="white"/>
<mask id="mask2_526_26594" style="mask-type:luminance" maskUnits="userSpaceOnUse" x="55" y="59" width="15" height="23">
<path d="M60.235 59.8252L55.7 78.0752L69 81.8452L69.6549 79.4852L60.9199 75.4552L63.8849 64.9552C63.8849 64.9552 63.4949 62.9902 61.3849 60.7652" fill="white"/>
</mask>
<g mask="url(#mask2_526_26594)">
<g style="mix-blend-mode:multiply" opacity="0.5">
<path d="M69.6749 79.5001L60.9399 75.4701L63.9049 64.9701C63.6727 64.0984 63.2958 63.2719 62.7899 62.5251L62.5049 62.3101V65.2101C62.5049 67.0651 60.1849 72.9801 59.3699 74.3701C58.5549 75.7601 57.2849 77.5001 57.2849 77.5001L59.8349 76.3401L69.4999 80.2101L69.6749 79.5001Z" fill="#005AEE"/>
</g>
</g>
<path d="M60.235 59.8252L55.7 78.0752L69 81.8452L69.6549 79.4852L60.9199 75.4552L63.8849 64.9552C63.8849 64.9552 63.4949 62.9902 61.3849 60.7652" stroke="#263238" stroke-linecap="round" stroke-linejoin="round"/>
<path d="M97.6299 65.3052L87.5599 63.1902L77.2749 51.3052L78.7949 60.8652L85.1049 66.8752L97.7849 67.4552L97.6299 65.3052Z" fill="white"/>
<mask id="mask3_526_26594" style="mask-type:luminance" maskUnits="userSpaceOnUse" x="77" y="51" width="21" height="17">
<path d="M97.6299 65.3052L87.5599 63.1902L77.2749 51.3052L78.7949 60.8652L85.1049 66.8752L97.7849 67.4552L97.6299 65.3052Z" fill="white"/>
</mask>
<g mask="url(#mask3_526_26594)">
<g style="mix-blend-mode:multiply" opacity="0.5">
<path d="M77.2749 51.3052L78.4999 58.9352L79.2799 61.3202L79.3799 61.4102C79.6749 61.1052 81.3399 59.3752 81.7649 59.3752C82.1899 59.3752 86.9849 63.5502 86.2899 63.8752L85.5899 64.2202L97.5349 66.1902L97.6199 65.2752L87.5699 63.1652L77.2749 51.3052Z" fill="#005AEE"/>
</g>
</g>
<path d="M97.6299 65.3052L87.5599 63.1902L77.2749 51.3052L78.7949 60.8652L85.1049 66.8752L97.7849 67.4552L97.6299 65.3052Z" stroke="#263238" stroke-linecap="round" stroke-linejoin="round"/>
<path d="M191.635 166.5L63.3996 147.71C62.992 147.649 62.625 147.43 62.3793 147.099C62.1337 146.768 62.0295 146.353 62.0896 145.945L72.7696 73.0899C72.799 72.8883 72.8679 72.6944 72.9723 72.5194C73.0766 72.3444 73.2145 72.1916 73.378 72.07C73.5415 71.9483 73.7273 71.86 73.9249 71.8103C74.1225 71.7605 74.328 71.7502 74.5296 71.7799L76.9596 72.1349C77.2674 72.1811 77.582 72.1333 77.8622 71.9977C78.1423 71.8621 78.3749 71.645 78.5296 71.3749L81.7546 65.7999C81.8526 65.6249 81.9853 65.4718 82.1446 65.3499C82.8996 64.804 83.8379 64.5744 84.7596 64.7099L117.085 69.4499C117.81 69.5541 118.485 69.8787 119.02 70.3799C119.162 70.5227 119.274 70.6928 119.35 70.8799L122.225 77.9999C122.325 78.2518 122.491 78.4726 122.704 78.6403C122.917 78.8079 123.171 78.9164 123.44 78.9549L202.765 90.5849C203.172 90.6443 203.54 90.863 203.786 91.193C204.033 91.5229 204.138 91.9372 204.08 92.3449L193.4 165.195C193.338 165.602 193.118 165.967 192.787 166.212C192.456 166.457 192.042 166.56 191.635 166.5Z" fill="#263238" stroke="#263238" stroke-miterlimit="10"/>
<path d="M193 166.145H65.895C65.5259 166.145 65.1605 166.072 64.8196 165.931C64.4787 165.79 64.1689 165.583 63.908 165.322C63.6471 165.061 63.4401 164.751 63.2989 164.41C63.1576 164.069 63.085 163.704 63.085 163.335V92.2149C63.085 91.4697 63.381 90.7549 63.908 90.228C64.435 89.701 65.1497 89.4049 65.895 89.4049H66.24C66.8025 89.4038 67.352 89.2347 67.8179 88.9194C68.2837 88.6041 68.6449 88.1568 68.855 87.6349L70.79 82.7699C71.0062 82.2084 71.4017 81.7339 71.915 81.4199C72.4664 81.0944 73.0946 80.9218 73.735 80.9199H106.405C106.844 80.9195 107.279 80.9991 107.69 81.1549C108.26 81.3847 108.736 81.8006 109.04 82.3349L112.365 87.9999C112.613 88.4231 112.967 88.774 113.392 89.0178C113.818 89.2617 114.3 89.39 114.79 89.3899H193C193.745 89.3899 194.46 89.686 194.987 90.213C195.514 90.7399 195.81 91.4547 195.81 92.1999V163.335C195.81 163.704 195.737 164.069 195.596 164.41C195.455 164.751 195.248 165.061 194.987 165.322C194.726 165.583 194.416 165.79 194.075 165.931C193.734 166.072 193.369 166.145 193 166.145Z" fill="#005AEE"/>
<mask id="mask4_526_26594" style="mask-type:luminance" maskUnits="userSpaceOnUse" x="63" y="80" width="133" height="87">
<path d="M193 166.145H65.895C65.5259 166.145 65.1605 166.072 64.8196 165.931C64.4787 165.79 64.1689 165.583 63.908 165.322C63.6471 165.061 63.4401 164.751 63.2989 164.41C63.1576 164.069 63.085 163.704 63.085 163.335V92.2149C63.085 91.4697 63.381 90.7549 63.908 90.228C64.435 89.701 65.1497 89.4049 65.895 89.4049H66.24C66.8025 89.4038 67.352 89.2347 67.8179 88.9194C68.2837 88.6041 68.6449 88.1568 68.855 87.6349L70.79 82.7699C71.0062 82.2084 71.4017 81.7339 71.915 81.4199C72.4664 81.0944 73.0946 80.9218 73.735 80.9199H106.405C106.844 80.9195 107.279 80.9991 107.69 81.1549C108.26 81.3847 108.736 81.8006 109.04 82.3349L112.365 87.9999C112.613 88.4231 112.967 88.774 113.392 89.0178C113.818 89.2617 114.3 89.39 114.79 89.3899H193C193.745 89.3899 194.46 89.686 194.987 90.213C195.514 90.7399 195.81 91.4547 195.81 92.1999V163.335C195.81 163.704 195.737 164.069 195.596 164.41C195.455 164.751 195.248 165.061 194.987 165.322C194.726 165.583 194.416 165.79 194.075 165.931C193.734 166.072 193.369 166.145 193 166.145Z" fill="white"/>
</mask>
<g mask="url(#mask4_526_26594)">
<path opacity="0.1" d="M193 166.145H65.895C65.5259 166.145 65.1605 166.072 64.8196 165.931C64.4787 165.79 64.1689 165.583 63.908 165.322C63.6471 165.061 63.4401 164.751 63.2989 164.41C63.1576 164.069 63.085 163.704 63.085 163.335V92.2149C63.085 91.4697 63.381 90.7549 63.908 90.228C64.435 89.701 65.1497 89.4049 65.895 89.4049H66.24C66.8025 89.4038 67.352 89.2347 67.8179 88.9194C68.2837 88.6041 68.6449 88.1568 68.855 87.6349L70.79 82.7699C71.0062 82.2084 71.4017 81.7339 71.915 81.4199C72.4664 81.0944 73.0946 80.9218 73.735 80.9199H106.405C106.844 80.9195 107.279 80.9991 107.69 81.1549C108.26 81.3847 108.736 81.8006 109.04 82.3349L112.365 87.9999C112.613 88.4231 112.967 88.774 113.392 89.0178C113.818 89.2617 114.3 89.39 114.79 89.3899H193C193.745 89.3899 194.46 89.686 194.987 90.213C195.514 90.7399 195.81 91.4547 195.81 92.1999V163.335C195.81 163.704 195.737 164.069 195.596 164.41C195.455 164.751 195.248 165.061 194.987 165.322C194.726 165.583 194.416 165.79 194.075 165.931C193.734 166.072 193.369 166.145 193 166.145Z" fill="#263238"/>
</g>
<path d="M193 166.145H65.895C65.5259 166.145 65.1605 166.072 64.8196 165.931C64.4787 165.79 64.1689 165.583 63.908 165.322C63.6471 165.061 63.4401 164.751 63.2989 164.41C63.1576 164.069 63.085 163.704 63.085 163.335V92.2149C63.085 91.4697 63.381 90.7549 63.908 90.228C64.435 89.701 65.1497 89.4049 65.895 89.4049H66.24C66.8025 89.4038 67.352 89.2347 67.8179 88.9194C68.2837 88.6041 68.6449 88.1568 68.855 87.6349L70.79 82.7699C71.0062 82.2084 71.4017 81.7339 71.915 81.4199C72.4664 81.0944 73.0946 80.9218 73.735 80.9199H106.405C106.844 80.9195 107.279 80.9991 107.69 81.1549C108.26 81.3847 108.736 81.8006 109.04 82.3349L112.365 87.9999C112.613 88.4231 112.967 88.774 113.392 89.0178C113.818 89.2617 114.3 89.39 114.79 89.3899H193C193.745 89.3899 194.46 89.686 194.987 90.213C195.514 90.7399 195.81 91.4547 195.81 92.1999V163.335C195.81 163.704 195.737 164.069 195.596 164.41C195.455 164.751 195.248 165.061 194.987 165.322C194.726 165.583 194.416 165.79 194.075 165.931C193.734 166.072 193.369 166.145 193 166.145Z" stroke="#263238" stroke-miterlimit="10"/>
<path d="M99 89.165H78.66C78.1746 89.165 77.7091 88.9722 77.366 88.629C77.0228 88.2858 76.83 87.8203 76.83 87.335C76.8293 87.0943 76.8762 86.8558 76.9678 86.6332C77.0595 86.4106 77.1942 86.2082 77.3642 86.0378C77.5342 85.8673 77.7361 85.7321 77.9585 85.6398C78.1808 85.5475 78.4192 85.5 78.66 85.5H99C99.4866 85.5 99.9534 85.6933 100.298 86.0375C100.642 86.3816 100.835 86.8483 100.835 87.335C100.835 87.5757 100.787 87.8141 100.695 88.0365C100.603 88.2588 100.468 88.4608 100.297 88.6308C100.127 88.8008 99.9244 88.9355 99.7018 89.0271C99.4792 89.1188 99.2407 89.1657 99 89.165Z" fill="white"/>
<path d="M193 178.555H65.895C65.1497 178.555 64.435 178.259 63.908 177.732C63.381 177.205 63.085 176.49 63.085 175.745V104.625C63.085 103.88 63.381 103.165 63.908 102.638C64.435 102.111 65.1497 101.815 65.895 101.815H66.24C66.8027 101.815 67.3524 101.646 67.8184 101.33C68.2845 101.015 68.6454 100.567 68.855 100.045L70.79 95.185C71.0049 94.6227 71.4007 94.1478 71.915 93.835C72.4655 93.5074 73.0943 93.3346 73.735 93.335H106.405C106.844 93.3345 107.279 93.4141 107.69 93.57C108.262 93.8 108.738 94.218 109.04 94.755L112.365 100.425C112.613 100.848 112.967 101.199 113.392 101.443C113.818 101.687 114.3 101.815 114.79 101.815H193C193.745 101.815 194.46 102.111 194.987 102.638C195.514 103.165 195.81 103.88 195.81 104.625V175.745C195.81 176.49 195.514 177.205 194.987 177.732C194.46 178.259 193.745 178.555 193 178.555Z" fill="#263238" stroke="#263238" stroke-miterlimit="10"/>
<path d="M108.745 74.5L88.565 72C88.083 71.9388 87.6447 71.6894 87.3459 71.3063C87.0471 70.9232 86.9119 70.4374 86.97 69.955C87.0311 69.4724 87.2814 69.0338 87.6658 68.7356C88.0502 68.4375 88.5373 68.3042 89.0199 68.365L109.195 70.865C109.678 70.925 110.117 71.174 110.416 71.5575C110.715 71.9409 110.849 72.4274 110.79 72.91C110.76 73.1488 110.684 73.3793 110.565 73.5885C110.446 73.7977 110.287 73.9814 110.097 74.1291C109.907 74.2768 109.69 74.3856 109.458 74.4492C109.226 74.5128 108.984 74.5301 108.745 74.5Z" fill="#005AEE"/>
<path opacity="0.5" d="M108.745 74.5L88.565 72C88.083 71.9388 87.6447 71.6894 87.3459 71.3063C87.0471 70.9232 86.9119 70.4374 86.97 69.955C87.0311 69.4724 87.2814 69.0338 87.6658 68.7356C88.0502 68.4375 88.5373 68.3042 89.0199 68.365L109.195 70.865C109.678 70.925 110.117 71.174 110.416 71.5575C110.715 71.9409 110.849 72.4274 110.79 72.91C110.76 73.1488 110.684 73.3793 110.565 73.5885C110.446 73.7977 110.287 73.9814 110.097 74.1291C109.907 74.2768 109.69 74.3856 109.458 74.4492C109.226 74.5128 108.984 74.5301 108.745 74.5Z" fill="white"/>
<path d="M99 101.58H78.66C78.4192 101.58 78.1808 101.533 77.9585 101.44C77.7361 101.348 77.5342 101.213 77.3642 101.042C77.1942 100.872 77.0595 100.67 76.9678 100.447C76.8762 100.224 76.8293 99.9859 76.83 99.7452C76.83 99.2593 77.0226 98.7934 77.3657 98.4494C77.7087 98.1054 78.1742 97.9115 78.66 97.9102H99C99.4866 97.9102 99.9534 98.1035 100.298 98.4476C100.642 98.7917 100.835 99.2585 100.835 99.7452C100.835 100.232 100.642 100.699 100.298 101.043C99.9534 101.387 99.4866 101.58 99 101.58Z" fill="#005AEE"/>
<path opacity="0.5" d="M99 101.58H78.66C78.4192 101.58 78.1808 101.533 77.9585 101.44C77.7361 101.348 77.5342 101.213 77.3642 101.042C77.1942 100.872 77.0595 100.67 76.9678 100.447C76.8762 100.224 76.8293 99.9859 76.83 99.7452C76.83 99.2593 77.0226 98.7934 77.3657 98.4494C77.7087 98.1054 78.1742 97.9115 78.66 97.9102H99C99.4866 97.9102 99.9534 98.1035 100.298 98.4476C100.642 98.7917 100.835 99.2585 100.835 99.7452C100.835 100.232 100.642 100.699 100.298 101.043C99.9534 101.387 99.4866 101.58 99 101.58Z" fill="white"/>
<path d="M197.155 123.205H61.7353C60.2801 123.205 59.1003 124.385 59.1003 125.84V207.785C59.1003 209.24 60.2801 210.42 61.7353 210.42H197.155C198.611 210.42 199.79 209.24 199.79 207.785V125.84C199.79 124.385 198.611 123.205 197.155 123.205Z" fill="white"/>
<mask id="mask5_526_26594" style="mask-type:luminance" maskUnits="userSpaceOnUse" x="59" y="123" width="141" height="88">
<path d="M197.155 123.205H61.7353C60.2801 123.205 59.1003 124.385 59.1003 125.84V207.785C59.1003 209.24 60.2801 210.42 61.7353 210.42H197.155C198.611 210.42 199.79 209.24 199.79 207.785V125.84C199.79 124.385 198.611 123.205 197.155 123.205Z" fill="white"/>
</mask>
<g mask="url(#mask5_526_26594)">
<g style="mix-blend-mode:multiply">
<path d="M199.79 146.68C184.195 161.256 166.477 173.377 147.24 182.63C118.815 196.225 86.3254 205.595 67.3954 210.42H197.15C197.497 210.421 197.84 210.353 198.16 210.221C198.481 210.089 198.772 209.895 199.017 209.65C199.262 209.405 199.457 209.115 199.589 208.795C199.722 208.475 199.79 208.132 199.79 207.785V146.68Z" fill="#005AEE"/>
</g>
<path opacity="0.2" d="M199.79 146.68C184.195 161.256 166.477 173.377 147.24 182.63C118.815 196.225 86.3254 205.595 67.3954 210.42H197.15C197.497 210.421 197.84 210.353 198.16 210.221C198.481 210.089 198.772 209.895 199.017 209.65C199.262 209.405 199.457 209.115 199.589 208.795C199.722 208.475 199.79 208.132 199.79 207.785V146.68Z" fill="white"/>
</g>
<path d="M197.155 123.205H61.7353C60.2801 123.205 59.1003 124.385 59.1003 125.84V207.785C59.1003 209.24 60.2801 210.42 61.7353 210.42H197.155C198.611 210.42 199.79 209.24 199.79 207.785V125.84C199.79 124.385 198.611 123.205 197.155 123.205Z" stroke="#263238" stroke-miterlimit="10"/>
<path d="M61.1345 130.865V127.365C61.1358 126.666 61.4146 125.995 61.9095 125.501C62.4045 125.007 63.0752 124.73 63.7745 124.73H69.4995" stroke="#263238" stroke-miterlimit="10"/>
<path d="M61.1345 184.02V135.13" stroke="#263238" stroke-miterlimit="10"/>
<path d="M197.75 200.7V206.235C197.751 206.582 197.683 206.925 197.551 207.245C197.419 207.565 197.225 207.856 196.98 208.102C196.735 208.347 196.445 208.541 196.125 208.674C195.805 208.807 195.461 208.875 195.115 208.875H190.5" stroke="#263238" stroke-miterlimit="10"/>
<path d="M197.75 129.635V196.585" stroke="#263238" stroke-miterlimit="10"/>
<path d="M150.36 155.095H108.525C107.771 155.095 107.16 155.706 107.16 156.46V177.805C107.16 178.559 107.771 179.17 108.525 179.17H150.36C151.114 179.17 151.725 178.559 151.725 177.805V156.46C151.725 155.706 151.114 155.095 150.36 155.095Z" fill="#263238" stroke="#263238" stroke-miterlimit="10"/>
<path d="M150.36 155.095H108.525C107.771 155.095 107.16 155.706 107.16 156.46V161.05C107.16 161.804 107.771 162.415 108.525 162.415H150.36C151.114 162.415 151.725 161.804 151.725 161.05V156.46C151.725 155.706 151.114 155.095 150.36 155.095Z" fill="white" stroke="#263238" stroke-miterlimit="10"/>
<path d="M69 81.8449L69.915 83.5499L71.86 84.9499C71.9823 85.0397 72.1288 85.0906 72.2804 85.096C72.432 85.1013 72.5817 85.0609 72.71 84.9799L72.88 84.8699C73.0036 84.7948 73.0957 84.6773 73.139 84.5392C73.1822 84.4012 73.1737 84.2521 73.115 84.1199L72.01 81.5799L72.755 82.1599C72.8733 82.2511 73.0224 82.2926 73.1707 82.2758C73.3191 82.259 73.4551 82.1852 73.55 82.0699C73.6324 81.967 73.6772 81.8392 73.6772 81.7074C73.6772 81.5756 73.6324 81.4478 73.55 81.3449L71.815 79.1499L69.645 79.4849L69 81.8449Z" fill="white" stroke="#263238" stroke-miterlimit="10"/>
<path d="M72.8999 84.87L71.1599 82.585" stroke="#263238" stroke-width="0.5" stroke-linecap="round" stroke-linejoin="round"/>
<path d="M71.8804 84.9496L70.5154 83.1396" stroke="#263238" stroke-width="0.5" stroke-linecap="round" stroke-linejoin="round"/>
<path d="M97.6296 65.3047L100.35 65.4647L103.66 67.5797C103.66 67.5797 103.845 68.2247 103.385 68.3147C102.925 68.4047 100.44 67.4897 100.44 67.4897L97.7846 67.4547L97.6296 65.3047Z" fill="white" stroke="#263238" stroke-miterlimit="10"/>
<path d="M97.7703 67.1197L100.625 68.4097C100.625 68.4097 101.085 67.7647 100.44 67.4897L99.5003 66.8447" fill="white"/>
<path d="M97.7703 67.1197L100.625 68.4097C100.625 68.4097 101.085 67.7647 100.44 67.4897L99.5003 66.8447" stroke="#263238" stroke-linejoin="round"/>
<path d="M198.635 115.88L197.455 112.35L196.13 110.535C196.109 110.502 196.076 110.477 196.039 110.464C196.001 110.451 195.961 110.451 195.923 110.463C195.886 110.476 195.853 110.5 195.831 110.533C195.809 110.566 195.798 110.606 195.8 110.645V115.875L196.8 117.19L198.635 115.88Z" fill="white"/>
<path d="M217.865 131.315L207.965 131.665C207.6 131.678 207.238 131.586 206.923 131.401C206.608 131.216 206.352 130.945 206.185 130.62L198.635 115.88C198.635 115.88 196.935 116.8 196.805 117.19C196.675 117.58 202.395 131.925 204.15 136.33C204.297 136.7 204.556 137.015 204.89 137.231C205.224 137.448 205.617 137.556 206.015 137.54L217.08 137.07" fill="white"/>
<path d="M217.865 131.315L207.965 131.665C207.6 131.678 207.238 131.586 206.923 131.401C206.608 131.216 206.352 130.945 206.185 130.62L198.635 115.88C198.635 115.88 196.935 116.8 196.805 117.19C196.675 117.58 202.395 131.925 204.15 136.33C204.297 136.7 204.556 137.015 204.89 137.231C205.224 137.448 205.617 137.556 206.015 137.54L217.08 137.07" stroke="#263238" stroke-miterlimit="10"/>
<path d="M199.36 117.715L197.81 118.355" stroke="#263238" stroke-width="0.75" stroke-miterlimit="10"/>
<g opacity="0.5">
<path d="M217.865 131.315L207.965 131.665C207.6 131.678 207.238 131.586 206.923 131.401C206.608 131.216 206.352 130.945 206.185 130.62L198.635 115.88C198.635 115.88 196.935 116.8 196.805 117.19C196.675 117.58 202.395 131.925 204.15 136.33C204.297 136.7 204.556 137.015 204.89 137.231C205.224 137.448 205.617 137.556 206.015 137.54L217.08 137.07" fill="#005AEE"/>
<path d="M217.865 131.315L207.965 131.665C207.6 131.678 207.238 131.586 206.923 131.401C206.608 131.216 206.352 130.945 206.185 130.62L198.635 115.88C198.635 115.88 196.935 116.8 196.805 117.19C196.675 117.58 202.395 131.925 204.15 136.33C204.297 136.7 204.556 137.015 204.89 137.231C205.224 137.448 205.617 137.556 206.015 137.54L217.08 137.07" stroke="#263238" stroke-miterlimit="10"/>
<path d="M199.36 117.715L197.81 118.355" stroke="#263238" stroke-width="0.75" stroke-miterlimit="10"/>
</g>
<path d="M198.635 115.88L197.455 112.35L196.13 110.535C196.109 110.502 196.076 110.477 196.039 110.464C196.001 110.451 195.961 110.451 195.923 110.463C195.886 110.476 195.853 110.5 195.831 110.533C195.809 110.566 195.798 110.606 195.8 110.645V115.875L196.8 117.19L198.635 115.88Z" fill="#005AEE"/>
<mask id="mask6_526_26594" style="mask-type:luminance" maskUnits="userSpaceOnUse" x="195" y="110" width="4" height="8">
<path d="M198.635 115.88L197.455 112.35L196.13 110.535C196.109 110.502 196.076 110.477 196.039 110.464C196.001 110.451 195.961 110.451 195.923 110.463C195.886 110.476 195.853 110.5 195.831 110.533C195.809 110.566 195.798 110.606 195.8 110.645V115.875L196.8 117.19L198.635 115.88Z" fill="white"/>
</mask>
<g mask="url(#mask6_526_26594)">
<path opacity="0.5" d="M198.635 115.88L197.455 112.35L196.13 110.535C196.109 110.502 196.076 110.477 196.039 110.464C196.001 110.451 195.961 110.451 195.923 110.463C195.886 110.476 195.853 110.5 195.831 110.533C195.809 110.566 195.798 110.606 195.8 110.645V115.875L196.8 117.19L198.635 115.88Z" fill="white"/>
</g>
<path d="M198.635 115.88L197.455 112.35L196.13 110.535C196.109 110.502 196.076 110.477 196.039 110.464C196.001 110.451 195.961 110.451 195.923 110.463C195.886 110.476 195.853 110.5 195.831 110.533C195.809 110.566 195.798 110.606 195.8 110.645V115.875L196.8 117.19L198.635 115.88Z" stroke="#263238" stroke-miterlimit="10"/>
<path d="M220.93 122C220.455 122.603 220.114 123.3 219.93 124.045C219.785 125.005 220.015 128.7 220.015 128.7L214.865 129.28C214.865 129.28 215.255 125.525 215.275 124.9C215.44 124.125 215.769 123.394 216.239 122.756C216.708 122.118 217.309 121.587 218 121.2C219.77 120.33 221.275 120.755 220.93 122Z" fill="white"/>
<mask id="mask7_526_26594" style="mask-type:luminance" maskUnits="userSpaceOnUse" x="214" y="120" width="7" height="10">
<path d="M220.93 122C220.455 122.603 220.114 123.3 219.93 124.045C219.785 125.005 220.015 128.7 220.015 128.7L214.865 129.28C214.865 129.28 215.255 125.525 215.275 124.9C215.44 124.125 215.769 123.394 216.239 122.756C216.708 122.118 217.309 121.587 218 121.2C219.77 120.33 221.275 120.755 220.93 122Z" fill="white"/>
</mask>
<g mask="url(#mask7_526_26594)">
<g style="mix-blend-mode:multiply" opacity="0.5">
<path d="M220.895 122.04C219.96 121.785 218.825 121.5 217.865 121.27C217.205 121.663 216.634 122.188 216.185 122.811C215.737 123.435 215.422 124.144 215.26 124.895C215.26 125.135 215.19 125.835 215.12 126.605C215.62 126.49 216.415 126.315 217.005 126.21C217.473 126.135 217.933 126.019 218.38 125.865L218.205 128.865H218.32L220 128.675C220 128.675 219.77 124.98 219.915 124.02C220.098 123.298 220.432 122.623 220.895 122.04Z" fill="#005AEE"/>
</g>
</g>
<path d="M220.93 122C220.455 122.603 220.114 123.3 219.93 124.045C219.785 125.005 220.015 128.7 220.015 128.7L214.865 129.28C214.865 129.28 215.255 125.525 215.275 124.9C215.44 124.125 215.769 123.394 216.239 122.756C216.708 122.118 217.309 121.587 218 121.2C219.77 120.33 221.275 120.755 220.93 122Z" stroke="#263238" stroke-width="1.00396" stroke-miterlimit="10"/>
<path d="M222.001 122.635C226.271 116.995 215.976 111.135 213.271 116.74C212.894 117.431 212.595 118.162 212.381 118.92C211.971 119.17 210.881 119.84 210.681 120.025C210.481 120.21 211.181 120.685 211.566 120.92C210.831 122.725 210.941 124.625 211.151 125.055C211.516 125.795 213.316 125.805 214.501 125.585C215.686 125.365 216.156 124.23 216.501 123.92C216.846 123.61 218.566 124.005 219.171 124.185C219.776 124.365 221.171 123.75 222.001 122.635Z" fill="white"/>
<mask id="mask8_526_26594" style="mask-type:luminance" maskUnits="userSpaceOnUse" x="210" y="114" width="14" height="12">
<path d="M222.001 122.635C226.271 116.995 215.976 111.135 213.271 116.74C212.894 117.431 212.595 118.162 212.381 118.92C211.971 119.17 210.881 119.84 210.681 120.025C210.481 120.21 211.181 120.685 211.566 120.92C210.831 122.725 210.941 124.625 211.151 125.055C211.516 125.795 213.316 125.805 214.501 125.585C215.686 125.365 216.156 124.23 216.501 123.92C216.846 123.61 218.566 124.005 219.171 124.185C219.776 124.365 221.171 123.75 222.001 122.635Z" fill="white"/>
</mask>
<g mask="url(#mask8_526_26594)">
<g style="mix-blend-mode:multiply" opacity="0.5">
<path d="M217.776 122.095C217.776 122.095 217.866 122.52 217.006 122.865C216.146 123.21 215.976 122.95 215.721 123.55C215.613 123.944 215.394 124.299 215.09 124.573C214.786 124.847 214.41 125.028 214.006 125.095C213.191 125.249 212.368 125.355 211.541 125.41C212.221 125.79 213.571 125.76 214.541 125.585C215.721 125.37 216.196 124.23 216.541 123.92C216.886 123.61 218.606 124.005 219.211 124.185C219.353 124.213 219.499 124.213 219.641 124.185C219.867 123.682 220.002 123.144 220.041 122.595L217.776 122.095Z" fill="#005AEE"/>
</g>
</g>
<path d="M222.001 122.635C226.271 116.995 215.976 111.135 213.271 116.74C212.894 117.431 212.595 118.162 212.381 118.92C211.971 119.17 210.881 119.84 210.681 120.025C210.481 120.21 211.181 120.685 211.566 120.92C210.831 122.725 210.941 124.625 211.151 125.055C211.516 125.795 213.316 125.805 214.501 125.585C215.686 125.365 216.156 124.23 216.501 123.92C216.846 123.61 218.566 124.005 219.171 124.185C219.776 124.365 221.171 123.75 222.001 122.635Z" stroke="#263238" stroke-miterlimit="10"/>
<path d="M213.66 119.415C213.55 119.655 213.365 119.805 213.245 119.75C213.125 119.695 213.115 119.455 213.245 119.215C213.375 118.975 213.54 118.825 213.66 118.88C213.78 118.935 213.77 119.175 213.66 119.415Z" fill="#263238"/>
<path d="M213.56 117.875C213.56 117.875 214.06 117.46 214.16 118.415" stroke="#263238" stroke-width="0.5" stroke-linecap="round" stroke-linejoin="round"/>
<path d="M211.465 121.89C211.465 121.89 211.465 122.39 212.365 122.39" stroke="#263238" stroke-width="0.5" stroke-linecap="round" stroke-linejoin="round"/>
<path d="M210.246 154.61L209.851 159.5C209.851 159.5 207.116 178.97 207.246 181.205C207.376 183.44 207.671 206.53 207.671 206.53L210.966 207.055L214.666 181.445L219.861 155.42L210.246 154.61Z" fill="#005AEE" stroke="#263238" stroke-miterlimit="10"/>
<path opacity="0.2" d="M210.246 154.61L209.851 159.5C209.851 159.5 207.116 178.97 207.246 181.205C207.376 183.44 207.671 206.53 207.671 206.53L210.966 207.055L214.666 181.445L219.861 155.42L210.246 154.61Z" fill="#263238"/>
<path d="M214.415 172.395C214.415 172.395 213.15 179.84 212.195 183.49C211.24 187.14 211.245 190.78 211.245 194.74C211.245 198.7 209.82 206 209.82 206" stroke="#263238" stroke-width="0.75" stroke-miterlimit="10"/>
<path d="M216.93 153.41C219.1 152.27 221.43 151.515 222.095 153.03C223.415 156.06 221.835 160.665 221.835 160.665L223.04 181.905L225.245 207.53L221.95 207C221.95 207 216.89 185.375 216.1 184.055C215.31 182.735 214.065 164.22 214.065 164.22L211.565 161.945" fill="#005AEE"/>
<path d="M216.93 153.41C219.1 152.27 221.43 151.515 222.095 153.03C223.415 156.06 221.835 160.665 221.835 160.665L223.04 181.905L225.245 207.53L221.95 207C221.95 207 216.89 185.375 216.1 184.055C215.31 182.735 214.065 164.22 214.065 164.22L211.565 161.945" stroke="#263238" stroke-miterlimit="10"/>
<g opacity="0.2">
<path d="M216.93 153.41C219.1 152.27 221.43 151.515 222.095 153.03C223.415 156.06 221.835 160.665 221.835 160.665L223.04 181.905L225.245 207.53L221.95 207C221.95 207 216.89 185.375 216.1 184.055C215.31 182.735 214.065 164.22 214.065 164.22L211.565 161.945" fill="#263238"/>
</g>
<path d="M219.5 169.5C219.575 174.425 220.075 176.795 220.465 178.095C220.94 179.68 220.78 182.69 220.78 184.095C220.78 185.5 220.145 183.78 221.575 190.28C223.005 196.78 223.95 205.81 223.95 205.81" stroke="#263238" stroke-width="0.75" stroke-miterlimit="10"/>
<path d="M219.5 158.765C219.5 158.765 219.655 158.445 219.5 165.895C219.5 166.295 219.5 166.68 219.5 167.055" stroke="#263238" stroke-width="0.75" stroke-miterlimit="10"/>
<path d="M212.185 157.35L212.08 159.58L211.565 161.13L212.335 162.03" stroke="#263238" stroke-width="0.75" stroke-linecap="round" stroke-linejoin="round"/>
<path d="M211.176 158.68C211.176 158.68 212.466 159.97 215.816 159.58" stroke="#263238" stroke-width="0.75" stroke-linecap="round" stroke-linejoin="round"/>
<path d="M219.09 157.565C221.59 157.065 221.75 156.375 222.615 155.795C222.631 154.85 222.461 153.91 222.115 153.03C221.46 151.53 219.115 152.27 216.95 153.41L215.9 155.07L210.265 154.61L210.085 156.82C212.978 157.813 216.073 158.069 219.09 157.565Z" fill="#263238"/>
<path d="M210.81 156.14L210.755 157.02L212.185 157.35L212.295 156.195L210.81 156.14Z" fill="white" stroke="#263238" stroke-width="0.75" stroke-miterlimit="10"/>
<path d="M220.791 157.445L220.551 155.255L221.276 155.015L221.641 156.96" fill="#005AEE"/>
<path d="M220.791 157.445L220.551 155.255L221.276 155.015L221.641 156.96" stroke="#263238" stroke-miterlimit="10"/>
<path d="M215.2 158.175L214.715 155.62H215.93L216.415 157.81" fill="#005AEE"/>
<path d="M215.2 158.175L214.715 155.62H215.93L216.415 157.81" stroke="#263238" stroke-miterlimit="10"/>
<g opacity="0.2">
<path d="M220.79 157.445L220.55 155.255L221.275 155.015L221.64 156.96" fill="#263238"/>
<path d="M215.2 158.175L214.715 155.62H215.93L216.415 157.81" fill="#263238"/>
</g>
<path d="M209.6 135.23C209.6 135.23 209.185 138.005 207.94 142.73C206.695 147.455 205.44 153.12 205.44 153.12L206.135 156.03L208.21 152.98L209.6 135.23Z" fill="#263238" stroke="#263238" stroke-miterlimit="10"/>
<path d="M213.066 131.215C213.066 131.215 210.156 131.905 209.881 133.29C209.732 133.928 209.639 134.577 209.601 135.23L214.036 131.63L219.581 129.41L213.066 131.215Z" fill="#263238" stroke="#263238" stroke-miterlimit="10"/>
<path d="M213.86 130.145C213.86 130.145 211.495 132.82 210.555 133.92C209.615 135.02 209.61 146.825 209.61 148.56C209.61 150.295 208.67 155.005 210.24 155.95C211.81 156.895 221.415 156.58 222.36 155.005C223.305 153.43 223.93 134.55 223.775 132.82C223.658 132.044 223.352 131.308 222.885 130.677C222.418 130.046 221.803 129.539 221.095 129.2C220 128.695 213.86 130.145 213.86 130.145Z" fill="white"/>
<mask id="mask9_526_26594" style="mask-type:luminance" maskUnits="userSpaceOnUse" x="209" y="129" width="15" height="28">
<path d="M213.86 130.145C213.86 130.145 211.495 132.82 210.555 133.92C209.615 135.02 209.61 146.825 209.61 148.56C209.61 150.295 208.67 155.005 210.24 155.95C211.81 156.895 221.415 156.58 222.36 155.005C223.305 153.43 223.93 134.55 223.775 132.82C223.658 132.044 223.352 131.308 222.885 130.677C222.418 130.046 221.803 129.539 221.095 129.2C220 128.695 213.86 130.145 213.86 130.145Z" fill="white"/>
</mask>
<g mask="url(#mask9_526_26594)">
<g style="mix-blend-mode:multiply" opacity="0.5">
<path d="M221.096 129.2C220.965 129.148 220.826 129.117 220.686 129.11L220.006 129.465C221.15 130.403 221.938 131.706 222.236 133.155C222.552 135.261 222.523 137.404 222.151 139.5C221.811 141.815 216.321 139.5 217.351 140.36C218.381 141.22 222.236 142.675 222.411 143.445C222.586 144.215 220.501 145.5 219.751 145.59C219.001 145.68 220.251 147.39 221.036 148.845C221.821 150.3 221.536 152.345 219.751 153.735C217.966 155.125 213.821 155.81 212.031 155.88C211.451 155.88 211.091 156.03 210.981 156.2C213.731 156.815 221.516 156.415 222.361 155.005C223.306 153.43 223.931 134.55 223.776 132.82C223.658 132.044 223.352 131.309 222.885 130.678C222.418 130.047 221.804 129.54 221.096 129.2Z" fill="#005AEE"/>
</g>
</g>
<path d="M213.86 130.145C213.86 130.145 211.495 132.82 210.555 133.92C209.615 135.02 209.61 146.825 209.61 148.56C209.61 150.295 208.67 155.005 210.24 155.95C211.81 156.895 221.415 156.58 222.36 155.005C223.305 153.43 223.93 134.55 223.775 132.82C223.658 132.044 223.352 131.308 222.885 130.677C222.418 130.046 221.803 129.539 221.095 129.2C220 128.695 213.86 130.145 213.86 130.145Z" stroke="#263238" stroke-miterlimit="10"/>
<path d="M218.695 142.12C216.16 141.33 213.94 139.12 213.94 139.12C214.503 141.746 216.03 144.066 218.22 145.62" fill="white"/>
<path d="M218.695 142.12C216.16 141.33 213.94 139.12 213.94 139.12C214.503 141.746 216.03 144.066 218.22 145.62" stroke="#263238" stroke-width="0.75" stroke-linecap="round" stroke-linejoin="round"/>
<path d="M220.626 127.47L213.071 129.2L212.601 131.405L221.096 129.2L220.626 127.47Z" fill="white" stroke="#263238" stroke-miterlimit="10"/>
<path d="M211.405 210.355L210.965 207.035L207.67 206.51L204.925 208.465L202.465 209.815V210.355H211.405Z" fill="#263238" stroke="#263238" stroke-miterlimit="10"/>
<path d="M225.655 210.615L225.245 207.53L221.95 207L219.205 208.955L216.745 210.31V210.615H225.655Z" fill="#263238" stroke="#263238" stroke-miterlimit="10"/>
<path d="M197.195 113L195.165 111.825C195.165 111.825 194.375 111.73 194.715 112.61L196.745 114.175" fill="white"/>
<path d="M197.195 113L195.165 111.825C195.165 111.825 194.375 111.73 194.715 112.61L196.745 114.175" stroke="#263238" stroke-linecap="round" stroke-linejoin="round"/>
<path d="M196.895 116.055C196.8 115.814 196.659 115.593 196.48 115.405L196.1 114.995L194.035 112.435C194.035 112.435 193.395 112.005 193.535 112.935L194.815 115.435L192.54 113.3C192.54 113.3 192.11 112.945 192.11 113.445C192.11 113.945 194.175 116.15 194.175 116.15L191.895 115.08C191.895 115.08 191.395 115.435 191.755 115.79C192.115 116.145 194.03 116.86 194.03 116.86L192.325 116.79C192.325 116.79 191.825 117.215 192.18 117.36C192.535 117.505 194.53 117.925 194.53 117.925C194.784 118.141 195.073 118.31 195.385 118.425L195.885 119.35L197.8 118.385L196.895 116.055Z" fill="white" stroke="#263238" stroke-linecap="round" stroke-linejoin="round"/>
<path d="M217.34 138.25L205.93 140.925C205.346 141.028 204.744 140.925 204.228 140.635C203.711 140.344 203.311 139.883 203.095 139.33L195.895 119.33L197.81 118.365L205.765 133.1C205.946 133.437 206.23 133.707 206.576 133.87C206.921 134.033 207.31 134.081 207.685 134.005L216.41 131.54" fill="white"/>
<path d="M217.34 138.25L205.93 140.925C205.346 141.028 204.744 140.925 204.228 140.635C203.711 140.344 203.311 139.883 203.095 139.33L195.895 119.33L197.81 118.365L205.765 133.1C205.946 133.437 206.23 133.707 206.576 133.87C206.921 134.033 207.31 134.081 207.685 134.005L216.41 131.54" stroke="#263238" stroke-miterlimit="10"/>
<path d="M198.885 120.25L196.665 121.36" stroke="#263238" stroke-width="0.75" stroke-miterlimit="10"/>
<path d="M215.92 116.8C215.92 116.8 214.705 118.015 215.31 118.925C215.669 119.451 215.942 120.03 216.12 120.64C216.12 120.64 215.62 121.855 216.02 121.855C216.42 121.855 216.22 120.945 216.93 121.15C217.64 121.355 218.345 122.565 217.74 122.97C217.288 123.223 216.808 123.425 216.31 123.57C216.247 123.59 216.191 123.627 216.148 123.678C216.106 123.729 216.079 123.791 216.072 123.857C216.064 123.923 216.076 123.99 216.106 124.049C216.136 124.108 216.183 124.157 216.24 124.19C216.898 124.635 217.656 124.909 218.445 124.99C219.091 125.004 219.736 124.937 220.365 124.79C220.365 124.79 222.365 122.06 223.805 121.35C225.245 120.64 224.615 117.405 224.615 117C224.615 116.595 223.2 115.685 223.2 115.685C223.2 115.685 223.605 114.775 221.785 112.755C219.965 110.735 216.525 110.325 216.425 111.035C216.39 111.223 216.41 111.417 216.481 111.595C216.553 111.772 216.674 111.925 216.83 112.035C216.83 112.035 213.795 110.72 212.38 112.135C210.965 113.55 215.92 116.8 215.92 116.8Z" fill="#263238" stroke="#263238" stroke-miterlimit="10"/>
<path d="M215.92 116.8C215.92 116.8 218.38 119.8 222.025 120.09" stroke="white" stroke-width="0.5" stroke-linecap="round" stroke-linejoin="round"/>
<path d="M215.051 117.715C215.051 117.715 216.196 121.045 220.931 121.995" stroke="white" stroke-width="0.5" stroke-linecap="round" stroke-linejoin="round"/>
</svg>
