<svg width="48" height="48" viewBox="0 0 48 48" fill="none" xmlns="http://www.w3.org/2000/svg">
<rect width="48" height="48" rx="24" fill="#CCCCCC"/>
<path d="M28 22H30M28 26H30M18.17 27C18.3761 26.414 18.7591 25.9065 19.266 25.5474C19.7729 25.1884 20.3788 24.9955 21 24.9955C21.6212 24.9955 22.2271 25.1884 22.734 25.5474C23.2409 25.9065 23.6239 26.414 23.83 27M23 23C23 24.1046 22.1046 25 21 25C19.8954 25 19 24.1046 19 23C19 21.8954 19.8954 21 21 21C22.1046 21 23 21.8954 23 23ZM16 17H32C33.1046 17 34 17.8954 34 19V29C34 30.1046 33.1046 31 32 31H16C14.8954 31 14 30.1046 14 29V19C14 17.8954 14.8954 17 16 17Z" stroke="#222222" stroke-width="2" stroke-linecap="round" stroke-linejoin="round"/>
</svg>
