<svg width="48" height="48" viewBox="0 0 48 48" fill="none" xmlns="http://www.w3.org/2000/svg">
<rect width="48" height="48" rx="24" fill="#CCCCCC"/>
<path d="M24 28H24.01M24 20V24M27.312 14C27.8424 14.0001 28.351 14.2109 28.726 14.586L33.414 19.274C33.7891 19.649 33.9999 20.1576 34 20.688V27.312C33.9999 27.8424 33.7891 28.351 33.414 28.726L28.726 33.414C28.351 33.7891 27.8424 33.9999 27.312 34H20.688C20.1576 33.9999 19.649 33.7891 19.274 33.414L14.586 28.726C14.2109 28.351 14.0001 27.8424 14 27.312V20.688C14.0001 20.1576 14.2109 19.649 14.586 19.274L19.274 14.586C19.649 14.2109 20.1576 14.0001 20.688 14H27.312Z" stroke="#E7000B" stroke-width="2" stroke-linecap="round" stroke-linejoin="round"/>
</svg>
