<svg width="251" height="250" viewBox="0 0 251 250" fill="none" xmlns="http://www.w3.org/2000/svg">
<path opacity="0.7" d="M34.4667 83.5458C34.4667 83.5458 20.5267 119.546 40.1167 155.796C59.7067 192.046 100.057 211.196 132.352 227.571C164.647 243.946 198.182 235.971 214.117 209.151C230.052 182.331 208.197 163.186 208.167 124.941C208.137 86.6958 213.892 76.5708 193.167 44.2608C172.442 11.9508 121.637 4.79577 83.2167 28.7608C44.7967 52.7258 34.4667 83.5458 34.4667 83.5458Z" fill="white"/>
<path d="M66.5007 213.787C78.3007 226.247 107.271 221.682 119.821 213.787C160.571 188.162 231.961 145.502 235.196 83.7021C236.571 57.4371 213.406 43.6421 203.731 39.5971C180.501 29.8771 155.001 26.9621 129.826 25.8371C103.541 24.6621 75.3257 25.5771 51.6707 38.4021C42.7007 43.2571 34.2407 49.5021 28.4507 58.0021C22.5707 66.6421 19.1857 76.9321 18.2857 87.3171C16.8407 104.067 21.3457 120.862 28.1607 136.232C34.9757 151.602 44.0607 165.832 52.4007 180.432C57.8457 189.947 56.5807 203.292 66.5007 213.787Z" fill="#005AEE"/>
<path opacity="0.7" d="M66.5007 213.787C78.3007 226.247 107.271 221.682 119.821 213.787C160.571 188.162 231.961 145.502 235.196 83.7021C236.571 57.4371 213.406 43.6421 203.731 39.5971C180.501 29.8771 155.001 26.9621 129.826 25.8371C103.541 24.6621 75.3257 25.5771 51.6707 38.4021C42.7007 43.2571 34.2407 49.5021 28.4507 58.0021C22.5707 66.6421 19.1857 76.9321 18.2857 87.3171C16.8407 104.067 21.3457 120.862 28.1607 136.232C34.9757 151.602 44.0607 165.832 52.4007 180.432C57.8457 189.947 56.5807 203.292 66.5007 213.787Z" fill="white"/>
<path d="M71.1061 70.3064L47.1301 63.0636C46.1996 62.7826 45.2174 63.309 44.9364 64.2395L40.6719 78.3563C40.3908 79.2868 40.9173 80.2689 41.8478 80.55L65.8238 87.7928C66.7542 88.0739 67.7364 87.5474 68.0175 86.6169L72.282 72.5001C72.563 71.5696 72.0366 70.5875 71.1061 70.3064Z" stroke="#263238" stroke-width="1.00285" stroke-miterlimit="10"/>
<path d="M44.0898 66.418L71.3448 74.678" stroke="#263238" stroke-miterlimit="10"/>
<path d="M43.2598 69.1523L70.5198 77.4123" stroke="#263238" stroke-miterlimit="10"/>
<path d="M62.2244 82.5288C62.1551 82.759 62.133 83.0008 62.1597 83.2397C62.1863 83.4786 62.2611 83.7096 62.3794 83.9188C61.9708 84.1207 61.5009 84.16 61.0644 84.0288C60.7865 83.9449 60.5334 83.794 60.3273 83.5895C60.1213 83.385 59.9685 83.133 59.8825 82.8557C59.7964 82.5784 59.7797 82.2842 59.8338 81.999C59.8879 81.7137 60.0112 81.4461 60.1927 81.2195C60.3743 80.993 60.6087 80.8145 60.8754 80.6996C61.142 80.5847 61.4328 80.537 61.7221 80.5606C62.0115 80.5842 62.2907 80.6784 62.5352 80.8351C62.7796 80.9917 62.982 81.2059 63.1244 81.4588C62.9106 81.5682 62.7209 81.7191 62.5663 81.9029C62.4117 82.0867 62.2955 82.2995 62.2244 82.5288Z" stroke="#263238" stroke-miterlimit="10"/>
<path d="M65.6194 83.5579C65.5171 83.8937 65.3175 84.1917 65.0458 84.4141C64.7742 84.6365 64.4427 84.7733 64.0932 84.8073C63.7438 84.8413 63.3921 84.7708 63.0827 84.6049C62.7733 84.439 62.52 84.185 62.3549 83.8752C62.1898 83.5653 62.1204 83.2135 62.1553 82.8641C62.1902 82.5148 62.3279 82.1836 62.5511 81.9125C62.7742 81.6415 63.0727 81.4427 63.4088 81.3413C63.745 81.2399 64.1036 81.2404 64.4394 81.3429C64.8896 81.4802 65.2668 81.7907 65.4881 82.2061C65.7093 82.6214 65.7566 83.1077 65.6194 83.5579Z" stroke="#263238" stroke-miterlimit="10"/>
<path d="M234.069 104.38L214.244 98.3723C213.316 98.0912 212.337 98.6152 212.055 99.5428L208.581 111.008C208.3 111.935 208.824 112.915 209.751 113.196L229.576 119.205C230.504 119.486 231.483 118.962 231.765 118.034L235.239 106.569C235.52 105.641 234.996 104.661 234.069 104.38Z" stroke="#263238" stroke-miterlimit="10"/>
<path d="M211.52 101.309L234.705 108.334" stroke="#263238" stroke-miterlimit="10"/>
<path d="M210.814 103.637L233.994 110.662" stroke="#263238" stroke-miterlimit="10"/>
<path d="M226.946 114.997C226.886 115.192 226.867 115.398 226.889 115.6C226.912 115.803 226.975 116 227.076 116.177C226.857 116.283 226.616 116.335 226.372 116.327C226.129 116.32 225.891 116.253 225.68 116.133C225.468 116.013 225.289 115.843 225.157 115.638C225.026 115.433 224.946 115.199 224.925 114.957C224.905 114.714 224.943 114.47 225.038 114.246C225.132 114.022 225.28 113.824 225.468 113.669C225.656 113.515 225.879 113.408 226.117 113.359C226.355 113.31 226.602 113.319 226.836 113.387C227.207 113.499 227.521 113.749 227.711 114.087C227.528 114.179 227.366 114.306 227.235 114.463C227.103 114.619 227.005 114.801 226.946 114.997Z" stroke="#263238" stroke-miterlimit="10"/>
<path d="M229.83 115.89C229.741 116.172 229.571 116.422 229.341 116.608C229.111 116.794 228.831 116.908 228.536 116.935C228.242 116.962 227.946 116.902 227.685 116.761C227.425 116.62 227.212 116.406 227.073 116.144C226.935 115.883 226.876 115.586 226.906 115.292C226.935 114.997 227.051 114.718 227.239 114.49C227.427 114.261 227.678 114.093 227.961 114.007C228.244 113.92 228.546 113.92 228.83 114.005C229.02 114.062 229.197 114.156 229.35 114.282C229.504 114.408 229.631 114.563 229.724 114.738C229.817 114.914 229.874 115.106 229.892 115.303C229.91 115.501 229.889 115.7 229.83 115.89Z" stroke="#263238" stroke-miterlimit="10"/>
<path d="M202.339 49.6052L173.398 62.8555L180.292 77.9124L209.233 64.6622L202.339 49.6052Z" stroke="#263238" stroke-miterlimit="10"/>
<path d="M206.745 62.4977L202.365 52.9327C201.956 53.1195 201.489 53.1365 201.067 52.98C200.646 52.8235 200.303 52.5062 200.115 52.0977L176.72 62.8077C176.907 63.2169 176.924 63.6834 176.767 64.1052C176.611 64.5269 176.293 64.8694 175.885 65.0577L180.265 74.6227C180.468 74.5296 180.687 74.4776 180.91 74.4695C181.133 74.4614 181.355 74.4974 181.564 74.5754C181.773 74.6534 181.965 74.772 182.128 74.9243C182.291 75.0765 182.423 75.2595 182.515 75.4627L205.905 64.7477C205.812 64.5448 205.76 64.3256 205.752 64.1026C205.743 63.8797 205.779 63.6573 205.858 63.4482C205.936 63.2392 206.054 63.0476 206.206 62.8845C206.359 62.7214 206.542 62.5899 206.745 62.4977Z" stroke="#263238" stroke-miterlimit="10"/>
<path d="M193.966 67.2143C195.872 65.7508 196.23 63.0199 194.766 61.1147C193.303 59.2095 190.572 58.8514 188.667 60.3149C186.761 61.7784 186.403 64.5093 187.867 66.4145C189.33 68.3198 192.061 68.6778 193.966 67.2143Z" stroke="#263238" stroke-miterlimit="10"/>
<path d="M192.5 65.8684L192.825 66.5784L192.515 66.7184L192.195 66.0184C191.648 66.2568 191.034 66.2957 190.46 66.1284V65.6934C190.967 65.8468 191.511 65.8203 192 65.6184L191.265 63.9984C190.505 64.1434 189.72 64.2534 189.345 63.4334C189.075 62.8434 189.265 62.1334 190.175 61.6284L189.85 60.9134L190.16 60.7734L190.5 61.4984C190.95 61.3033 191.445 61.2375 191.93 61.3084V61.7434C191.503 61.6818 191.067 61.7317 190.665 61.8884L191.415 63.5284C192.19 63.3734 193.015 63.2334 193.415 64.0634C193.665 64.6384 193.45 65.3634 192.5 65.8684ZM191.07 63.5634L190.36 61.9984C189.745 62.3434 189.61 62.8034 189.79 63.1934C190 63.6834 190.5 63.6634 191.065 63.5634H191.07ZM192.955 64.2684C192.735 63.7684 192.205 63.8184 191.615 63.9334L192.32 65.4784C193 65.1184 193.13 64.6634 192.95 64.2684H192.955Z" fill="#263238"/>
<path d="M42.6222 118.192L20.3672 120.195L21.4089 131.77L43.6639 129.767L42.6222 118.192Z" stroke="#263238" stroke-width="1.00404" stroke-miterlimit="10"/>
<path d="M41.8759 127.428L41.2459 120.103C40.9325 120.13 40.6214 120.031 40.3806 119.829C40.1398 119.626 39.9889 119.337 39.9609 119.023L22.0409 120.573C22.066 120.887 21.9667 121.197 21.7645 121.437C21.5624 121.678 21.2737 121.829 20.9609 121.858L21.5909 129.183C21.7463 129.17 21.9028 129.187 22.0515 129.234C22.2002 129.281 22.3383 129.356 22.4576 129.457C22.577 129.557 22.6754 129.68 22.7472 129.818C22.819 129.957 22.8627 130.108 22.8759 130.263L40.7959 128.713C40.7709 128.4 40.8702 128.09 41.0723 127.849C41.2745 127.609 41.5632 127.458 41.8759 127.428Z" stroke="#263238" stroke-miterlimit="10"/>
<path d="M34.4496 124.383C34.5018 124.983 34.3749 125.585 34.0848 126.113C33.7947 126.641 33.3546 127.071 32.8201 127.349C32.2857 127.627 31.6808 127.74 31.0821 127.674C30.4834 127.608 29.9177 127.365 29.4567 126.978C28.9956 126.59 28.6598 126.075 28.4919 125.496C28.3239 124.918 28.3313 124.302 28.513 123.728C28.6948 123.154 29.0428 122.646 29.513 122.27C29.9832 121.893 30.5545 121.665 31.1546 121.613C31.553 121.578 31.9543 121.622 32.3356 121.743C32.7169 121.863 33.0708 122.057 33.3769 122.315C33.6829 122.572 33.9352 122.887 34.1193 123.242C34.3034 123.597 34.4157 123.985 34.4496 124.383Z" stroke="#263238" stroke-miterlimit="10"/>
<path d="M31.7009 126.312L31.7459 126.857H31.5109L31.4609 126.317C31.0454 126.345 30.6332 126.226 30.2959 125.982L30.4059 125.702C30.7042 125.919 31.0674 126.029 31.4359 126.012L31.3309 124.767C30.7959 124.687 30.2509 124.572 30.2009 123.947C30.1609 123.492 30.4509 123.067 31.1709 122.947L31.1259 122.402H31.3609L31.4059 122.937C31.7527 122.915 32.0988 122.99 32.4059 123.152L32.3109 123.437C32.0441 123.299 31.7465 123.23 31.4459 123.237L31.5509 124.492C32.0959 124.572 32.6759 124.677 32.7309 125.312C32.7609 125.777 32.4459 126.202 31.7009 126.312ZM31.3009 124.457L31.1959 123.272C30.6959 123.357 30.5159 123.627 30.5409 123.927C30.5659 124.227 30.9009 124.392 31.3009 124.457ZM32.3759 125.367C32.3409 124.992 31.9859 124.867 31.5709 124.827L31.6709 126.012C32.1909 125.927 32.4009 125.667 32.3759 125.367Z" fill="#263238"/>
<path d="M222.664 56.3523C225.067 56.3523 227.014 54.4048 227.014 52.0023C227.014 49.5999 225.067 47.6523 222.664 47.6523C220.262 47.6523 218.314 49.5999 218.314 52.0023C218.314 54.4048 220.262 56.3523 222.664 56.3523Z" stroke="#263238" stroke-miterlimit="10"/>
<path d="M222.86 54.4186V55.1986H222.5V54.4236C221.904 54.4118 221.33 54.1946 220.875 53.8086L221.07 53.4186C221.468 53.7677 221.972 53.9721 222.5 53.9986V52.2136C221.75 52.0286 221 51.7986 221 50.8986C221 50.2486 221.47 49.6836 222.5 49.6036V48.8086H222.84V49.5836C223.331 49.594 223.809 49.7412 224.22 50.0086L224.05 50.4086C223.688 50.1747 223.271 50.0387 222.84 50.0136V51.8136C223.605 51.9986 224.415 52.2136 224.415 53.1286C224.435 53.7836 223.94 54.3586 222.86 54.4186ZM222.52 51.7236V50.0286C221.82 50.0886 221.52 50.4486 221.52 50.8786C221.5 51.3936 221.96 51.5836 222.5 51.7236H222.52ZM223.94 53.1536C223.94 52.6186 223.44 52.4336 222.86 52.2886V53.9986C223.605 53.9336 223.94 53.5886 223.94 53.1536Z" fill="#263238"/>
<path d="M194.015 110.201C196.353 109.65 197.802 107.307 197.251 104.969C196.7 102.631 194.358 101.182 192.019 101.733C189.681 102.284 188.232 104.626 188.783 106.964C189.334 109.303 191.676 110.752 194.015 110.201Z" stroke="#263238" stroke-miterlimit="10"/>
<path d="M191.92 108.12L191.515 108.785L191.225 108.605L191.63 107.945C191.127 107.625 190.752 107.139 190.57 106.57L190.94 106.34C191.097 106.843 191.419 107.279 191.855 107.575L192.795 106.05C192.25 105.505 191.725 104.91 192.195 104.145C192.535 103.59 193.23 103.355 194.16 103.83L194.57 103.16L194.86 103.34L194.455 104C194.865 104.267 195.195 104.641 195.41 105.08L195.055 105.335C194.867 104.947 194.583 104.614 194.23 104.365L193.285 105.9C193.845 106.46 194.42 107.065 193.94 107.845C193.595 108.405 192.875 108.63 191.92 108.12ZM193.045 105.62L193.93 104.175C193.305 103.86 192.85 104 192.625 104.365C192.355 104.83 192.64 105.235 193.045 105.645V105.62ZM193.505 107.58C193.785 107.125 193.46 106.71 193.035 106.28L192.145 107.73C192.81 108.1 193.275 108 193.5 107.605L193.505 107.58Z" fill="#263238"/>
<path d="M130.59 21.9982C130.948 22.7808 131.065 23.6518 130.927 24.501C130.789 25.3502 130.403 26.1395 129.817 26.7691C129.231 27.3987 128.471 27.8403 127.634 28.0382C126.796 28.236 125.919 28.1812 125.113 27.8805C124.307 27.5799 123.608 27.0471 123.105 26.3493C122.602 25.6516 122.317 24.8203 122.286 23.9605C122.255 23.1008 122.48 22.2512 122.932 21.5193C123.384 20.7873 124.043 20.2058 124.825 19.8482C125.345 19.6101 125.906 19.4768 126.478 19.456C127.049 19.4352 127.618 19.5273 128.154 19.727C128.689 19.9267 129.18 20.2302 129.598 20.6199C130.017 21.0096 130.354 21.478 130.59 21.9982Z" stroke="#263238" stroke-miterlimit="10"/>
<path d="M127.815 25.9125L128.14 26.6225L127.83 26.7675L127.5 26.0625C126.953 26.3008 126.339 26.3398 125.765 26.1725V25.7375C126.27 25.89 126.812 25.8653 127.3 25.6675L126.56 24.0375C125.8 24.1825 125.015 24.2875 124.64 23.4725C124.37 22.8775 124.56 22.1725 125.475 21.6675L125.15 20.9525L125.455 20.8125L125.78 21.5175C126.23 21.3224 126.725 21.2566 127.21 21.3275V21.7625C126.783 21.702 126.348 21.7519 125.945 21.9075L126.695 23.5475C127.47 23.3925 128.295 23.2575 128.695 24.0825C129 24.6825 128.77 25.4075 127.815 25.9125ZM126.385 23.6075L125.68 22.0625C125.065 22.4075 124.93 22.8675 125.11 23.2525C125.325 23.7225 125.82 23.7075 126.385 23.6075ZM128.27 24.3125C128.045 23.8125 127.52 23.8675 126.93 23.9775L127.635 25.5225C128.29 25.1625 128.45 24.7125 128.27 24.3125Z" fill="#263238"/>
<path d="M115.941 198.165C116.477 199.34 116.654 200.649 116.447 201.925C116.24 203.2 115.659 204.386 114.779 205.332C113.898 206.278 112.756 206.941 111.499 207.239C110.241 207.536 108.923 207.453 107.712 207.002C106.501 206.55 105.451 205.749 104.695 204.701C103.939 203.653 103.511 202.404 103.465 201.112C103.419 199.821 103.757 198.544 104.436 197.445C105.115 196.345 106.105 195.472 107.281 194.935C108.061 194.578 108.905 194.379 109.762 194.348C110.62 194.317 111.476 194.456 112.28 194.756C113.084 195.056 113.821 195.511 114.449 196.096C115.077 196.681 115.584 197.384 115.941 198.165Z" stroke="#263238" stroke-miterlimit="10"/>
<path d="M111.765 204.055L112.265 205.125L111.8 205.335L111.3 204.275C110.478 204.634 109.556 204.695 108.695 204.445L108.725 203.795C109.484 204.021 110.297 203.98 111.03 203.68L109.915 201.24C108.78 201.455 107.595 201.615 107.035 200.39C106.625 199.5 106.915 198.435 108.285 197.675L107.785 196.61L108.245 196.395L108.745 197.455C109.422 197.163 110.166 197.065 110.895 197.17V197.82C110.255 197.729 109.602 197.805 109 198.04L110.12 200.5C111.285 200.27 112.525 200.065 113.095 201.305C113.525 202.21 113.205 203.3 111.765 204.055ZM109.625 200.59L108.56 198.27C107.645 198.77 107.44 199.475 107.71 200.065C108.03 200.77 108.77 200.745 109.625 200.59ZM112.455 201.655C112.12 200.92 111.325 200.98 110.455 201.155L111.515 203.475C112.5 202.93 112.725 202.25 112.455 201.655Z" fill="#263238"/>
<path d="M22.3301 96.6128C21.3592 97.4657 20.1571 98.0115 18.876 98.1813C17.5948 98.3511 16.2921 98.1372 15.1324 97.5667C13.9728 96.9961 13.0084 96.0946 12.3611 94.976C11.7139 93.8574 11.4128 92.572 11.496 91.2823C11.5792 89.9927 12.0429 88.7566 12.8285 87.7304C13.6141 86.7043 14.6863 85.9341 15.9096 85.5172C17.1329 85.1004 18.4523 85.0556 19.7011 85.3886C20.9498 85.7215 22.0718 86.4173 22.9251 87.3878C23.492 88.0325 23.9263 88.7826 24.2032 89.5952C24.4801 90.4077 24.5941 91.2669 24.5389 92.1236C24.4836 92.9803 24.2601 93.8177 23.8811 94.5879C23.5022 95.3582 22.9751 96.0463 22.3301 96.6128Z" stroke="#263238" stroke-miterlimit="10"/>
<path d="M15.5002 94.3136L14.6202 95.0886L14.2802 94.7036L15.1552 93.9386C14.5755 93.2526 14.2521 92.3866 14.2402 91.4886L14.8752 91.3286C14.8755 92.1163 15.1416 92.8808 15.6302 93.4986L17.6302 91.7286C17.0952 90.7036 16.6002 89.6136 17.6302 88.7286C18.3702 88.0836 19.4702 88.0536 20.5902 89.1436L21.5002 88.3736L21.8352 88.7536L20.9602 89.5236C21.4257 90.0898 21.7267 90.773 21.8302 91.4986L21.2102 91.7036C21.1106 91.0642 20.8509 90.4605 20.4552 89.9486L18.4202 91.7336C18.9752 92.7786 19.5302 93.9086 18.5052 94.8136C17.7602 95.4636 16.6252 95.4986 15.5002 94.3136ZM18.2002 91.2636L20.1152 89.5786C19.3552 88.8486 18.6152 88.8536 18.1552 89.2786C17.5552 89.7886 17.7952 90.4986 18.1852 91.2636H18.2002ZM17.9952 94.2636C18.6052 93.7336 18.3202 92.9886 17.9002 92.1886L15.9852 93.8736C16.7702 94.6786 17.5002 94.7086 18.0002 94.2786L17.9952 94.2636Z" fill="#263238"/>
<path d="M52.2468 152.351C52.3165 150.609 50.9604 149.14 49.218 149.07C47.4755 149 46.0064 150.356 45.9367 152.099C45.867 153.841 47.2231 155.31 48.9656 155.38C50.708 155.45 52.1771 154.094 52.2468 152.351Z" stroke="#263238" stroke-width="1.0008" stroke-miterlimit="10"/>
<path d="M50.0004 152.84L50.3604 153.275L50.1754 153.43L49.8154 153C49.4771 153.272 49.0544 153.417 48.6204 153.41L48.5504 153.1C48.9321 153.11 49.3058 152.99 49.6104 152.76L48.7804 151.76C48.2804 152.005 47.7504 152.23 47.3304 151.73C47.0304 151.37 47.0304 150.835 47.5704 150.305L47.2054 149.87L47.3954 149.715L47.7554 150.145C48.0338 149.924 48.3677 149.784 48.7204 149.74L48.8104 150.04C48.5014 150.083 48.2077 150.201 47.9554 150.385L48.7904 151.385C49.2904 151.13 49.8554 150.885 50.2904 151.385C50.5954 151.755 50.5854 152.305 50.0004 152.84ZM48.5704 151.5L47.7804 150.555C47.4204 150.915 47.4154 151.26 47.6104 151.5C47.8054 151.74 48.1954 151.675 48.5704 151.5ZM50.0254 151.635C49.7754 151.34 49.4154 151.465 49.0254 151.66L49.8154 152.605C50.2004 152.225 50.2254 151.875 50.0254 151.63V151.635Z" fill="#263238"/>
<path d="M149.295 214.584C149.694 215.063 149.942 215.65 150.007 216.271C150.073 216.891 149.953 217.517 149.663 218.07C149.373 218.622 148.925 219.076 148.377 219.374C147.829 219.672 147.205 219.801 146.584 219.744C145.962 219.688 145.372 219.448 144.886 219.056C144.401 218.664 144.043 218.136 143.858 217.541C143.672 216.945 143.667 216.308 143.844 215.709C144.02 215.111 144.37 214.578 144.85 214.179C145.493 213.644 146.323 213.386 147.156 213.462C147.989 213.538 148.758 213.942 149.295 214.584Z" stroke="#263238" stroke-miterlimit="10"/>
<path d="M148.095 217.859L148.46 218.294L148.27 218.449L147.91 218.019C147.574 218.291 147.153 218.436 146.72 218.429L146.65 218.119C147.032 218.132 147.407 218.012 147.71 217.779L146.88 216.779C146.38 217.024 145.845 217.249 145.43 216.749C145.125 216.389 145.125 215.854 145.665 215.324L145.305 214.889L145.495 214.734L145.855 215.164C146.132 214.941 146.467 214.801 146.82 214.759L146.91 215.059C146.6 215.102 146.304 215.221 146.05 215.404L146.89 216.404C147.39 216.149 147.955 215.904 148.39 216.404C148.68 216.774 148.67 217.324 148.095 217.859ZM146.66 216.499L145.87 215.554C145.505 215.914 145.5 216.259 145.7 216.499C145.9 216.739 146.28 216.694 146.66 216.499ZM148.11 216.639C147.86 216.339 147.5 216.464 147.11 216.639L147.9 217.584C148.29 217.244 148.315 216.894 148.11 216.654V216.639Z" fill="#263238"/>
<path d="M62.9429 34.8407C63.102 33.1055 61.8244 31.5699 60.0892 31.4108C58.354 31.2516 56.8184 32.5293 56.6592 34.2644C56.5001 35.9996 57.7777 37.5353 59.5129 37.6944C61.2481 37.8535 62.7837 36.5759 62.9429 34.8407Z" stroke="#263238" stroke-miterlimit="10"/>
<path d="M61.0352 35.8086L61.3952 36.2436L61.2052 36.3986L60.8452 35.9686C60.5093 36.2413 60.0878 36.3865 59.6552 36.3786L59.5852 36.0686C59.9668 36.0786 60.3406 35.9587 60.6452 35.7286L59.8152 34.7286C59.3152 34.9736 58.7802 35.1986 58.3652 34.6986C58.0652 34.3386 58.0602 33.8036 58.6052 33.2736L58.2402 32.8386L58.4302 32.6836L58.7902 33.1136C59.068 32.8916 59.4022 32.7514 59.7552 32.7086L59.8452 33.0086C59.5361 33.0514 59.2425 33.17 58.9902 33.3536L59.8252 34.3536C60.3252 34.0986 60.8902 33.8536 61.3252 34.3536C61.6202 34.7236 61.6052 35.2736 61.0352 35.8086ZM59.5952 34.4636L58.8052 33.4986C58.4452 33.8586 58.4352 34.2036 58.6352 34.4436C58.8352 34.6836 59.2152 34.6436 59.5952 34.4636ZM61.0502 34.5986C60.8002 34.3036 60.4352 34.4286 60.0502 34.5986L60.8402 35.5436C61.2252 35.1936 61.2502 34.8436 61.0502 34.5986Z" fill="#263238"/>
<path opacity="0.2" d="M130.905 163.904C130.905 163.904 127.05 183.469 103.405 187.904C103.405 187.904 97.2304 192.829 95.1754 195.744C93.1204 198.659 82.1754 203.614 71.0254 219.074C59.8754 234.534 43.2754 185.439 43.2754 185.439L79.9654 137.789L130.905 163.904Z" fill="black" fill-opacity="0.7"/>
<path d="M151.922 72.0385C151.922 72.0385 164.672 65.8035 167.477 66.8785C170.282 67.9535 172.977 74.4035 162.252 80.5785C151.527 86.7535 154.727 98.2585 154.727 98.2585H162.377C162.377 98.2585 166.967 100.129 168.752 102.534C170.537 104.939 171.812 113.139 172.832 115.918C173.852 118.698 173.332 121.484 170.537 122.389C170.537 122.389 168.752 130.168 169.262 133.618C169.772 137.068 169.517 139.289 166.202 139.709C165.367 139.795 164.524 139.7 163.731 139.429C162.937 139.158 162.212 138.717 161.606 138.138C160.999 137.558 160.526 136.854 160.219 136.074C159.912 135.294 159.778 134.456 159.827 133.618L157.277 142.858L159.062 146.409C161.583 147.384 163.914 148.796 165.947 150.578C169.517 153.638 173.087 154.473 172.067 157.883C171.047 161.293 169.007 164.969 158.297 160.709C147.587 156.449 138.662 139.709 138.662 139.709L132.227 81.3385L151.922 72.0385Z" fill="white"/>
<path opacity="0.4" d="M165.342 105.569C159.562 113.449 165.957 122.524 165.957 122.524C165.957 122.524 161.957 124.754 161.842 130.444C161.797 132.809 162.392 136.114 163.102 139.174C162.062 138.683 161.195 137.891 160.611 136.9C160.028 135.909 159.756 134.766 159.832 133.619L157.277 142.859L159.062 146.404C160.94 147.123 162.71 148.097 164.322 149.299C162.737 152.939 162.252 157.439 162.392 162.079C160.999 161.709 159.631 161.252 158.297 160.709C147.587 156.444 138.662 139.709 138.662 139.709L132.227 81.3341L151.922 72.0391C151.922 72.0391 158.887 68.6341 163.657 67.2891C163.287 71.7491 164.157 76.3641 164.787 78.9341C163.973 79.5295 163.127 80.0787 162.252 80.5791C151.542 86.7541 154.727 98.2591 154.727 98.2591H162.382C162.382 98.2591 166.742 100.039 168.612 102.354C167.333 103.215 166.224 104.305 165.342 105.569Z" fill="#005AEE"/>
<path d="M132.001 154.498C132.001 154.498 118.131 181.693 93.1307 187.863C93.1307 187.863 92.1757 193.243 87.9457 195.553C85.6857 196.783 76.5657 210.448 68.5607 222.923L24.2207 195.723C26.9507 193.023 30.0607 189.913 33.2207 186.668C42.4707 177.238 52.3407 166.668 55.3607 161.438C58.0607 156.788 61.4757 148.718 64.4507 141.133C68.2607 131.433 71.3607 122.523 71.3607 122.523L86.1407 106.093L109.376 80.2578L110.376 83.5628L132.001 154.498Z" fill="white"/>
<path opacity="0.4" d="M109.396 80.2578L132.001 154.498C132.001 154.498 118.131 181.693 93.1308 187.863C93.1308 187.863 92.1758 193.243 87.9458 195.553C85.9158 196.658 78.3608 207.783 71.0508 219.053C73.7608 209.753 81.6058 194.928 81.6058 194.928C76.5708 188.963 78.0408 182.678 80.0558 184.468C82.0708 186.258 87.1358 191.288 87.4558 191.603C85.2308 188.983 84.7158 184.878 84.7158 184.878C84.7158 184.878 90.9558 189.028 91.4608 182.378C91.9658 175.728 87.7208 159.478 87.7208 159.478L76.5758 116.748L109.396 80.2578Z" fill="#005AEE"/>
<path d="M132.227 81.3385L151.922 72.0385C151.922 72.0385 164.672 65.8035 167.477 66.8785C170.282 67.9535 172.977 74.4035 162.252 80.5785C151.527 86.7535 154.727 98.2585 154.727 98.2585H162.377C162.377 98.2585 166.967 100.129 168.752 102.534C170.537 104.939 171.812 113.138 172.832 115.918C173.852 118.698 173.332 121.484 170.537 122.389C170.537 122.389 168.752 130.168 169.262 133.618C169.772 137.068 169.517 139.289 166.202 139.709C165.367 139.795 164.524 139.7 163.731 139.429C162.937 139.158 162.212 138.717 161.606 138.138C160.999 137.558 160.526 136.854 160.219 136.074C159.912 135.294 159.778 134.456 159.827 133.618L157.277 142.858L159.062 146.409C161.583 147.384 163.914 148.796 165.947 150.578C169.517 153.638 173.087 154.473 172.067 157.883C171.047 161.293 169.007 164.969 158.297 160.709C147.587 156.449 138.662 139.709 138.662 139.709" stroke="#263238" stroke-linecap="round" stroke-linejoin="round"/>
<path d="M170.537 122.388C166.712 123.423 162.252 122.658 160.592 115.888C158.932 109.118 162.252 101.888 164.417 101.223" stroke="#263238" stroke-linecap="round" stroke-linejoin="round"/>
<path d="M159.825 133.621C159.825 133.621 159.57 124.916 162.76 122.766" stroke="#263238" stroke-linecap="round" stroke-linejoin="round"/>
<path opacity="0.4" d="M66.8102 176.853C66.8102 176.853 57.4652 175.688 55.3802 171.508C53.6552 168.048 44.3052 181.008 33.2402 186.668C42.4902 177.238 52.3602 166.668 55.3802 161.438C58.0802 156.788 61.4952 148.718 64.4702 141.133C64.3202 147.423 60.9702 157.053 61.9252 162.068C60.9019 162.338 60.0264 163.001 59.4883 163.913C58.9502 164.824 58.7928 165.911 59.0502 166.938C59.7652 170.923 66.8102 176.853 66.8102 176.853Z" fill="#005AEE"/>
<path d="M132.002 154.5C132.002 154.5 118.132 181.695 93.1266 187.865C93.1266 187.865 92.1766 193.245 87.9466 195.555C85.6866 196.785 76.5716 210.45 68.5566 222.925" stroke="#263238" stroke-linecap="round" stroke-linejoin="round"/>
<path d="M24.2207 195.723C34.9007 185.168 51.3157 168.433 55.3807 161.438C61.5307 150.853 71.3807 122.518 71.3807 122.518L109.381 80.2578" stroke="#263238" stroke-linecap="round" stroke-linejoin="round"/>
<path d="M87.6953 112.535C87.6953 112.535 93.5353 117.765 95.1953 122.535" stroke="#263238" stroke-linecap="round" stroke-linejoin="round"/>
<path d="M156.632 36.3594H93.7966C91.9382 36.3594 90.4316 37.8659 90.4316 39.7244V173.489C90.4316 175.348 91.9382 176.854 93.7966 176.854H156.632C158.49 176.854 159.997 175.348 159.997 173.489V39.7244C159.997 37.8659 158.49 36.3594 156.632 36.3594Z" fill="#263238"/>
<path d="M139.001 40.1842L137.671 42.6192C137.53 42.8835 137.32 43.1048 137.064 43.2597C136.808 43.4146 136.515 43.4974 136.216 43.4992H114.216C113.917 43.4976 113.624 43.4161 113.367 43.2631C113.11 43.1102 112.899 42.8913 112.756 42.6292L111.431 40.1942C111.288 39.9311 111.077 39.7113 110.82 39.5582C110.563 39.4051 110.27 39.3242 109.971 39.3242H94.5956C94.3765 39.3249 94.1597 39.3688 93.9576 39.4533C93.7555 39.5379 93.5721 39.6616 93.4179 39.8172C93.2637 39.9728 93.1417 40.1573 93.059 40.3601C92.9762 40.563 92.9343 40.7801 92.9356 40.9992V172.499C92.9356 172.94 93.1103 173.363 93.4215 173.675C93.7326 173.987 94.1549 174.163 94.5956 174.164H155.826C156.045 174.166 156.263 174.123 156.466 174.04C156.669 173.957 156.854 173.835 157.009 173.68C157.165 173.525 157.289 173.341 157.373 173.139C157.457 172.936 157.501 172.719 157.501 172.499V40.9992C157.501 40.5576 157.325 40.1341 157.013 39.8219C156.701 39.5096 156.277 39.3342 155.836 39.3342H140.466C140.168 39.3313 139.874 39.4088 139.617 39.5583C139.359 39.7079 139.146 39.9241 139.001 40.1842Z" fill="#005AEE" stroke="#263238" stroke-linecap="round" stroke-linejoin="round"/>
<path d="M120.44 41.3642C120.934 41.3642 121.335 40.9635 121.335 40.4692C121.335 39.9749 120.934 39.5742 120.44 39.5742C119.946 39.5742 119.545 39.9749 119.545 40.4692C119.545 40.9635 119.946 41.3642 120.44 41.3642Z" stroke="white" stroke-miterlimit="10"/>
<path d="M130.876 40.4702C130.875 40.5797 130.841 40.6865 130.78 40.7771C130.718 40.8677 130.631 40.9381 130.53 40.9793C130.428 41.0206 130.317 41.0309 130.209 41.0089C130.102 40.9869 130.004 40.9337 129.926 40.8558C129.849 40.778 129.797 40.6791 129.776 40.5716C129.755 40.4641 129.766 40.3528 129.808 40.2516C129.85 40.1505 129.922 40.0641 130.013 40.0034C130.104 39.9426 130.211 39.9102 130.321 39.9102C130.394 39.9102 130.466 39.9247 130.534 39.9529C130.602 39.9811 130.663 40.0224 130.715 40.0745C130.766 40.1265 130.807 40.1883 130.835 40.2562C130.862 40.3241 130.876 40.3969 130.876 40.4702Z" stroke="white" stroke-miterlimit="10"/>
<path d="M128.387 40.1211H122.947C122.901 40.1211 122.856 40.1302 122.813 40.1478C122.771 40.1655 122.733 40.1913 122.701 40.2239C122.669 40.2565 122.643 40.2951 122.626 40.3375C122.609 40.38 122.601 40.4254 122.602 40.4711C122.602 40.5626 122.638 40.6503 122.703 40.715C122.767 40.7797 122.855 40.8161 122.947 40.8161H128.387C128.478 40.8161 128.566 40.7797 128.631 40.715C128.695 40.6503 128.732 40.5626 128.732 40.4711C128.732 40.4254 128.724 40.38 128.707 40.3375C128.69 40.2951 128.664 40.2565 128.632 40.2239C128.6 40.1913 128.562 40.1655 128.52 40.1478C128.478 40.1302 128.432 40.1211 128.387 40.1211Z" fill="white"/>
<path d="M104.32 42.6602H98.4551V45.1502H104.32V42.6602Z" stroke="#263238" stroke-linecap="round" stroke-linejoin="round"/>
<path d="M105.226 43.0781H104.316V44.7331H105.226V43.0781Z" stroke="#263238" stroke-linecap="round" stroke-linejoin="round"/>
<path d="M145.88 44.25H144.84V45.155H145.88V44.25Z" stroke="#263238" stroke-linecap="round" stroke-linejoin="round"/>
<path d="M147.911 43.3398H146.871V45.1548H147.911V43.3398Z" stroke="#263238" stroke-linecap="round" stroke-linejoin="round"/>
<path d="M149.94 42.4297H148.9V45.1497H149.94V42.4297Z" stroke="#263238" stroke-linecap="round" stroke-linejoin="round"/>
<path d="M151.966 41.5195H150.926V45.1495H151.966V41.5195Z" stroke="#263238" stroke-linecap="round" stroke-linejoin="round"/>
<path opacity="0.5" d="M157.072 68.3789H93.3516V129.154H157.072V68.3789Z" fill="white"/>
<path d="M110.95 58.6752V59.7302C110.95 61.0352 110.325 61.7302 109.045 61.7302H108.44V64.7852H107.16V56.6602H109.045C110.325 56.6602 110.95 57.3702 110.95 58.6752ZM108.45 57.8252V60.5802H109.055C109.46 60.5802 109.68 60.3952 109.68 59.8152V58.5902C109.68 58.0102 109.46 57.8252 109.055 57.8252H108.45Z" fill="#263238"/>
<path d="M115.537 64.8002H114.247L114.022 63.3252H112.457L112.232 64.8002H111.057L112.362 56.6602H114.232L115.537 64.8002ZM112.617 62.2202H113.852L113.247 58.1052H113.222L112.617 62.2202Z" fill="#263238"/>
<path d="M116.756 62.1052L115.141 56.6602H116.501L117.466 60.3702H117.491L118.456 56.6602H119.676L118.061 62.1052V64.8002H116.781L116.756 62.1052Z" fill="#263238"/>
<path d="M122.86 62.4402H122.885L123.745 56.6602H125.525V64.8002H124.315V58.9652L123.455 64.8002H122.245L121.315 59.0452V64.8002H120.15V56.6602H121.93L122.86 62.4402Z" fill="#263238"/>
<path d="M127.735 60.0902H129.5V61.2552H127.745V63.6402H129.955V64.8002H126.455V56.6602H129.955V57.8252H127.745L127.735 60.0902Z" fill="#263238"/>
<path d="M131.902 58.9052H131.877V64.8002H130.727V56.6602H132.332L133.622 61.5352V56.6602H134.762V64.8002H133.452L131.902 58.9052Z" fill="#263238"/>
<path d="M135.33 56.6602H139.285V57.8252H137.945V64.8002H136.665V57.8252H135.33V56.6602Z" fill="#263238"/>
<path d="M141.566 56.5703C142.806 56.5703 143.446 57.3153 143.446 58.6153V58.8703H142.236V58.5353C142.236 57.9503 142.006 57.7303 141.596 57.7303C141.186 57.7303 140.961 57.9503 140.961 58.5353C140.961 59.1203 141.216 59.5703 142.051 60.3003C143.121 61.2453 143.461 61.9153 143.461 62.8453C143.461 64.1503 142.806 64.8953 141.551 64.8953C140.296 64.8953 139.646 64.1503 139.646 62.8453V62.3453H140.856V62.9303C140.856 63.5103 141.111 63.7203 141.516 63.7203C141.921 63.7203 142.181 63.5103 142.181 62.9303C142.181 62.3503 141.926 61.8953 141.086 61.1603C140.016 60.2203 139.681 59.5453 139.681 58.6153C139.681 57.3153 140.321 56.5703 141.566 56.5703Z" fill="#263238"/>
<path d="M151.965 75.7461H98.4551V83.7411H151.965V75.7461Z" fill="white" stroke="#263238" stroke-linecap="round" stroke-linejoin="round"/>
<path d="M151.965 90.7383H98.4551V98.7333H151.965V90.7383Z" fill="white" stroke="#263238" stroke-linecap="round" stroke-linejoin="round"/>
<path d="M151.965 104.375H98.4551V112.37H151.965V104.375Z" fill="white" stroke="#263238" stroke-linecap="round" stroke-linejoin="round"/>
<path d="M123.79 115.285H98.4551V124.645H123.79V115.285Z" fill="white" stroke="#263238" stroke-linecap="round" stroke-linejoin="round"/>
<path d="M151.97 115.285H126.635V124.645H151.97V115.285Z" fill="white" stroke="#263238" stroke-linecap="round" stroke-linejoin="round"/>
<path d="M101.79 74.3492V74.5642H100.115V72.1992H101.74V72.4142H100.37V73.2592H101.59V73.4692H100.37V74.3492H101.79Z" fill="#263238"/>
<path d="M105.26 73.5335V74.5635H105V73.5635C105 73.1885 104.81 72.9935 104.5 72.9935C104.417 72.9899 104.333 73.0046 104.256 73.0365C104.179 73.0684 104.11 73.1167 104.053 73.1781C103.996 73.2395 103.954 73.3125 103.928 73.392C103.903 73.4715 103.895 73.5556 103.905 73.6385V74.5685H103.665V73.5685C103.665 73.1935 103.475 72.9985 103.165 72.9985C103.082 72.9949 102.998 73.0096 102.921 73.0415C102.844 73.0734 102.775 73.1217 102.718 73.1831C102.661 73.2445 102.619 73.3175 102.593 73.397C102.568 73.4765 102.56 73.5606 102.57 73.6435V74.5735H102.33V72.7985H102.56V73.1235C102.628 73.013 102.725 72.923 102.841 72.8632C102.956 72.8033 103.085 72.7758 103.215 72.7835C103.346 72.7724 103.477 72.8026 103.59 72.8699C103.703 72.9371 103.792 73.0381 103.845 73.1585C103.918 73.0382 104.022 72.9399 104.146 72.8739C104.27 72.8079 104.41 72.7767 104.55 72.7835C104.649 72.7769 104.747 72.7921 104.839 72.828C104.931 72.8639 105.014 72.9197 105.082 72.9914C105.149 73.063 105.201 73.1487 105.231 73.2425C105.262 73.3362 105.272 73.4356 105.26 73.5335Z" fill="#263238"/>
<path d="M107.256 73.4634V74.5634H107.026V74.2884C106.958 74.3874 106.866 74.4668 106.758 74.5186C106.65 74.5704 106.53 74.5928 106.411 74.5834C106.011 74.5834 105.766 74.3734 105.766 74.0834C105.766 73.7934 105.941 73.5834 106.451 73.5834H107.001V73.4734C107.001 73.1684 106.826 73.0034 106.501 73.0034C106.285 73.0001 106.076 73.0747 105.911 73.2134L105.801 73.0334C106.008 72.8732 106.264 72.7885 106.526 72.7934C106.62 72.778 106.716 72.7842 106.808 72.8115C106.899 72.8388 106.983 72.8865 107.053 72.951C107.124 73.0155 107.179 73.0952 107.214 73.184C107.249 73.2727 107.263 73.3683 107.256 73.4634ZM107.016 74.0334V73.7384H106.456C106.111 73.7384 106.001 73.8734 106.001 74.0584C106.001 74.2434 106.166 74.3934 106.451 74.3934C106.568 74.3968 106.684 74.3642 106.782 74.2998C106.88 74.2354 106.957 74.1425 107.001 74.0334H107.016Z" fill="#263238"/>
<path d="M107.852 72.2286C107.853 72.1831 107.872 72.1398 107.905 72.1081C107.937 72.0763 107.981 72.0586 108.027 72.0586C108.072 72.0586 108.115 72.0765 108.147 72.1084C108.179 72.1403 108.197 72.1835 108.197 72.2286C108.197 72.2737 108.179 72.3169 108.147 72.3488C108.115 72.3807 108.072 72.3986 108.027 72.3986C107.981 72.3986 107.937 72.3809 107.905 72.3491C107.872 72.3174 107.853 72.2741 107.852 72.2286ZM107.907 72.7886H108.147V74.5636H107.907V72.7886Z" fill="#263238"/>
<path d="M108.816 72.0586H109.056V74.5586H108.816V72.0586Z" fill="#263238"/>
<path d="M103.446 80.4977V80.7127H101.771V78.3477H103.396V78.5627H102.001V79.4027H103.226V79.6177H102.001V80.4977H103.446Z" fill="#263238"/>
<path d="M106.915 79.6736V80.7036H106.675V79.7036C106.675 79.3286 106.485 79.1336 106.175 79.1336C106.092 79.1293 106.009 79.1433 105.931 79.1746C105.854 79.2059 105.785 79.2537 105.728 79.3147C105.671 79.3757 105.629 79.4484 105.603 79.5277C105.578 79.607 105.57 79.6909 105.58 79.7736V80.7086H105.34V79.7086C105.34 79.3336 105.15 79.1386 104.84 79.1386C104.757 79.1343 104.674 79.1483 104.596 79.1796C104.519 79.2109 104.45 79.2587 104.393 79.3197C104.336 79.3807 104.294 79.4534 104.268 79.5327C104.243 79.612 104.235 79.6959 104.245 79.7786V80.7136H104V78.9336H104.23V79.2586C104.299 79.1494 104.397 79.0607 104.512 79.0018C104.627 78.9429 104.756 78.9159 104.885 78.9236C105.016 78.914 105.146 78.9449 105.259 79.0119C105.372 79.079 105.461 79.1791 105.515 79.2986C105.587 79.178 105.691 79.0793 105.815 79.0133C105.94 78.9472 106.08 78.9162 106.22 78.9236C106.317 78.9192 106.414 78.9361 106.504 78.9731C106.594 79.01 106.675 79.0661 106.741 79.1375C106.807 79.2089 106.857 79.2938 106.887 79.3864C106.917 79.479 106.927 79.577 106.915 79.6736Z" fill="#263238"/>
<path d="M108.906 79.605V80.705H108.676V80.43C108.61 80.5284 108.518 80.6072 108.411 80.6582C108.303 80.7092 108.184 80.7305 108.066 80.72C107.666 80.72 107.416 80.51 107.416 80.22C107.416 79.93 107.596 79.72 108.106 79.72H108.671V79.615C108.671 79.31 108.496 79.145 108.171 79.145C107.954 79.1422 107.743 79.2167 107.576 79.355L107.471 79.175C107.677 79.0118 107.934 78.9267 108.196 78.935C108.289 78.9229 108.383 78.9315 108.472 78.9603C108.561 78.9891 108.642 79.0374 108.71 79.1015C108.778 79.1656 108.831 79.2441 108.865 79.3312C108.899 79.4183 108.913 79.5118 108.906 79.605ZM108.671 80.17V79.88H108.111C107.766 79.88 107.656 80.015 107.656 80.2C107.656 80.385 107.821 80.535 108.106 80.535C108.227 80.542 108.347 80.5103 108.448 80.4447C108.55 80.3791 108.628 80.2829 108.671 80.17Z" fill="#263238"/>
<path d="M109.5 78.3654C109.501 78.3198 109.52 78.2766 109.553 78.2449C109.586 78.2131 109.629 78.1954 109.675 78.1954C109.698 78.1947 109.72 78.1986 109.742 78.2069C109.763 78.2151 109.782 78.2275 109.798 78.2434C109.815 78.2592 109.828 78.2782 109.837 78.2992C109.845 78.3201 109.85 78.3426 109.85 78.3654C109.85 78.4118 109.832 78.4563 109.799 78.4891C109.766 78.522 109.721 78.5404 109.675 78.5404C109.629 78.5404 109.584 78.522 109.551 78.4891C109.518 78.4563 109.5 78.4118 109.5 78.3654ZM109.555 78.9254H109.795V80.7054H109.555V78.9254Z" fill="#263238"/>
<path d="M110.471 78.1953H110.706V80.6953H110.471V78.1953Z" fill="#263238"/>
<path d="M113 79.6752V80.7052H112.76V79.7052C112.771 79.6313 112.765 79.5559 112.743 79.4847C112.72 79.4135 112.682 79.3481 112.632 79.2934C112.581 79.2388 112.518 79.1962 112.449 79.1688C112.379 79.1414 112.305 79.1299 112.23 79.1352C112.145 79.128 112.059 79.1398 111.979 79.1697C111.899 79.1995 111.827 79.2468 111.767 79.3079C111.707 79.3691 111.662 79.4427 111.634 79.5234C111.606 79.6042 111.596 79.6902 111.605 79.7752V80.7101H111.365V78.9301H111.595V79.2602C111.668 79.1488 111.768 79.0586 111.887 78.9989C112.005 78.9392 112.138 78.912 112.27 78.9201C112.37 78.9121 112.471 78.9263 112.565 78.9618C112.659 78.9973 112.744 79.0531 112.813 79.1253C112.883 79.1975 112.936 79.2842 112.969 79.3793C113.001 79.4744 113.012 79.5754 113 79.6752Z" fill="#263238"/>
<path d="M115 79.6057V80.7057H114.77V80.4307C114.703 80.5291 114.612 80.6079 114.504 80.6589C114.397 80.7099 114.278 80.7312 114.16 80.7207C113.755 80.7207 113.51 80.5107 113.51 80.2207C113.51 79.9307 113.685 79.7207 114.195 79.7207H114.76V79.6157C114.76 79.3107 114.59 79.1457 114.26 79.1457C114.044 79.1423 113.835 79.2169 113.67 79.3557L113.56 79.1757C113.766 79.0132 114.022 78.9283 114.285 78.9357C114.378 78.9228 114.473 78.9308 114.562 78.9592C114.652 78.9877 114.734 79.0357 114.802 79.1C114.871 79.1642 114.924 79.243 114.958 79.3305C114.992 79.418 115.007 79.512 115 79.6057ZM114.76 80.1707V79.8807H114.205C113.86 79.8807 113.745 80.0157 113.745 80.2007C113.745 80.3857 113.91 80.5357 114.195 80.5357C114.316 80.5437 114.437 80.5126 114.54 80.4469C114.642 80.3813 114.721 80.2844 114.765 80.1707H114.76Z" fill="#263238"/>
<path d="M118.591 79.6741V80.7041H118.351V79.7041C118.351 79.3291 118.161 79.1341 117.851 79.1341C117.768 79.1298 117.685 79.1438 117.607 79.1751C117.53 79.2064 117.461 79.2542 117.404 79.3152C117.347 79.3762 117.305 79.4489 117.279 79.5282C117.254 79.6075 117.246 79.6914 117.256 79.7741V80.7091H117.001V79.7091C117.001 79.3341 116.811 79.1391 116.501 79.1391C116.418 79.1348 116.335 79.1488 116.257 79.1801C116.18 79.2114 116.111 79.2592 116.054 79.3202C115.997 79.3813 115.955 79.454 115.929 79.5332C115.904 79.6125 115.896 79.6964 115.906 79.7791V80.7141H115.666V78.9341H115.896V79.2591C115.965 79.1499 116.063 79.0612 116.178 79.0023C116.293 78.9434 116.422 78.9164 116.551 78.9241C116.682 78.9131 116.813 78.9433 116.926 79.0105C117.039 79.0778 117.128 79.1787 117.181 79.2991C117.254 79.1789 117.358 79.0806 117.482 79.0145C117.606 78.9485 117.746 78.9173 117.886 78.9241C117.984 78.9182 118.082 78.934 118.173 78.9703C118.265 79.0066 118.347 79.0625 118.414 79.134C118.481 79.2056 118.532 79.291 118.563 79.3844C118.593 79.4777 118.603 79.5766 118.591 79.6741Z" fill="#263238"/>
<path d="M120.795 79.8875H119.295C119.308 80.0618 119.389 80.2239 119.521 80.3383C119.653 80.4526 119.825 80.5099 120 80.4975C120.102 80.5003 120.204 80.4807 120.298 80.4402C120.392 80.3996 120.476 80.3389 120.545 80.2625L120.68 80.4175C120.552 80.5515 120.388 80.6448 120.207 80.6858C120.027 80.7268 119.839 80.7136 119.666 80.6479C119.493 80.5823 119.343 80.467 119.235 80.3166C119.127 80.1663 119.066 79.9874 119.06 79.8025C119.054 79.6852 119.072 79.5679 119.113 79.4579C119.154 79.3479 119.217 79.2476 119.299 79.1631C119.38 79.0787 119.479 79.012 119.587 78.9671C119.696 78.9223 119.812 78.9003 119.93 78.9025C120.047 78.9002 120.163 78.9222 120.271 78.9671C120.379 79.0121 120.477 79.079 120.558 79.1636C120.638 79.2482 120.701 79.3487 120.741 79.4586C120.781 79.5686 120.797 79.6857 120.79 79.8025C120.79 79.8025 120.795 79.8625 120.795 79.8875ZM119.295 79.7075H120.555C120.555 79.5404 120.488 79.3802 120.37 79.262C120.252 79.1439 120.092 79.0775 119.925 79.0775C119.758 79.0775 119.597 79.1439 119.479 79.262C119.361 79.3802 119.295 79.5404 119.295 79.7075Z" fill="#263238"/>
<path d="M124.277 79.808C124.277 80.383 124.062 80.718 123.712 80.718C123.662 80.7208 123.613 80.7133 123.567 80.6961C123.52 80.679 123.478 80.6524 123.442 80.6182C123.407 80.584 123.378 80.5427 123.359 80.4971C123.34 80.4515 123.331 80.4024 123.332 80.353C123.262 80.4686 123.163 80.5635 123.044 80.6277C122.925 80.6919 122.792 80.7231 122.657 80.718C122.426 80.718 122.205 80.6263 122.041 80.4632C121.878 80.3 121.787 80.0787 121.787 79.848C121.787 79.6173 121.878 79.396 122.041 79.2328C122.205 79.0697 122.426 78.978 122.657 78.978C122.79 78.9723 122.922 79.0022 123.04 79.0646C123.158 79.127 123.257 79.2196 123.327 79.333V78.998H123.547V80.278C123.547 80.468 123.642 80.538 123.757 80.538C123.962 80.538 124.097 80.278 124.097 79.823C124.102 79.6424 124.069 79.4626 124.001 79.2954C123.932 79.1282 123.83 78.9772 123.699 78.8523C123.568 78.7274 123.413 78.6313 123.243 78.5703C123.073 78.5092 122.892 78.4846 122.712 78.498C122.533 78.498 122.356 78.5332 122.191 78.6015C122.026 78.6699 121.876 78.7701 121.75 78.8964C121.624 79.0226 121.524 79.1726 121.455 79.3376C121.387 79.5026 121.352 79.6794 121.352 79.858C121.352 80.0366 121.387 80.2135 121.455 80.3785C121.524 80.5435 121.624 80.6934 121.75 80.8197C121.876 80.946 122.026 81.0461 122.191 81.1145C122.356 81.1828 122.533 81.218 122.712 81.218C122.937 81.2174 123.159 81.1662 123.362 81.068L123.417 81.233C123.196 81.3367 122.955 81.3897 122.712 81.388C122.306 81.388 121.917 81.2268 121.63 80.9399C121.343 80.653 121.182 80.2638 121.182 79.858C121.182 79.4522 121.343 79.0631 121.63 78.7761C121.917 78.4892 122.306 78.328 122.712 78.328C122.914 78.3134 123.117 78.341 123.307 78.4091C123.498 78.4772 123.673 78.5842 123.82 78.7234C123.967 78.8626 124.084 79.031 124.162 79.2177C124.241 79.4044 124.28 79.6054 124.277 79.808ZM123.327 79.843C123.335 79.7539 123.324 79.6641 123.295 79.5793C123.266 79.4946 123.22 79.4167 123.16 79.3507C123.099 79.2847 123.026 79.232 122.944 79.196C122.862 79.1599 122.774 79.1413 122.684 79.1413C122.595 79.1413 122.506 79.1599 122.424 79.196C122.342 79.232 122.269 79.2847 122.208 79.3507C122.148 79.4167 122.102 79.4946 122.073 79.5793C122.045 79.6641 122.034 79.7539 122.042 79.843C122.034 79.9322 122.045 80.022 122.073 80.1067C122.102 80.1915 122.148 80.2693 122.208 80.3353C122.269 80.4013 122.342 80.454 122.424 80.4901C122.506 80.5261 122.595 80.5447 122.684 80.5447C122.774 80.5447 122.862 80.5261 122.944 80.4901C123.026 80.454 123.099 80.4013 123.16 80.3353C123.22 80.2693 123.266 80.1915 123.295 80.1067C123.324 80.022 123.335 79.9322 123.327 79.843Z" fill="#263238"/>
<path d="M126.325 79.8892H124.825C124.83 79.976 124.852 80.0608 124.89 80.139C124.928 80.2171 124.981 80.287 125.046 80.3446C125.111 80.4022 125.187 80.4464 125.269 80.4746C125.352 80.5029 125.438 80.5146 125.525 80.5092C125.628 80.512 125.729 80.4925 125.824 80.4519C125.918 80.4113 126.002 80.3507 126.07 80.2742L126.205 80.4292C126.078 80.5632 125.913 80.6565 125.733 80.6975C125.552 80.7385 125.364 80.7253 125.191 80.6597C125.018 80.594 124.868 80.4787 124.76 80.3284C124.653 80.178 124.592 79.9991 124.585 79.8142C124.579 79.6969 124.597 79.5796 124.638 79.4696C124.679 79.3596 124.743 79.2593 124.824 79.1748C124.906 79.0904 125.004 79.0237 125.113 78.9788C125.221 78.934 125.338 78.912 125.455 78.9142C125.572 78.9119 125.688 78.9339 125.796 78.9788C125.905 79.0238 126.002 79.0907 126.083 79.1753C126.164 79.2599 126.226 79.3604 126.266 79.4704C126.306 79.5804 126.323 79.6975 126.315 79.8142C126.315 79.8142 126.325 79.8642 126.325 79.8892ZM124.825 79.7092H126.085C126.085 79.5421 126.019 79.3819 125.901 79.2638C125.783 79.1456 125.622 79.0792 125.455 79.0792C125.288 79.0792 125.128 79.1456 125.01 79.2638C124.892 79.3819 124.825 79.5421 124.825 79.7092Z" fill="#263238"/>
<path d="M129.755 79.6737V80.7037H129.5V79.7037C129.5 79.3287 129.31 79.1337 129 79.1337C128.917 79.1294 128.834 79.1434 128.757 79.1747C128.679 79.206 128.61 79.2538 128.553 79.3148C128.496 79.3758 128.454 79.4485 128.428 79.5278C128.403 79.6071 128.395 79.691 128.405 79.7737V80.7087H128.165V79.7087C128.165 79.3337 127.975 79.1387 127.665 79.1387C127.582 79.1344 127.499 79.1484 127.422 79.1797C127.344 79.211 127.275 79.2588 127.218 79.3198C127.161 79.3808 127.119 79.4535 127.093 79.5328C127.068 79.6121 127.06 79.696 127.07 79.7787V80.7137H126.83V78.9337H127.06V79.2587C127.129 79.1499 127.225 79.0614 127.339 79.0025C127.454 78.9436 127.582 78.9164 127.71 78.9237C127.842 78.9138 127.973 78.9444 128.086 79.0115C128.2 79.0785 128.29 79.1788 128.345 79.2987C128.416 79.1781 128.519 79.0794 128.643 79.0132C128.766 78.9471 128.905 78.9161 129.045 78.9237C129.144 78.9171 129.242 78.9323 129.334 78.9682C129.426 79.0041 129.509 79.0599 129.577 79.1316C129.644 79.2032 129.696 79.289 129.726 79.3827C129.757 79.4764 129.767 79.5758 129.755 79.6737Z" fill="#263238"/>
<path d="M131.745 79.6025V80.7025H131.5V80.4275C131.433 80.5255 131.342 80.604 131.234 80.655C131.127 80.7059 131.008 80.7275 130.89 80.7175C130.485 80.7175 130.24 80.5075 130.24 80.2175C130.24 79.9275 130.415 79.7175 130.925 79.7175H131.5V79.6125C131.5 79.3075 131.33 79.1425 131 79.1425C130.785 79.1392 130.575 79.2137 130.41 79.3525L130.3 79.1725C130.506 79.01 130.763 78.9251 131.025 78.9325C131.119 78.9187 131.214 78.9262 131.304 78.9542C131.394 78.9823 131.477 79.0303 131.546 79.0946C131.615 79.1589 131.669 79.238 131.704 79.3259C131.738 79.4138 131.752 79.5083 131.745 79.6025ZM131.505 80.1675V79.8775H130.95C130.605 79.8775 130.49 80.0125 130.49 80.1975C130.49 80.3825 130.655 80.5325 130.94 80.5325C131.06 80.5384 131.179 80.5062 131.279 80.4407C131.38 80.3752 131.457 80.2795 131.5 80.1675H131.505Z" fill="#263238"/>
<path d="M132.346 78.3625C132.346 78.3279 132.356 78.2941 132.375 78.2653C132.394 78.2365 132.422 78.2141 132.454 78.2008C132.486 78.1876 132.521 78.1841 132.555 78.1909C132.589 78.1976 132.62 78.2143 132.644 78.2388C132.669 78.2632 132.686 78.2944 132.692 78.3284C132.699 78.3623 132.696 78.3975 132.682 78.4295C132.669 78.4614 132.647 78.4888 132.618 78.508C132.589 78.5272 132.555 78.5375 132.521 78.5375C132.474 78.5375 132.43 78.5191 132.397 78.4862C132.364 78.4534 132.346 78.4089 132.346 78.3625ZM132.396 78.9225H132.636V80.7025H132.396V78.9225Z" fill="#263238"/>
<path d="M133.307 78.1953H133.547V80.6953H133.307V78.1953Z" fill="#263238"/>
<path d="M134.061 80.5355C134.06 80.5117 134.064 80.488 134.073 80.4658C134.082 80.4437 134.095 80.4236 134.112 80.4067C134.129 80.3899 134.149 80.3766 134.171 80.3678C134.193 80.359 134.217 80.3549 134.241 80.3555C134.288 80.3555 134.334 80.3745 134.368 80.4083C134.402 80.442 134.421 80.4878 134.421 80.5355C134.421 80.5838 134.402 80.6301 134.368 80.6646C134.335 80.6992 134.289 80.7192 134.241 80.7205C134.217 80.7205 134.193 80.7157 134.171 80.7064C134.148 80.697 134.128 80.6833 134.112 80.6661C134.095 80.6488 134.082 80.6284 134.073 80.606C134.064 80.5835 134.06 80.5596 134.061 80.5355Z" fill="#263238"/>
<path d="M134.7 79.8157C134.696 79.6953 134.718 79.5754 134.762 79.4636C134.807 79.3518 134.875 79.2505 134.961 79.166C135.047 79.0815 135.149 79.0157 135.262 78.9726C135.374 78.9295 135.494 78.9102 135.615 78.9157C135.752 78.9067 135.889 78.9344 136.012 78.9959C136.135 79.0574 136.24 79.1505 136.315 79.2657L136.135 79.3857C136.078 79.3054 136.004 79.2398 135.917 79.1945C135.83 79.1493 135.733 79.1257 135.635 79.1257C135.461 79.1405 135.3 79.2198 135.182 79.3481C135.064 79.4763 134.999 79.6441 134.999 79.8182C134.999 79.9924 135.064 80.1602 135.182 80.2884C135.3 80.4166 135.461 80.496 135.635 80.5107C135.733 80.5117 135.83 80.4884 135.917 80.4431C136.004 80.3978 136.079 80.3317 136.135 80.2507L136.315 80.3707C136.239 80.4852 136.134 80.5778 136.012 80.6392C135.889 80.7006 135.752 80.7287 135.615 80.7207C135.494 80.7263 135.373 80.7068 135.26 80.6635C135.148 80.6201 135.045 80.5538 134.959 80.4688C134.873 80.3837 134.806 80.2818 134.761 80.1694C134.716 80.057 134.695 79.9366 134.7 79.8157Z" fill="#263238"/>
<path d="M136.575 79.8152C136.575 79.6362 136.628 79.4612 136.727 79.3124C136.827 79.1635 136.968 79.0475 137.133 78.979C137.299 78.9105 137.481 78.8926 137.656 78.9275C137.832 78.9625 137.993 79.0487 138.12 79.1752C138.246 79.3018 138.332 79.463 138.367 79.6386C138.402 79.8142 138.384 79.9961 138.316 80.1615C138.247 80.3269 138.131 80.4682 137.983 80.5676C137.834 80.6671 137.659 80.7202 137.48 80.7202C137.36 80.7243 137.24 80.7038 137.129 80.6598C137.017 80.6158 136.915 80.5493 136.831 80.4644C136.746 80.3795 136.679 80.2781 136.635 80.1664C136.591 80.0547 136.571 79.9351 136.575 79.8152ZM138.14 79.8152C138.136 79.6835 138.093 79.556 138.016 79.4489C137.939 79.3417 137.833 79.2598 137.71 79.2133C137.586 79.1669 137.452 79.1581 137.324 79.1881C137.196 79.218 137.079 79.2854 136.989 79.3816C136.899 79.4779 136.84 79.5986 136.819 79.7286C136.798 79.8586 136.815 79.992 136.87 80.1118C136.925 80.2316 137.014 80.3325 137.126 80.4016C137.238 80.4707 137.368 80.505 137.5 80.5002C137.587 80.4989 137.674 80.48 137.754 80.4446C137.834 80.4092 137.906 80.3579 137.966 80.294C138.025 80.23 138.072 80.1546 138.102 80.0723C138.131 79.99 138.144 79.9026 138.14 79.8152Z" fill="#263238"/>
<path d="M141.806 79.6737V80.7037H141.566V79.7037C141.566 79.3287 141.376 79.1337 141.066 79.1337C140.983 79.1294 140.9 79.1434 140.823 79.1747C140.746 79.206 140.676 79.2538 140.62 79.3148C140.563 79.3758 140.52 79.4485 140.495 79.5278C140.469 79.6071 140.461 79.691 140.471 79.7737V80.7087H140.231V79.7087C140.231 79.3337 140.041 79.1387 139.731 79.1387C139.648 79.1344 139.565 79.1484 139.488 79.1797C139.411 79.211 139.341 79.2588 139.285 79.3198C139.228 79.3808 139.185 79.4535 139.16 79.5328C139.134 79.6121 139.126 79.696 139.136 79.7787V80.7137H138.896V78.9337H139.126V79.2587C139.195 79.1499 139.291 79.0614 139.406 79.0025C139.52 78.9436 139.648 78.9164 139.776 78.9237C139.908 78.9138 140.039 78.9444 140.153 79.0115C140.266 79.0785 140.357 79.1788 140.411 79.2987C140.483 79.1785 140.586 79.0801 140.709 79.014C140.833 78.9479 140.972 78.9167 141.111 78.9237C141.209 78.9194 141.306 78.9362 141.396 78.9732C141.486 79.0101 141.567 79.0662 141.633 79.1376C141.699 79.209 141.749 79.2939 141.779 79.3865C141.809 79.4791 141.818 79.5771 141.806 79.6737Z" fill="#263238"/>
<path d="M102.195 94.7784L102.615 95.0184L102.54 95.1584L102.115 94.9134V95.4134H101.96V94.9134L101.535 95.1584L101.455 95.0184L101.88 94.7784L101.455 94.5434L101.535 94.3984L101.96 94.6484V94.1484H102.115V94.6484L102.54 94.3984L102.615 94.5434L102.195 94.7784Z" fill="#263238"/>
<path d="M103.571 94.7784L103.991 95.0184L103.911 95.1584L103.491 94.9134V95.4134H103.331V94.9134L102.911 95.1584L102.826 95.0184L103.251 94.7784L102.826 94.5434L102.911 94.3984L103.331 94.6484V94.1484H103.501V94.6484L103.921 94.3984L104.001 94.5434L103.571 94.7784Z" fill="#263238"/>
<path d="M104.94 94.7784L105.36 95.0184L105.28 95.1584L104.86 94.9134V95.4134H104.705V94.9134L104.285 95.1584L104.205 95.0184L104.625 94.7784L104.205 94.5434L104.285 94.3984L104.705 94.6484V94.1484H104.86V94.6484L105.28 94.3984L105.36 94.5434L104.94 94.7784Z" fill="#263238"/>
<path d="M106.31 94.7784L106.73 95.0184L106.655 95.1584L106.23 94.9134V95.4134H106.075V94.9134L105.65 95.1584L105.57 95.0184L105.995 94.7784L105.57 94.5434L105.65 94.3984L106.075 94.6484V94.1484H106.23V94.6484L106.655 94.3984L106.73 94.5434L106.31 94.7784Z" fill="#263238"/>
<path d="M107.686 94.7784L108.106 95.0184L108.026 95.1584L107.606 94.9134V95.4134H107.446V94.9134L107.026 95.1584L106.941 95.0184L107.366 94.7784L106.941 94.5434L107.026 94.3984L107.446 94.6484V94.1484H107.606V94.6484L108.026 94.3984L108.106 94.5434L107.686 94.7784Z" fill="#263238"/>
<path d="M109.055 94.7784L109.475 95.0184L109.395 95.1584L108.975 94.9134V95.4134H108.82V94.9134L108.4 95.1584L108.32 95.0184L108.74 94.7784L108.32 94.5434L108.4 94.3984L108.82 94.6484V94.1484H109V94.6484L109.42 94.3984L109.5 94.5434L109.055 94.7784Z" fill="#263238"/>
<path d="M110.426 94.7784L110.846 95.0184L110.771 95.1584L110.346 94.9134V95.4134H110.191V94.9134L109.766 95.1584L109.686 95.0184L110.111 94.7784L109.686 94.5434L109.766 94.3984L110.191 94.6484V94.1484H110.346V94.6484L110.771 94.3984L110.846 94.5434L110.426 94.7784Z" fill="#263238"/>
<path d="M111.802 94.7784L112.222 95.0184L112.142 95.1584L111.717 94.9134V95.4134H111.562V94.9134L111.142 95.1584L111.057 95.0184L111.482 94.7784L111.057 94.5434L111.142 94.3984L111.562 94.6484V94.1484H111.717V94.6484L112.142 94.3984L112.222 94.5434L111.802 94.7784Z" fill="#263238"/>
<path d="M113.171 94.7784L113.591 95.0184L113.511 95.1584L113.091 94.9134V95.4134H112.936V94.9134L112.516 95.1584L112.436 95.0184L112.856 94.7784L112.436 94.5434L112.516 94.3984L112.936 94.6484V94.1484H113.091V94.6484L113.511 94.3984L113.591 94.5434L113.171 94.7784Z" fill="#263238"/>
<path d="M114.541 94.7784L114.961 95.0184L114.886 95.1584L114.461 94.9134V95.4134H114.306V94.9134L113.881 95.1584L113.801 95.0184L114.221 94.7784L113.801 94.5434L113.881 94.3984L114.306 94.6484V94.1484H114.461V94.6484L114.886 94.3984L114.961 94.5434L114.541 94.7784Z" fill="#263238"/>
<path d="M115.915 94.7784L116.33 95.0184L116.255 95.1584L115.83 94.9134V95.4134H115.675V94.9134L115.255 95.1584L115.17 95.0184L115.595 94.7784L115.17 94.5434L115.255 94.3984L115.675 94.6484V94.1484H115.83V94.6484L116.255 94.3984L116.33 94.5434L115.915 94.7784Z" fill="#263238"/>
<path d="M101.97 87.9992C101.97 88.4992 101.605 88.8092 101.005 88.8092H100.37V89.5542H100.115V87.1992H101C101.605 87.1992 101.97 87.4992 101.97 87.9992ZM101.72 87.9992C101.72 87.6192 101.47 87.4042 100.995 87.4042H100.37V88.5892H101C101.47 88.5992 101.72 88.3842 101.72 87.9992Z" fill="#263238"/>
<path d="M103.785 88.4651V89.5651H103.555V89.2901C103.487 89.3885 103.395 89.4672 103.287 89.5181C103.179 89.5691 103.059 89.5905 102.94 89.5801C102.54 89.5801 102.295 89.3751 102.295 89.0801C102.295 88.7851 102.47 88.5801 102.98 88.5801H103.545V88.4751C103.545 88.1701 103.37 88.0051 103.045 88.0051C102.829 88.0017 102.62 88.0763 102.455 88.2151L102.345 88.0351C102.551 87.8726 102.808 87.7876 103.07 87.7951C103.163 87.7821 103.258 87.7902 103.347 87.8186C103.437 87.847 103.519 87.8951 103.587 87.9594C103.656 88.0236 103.709 88.1023 103.743 88.1898C103.778 88.2773 103.792 88.3714 103.785 88.4651ZM103.545 89.0301V88.7401H103C102.655 88.7401 102.545 88.8751 102.545 89.0601C102.545 89.2451 102.71 89.3951 102.995 89.3951C103.113 89.3988 103.23 89.3657 103.328 89.3003C103.427 89.2349 103.502 89.1404 103.545 89.0301Z" fill="#263238"/>
<path d="M104.191 89.3624L104.296 89.1724C104.482 89.3031 104.704 89.373 104.931 89.3724C105.266 89.3724 105.406 89.2574 105.406 89.0774C105.406 88.6174 104.256 88.9824 104.256 88.2774C104.256 87.9874 104.506 87.7774 104.956 87.7774C105.177 87.7746 105.395 87.8316 105.586 87.9424L105.481 88.1324C105.325 88.031 105.142 87.9788 104.956 87.9824C104.636 87.9824 104.496 88.1074 104.496 88.2774C104.496 88.7774 105.646 88.3974 105.646 89.0774C105.646 89.3874 105.376 89.5774 104.911 89.5774C104.654 89.5858 104.402 89.5103 104.191 89.3624Z" fill="#263238"/>
<path d="M105.84 89.3625L105.95 89.1725C106.134 89.3037 106.354 89.3736 106.58 89.3725C106.92 89.3725 107.08 89.2575 107.08 89.0775C107.08 88.6175 105.93 88.9825 105.93 88.2775C105.93 87.9875 106.18 87.7775 106.635 87.7775C106.854 87.774 107.071 87.8311 107.26 87.9425L107.155 88.1325C107.006 88.0355 106.832 87.9835 106.655 87.9825C106.33 87.9825 106.19 88.1075 106.19 88.2775C106.19 88.7775 107.34 88.3975 107.34 89.0775C107.34 89.3875 107.07 89.5775 106.61 89.5775C106.336 89.5968 106.064 89.5208 105.84 89.3625Z" fill="#263238"/>
<path d="M110.315 87.7891L109.64 89.5641H109.415L108.855 88.1091L108.295 89.5641H108.065L107.4 87.7891H107.63L108.185 89.2891L108.755 87.7891H108.965L109.53 89.2891L110.095 87.7891H110.315Z" fill="#263238"/>
<path d="M110.446 88.6745C110.446 88.4955 110.499 88.3206 110.598 88.1717C110.698 88.0229 110.839 87.9069 111.005 87.8384C111.17 87.7699 111.352 87.752 111.527 87.7869C111.703 87.8218 111.864 87.908 111.991 88.0346C112.117 88.1612 112.204 88.3224 112.238 88.498C112.273 88.6735 112.255 88.8555 112.187 89.0209C112.118 89.1862 112.002 89.3276 111.854 89.427C111.705 89.5265 111.53 89.5795 111.351 89.5795C111.231 89.5837 111.111 89.5632 111 89.5192C110.888 89.4752 110.786 89.4087 110.702 89.3238C110.617 89.2389 110.55 89.1374 110.506 89.0258C110.462 88.9141 110.442 88.7945 110.446 88.6745ZM112.011 88.6745C112.011 88.4995 111.941 88.3316 111.818 88.2078C111.694 88.0841 111.526 88.0145 111.351 88.0145C111.176 88.0145 111.008 88.0841 110.884 88.2078C110.76 88.3316 110.691 88.4995 110.691 88.6745C110.691 88.8496 110.76 89.0174 110.884 89.1412C111.008 89.265 111.176 89.3345 111.351 89.3345C111.526 89.3345 111.694 89.265 111.818 89.1412C111.941 89.0174 112.011 88.8496 112.011 88.6745Z" fill="#263238"/>
<path d="M113.641 87.7754V88.0004H113.581C113.497 87.9966 113.412 88.0115 113.334 88.0439C113.256 88.0764 113.187 88.1256 113.13 88.1882C113.073 88.2507 113.031 88.325 113.006 88.4057C112.981 88.4865 112.974 88.5717 112.986 88.6554V89.5604H112.746V87.7854H113.001V88.1304C113.061 88.0151 113.154 87.92 113.268 87.8569C113.382 87.7938 113.511 87.7655 113.641 87.7754Z" fill="#263238"/>
<path d="M115.677 87.0597V89.5597H115.447V89.2097C115.375 89.3261 115.274 89.4213 115.154 89.4855C115.033 89.5497 114.898 89.5805 114.762 89.5747C114.534 89.5577 114.321 89.4553 114.166 89.2879C114.01 89.1205 113.924 88.9006 113.924 88.6722C113.924 88.4438 114.01 88.2239 114.166 88.0565C114.321 87.8891 114.534 87.7866 114.762 87.7697C114.895 87.7646 115.027 87.7942 115.145 87.8556C115.264 87.9169 115.364 88.0079 115.437 88.1197V87.0547L115.677 87.0597ZM115.442 88.6747C115.435 88.5459 115.39 88.4219 115.314 88.318C115.237 88.2142 115.132 88.1351 115.011 88.0904C114.89 88.0458 114.758 88.0376 114.633 88.0669C114.507 88.0962 114.393 88.1617 114.304 88.2552C114.215 88.3487 114.156 88.4663 114.133 88.5933C114.11 88.7202 114.125 88.8511 114.176 88.9697C114.227 89.0883 114.311 89.1893 114.419 89.2604C114.526 89.3315 114.653 89.3695 114.782 89.3697C114.872 89.3713 114.961 89.3541 115.044 89.3193C115.127 89.2845 115.202 89.2327 115.265 89.1674C115.327 89.102 115.374 89.0245 115.405 88.9397C115.435 88.8548 115.448 88.7646 115.442 88.6747Z" fill="#263238"/>
<path d="M119.231 107.5V109.87H119.001V107.72H118.441V107.5H119.231Z" fill="#263238"/>
<path d="M121.41 109.64V109.86H119.75V109.685L120.75 108.72C121.015 108.46 121.07 108.3 121.07 108.14C121.07 107.865 120.875 107.695 120.515 107.695C120.395 107.687 120.274 107.707 120.162 107.753C120.05 107.799 119.951 107.87 119.87 107.96L119.695 107.81C119.802 107.696 119.932 107.606 120.078 107.547C120.223 107.488 120.379 107.462 120.535 107.47C121.035 107.47 121.32 107.715 121.32 108.11C121.313 108.254 121.274 108.395 121.206 108.523C121.139 108.651 121.045 108.762 120.93 108.85L120.125 109.64H121.41Z" fill="#263238"/>
<path d="M123.28 109.18C123.28 109.575 122.99 109.88 122.42 109.88C122.109 109.89 121.805 109.781 121.57 109.575L121.685 109.38C121.885 109.564 122.149 109.662 122.42 109.655C122.815 109.655 123.03 109.475 123.03 109.18C123.03 108.885 122.83 108.71 122.39 108.71H122.22V108.53L122.875 107.71H121.665V107.5H123.165V107.675L122.5 108.5C123.025 108.535 123.28 108.8 123.28 109.18Z" fill="#263238"/>
<path d="M125.63 109.233H125.155V109.858H124.915V109.233H123.58V109.058L124.835 107.488H125.105L123.895 108.998H124.92V108.448H125.155V108.998H125.63V109.233Z" fill="#263238"/>
<path d="M128.345 109.16C128.345 109.565 128.065 109.88 127.485 109.88C127.173 109.889 126.869 109.78 126.635 109.575L126.755 109.38C126.851 109.472 126.965 109.543 127.09 109.59C127.214 109.638 127.347 109.66 127.48 109.655C127.885 109.655 128.095 109.46 128.095 109.155C128.095 108.85 127.905 108.655 127.305 108.655H126.805L126.93 107.465H128.225V107.685H127.14L127.06 108.435H127.365C128.075 108.46 128.345 108.745 128.345 109.16Z" fill="#263238"/>
<path d="M130.43 109.15C130.429 109.252 130.407 109.353 130.365 109.447C130.323 109.54 130.262 109.624 130.186 109.693C130.11 109.761 130.02 109.813 129.923 109.845C129.825 109.878 129.722 109.889 129.62 109.88C128.99 109.88 128.65 109.44 128.65 108.695C128.65 107.95 129.09 107.47 129.73 107.47C129.927 107.462 130.122 107.507 130.295 107.6L130.195 107.795C130.056 107.715 129.896 107.676 129.735 107.685C129.235 107.685 128.895 108.01 128.895 108.655C128.895 108.71 128.895 108.775 128.895 108.845C128.964 108.714 129.07 108.607 129.198 108.535C129.327 108.463 129.473 108.43 129.62 108.44C129.721 108.427 129.824 108.436 129.921 108.465C130.019 108.495 130.108 108.545 130.185 108.612C130.262 108.68 130.323 108.762 130.365 108.855C130.408 108.947 130.43 109.048 130.43 109.15ZM130.19 109.15C130.19 108.835 129.96 108.65 129.595 108.65C129.522 108.641 129.448 108.646 129.377 108.667C129.306 108.688 129.24 108.722 129.183 108.769C129.126 108.816 129.079 108.874 129.045 108.939C129.011 109.004 128.991 109.076 128.985 109.15C128.985 109.41 129.2 109.65 129.61 109.65C129.682 109.661 129.754 109.657 129.824 109.638C129.893 109.619 129.958 109.584 130.013 109.538C130.068 109.491 130.113 109.433 130.143 109.368C130.174 109.303 130.19 109.232 130.19 109.16V109.15Z" fill="#263238"/>
<path d="M132.35 107.5V107.675L131.35 109.87H131.085L132.06 107.72H130.845V108.16H130.605V107.5H132.35Z" fill="#263238"/>
<path d="M134.426 109.198C134.426 109.618 134.071 109.878 133.506 109.878C132.941 109.878 132.596 109.618 132.596 109.198C132.594 109.064 132.638 108.933 132.721 108.826C132.804 108.72 132.92 108.645 133.051 108.613C132.942 108.584 132.846 108.519 132.779 108.428C132.711 108.337 132.677 108.226 132.681 108.113C132.681 107.728 133.006 107.488 133.506 107.488C134.006 107.488 134.341 107.728 134.341 108.113C134.339 108.226 134.301 108.336 134.233 108.426C134.164 108.516 134.069 108.581 133.961 108.613C134.093 108.644 134.211 108.718 134.295 108.825C134.38 108.931 134.426 109.063 134.426 109.198ZM134.176 109.198C134.176 108.908 133.926 108.723 133.506 108.723C133.086 108.723 132.841 108.908 132.841 109.198C132.841 109.488 133.086 109.698 133.506 109.698C133.926 109.698 134.176 109.498 134.176 109.193V109.198ZM133.501 108.528C133.871 108.528 134.091 108.363 134.091 108.103C134.091 107.843 133.856 107.678 133.501 107.678C133.146 107.678 132.916 107.838 132.916 108.103C132.916 108.368 133.136 108.528 133.501 108.528Z" fill="#263238"/>
<path d="M137.356 108.653C137.356 109.458 136.916 109.878 136.271 109.878C136.076 109.885 135.883 109.84 135.711 109.748L135.811 109.553C135.951 109.633 136.11 109.671 136.271 109.663C136.771 109.663 137.106 109.333 137.106 108.693C137.111 108.63 137.111 108.566 137.106 108.503C137.039 108.634 136.935 108.742 136.807 108.814C136.679 108.886 136.532 108.919 136.386 108.908C136.286 108.919 136.184 108.909 136.088 108.879C135.992 108.848 135.903 108.798 135.828 108.731C135.753 108.664 135.692 108.582 135.65 108.49C135.609 108.399 135.587 108.299 135.586 108.198C135.587 108.096 135.609 107.994 135.651 107.901C135.693 107.807 135.754 107.724 135.83 107.655C135.907 107.587 135.996 107.534 136.094 107.502C136.191 107.47 136.294 107.458 136.396 107.468C137.001 107.468 137.356 107.908 137.356 108.653ZM137.021 108.183C137.021 107.923 136.806 107.683 136.396 107.683C136.324 107.671 136.25 107.676 136.18 107.696C136.11 107.715 136.045 107.75 135.989 107.798C135.934 107.846 135.89 107.905 135.86 107.971C135.83 108.038 135.815 108.11 135.816 108.183C135.816 108.498 136.046 108.683 136.411 108.683C136.555 108.694 136.698 108.648 136.809 108.554C136.919 108.461 136.988 108.327 137.001 108.183H137.021Z" fill="#263238"/>
<path d="M138.356 107.5V109.87H138.111V107.72H137.551V107.5H138.356Z" fill="#263238"/>
<path d="M138.916 108.674C138.916 107.919 139.316 107.469 139.861 107.469C140.406 107.469 140.806 107.919 140.806 108.674C140.806 109.429 140.411 109.879 139.861 109.879C139.311 109.879 138.916 109.429 138.916 108.674ZM140.556 108.674C140.556 108.044 140.276 107.674 139.861 107.674C139.446 107.674 139.166 108.024 139.166 108.674C139.166 109.324 139.451 109.674 139.861 109.674C140.271 109.674 140.556 109.304 140.556 108.674Z" fill="#263238"/>
<path d="M141.805 107.5V109.87H141.56V107.72H141V107.5H141.805Z" fill="#263238"/>
<path d="M143.91 107.5V109.87H143.665V107.72H143.105V107.5H143.91Z" fill="#263238"/>
<path d="M145.126 107.5V109.87H144.886V107.72H144.326V107.5H145.126Z" fill="#263238"/>
<path d="M147.305 109.64V109.86H145.645V109.685L146.645 108.72C146.91 108.46 146.965 108.3 146.965 108.14C146.965 107.865 146.77 107.695 146.41 107.695C146.289 107.687 146.169 107.707 146.057 107.753C145.945 107.799 145.845 107.87 145.765 107.96L145.59 107.81C145.697 107.696 145.827 107.606 145.972 107.548C146.117 107.489 146.274 107.462 146.43 107.47C146.93 107.47 147.215 107.715 147.215 108.11C147.207 108.254 147.168 108.395 147.101 108.523C147.034 108.65 146.939 108.762 146.825 108.85L146 109.64H147.305Z" fill="#263238"/>
<path d="M148.265 107.5V109.87H148V107.72H147.445V107.5H148.265Z" fill="#263238"/>
<path d="M108.395 106.951V106.591C108.395 106.424 108.329 106.264 108.21 106.145C108.092 106.027 107.932 105.961 107.765 105.961H101.38C101.213 105.961 101.053 106.027 100.935 106.145C100.816 106.264 100.75 106.424 100.75 106.591V106.951H108.395Z" fill="#263238"/>
<path d="M100.75 107.445V110.095C100.75 110.262 100.816 110.423 100.935 110.541C101.053 110.659 101.213 110.725 101.38 110.725H107.765C107.932 110.725 108.092 110.659 108.21 110.541C108.329 110.423 108.395 110.262 108.395 110.095V107.445H100.75Z" fill="#263238"/>
<path d="M100.846 121.399C100.846 120.644 101.241 120.199 101.791 120.199C102.341 120.199 102.736 120.644 102.736 121.399C102.736 122.154 102.336 122.604 101.791 122.604C101.246 122.604 100.846 122.154 100.846 121.399ZM102.486 121.399C102.486 120.769 102.201 120.399 101.791 120.399C101.381 120.399 101.096 120.749 101.096 121.399C101.096 122.049 101.376 122.399 101.791 122.399C102.206 122.399 102.501 122.034 102.501 121.399H102.486Z" fill="#263238"/>
<path d="M104.9 121.924C104.9 122.344 104.545 122.604 103.98 122.604C103.415 122.604 103.07 122.344 103.07 121.924C103.068 121.79 103.112 121.659 103.195 121.553C103.278 121.447 103.395 121.374 103.525 121.344C103.419 121.309 103.327 121.243 103.26 121.153C103.194 121.063 103.157 120.955 103.155 120.844C103.155 120.459 103.48 120.219 103.98 120.219C104.48 120.219 104.815 120.459 104.815 120.844C104.812 120.956 104.775 121.064 104.708 121.154C104.64 121.243 104.547 121.31 104.44 121.344C104.572 121.373 104.689 121.447 104.773 121.553C104.856 121.658 104.901 121.789 104.9 121.924ZM104.65 121.924C104.65 121.634 104.4 121.454 103.98 121.454C103.56 121.454 103.315 121.634 103.315 121.924C103.315 122.214 103.565 122.424 103.98 122.424C104.395 122.424 104.65 122.214 104.65 121.919V121.924ZM104 121.254C104.37 121.254 104.59 121.089 104.59 120.834C104.59 120.579 104.355 120.404 104 120.404C103.645 120.404 103.415 120.564 103.415 120.829C103.415 121.094 103.615 121.254 104 121.254Z" fill="#263238"/>
<path d="M106.095 119.738H106.315L105.195 122.918H105L106.095 119.738Z" fill="#263238"/>
<path d="M108 122.366V122.586H106.34V122.411L107.34 121.451C107.605 121.186 107.655 121.026 107.655 120.866C107.655 120.591 107.465 120.421 107.105 120.421C106.984 120.413 106.862 120.433 106.75 120.479C106.637 120.525 106.536 120.596 106.455 120.686L106.285 120.536C106.392 120.422 106.522 120.333 106.668 120.275C106.813 120.217 106.969 120.192 107.125 120.201C107.625 120.201 107.905 120.441 107.905 120.836C107.9 120.98 107.863 121.122 107.796 121.25C107.73 121.378 107.635 121.489 107.52 121.576L106.715 122.366H108Z" fill="#263238"/>
<path d="M109.896 121.885C109.896 122.29 109.616 122.605 109.036 122.605C108.724 122.615 108.42 122.506 108.186 122.3L108.306 122.105C108.402 122.197 108.516 122.269 108.64 122.316C108.765 122.363 108.897 122.385 109.031 122.38C109.436 122.38 109.646 122.185 109.646 121.88C109.646 121.575 109.461 121.38 108.856 121.38H108.356L108.476 120.195H109.771V120.41H108.686L108.606 121.165H108.911C109.626 121.19 109.896 121.47 109.896 121.885Z" fill="#263238"/>
<path d="M101.95 118.694V118.829H100.91V117.359H101.91V117.499H101.06V117.999H101.82V118.134H101.06V118.679L101.95 118.694Z" fill="#263238"/>
<path d="M103.216 118.829L102.746 118.179L102.246 118.829H102.066L102.626 118.074L102.126 117.359H102.301L102.746 117.959L103.186 117.359H103.351L102.851 118.069L103.411 118.829H103.216Z" fill="#263238"/>
<path d="M104.775 117.864C104.775 118.174 104.545 118.364 104.175 118.364H103.78V118.829H103.625V117.359H104.175C104.545 117.359 104.775 117.549 104.775 117.864ZM104.62 117.864C104.62 117.629 104.465 117.494 104.17 117.494H103.78V118.229H104.17C104.465 118.229 104.62 118.094 104.62 117.864Z" fill="#263238"/>
<path d="M105.686 117.359H106.281C106.475 117.359 106.662 117.437 106.8 117.575C106.938 117.712 107.016 117.899 107.016 118.094C107.016 118.289 106.938 118.476 106.8 118.614C106.662 118.752 106.475 118.829 106.281 118.829H105.686V117.359ZM106.271 118.694C106.43 118.694 106.582 118.631 106.695 118.519C106.807 118.406 106.871 118.254 106.871 118.094C106.871 117.935 106.807 117.783 106.695 117.67C106.582 117.558 106.43 117.494 106.271 117.494H105.841V118.694H106.271Z" fill="#263238"/>
<path d="M108.22 118.145V118.83H108.075V118.655C108.034 118.718 107.978 118.768 107.911 118.8C107.844 118.833 107.769 118.847 107.695 118.84C107.45 118.84 107.295 118.71 107.295 118.52C107.295 118.33 107.405 118.205 107.72 118.205H108.07V118.14C108.074 118.099 108.069 118.058 108.055 118.019C108.04 117.98 108.017 117.945 107.988 117.916C107.958 117.888 107.921 117.867 107.882 117.854C107.843 117.842 107.801 117.839 107.76 117.845C107.625 117.843 107.494 117.889 107.39 117.975L107.325 117.865C107.453 117.764 107.612 117.711 107.775 117.715C107.834 117.706 107.894 117.711 107.951 117.73C108.008 117.748 108.06 117.779 108.103 117.82C108.146 117.862 108.179 117.913 108.2 117.969C108.22 118.026 108.227 118.086 108.22 118.145ZM108.07 118.495V118.315H107.725C107.51 118.315 107.44 118.4 107.44 118.515C107.44 118.63 107.545 118.72 107.72 118.72C107.794 118.725 107.868 118.707 107.931 118.667C107.994 118.628 108.043 118.569 108.07 118.5V118.495Z" fill="#263238"/>
<path d="M109.205 118.76C109.141 118.815 109.059 118.844 108.975 118.84C108.932 118.845 108.888 118.84 108.847 118.825C108.805 118.811 108.768 118.787 108.737 118.757C108.706 118.726 108.682 118.689 108.667 118.648C108.652 118.607 108.646 118.563 108.65 118.52V117.85H108.455V117.725H108.65V117.5H108.8V117.74H109.135V117.865H108.8V118.5C108.796 118.526 108.798 118.553 108.806 118.579C108.814 118.604 108.828 118.627 108.846 118.646C108.865 118.666 108.887 118.68 108.912 118.69C108.937 118.699 108.964 118.703 108.99 118.7C109.05 118.701 109.108 118.682 109.155 118.645L109.205 118.76Z" fill="#263238"/>
<path d="M110.401 118.322H109.501C109.509 118.43 109.559 118.531 109.641 118.602C109.722 118.673 109.828 118.709 109.936 118.702C110 118.705 110.064 118.693 110.123 118.668C110.182 118.643 110.234 118.605 110.276 118.557L110.361 118.657C110.307 118.717 110.24 118.763 110.166 118.794C110.092 118.825 110.012 118.84 109.931 118.837C109.856 118.842 109.78 118.83 109.709 118.803C109.638 118.777 109.573 118.735 109.519 118.682C109.465 118.629 109.422 118.565 109.394 118.494C109.366 118.424 109.353 118.348 109.356 118.272C109.352 118.2 109.363 118.127 109.388 118.059C109.413 117.991 109.452 117.929 109.502 117.876C109.552 117.824 109.613 117.782 109.68 117.754C109.747 117.726 109.819 117.712 109.891 117.712C109.965 117.707 110.039 117.717 110.109 117.744C110.178 117.77 110.24 117.812 110.292 117.866C110.343 117.919 110.381 117.983 110.405 118.054C110.428 118.124 110.435 118.199 110.426 118.272L110.401 118.322ZM109.476 118.207H110.261C110.25 118.111 110.204 118.022 110.132 117.957C110.06 117.893 109.966 117.857 109.869 117.857C109.772 117.857 109.678 117.893 109.606 117.957C109.533 118.022 109.487 118.111 109.476 118.207Z" fill="#263238"/>
<path d="M128.771 120.219V122.584H128.531V120.434H127.971V120.219H128.771Z" fill="#263238"/>
<path d="M130.951 122.366V122.586H129.291V122.411L130.291 121.451C130.556 121.186 130.611 121.026 130.611 120.866C130.611 120.591 130.416 120.421 130.056 120.421C129.936 120.413 129.815 120.433 129.703 120.479C129.591 120.525 129.492 120.596 129.411 120.686L129.236 120.536C129.343 120.422 129.474 120.333 129.619 120.275C129.764 120.217 129.92 120.192 130.076 120.201C130.576 120.201 130.861 120.441 130.861 120.836C130.854 120.98 130.815 121.121 130.747 121.249C130.68 121.376 130.586 121.488 130.471 121.576L129.666 122.366H130.951Z" fill="#263238"/>
<path d="M132.821 121.904C132.821 122.299 132.531 122.604 131.961 122.604C131.65 122.614 131.346 122.505 131.111 122.299L131.231 122.104C131.328 122.196 131.443 122.268 131.568 122.315C131.694 122.363 131.827 122.384 131.961 122.379C132.356 122.379 132.571 122.199 132.571 121.904C132.571 121.609 132.371 121.434 131.931 121.434H131.761V121.254L132.416 120.434H131.206V120.219H132.706V120.389L132.036 121.229C132.566 121.259 132.821 121.524 132.821 121.904Z" fill="#263238"/>
<path d="M128.051 118.094C128.049 117.994 128.068 117.894 128.107 117.801C128.145 117.708 128.202 117.624 128.274 117.554C128.347 117.483 128.432 117.429 128.526 117.393C128.62 117.357 128.72 117.34 128.821 117.344C128.92 117.341 129.019 117.359 129.111 117.396C129.203 117.433 129.286 117.488 129.356 117.559L129.261 117.659C129.204 117.602 129.136 117.557 129.061 117.527C128.987 117.497 128.906 117.483 128.826 117.484C128.741 117.477 128.656 117.487 128.576 117.514C128.496 117.541 128.422 117.584 128.359 117.641C128.297 117.699 128.247 117.768 128.213 117.846C128.178 117.923 128.161 118.007 128.161 118.092C128.161 118.177 128.178 118.26 128.213 118.338C128.247 118.416 128.297 118.485 128.359 118.542C128.422 118.599 128.496 118.643 128.576 118.67C128.656 118.697 128.741 118.707 128.826 118.699C128.907 118.702 128.987 118.688 129.062 118.658C129.137 118.628 129.205 118.582 129.261 118.524L129.356 118.624C129.286 118.697 129.202 118.753 129.109 118.791C129.016 118.828 128.916 118.844 128.816 118.839C128.716 118.843 128.616 118.827 128.523 118.791C128.43 118.756 128.345 118.701 128.273 118.632C128.201 118.562 128.145 118.478 128.107 118.386C128.068 118.293 128.049 118.194 128.051 118.094Z" fill="#263238"/>
<path d="M131.69 117.359L131.19 118.829H131.025L130.595 117.574L130.165 118.829H130L129.5 117.359H129.66L130.085 118.624L130.525 117.359H130.67L131.1 118.629L131.53 117.359H131.69Z" fill="#263238"/>
<path d="M115.656 135.289H114.336L114.051 135.924H113.791L114.871 133.559H115.121L116.201 135.924H115.936L115.656 135.289ZM115.561 135.089L115.001 133.819L114.431 135.089H115.561Z" fill="#263238"/>
<path d="M116.346 135.035C116.342 134.914 116.363 134.794 116.407 134.682C116.452 134.569 116.519 134.467 116.605 134.382C116.691 134.297 116.794 134.231 116.907 134.188C117.02 134.144 117.14 134.125 117.261 134.13C117.398 134.122 117.535 134.151 117.657 134.213C117.779 134.276 117.883 134.37 117.956 134.485L117.781 134.605C117.725 134.524 117.651 134.458 117.564 134.412C117.477 134.366 117.38 134.341 117.281 134.34C117.097 134.34 116.92 134.413 116.79 134.544C116.659 134.674 116.586 134.851 116.586 135.035C116.586 135.22 116.659 135.396 116.79 135.527C116.92 135.657 117.097 135.73 117.281 135.73C117.379 135.729 117.476 135.706 117.562 135.66C117.649 135.615 117.724 135.55 117.781 135.47L117.956 135.59C117.881 135.704 117.777 135.797 117.656 135.858C117.534 135.92 117.398 135.948 117.261 135.94C117.14 135.946 117.02 135.926 116.907 135.883C116.794 135.84 116.691 135.773 116.605 135.688C116.519 135.603 116.452 135.501 116.407 135.389C116.363 135.277 116.342 135.156 116.346 135.035Z" fill="#263238"/>
<path d="M119.381 135.814C119.276 135.9 119.143 135.945 119.006 135.939C118.94 135.943 118.873 135.933 118.81 135.91C118.747 135.886 118.69 135.85 118.643 135.802C118.596 135.755 118.559 135.698 118.535 135.635C118.512 135.573 118.502 135.506 118.506 135.439V134.349H118.191V134.144H118.501V133.754H118.741V134.144H119.286V134.349H118.741V135.409C118.735 135.452 118.739 135.495 118.752 135.537C118.765 135.578 118.787 135.616 118.817 135.647C118.847 135.678 118.884 135.702 118.924 135.717C118.965 135.733 119.008 135.738 119.051 135.734C119.147 135.735 119.241 135.704 119.316 135.644L119.381 135.814Z" fill="#263238"/>
<path d="M119.766 133.585C119.766 133.539 119.784 133.494 119.817 133.461C119.85 133.429 119.894 133.41 119.941 133.41C119.987 133.41 120.032 133.429 120.064 133.461C120.097 133.494 120.116 133.539 120.116 133.585C120.116 133.632 120.097 133.676 120.064 133.709C120.032 133.742 119.987 133.76 119.941 133.76C119.894 133.76 119.85 133.742 119.817 133.709C119.784 133.676 119.766 133.632 119.766 133.585ZM119.821 134.145H120.061V135.925H119.821V134.145Z" fill="#263238"/>
<path d="M120.545 135.034C120.545 134.855 120.598 134.68 120.697 134.532C120.797 134.383 120.938 134.267 121.103 134.198C121.268 134.13 121.45 134.111 121.625 134.146C121.8 134.18 121.962 134.266 122.088 134.392C122.215 134.518 122.302 134.679 122.337 134.854C122.373 135.03 122.356 135.211 122.288 135.377C122.22 135.542 122.105 135.684 121.957 135.784C121.809 135.884 121.634 135.938 121.455 135.939C121.335 135.943 121.215 135.923 121.103 135.879C120.991 135.835 120.89 135.768 120.804 135.683C120.719 135.599 120.652 135.497 120.608 135.385C120.563 135.274 120.542 135.154 120.545 135.034ZM122.11 135.034C122.103 134.905 122.059 134.781 121.982 134.677C121.905 134.573 121.8 134.494 121.678 134.449C121.557 134.405 121.425 134.397 121.3 134.427C121.174 134.456 121.06 134.522 120.971 134.616C120.882 134.71 120.823 134.828 120.801 134.956C120.779 135.083 120.795 135.214 120.846 135.332C120.898 135.451 120.983 135.552 121.091 135.622C121.199 135.693 121.326 135.73 121.455 135.729C121.545 135.73 121.634 135.712 121.716 135.677C121.799 135.642 121.873 135.59 121.935 135.525C121.996 135.459 122.044 135.382 122.074 135.298C122.104 135.213 122.117 135.123 122.11 135.034Z" fill="#263238"/>
<path d="M124.5 134.894V135.924H124.26V134.924C124.27 134.85 124.263 134.775 124.241 134.704C124.218 134.633 124.179 134.568 124.128 134.514C124.076 134.459 124.014 134.417 123.944 134.391C123.874 134.364 123.8 134.353 123.725 134.359C123.64 134.353 123.555 134.365 123.476 134.395C123.396 134.425 123.325 134.473 123.265 134.534C123.206 134.595 123.161 134.668 123.134 134.749C123.106 134.829 123.096 134.914 123.105 134.999V135.934H122.865V134.154H123.095V134.499C123.167 134.387 123.268 134.296 123.386 134.236C123.505 134.175 123.637 134.147 123.77 134.154C123.869 134.147 123.968 134.162 124.06 134.197C124.152 134.232 124.236 134.286 124.305 134.356C124.375 134.427 124.428 134.511 124.462 134.604C124.495 134.697 124.508 134.796 124.5 134.894Z" fill="#263238"/>
<path d="M126.32 133.775V134.705H127.54V134.92H126.32V135.92H126.07V133.555H127.69V133.77L126.32 133.775Z" fill="#263238"/>
<path d="M128.07 133.585C128.07 133.539 128.089 133.494 128.122 133.461C128.154 133.429 128.199 133.41 128.245 133.41C128.292 133.41 128.336 133.429 128.369 133.461C128.402 133.494 128.42 133.539 128.42 133.585C128.42 133.632 128.402 133.676 128.369 133.709C128.336 133.742 128.292 133.76 128.245 133.76C128.199 133.76 128.154 133.742 128.122 133.709C128.089 133.676 128.07 133.632 128.07 133.585ZM128.12 134.145H128.36V135.925H128.12V134.145Z" fill="#263238"/>
<path d="M130.675 134.145V135.71C130.694 135.83 130.684 135.953 130.646 136.069C130.608 136.185 130.544 136.291 130.457 136.377C130.371 136.463 130.266 136.528 130.15 136.566C130.034 136.604 129.911 136.613 129.79 136.595C129.49 136.608 129.195 136.512 128.96 136.325L129.08 136.14C129.277 136.302 129.525 136.389 129.78 136.385C130.23 136.385 130.435 136.175 130.435 135.74V135.5C130.36 135.612 130.256 135.702 130.135 135.763C130.015 135.823 129.88 135.851 129.745 135.845C129.626 135.854 129.507 135.838 129.395 135.799C129.282 135.76 129.179 135.698 129.091 135.617C129.004 135.536 128.934 135.438 128.887 135.328C128.839 135.219 128.814 135.101 128.814 134.982C128.814 134.863 128.839 134.745 128.887 134.636C128.934 134.527 129.004 134.429 129.091 134.348C129.179 134.267 129.282 134.205 129.395 134.165C129.507 134.126 129.626 134.111 129.745 134.12C129.882 134.114 130.019 134.144 130.141 134.206C130.264 134.268 130.368 134.361 130.445 134.475V134.135L130.675 134.145ZM130.445 134.99C130.449 134.855 130.413 134.723 130.341 134.609C130.27 134.496 130.166 134.406 130.043 134.352C129.92 134.298 129.783 134.282 129.651 134.305C129.519 134.329 129.397 134.392 129.3 134.485C129.204 134.579 129.138 134.699 129.11 134.83C129.082 134.962 129.094 135.099 129.145 135.223C129.195 135.348 129.282 135.454 129.393 135.529C129.505 135.604 129.636 135.645 129.77 135.645C129.858 135.65 129.945 135.638 130.028 135.608C130.11 135.577 130.186 135.531 130.249 135.47C130.312 135.409 130.363 135.336 130.396 135.255C130.43 135.174 130.447 135.087 130.445 135V134.99Z" fill="#263238"/>
<path d="M132.951 134.143V135.923H132.721V135.598C132.654 135.707 132.56 135.796 132.447 135.856C132.335 135.915 132.208 135.944 132.081 135.938C131.978 135.947 131.875 135.934 131.779 135.899C131.683 135.864 131.595 135.807 131.523 135.734C131.452 135.661 131.397 135.572 131.364 135.475C131.33 135.378 131.319 135.275 131.331 135.173V134.143H131.571V135.143C131.56 135.217 131.566 135.293 131.589 135.365C131.611 135.436 131.649 135.502 131.701 135.557C131.752 135.611 131.815 135.654 131.885 135.681C131.955 135.708 132.031 135.719 132.106 135.713C132.19 135.717 132.274 135.703 132.352 135.671C132.43 135.64 132.5 135.592 132.557 135.53C132.615 135.469 132.658 135.396 132.685 135.316C132.711 135.236 132.72 135.151 132.711 135.068V134.133L132.951 134.143Z" fill="#263238"/>
<path d="M134.502 134.128V134.363H134.442C134.357 134.359 134.272 134.374 134.193 134.407C134.114 134.439 134.044 134.489 133.987 134.552C133.93 134.615 133.887 134.69 133.862 134.771C133.837 134.852 133.83 134.938 133.842 135.023V135.928H133.602V134.148H133.832V134.498C133.894 134.376 133.991 134.276 134.11 134.21C134.229 134.144 134.366 134.116 134.502 134.128Z" fill="#263238"/>
<path d="M136.501 135.109H135.001C135.006 135.196 135.028 135.281 135.066 135.359C135.104 135.437 135.157 135.507 135.222 135.564C135.287 135.622 135.363 135.666 135.445 135.694C135.527 135.723 135.614 135.734 135.701 135.729C135.803 135.732 135.905 135.712 135.999 135.672C136.094 135.631 136.178 135.571 136.246 135.494L136.381 135.649C136.253 135.783 136.089 135.876 135.909 135.917C135.728 135.958 135.54 135.945 135.367 135.88C135.194 135.814 135.044 135.699 134.936 135.548C134.829 135.398 134.768 135.219 134.761 135.034C134.755 134.917 134.773 134.799 134.814 134.689C134.855 134.579 134.918 134.478 135 134.393C135.081 134.308 135.179 134.241 135.288 134.196C135.397 134.15 135.513 134.128 135.631 134.129C135.748 134.127 135.865 134.149 135.973 134.194C136.082 134.239 136.18 134.307 136.261 134.392C136.342 134.477 136.404 134.578 136.444 134.689C136.483 134.799 136.499 134.917 136.491 135.034C136.491 135.034 136.501 135.079 136.501 135.109ZM135.001 134.929H136.261C136.261 134.762 136.195 134.602 136.076 134.484C135.958 134.365 135.798 134.299 135.631 134.299C135.464 134.299 135.304 134.365 135.185 134.484C135.067 134.602 135.001 134.762 135.001 134.929Z" fill="#263238"/>
<path d="M116.717 145.41V146.45H115.792V145.45C114.965 145.425 114.163 145.167 113.477 144.705L113.977 143.575C114.511 143.949 115.133 144.176 115.782 144.235V142.685C114.747 142.43 113.597 142.09 113.597 140.76C113.597 139.76 114.312 138.93 115.782 138.76V137.73H116.707V138.73C117.371 138.768 118.017 138.964 118.592 139.3L118.127 140.44C117.691 140.182 117.208 140.012 116.707 139.94V141.52C117.737 141.76 118.872 142.105 118.872 143.415C118.882 144.4 118.177 145.235 116.717 145.41ZM115.792 141.31V140C115.292 140.11 115.102 140.38 115.102 140.685C115.102 140.99 115.382 141.18 115.792 141.31ZM117.387 143.545C117.387 143.22 117.117 143.045 116.717 142.905V144.185C117.182 144.085 117.387 143.845 117.387 143.545Z" fill="#263238"/>
<path d="M124.356 144.109V145.339H119.446V144.364L121.946 141.994C122.526 141.444 122.626 141.114 122.626 140.794C122.626 140.294 122.271 139.989 121.586 139.989C121.326 139.978 121.067 140.032 120.833 140.146C120.598 140.259 120.395 140.428 120.241 140.639L119.146 139.934C119.442 139.534 119.833 139.214 120.284 139.003C120.734 138.791 121.23 138.695 121.726 138.724C123.176 138.724 124.141 139.469 124.141 140.649C124.141 141.279 123.961 141.854 123.051 142.699L121.551 144.109H124.356Z" fill="#263238"/>
<path d="M124.961 142.088C124.961 139.943 126.151 138.723 127.746 138.723C129.341 138.723 130.531 139.943 130.531 142.088C130.531 144.233 129.351 145.448 127.746 145.448C126.141 145.448 124.961 144.233 124.961 142.088ZM129.021 142.088C129.021 140.588 128.521 139.998 127.746 139.998C126.971 139.998 126.486 140.608 126.486 142.088C126.486 143.568 126.986 144.173 127.746 144.173C128.506 144.173 129.001 143.563 129.001 142.088H129.021Z" fill="#263238"/>
<path d="M131.266 142.088C131.266 139.943 132.456 138.723 134.051 138.723C135.646 138.723 136.836 139.943 136.836 142.088C136.836 144.233 135.656 145.448 134.051 145.448C132.446 145.448 131.266 144.233 131.266 142.088ZM135.321 142.088C135.321 140.588 134.821 139.998 134.051 139.998C133.281 139.998 132.786 140.608 132.786 142.088C132.786 143.568 133.286 144.173 134.051 144.173C134.816 144.173 135.321 143.563 135.321 142.088Z" fill="#263238"/>
<path d="M135.576 161.889H114.846C113.56 161.887 112.327 161.376 111.418 160.467C110.509 159.557 109.997 158.324 109.996 157.039C109.996 155.752 110.507 154.518 111.416 153.607C112.326 152.697 113.559 152.185 114.846 152.184H135.576C136.213 152.184 136.845 152.309 137.433 152.553C138.022 152.797 138.557 153.155 139.007 153.606C139.458 154.057 139.815 154.592 140.058 155.181C140.302 155.77 140.427 156.401 140.426 157.039C140.426 158.325 139.915 159.559 139.006 160.468C138.096 161.378 136.862 161.889 135.576 161.889Z" fill="#263238"/>
<path d="M118.561 156.498C118.561 157.108 118.121 157.473 117.396 157.473H116.626V158.373H116.326V155.523H117.396C118.121 155.543 118.561 155.908 118.561 156.498ZM118.256 156.498C118.256 156.043 117.956 155.783 117.386 155.783H116.626V157.208H117.386C117.956 157.228 118.256 156.968 118.256 156.498Z" fill="white"/>
<path d="M120.746 157.064V158.394H120.471V158.059C120.391 158.179 120.28 158.275 120.149 158.338C120.019 158.4 119.875 158.427 119.731 158.414C119.231 158.414 118.951 158.164 118.951 157.789C118.951 157.414 119.161 157.184 119.776 157.184H120.456V157.054C120.456 156.689 120.251 156.489 119.851 156.489C119.591 156.485 119.337 156.574 119.136 156.739L119.006 156.524C119.255 156.328 119.565 156.226 119.881 156.234C119.996 156.218 120.112 156.228 120.222 156.263C120.332 156.298 120.433 156.358 120.516 156.438C120.6 156.518 120.664 156.616 120.704 156.725C120.743 156.833 120.758 156.949 120.746 157.064ZM120.456 157.749V157.399H119.786C119.371 157.399 119.236 157.564 119.236 157.784C119.236 158.004 119.436 158.189 119.776 158.189C119.922 158.199 120.066 158.161 120.189 158.082C120.311 158.002 120.405 157.886 120.456 157.749Z" fill="white"/>
<path d="M123.29 156.248L122.22 158.648C122.04 159.068 121.815 159.203 121.51 159.203C121.32 159.203 121.137 159.13 121 158.998L121.135 158.783C121.185 158.836 121.246 158.878 121.313 158.906C121.38 158.934 121.452 158.949 121.525 158.948C121.72 158.948 121.85 158.858 121.97 158.588L122.065 158.378L121.105 156.238H121.41L122.215 158.063L123 156.248H123.29Z" fill="white"/>
<path d="M125.737 158.415V158.885H125.532V158.42C125.173 158.417 124.827 158.286 124.557 158.05L124.677 157.815C124.913 158.025 125.215 158.147 125.532 158.16V157.09C125.082 156.98 124.627 156.84 124.627 156.3C124.627 155.91 124.907 155.57 125.532 155.525V155.055H125.737V155.5C126.03 155.505 126.315 155.591 126.562 155.75L126.462 155.99C126.243 155.853 125.994 155.772 125.737 155.755V156.835C126.197 156.945 126.682 157.075 126.682 157.62C126.682 158.035 126.382 158.38 125.737 158.415ZM125.532 156.805V155.805C125.112 155.84 124.922 156.055 124.922 156.305C124.922 156.555 125.197 156.715 125.532 156.805ZM126.382 157.66C126.382 157.335 126.087 157.225 125.737 157.16V158.16C126.182 158.125 126.382 157.92 126.382 157.66Z" fill="white"/>
<path d="M129.031 158.136V158.396H127.031V158.191L128.216 157.026C128.536 156.711 128.596 156.526 128.596 156.321C128.596 155.991 128.366 155.791 127.931 155.791C127.786 155.784 127.641 155.808 127.507 155.862C127.372 155.917 127.251 156 127.151 156.106L126.941 155.926C127.069 155.79 127.225 155.684 127.397 155.614C127.57 155.544 127.755 155.512 127.941 155.521C128.516 155.521 128.886 155.816 128.886 156.291C128.879 156.465 128.833 156.635 128.752 156.789C128.671 156.943 128.556 157.077 128.416 157.181L127.446 158.136H129.031Z" fill="white"/>
<path d="M129.381 156.97C129.381 156.06 129.856 155.52 130.516 155.52C131.176 155.52 131.656 156.06 131.656 156.97C131.656 157.88 131.156 158.42 130.516 158.42C129.876 158.42 129.381 157.88 129.381 156.97ZM131.356 156.97C131.356 156.21 131.016 155.79 130.516 155.79C130.016 155.79 129.676 156.21 129.676 156.97C129.676 157.73 130.021 158.15 130.516 158.15C131.011 158.15 131.356 157.73 131.356 156.97Z" fill="white"/>
<path d="M132.076 156.97C132.076 156.06 132.576 155.52 133.216 155.52C133.856 155.52 134.356 156.06 134.356 156.97C134.356 157.88 133.856 158.42 133.216 158.42C132.576 158.42 132.076 157.88 132.076 156.97ZM134.076 156.97C134.076 156.21 133.736 155.79 133.241 155.79C132.746 155.79 132.401 156.21 132.401 156.97C132.401 157.73 132.741 158.15 133.241 158.15C133.741 158.15 134.051 157.73 134.051 156.97H134.076Z" fill="white"/>
<path d="M93.8459 146.62C94.5959 158.145 89.2559 170.98 89.2559 170.98L60.4109 162.86L55.3809 161.44C60.3809 154.495 62.7609 140.815 61.4559 129.745C61.3559 128.91 61.2959 128.125 61.2509 127.375C60.7509 118.245 64.5459 115.575 67.7509 111.54C71.2509 107.17 79.0409 90.6702 79.0409 86.7652C79.0409 82.8602 88.8159 73.3002 86.6409 62.4502C86.6409 62.4502 89.5959 60.6152 92.5659 62.1202C93.9159 62.8002 95.2609 64.1652 96.3459 66.6952C98.8909 72.6402 95.3159 89.4452 92.2759 93.5652L86.4209 117.805C86.4209 117.805 88.3959 121.21 90.3359 127.39C92.2643 133.638 93.4426 140.094 93.8459 146.62Z" fill="white"/>
<path opacity="0.4" d="M61.2515 127.375C62.8865 131.85 64.6215 134.875 64.4715 141.145C64.3215 147.415 60.9715 157.065 61.9265 162.08C61.3809 162.241 60.8716 162.506 60.4265 162.86L55.3965 161.44C60.3965 154.495 62.7765 140.815 61.4715 129.745C61.3565 128.91 61.2965 128.125 61.2515 127.375Z" fill="#005AEE"/>
<path opacity="0.4" d="M92.275 93.5661L86.42 117.806C86.42 117.806 88.395 121.211 90.335 127.391C86.37 121.001 83 119.091 83 119.091C85.64 115.926 87.675 92.7761 87.675 92.7761C87.675 92.7761 95.95 83.0511 95.175 72.8761C94.9263 69.1682 94.0435 65.5305 92.565 62.1211C93.915 62.8011 95.26 64.1661 96.345 66.6961C98.89 72.6411 95.315 89.4461 92.275 93.5661Z" fill="#005AEE"/>
<path d="M55.3809 161.438C60.3809 154.493 62.7609 140.813 61.4609 129.743C60.1609 118.673 64.2809 115.903 67.7559 111.533C71.2309 107.163 79.0409 90.6678 79.0409 86.7578C79.0409 82.8478 88.8109 73.3028 86.6409 62.4478C86.6409 62.4478 92.8759 58.5828 96.3459 66.6928C98.8909 72.6428 95.3159 89.4428 92.2759 93.5678L86.4259 117.803C86.4259 117.803 92.6709 128.578 93.8459 146.618C94.5959 158.143 89.2559 170.983 89.2559 170.983" stroke="#263238" stroke-linecap="round" stroke-linejoin="round"/>
<path d="M74.6602 180.203C74.6602 180.203 81.2252 184.243 85.0552 190.633" stroke="#263238" stroke-linecap="round" stroke-linejoin="round"/>
<path d="M93.1009 187.848C93.1009 187.848 87.4459 188.653 82.3359 182.538C79.0609 178.623 69.1159 176.853 66.8359 166.613" stroke="#263238" stroke-linecap="round" stroke-linejoin="round"/>
<path opacity="0.2" d="M175.289 218.128C160.814 211.203 169.579 205.653 149.664 197.058C129.749 188.463 129.549 181.118 131.949 164.228C134.349 147.338 132.449 129.373 138.239 127.848C144.029 126.323 133.709 103.028 140.459 94.793L173.679 159.413L175.289 218.128Z" fill="black" fill-opacity="0.7"/>
<path d="M229.225 217.456C228.545 215.511 227.855 213.386 227.32 211.456C226.63 208.956 226.09 206.956 224.82 204.631C224.62 204.261 224.405 203.871 224.165 203.451C222.81 201.036 220.955 197.731 219.87 193.671C219.14 190.936 219.87 184.201 220.55 177.671C221.05 172.981 221.505 168.556 221.37 166.046L221.33 165.156C220.99 158.591 220.28 144.931 218.83 141.156C217.405 137.516 216.075 136.971 213.65 136.001C213.4 135.891 213.15 135.791 212.86 135.671C211.95 135.291 210.4 134.491 208.615 133.566C204.59 131.481 199.58 128.886 197.035 128.566C194.654 128.298 192.246 128.41 189.9 128.896C186.765 126.491 181.43 123.396 179.84 123.331C178.54 123.266 175.7 124.081 174.34 124.506L173.655 124.726C172.794 124.058 171.881 123.459 170.925 122.936C170.86 122.901 170.795 122.876 170.74 122.851C168.975 122.126 166.31 122.101 164.855 122.141C164.415 122.141 164.07 122.186 163.915 122.201C161.17 117.976 158.47 113.771 157.295 111.926C154.845 108.046 147.26 92.081 147.185 91.926C147.176 91.9054 147.163 91.8873 147.145 91.8734C147.128 91.8594 147.107 91.85 147.085 91.846C147.062 91.8428 147.038 91.8428 147.015 91.846C146.425 91.676 142.08 90.571 140.335 94.781C138.425 99.366 141.15 109.431 143.81 113.086C145.09 114.846 148.585 122.026 152.13 129.456C151.22 130.301 143.94 137.026 140.405 138.281C137.51 139.306 138.19 154.146 138.735 166.061C138.94 170.461 139.11 174.246 139.06 176.521C138.96 180.921 146.965 186.981 154.725 192.841C161.725 198.151 168.985 203.636 169.835 207.621C170.07 208.741 170.74 209.651 171.54 210.676C172.875 212.376 174.595 214.381 175.325 218.176C175.54 219.316 177.37 220.806 178.825 223.241H231.345C230.905 222.056 230.075 219.896 229.225 217.456ZM156.39 138.406C158.935 143.736 160.51 146.906 160.89 147.261C161.27 147.616 161.245 149.306 161.235 150.951C161.18 152.391 161.231 153.833 161.385 155.266C160.765 155.811 156.85 159.376 156.06 162.266L152.735 158.351L151.895 146.066C152.395 145.536 155.815 141.921 156.39 138.406Z" fill="white"/>
<path opacity="0.4" d="M214.154 172.655C215.389 184.18 215.404 190.43 216.789 193.765C219.129 199.395 222.574 200.535 222.574 200.535C221.428 198.353 220.518 196.055 219.859 193.68C219.134 190.945 219.859 184.21 220.539 177.68C221.039 172.99 221.499 168.56 221.369 166.05L221.324 165.16C220.984 158.6 220.274 144.94 218.824 141.16C217.404 137.52 216.069 136.975 213.644 136C213.394 135.895 213.144 135.795 212.854 135.675C211.944 135.295 210.399 134.495 208.609 133.57C204.584 131.485 199.574 128.89 197.029 128.57C194.648 128.299 192.239 128.411 189.894 128.9C186.759 126.495 181.424 123.4 179.834 123.335C178.534 123.27 175.009 124.295 173.639 124.73C179.639 129.625 188.279 135.73 188.279 135.73C195.114 137.09 194.239 140.055 197.004 141.73C199.504 143.23 201.894 138.84 204.004 138.455C206.764 137.955 209.899 140.865 209.759 144.395C209.329 154.12 213.094 162.76 214.154 172.655Z" fill="#005AEE"/>
<path opacity="0.4" d="M179.605 136.938C179.605 136.938 174.19 132.438 171.605 130.938C169.02 129.438 168.605 124.268 170.645 123.013C170.723 122.967 170.81 122.939 170.9 122.933L170.715 122.848C168.95 122.123 166.285 122.093 164.83 122.138C167.83 127.723 170.225 132.008 170.87 132.948C173.045 136.088 179.605 136.938 179.605 136.938Z" fill="#005AEE"/>
<path opacity="0.4" d="M171.39 206.92C171.62 205.725 169.65 202.225 168.785 200.805C166.82 197.565 144.005 177.405 147.31 172.025C150.615 166.645 153.635 170.625 155.725 170.975C157.225 171.225 161.345 168.77 161.325 168.565C160.855 164.42 164.68 161.725 164.68 161.725C164.68 161.725 164.33 145.225 163.45 145.505C162.57 145.785 152.04 120.73 152.04 120.73C152.04 120.73 140.91 105.93 141.54 99.0247C142.17 92.1197 147 91.9997 147 91.9997V91.8147C146.41 91.6447 142.065 90.5397 140.32 94.7497C138.41 99.3347 141.135 109.4 143.795 113.055C145.075 114.815 148.57 121.995 152.115 129.425C151.205 130.27 143.925 136.995 140.39 138.25C137.495 139.275 138.175 154.115 138.72 166.03C138.925 170.43 139.095 174.215 139.045 176.49C138.945 180.89 146.95 186.95 154.71 192.81C161.71 198.12 168.97 203.605 169.82 207.59C170.055 208.71 170.725 209.62 171.525 210.645C171.365 209.41 171.32 208.163 171.39 206.92ZM156.39 138.42C158.935 143.75 160.51 146.92 160.89 147.275C161.27 147.63 161.245 149.32 161.235 150.965C161.18 152.405 161.23 153.847 161.385 155.28C160.765 155.825 156.85 159.39 156.06 162.28L152.735 158.365L151.895 146.08C152.395 145.535 155.815 141.92 156.39 138.405V138.42Z" fill="#005AEE"/>
<path d="M176.5 136.876C174.266 136.173 172.303 134.797 170.88 132.936C168.595 129.876 159.62 115.936 157.135 112.006C154.65 108.076 147 92.0015 147 92.0015C147 92.0015 142.3 90.4265 140.47 94.8165C138.64 99.2065 141.145 109.126 143.93 112.946C146.715 116.766 159.95 146.181 161 147.131C162.05 148.081 160.475 155.931 162.58 157.831" stroke="#263238" stroke-linecap="round" stroke-linejoin="round"/>
<path d="M161.569 155.336C161.569 155.336 156.719 159.561 156.149 162.646L152.549 158.411L151.699 146.001C151.699 146.001 156.044 141.651 156.284 137.781" stroke="#263238" stroke-linecap="round" stroke-linejoin="round"/>
<path d="M152.314 129.441C152.314 129.441 144.259 137.041 140.429 138.396C136.599 139.751 139.394 168.226 139.204 176.471C139.014 184.716 168.179 199.081 169.969 207.521C170.679 210.881 173.619 211.566 175.414 218.021" stroke="#263238" stroke-linecap="round" stroke-linejoin="round"/>
<path d="M163.779 122.363C163.779 122.363 168.164 121.968 170.634 122.998C173.104 124.028 183.134 132.643 185.554 134.288C187.974 135.933 191.614 136.558 192.304 138.333" stroke="#263238" stroke-linecap="round" stroke-linejoin="round"/>
<path d="M173.584 124.903C173.584 124.903 178.084 123.403 179.804 123.488C181.524 123.573 187.994 127.388 190.894 129.938C193.116 131.909 195.675 133.464 198.449 134.528" stroke="#263238" stroke-linecap="round" stroke-linejoin="round"/>
<path d="M189.84 129.074C192.188 128.568 194.604 128.451 196.99 128.729C200.65 129.229 209.84 134.629 212.77 135.849C215.7 137.069 217.1 137.294 218.64 141.234C220.18 145.174 220.885 160.154 221.195 166.074C221.505 171.994 218.42 188.949 219.695 193.719C220.97 198.489 223.27 202.169 224.665 204.719" stroke="#263238" stroke-linecap="round" stroke-linejoin="round"/>
<path d="M151.7 145.999C151.7 145.999 151 143.074 150 142.699" stroke="#263238" stroke-linecap="round" stroke-linejoin="round"/>
<path d="M152.549 158.41C152.886 160.115 153.342 161.794 153.914 163.435C154.634 165.21 153.514 167.78 153.514 167.78" stroke="#263238" stroke-linecap="round" stroke-linejoin="round"/>
<path d="M156.15 162.645C156.035 165.485 158.86 168.805 159.545 168.335" stroke="#263238" stroke-linecap="round" stroke-linejoin="round"/>
<path d="M170.535 145.999C170.535 145.999 173.57 141.089 176.48 140.849C179.39 140.609 182.75 144.739 184.545 144.349C186.34 143.959 188.6 141.319 191.62 140.849C194.64 140.379 196.055 141.819 198.45 141.939C200.845 142.059 201.09 138.859 203.95 138.439C206.81 138.019 207.785 139.439 209.705 139.809C211.625 140.179 212.105 138.664 213.66 137.809" stroke="#263238" stroke-linecap="round" stroke-linejoin="round"/>
</svg>
