<svg width="32" height="32" viewBox="0 0 32 32" fill="none" xmlns="http://www.w3.org/2000/svg">
<path d="M15.9993 24H5.33268C4.62544 24 3.94716 23.719 3.44706 23.219C2.94697 22.7189 2.66602 22.0406 2.66602 21.3333V10.6667C2.66602 9.95942 2.94697 9.28115 3.44706 8.78105C3.94716 8.28095 4.62544 8 5.33268 8H26.666C27.3733 8 28.0515 8.28095 28.5516 8.78105C29.0517 9.28115 29.3327 9.95942 29.3327 10.6667V17.3333M21.3327 25.3333L25.3327 29.3333M25.3327 29.3333L29.3327 25.3333M25.3327 29.3333V21.3333M23.9993 16H24.0127M7.99935 16H8.01268M18.666 16C18.666 17.4728 17.4721 18.6667 15.9993 18.6667C14.5266 18.6667 13.3327 17.4728 13.3327 16C13.3327 14.5272 14.5266 13.3333 15.9993 13.3333C17.4721 13.3333 18.666 14.5272 18.666 16Z" stroke="black" stroke-width="2" stroke-linecap="round" stroke-linejoin="round"/>
</svg>
